<?xml version="1.0" encoding="utf-8" standalone="no"?>
<!DOCTYPE svg PUBLIC "-//W3C//DTD SVG 1.1//EN"
  "http://www.w3.org/Graphics/SVG/1.1/DTD/svg11.dtd">
<!-- Created with matplotlib (https://matplotlib.org/) -->
<svg height="216pt" version="1.1" viewBox="0 0 288 216" width="288pt" xmlns="http://www.w3.org/2000/svg" xmlns:xlink="http://www.w3.org/1999/xlink">
 <defs>
  <style type="text/css">
*{stroke-linecap:butt;stroke-linejoin:round;}
  </style>
 </defs>
 <g id="figure_1">
  <g id="patch_1">
   <path d="M 0 216 
L 288 216 
L 288 0 
L 0 0 
z
" style="fill:#ffffff;"/>
  </g>
  <g id="axes_1">
   <g id="patch_2">
    <path d="M 36 189 
L 259.2 189 
L 259.2 25.92 
L 36 25.92 
z
" style="fill:#ffffff;"/>
   </g>
   <g id="matplotlib.axis_1">
    <g id="xtick_1">
     <g id="line2d_1">
      <path clip-path="url(#p5bbfb75ded)" d="M 46.145455 189 
L 46.145455 25.92 
" style="fill:none;stroke:#b0b0b0;stroke-linecap:square;stroke-width:0.8;"/>
     </g>
     <g id="line2d_2">
      <defs>
       <path d="M 0 0 
L 0 3.5 
" id="m6705b6e44d" style="stroke:#000000;stroke-width:0.8;"/>
      </defs>
      <g>
       <use style="stroke:#000000;stroke-width:0.8;" x="46.145455" xlink:href="#m6705b6e44d" y="189"/>
      </g>
     </g>
     <g id="text_1">
      <!-- 0.0 -->
      <defs>
       <path d="M 31.78125 66.40625 
Q 24.171875 66.40625 20.328125 58.90625 
Q 16.5 51.421875 16.5 36.375 
Q 16.5 21.390625 20.328125 13.890625 
Q 24.171875 6.390625 31.78125 6.390625 
Q 39.453125 6.390625 43.28125 13.890625 
Q 47.125 21.390625 47.125 36.375 
Q 47.125 51.421875 43.28125 58.90625 
Q 39.453125 66.40625 31.78125 66.40625 
z
M 31.78125 74.21875 
Q 44.046875 74.21875 50.515625 64.515625 
Q 56.984375 54.828125 56.984375 36.375 
Q 56.984375 17.96875 50.515625 8.265625 
Q 44.046875 -1.421875 31.78125 -1.421875 
Q 19.53125 -1.421875 13.0625 8.265625 
Q 6.59375 17.96875 6.59375 36.375 
Q 6.59375 54.828125 13.0625 64.515625 
Q 19.53125 74.21875 31.78125 74.21875 
z
" id="DejaVuSans-48"/>
       <path d="M 10.6875 12.40625 
L 21 12.40625 
L 21 0 
L 10.6875 0 
z
" id="DejaVuSans-46"/>
      </defs>
      <g transform="translate(38.193892 203.598437)scale(0.1 -0.1)">
       <use xlink:href="#DejaVuSans-48"/>
       <use x="63.623047" xlink:href="#DejaVuSans-46"/>
       <use x="95.410156" xlink:href="#DejaVuSans-48"/>
      </g>
     </g>
    </g>
    <g id="xtick_2">
     <g id="line2d_3">
      <path clip-path="url(#p5bbfb75ded)" d="M 97.789407 189 
L 97.789407 25.92 
" style="fill:none;stroke:#b0b0b0;stroke-linecap:square;stroke-width:0.8;"/>
     </g>
     <g id="line2d_4">
      <g>
       <use style="stroke:#000000;stroke-width:0.8;" x="97.789407" xlink:href="#m6705b6e44d" y="189"/>
      </g>
     </g>
     <g id="text_2">
      <!-- 0.5 -->
      <defs>
       <path d="M 10.796875 72.90625 
L 49.515625 72.90625 
L 49.515625 64.59375 
L 19.828125 64.59375 
L 19.828125 46.734375 
Q 21.96875 47.46875 24.109375 47.828125 
Q 26.265625 48.1875 28.421875 48.1875 
Q 40.625 48.1875 47.75 41.5 
Q 54.890625 34.8125 54.890625 23.390625 
Q 54.890625 11.625 47.5625 5.09375 
Q 40.234375 -1.421875 26.90625 -1.421875 
Q 22.3125 -1.421875 17.546875 -0.640625 
Q 12.796875 0.140625 7.71875 1.703125 
L 7.71875 11.625 
Q 12.109375 9.234375 16.796875 8.0625 
Q 21.484375 6.890625 26.703125 6.890625 
Q 35.15625 6.890625 40.078125 11.328125 
Q 45.015625 15.765625 45.015625 23.390625 
Q 45.015625 31 40.078125 35.4375 
Q 35.15625 39.890625 26.703125 39.890625 
Q 22.75 39.890625 18.8125 39.015625 
Q 14.890625 38.140625 10.796875 36.28125 
z
" id="DejaVuSans-53"/>
      </defs>
      <g transform="translate(89.837845 203.598437)scale(0.1 -0.1)">
       <use xlink:href="#DejaVuSans-48"/>
       <use x="63.623047" xlink:href="#DejaVuSans-46"/>
       <use x="95.410156" xlink:href="#DejaVuSans-53"/>
      </g>
     </g>
    </g>
    <g id="xtick_3">
     <g id="line2d_5">
      <path clip-path="url(#p5bbfb75ded)" d="M 149.43336 189 
L 149.43336 25.92 
" style="fill:none;stroke:#b0b0b0;stroke-linecap:square;stroke-width:0.8;"/>
     </g>
     <g id="line2d_6">
      <g>
       <use style="stroke:#000000;stroke-width:0.8;" x="149.43336" xlink:href="#m6705b6e44d" y="189"/>
      </g>
     </g>
     <g id="text_3">
      <!-- 1.0 -->
      <defs>
       <path d="M 12.40625 8.296875 
L 28.515625 8.296875 
L 28.515625 63.921875 
L 10.984375 60.40625 
L 10.984375 69.390625 
L 28.421875 72.90625 
L 38.28125 72.90625 
L 38.28125 8.296875 
L 54.390625 8.296875 
L 54.390625 0 
L 12.40625 0 
z
" id="DejaVuSans-49"/>
      </defs>
      <g transform="translate(141.481798 203.598437)scale(0.1 -0.1)">
       <use xlink:href="#DejaVuSans-49"/>
       <use x="63.623047" xlink:href="#DejaVuSans-46"/>
       <use x="95.410156" xlink:href="#DejaVuSans-48"/>
      </g>
     </g>
    </g>
    <g id="xtick_4">
     <g id="line2d_7">
      <path clip-path="url(#p5bbfb75ded)" d="M 201.077313 189 
L 201.077313 25.92 
" style="fill:none;stroke:#b0b0b0;stroke-linecap:square;stroke-width:0.8;"/>
     </g>
     <g id="line2d_8">
      <g>
       <use style="stroke:#000000;stroke-width:0.8;" x="201.077313" xlink:href="#m6705b6e44d" y="189"/>
      </g>
     </g>
     <g id="text_4">
      <!-- 1.5 -->
      <g transform="translate(193.125751 203.598437)scale(0.1 -0.1)">
       <use xlink:href="#DejaVuSans-49"/>
       <use x="63.623047" xlink:href="#DejaVuSans-46"/>
       <use x="95.410156" xlink:href="#DejaVuSans-53"/>
      </g>
     </g>
    </g>
    <g id="xtick_5">
     <g id="line2d_9">
      <path clip-path="url(#p5bbfb75ded)" d="M 252.721266 189 
L 252.721266 25.92 
" style="fill:none;stroke:#b0b0b0;stroke-linecap:square;stroke-width:0.8;"/>
     </g>
     <g id="line2d_10">
      <g>
       <use style="stroke:#000000;stroke-width:0.8;" x="252.721266" xlink:href="#m6705b6e44d" y="189"/>
      </g>
     </g>
     <g id="text_5">
      <!-- 2.0 -->
      <defs>
       <path d="M 19.1875 8.296875 
L 53.609375 8.296875 
L 53.609375 0 
L 7.328125 0 
L 7.328125 8.296875 
Q 12.9375 14.109375 22.625 23.890625 
Q 32.328125 33.6875 34.8125 36.53125 
Q 39.546875 41.84375 41.421875 45.53125 
Q 43.3125 49.21875 43.3125 52.78125 
Q 43.3125 58.59375 39.234375 62.25 
Q 35.15625 65.921875 28.609375 65.921875 
Q 23.96875 65.921875 18.8125 64.3125 
Q 13.671875 62.703125 7.8125 59.421875 
L 7.8125 69.390625 
Q 13.765625 71.78125 18.9375 73 
Q 24.125 74.21875 28.421875 74.21875 
Q 39.75 74.21875 46.484375 68.546875 
Q 53.21875 62.890625 53.21875 53.421875 
Q 53.21875 48.921875 51.53125 44.890625 
Q 49.859375 40.875 45.40625 35.40625 
Q 44.1875 33.984375 37.640625 27.21875 
Q 31.109375 20.453125 19.1875 8.296875 
z
" id="DejaVuSans-50"/>
      </defs>
      <g transform="translate(244.769704 203.598437)scale(0.1 -0.1)">
       <use xlink:href="#DejaVuSans-50"/>
       <use x="63.623047" xlink:href="#DejaVuSans-46"/>
       <use x="95.410156" xlink:href="#DejaVuSans-48"/>
      </g>
     </g>
    </g>
    <g id="text_6">
     <!-- time -->
     <defs>
      <path d="M 18.3125 70.21875 
L 18.3125 54.6875 
L 36.8125 54.6875 
L 36.8125 47.703125 
L 18.3125 47.703125 
L 18.3125 18.015625 
Q 18.3125 11.328125 20.140625 9.421875 
Q 21.96875 7.515625 27.59375 7.515625 
L 36.8125 7.515625 
L 36.8125 0 
L 27.59375 0 
Q 17.1875 0 13.234375 3.875 
Q 9.28125 7.765625 9.28125 18.015625 
L 9.28125 47.703125 
L 2.6875 47.703125 
L 2.6875 54.6875 
L 9.28125 54.6875 
L 9.28125 70.21875 
z
" id="DejaVuSans-116"/>
      <path d="M 9.421875 54.6875 
L 18.40625 54.6875 
L 18.40625 0 
L 9.421875 0 
z
M 9.421875 75.984375 
L 18.40625 75.984375 
L 18.40625 64.59375 
L 9.421875 64.59375 
z
" id="DejaVuSans-105"/>
      <path d="M 52 44.1875 
Q 55.375 50.25 60.0625 53.125 
Q 64.75 56 71.09375 56 
Q 79.640625 56 84.28125 50.015625 
Q 88.921875 44.046875 88.921875 33.015625 
L 88.921875 0 
L 79.890625 0 
L 79.890625 32.71875 
Q 79.890625 40.578125 77.09375 44.375 
Q 74.3125 48.1875 68.609375 48.1875 
Q 61.625 48.1875 57.5625 43.546875 
Q 53.515625 38.921875 53.515625 30.90625 
L 53.515625 0 
L 44.484375 0 
L 44.484375 32.71875 
Q 44.484375 40.625 41.703125 44.40625 
Q 38.921875 48.1875 33.109375 48.1875 
Q 26.21875 48.1875 22.15625 43.53125 
Q 18.109375 38.875 18.109375 30.90625 
L 18.109375 0 
L 9.078125 0 
L 9.078125 54.6875 
L 18.109375 54.6875 
L 18.109375 46.1875 
Q 21.1875 51.21875 25.484375 53.609375 
Q 29.78125 56 35.6875 56 
Q 41.65625 56 45.828125 52.96875 
Q 50 49.953125 52 44.1875 
z
" id="DejaVuSans-109"/>
      <path d="M 56.203125 29.59375 
L 56.203125 25.203125 
L 14.890625 25.203125 
Q 15.484375 15.921875 20.484375 11.0625 
Q 25.484375 6.203125 34.421875 6.203125 
Q 39.59375 6.203125 44.453125 7.46875 
Q 49.3125 8.734375 54.109375 11.28125 
L 54.109375 2.78125 
Q 49.265625 0.734375 44.1875 -0.34375 
Q 39.109375 -1.421875 33.890625 -1.421875 
Q 20.796875 -1.421875 13.15625 6.1875 
Q 5.515625 13.8125 5.515625 26.8125 
Q 5.515625 40.234375 12.765625 48.109375 
Q 20.015625 56 32.328125 56 
Q 43.359375 56 49.78125 48.890625 
Q 56.203125 41.796875 56.203125 29.59375 
z
M 47.21875 32.234375 
Q 47.125 39.59375 43.09375 43.984375 
Q 39.0625 48.390625 32.421875 48.390625 
Q 24.90625 48.390625 20.390625 44.140625 
Q 15.875 39.890625 15.1875 32.171875 
z
" id="DejaVuSans-101"/>
     </defs>
     <g transform="translate(136.303906 217.276563)scale(0.1 -0.1)">
      <use xlink:href="#DejaVuSans-116"/>
      <use x="39.208984" xlink:href="#DejaVuSans-105"/>
      <use x="66.992188" xlink:href="#DejaVuSans-109"/>
      <use x="164.404297" xlink:href="#DejaVuSans-101"/>
     </g>
    </g>
    <g id="text_7">
     <!-- 1e10 -->
     <g transform="translate(233.959375 216.276563)scale(0.1 -0.1)">
      <use xlink:href="#DejaVuSans-49"/>
      <use x="63.623047" xlink:href="#DejaVuSans-101"/>
      <use x="125.146484" xlink:href="#DejaVuSans-49"/>
      <use x="188.769531" xlink:href="#DejaVuSans-48"/>
     </g>
    </g>
   </g>
   <g id="matplotlib.axis_2">
    <g id="ytick_1">
     <g id="line2d_11">
      <path clip-path="url(#p5bbfb75ded)" d="M 36 183.374916 
L 259.2 183.374916 
" style="fill:none;stroke:#b0b0b0;stroke-linecap:square;stroke-width:0.8;"/>
     </g>
     <g id="line2d_12">
      <defs>
       <path d="M 0 0 
L -3.5 0 
" id="ma967e0790d" style="stroke:#000000;stroke-width:0.8;"/>
      </defs>
      <g>
       <use style="stroke:#000000;stroke-width:0.8;" x="36" xlink:href="#ma967e0790d" y="183.374916"/>
      </g>
     </g>
     <g id="text_8">
      <!-- 0 -->
      <g transform="translate(22.6375 187.174135)scale(0.1 -0.1)">
       <use xlink:href="#DejaVuSans-48"/>
      </g>
     </g>
    </g>
    <g id="ytick_2">
     <g id="line2d_13">
      <path clip-path="url(#p5bbfb75ded)" d="M 36 162.155747 
L 259.2 162.155747 
" style="fill:none;stroke:#b0b0b0;stroke-linecap:square;stroke-width:0.8;"/>
     </g>
     <g id="line2d_14">
      <g>
       <use style="stroke:#000000;stroke-width:0.8;" x="36" xlink:href="#ma967e0790d" y="162.155747"/>
      </g>
     </g>
     <g id="text_9">
      <!-- 2 -->
      <g transform="translate(22.6375 165.954966)scale(0.1 -0.1)">
       <use xlink:href="#DejaVuSans-50"/>
      </g>
     </g>
    </g>
    <g id="ytick_3">
     <g id="line2d_15">
      <path clip-path="url(#p5bbfb75ded)" d="M 36 140.936577 
L 259.2 140.936577 
" style="fill:none;stroke:#b0b0b0;stroke-linecap:square;stroke-width:0.8;"/>
     </g>
     <g id="line2d_16">
      <g>
       <use style="stroke:#000000;stroke-width:0.8;" x="36" xlink:href="#ma967e0790d" y="140.936577"/>
      </g>
     </g>
     <g id="text_10">
      <!-- 4 -->
      <defs>
       <path d="M 37.796875 64.3125 
L 12.890625 25.390625 
L 37.796875 25.390625 
z
M 35.203125 72.90625 
L 47.609375 72.90625 
L 47.609375 25.390625 
L 58.015625 25.390625 
L 58.015625 17.1875 
L 47.609375 17.1875 
L 47.609375 0 
L 37.796875 0 
L 37.796875 17.1875 
L 4.890625 17.1875 
L 4.890625 26.703125 
z
" id="DejaVuSans-52"/>
      </defs>
      <g transform="translate(22.6375 144.735796)scale(0.1 -0.1)">
       <use xlink:href="#DejaVuSans-52"/>
      </g>
     </g>
    </g>
    <g id="ytick_4">
     <g id="line2d_17">
      <path clip-path="url(#p5bbfb75ded)" d="M 36 119.717408 
L 259.2 119.717408 
" style="fill:none;stroke:#b0b0b0;stroke-linecap:square;stroke-width:0.8;"/>
     </g>
     <g id="line2d_18">
      <g>
       <use style="stroke:#000000;stroke-width:0.8;" x="36" xlink:href="#ma967e0790d" y="119.717408"/>
      </g>
     </g>
     <g id="text_11">
      <!-- 6 -->
      <defs>
       <path d="M 33.015625 40.375 
Q 26.375 40.375 22.484375 35.828125 
Q 18.609375 31.296875 18.609375 23.390625 
Q 18.609375 15.53125 22.484375 10.953125 
Q 26.375 6.390625 33.015625 6.390625 
Q 39.65625 6.390625 43.53125 10.953125 
Q 47.40625 15.53125 47.40625 23.390625 
Q 47.40625 31.296875 43.53125 35.828125 
Q 39.65625 40.375 33.015625 40.375 
z
M 52.59375 71.296875 
L 52.59375 62.3125 
Q 48.875 64.0625 45.09375 64.984375 
Q 41.3125 65.921875 37.59375 65.921875 
Q 27.828125 65.921875 22.671875 59.328125 
Q 17.53125 52.734375 16.796875 39.40625 
Q 19.671875 43.65625 24.015625 45.921875 
Q 28.375 48.1875 33.59375 48.1875 
Q 44.578125 48.1875 50.953125 41.515625 
Q 57.328125 34.859375 57.328125 23.390625 
Q 57.328125 12.15625 50.6875 5.359375 
Q 44.046875 -1.421875 33.015625 -1.421875 
Q 20.359375 -1.421875 13.671875 8.265625 
Q 6.984375 17.96875 6.984375 36.375 
Q 6.984375 53.65625 15.1875 63.9375 
Q 23.390625 74.21875 37.203125 74.21875 
Q 40.921875 74.21875 44.703125 73.484375 
Q 48.484375 72.75 52.59375 71.296875 
z
" id="DejaVuSans-54"/>
      </defs>
      <g transform="translate(22.6375 123.516627)scale(0.1 -0.1)">
       <use xlink:href="#DejaVuSans-54"/>
      </g>
     </g>
    </g>
    <g id="ytick_5">
     <g id="line2d_19">
      <path clip-path="url(#p5bbfb75ded)" d="M 36 98.498238 
L 259.2 98.498238 
" style="fill:none;stroke:#b0b0b0;stroke-linecap:square;stroke-width:0.8;"/>
     </g>
     <g id="line2d_20">
      <g>
       <use style="stroke:#000000;stroke-width:0.8;" x="36" xlink:href="#ma967e0790d" y="98.498238"/>
      </g>
     </g>
     <g id="text_12">
      <!-- 8 -->
      <defs>
       <path d="M 31.78125 34.625 
Q 24.75 34.625 20.71875 30.859375 
Q 16.703125 27.09375 16.703125 20.515625 
Q 16.703125 13.921875 20.71875 10.15625 
Q 24.75 6.390625 31.78125 6.390625 
Q 38.8125 6.390625 42.859375 10.171875 
Q 46.921875 13.96875 46.921875 20.515625 
Q 46.921875 27.09375 42.890625 30.859375 
Q 38.875 34.625 31.78125 34.625 
z
M 21.921875 38.8125 
Q 15.578125 40.375 12.03125 44.71875 
Q 8.5 49.078125 8.5 55.328125 
Q 8.5 64.0625 14.71875 69.140625 
Q 20.953125 74.21875 31.78125 74.21875 
Q 42.671875 74.21875 48.875 69.140625 
Q 55.078125 64.0625 55.078125 55.328125 
Q 55.078125 49.078125 51.53125 44.71875 
Q 48 40.375 41.703125 38.8125 
Q 48.828125 37.15625 52.796875 32.3125 
Q 56.78125 27.484375 56.78125 20.515625 
Q 56.78125 9.90625 50.3125 4.234375 
Q 43.84375 -1.421875 31.78125 -1.421875 
Q 19.734375 -1.421875 13.25 4.234375 
Q 6.78125 9.90625 6.78125 20.515625 
Q 6.78125 27.484375 10.78125 32.3125 
Q 14.796875 37.15625 21.921875 38.8125 
z
M 18.3125 54.390625 
Q 18.3125 48.734375 21.84375 45.5625 
Q 25.390625 42.390625 31.78125 42.390625 
Q 38.140625 42.390625 41.71875 45.5625 
Q 45.3125 48.734375 45.3125 54.390625 
Q 45.3125 60.0625 41.71875 63.234375 
Q 38.140625 66.40625 31.78125 66.40625 
Q 25.390625 66.40625 21.84375 63.234375 
Q 18.3125 60.0625 18.3125 54.390625 
z
" id="DejaVuSans-56"/>
      </defs>
      <g transform="translate(22.6375 102.297457)scale(0.1 -0.1)">
       <use xlink:href="#DejaVuSans-56"/>
      </g>
     </g>
    </g>
    <g id="ytick_6">
     <g id="line2d_21">
      <path clip-path="url(#p5bbfb75ded)" d="M 36 77.279069 
L 259.2 77.279069 
" style="fill:none;stroke:#b0b0b0;stroke-linecap:square;stroke-width:0.8;"/>
     </g>
     <g id="line2d_22">
      <g>
       <use style="stroke:#000000;stroke-width:0.8;" x="36" xlink:href="#ma967e0790d" y="77.279069"/>
      </g>
     </g>
     <g id="text_13">
      <!-- 10 -->
      <g transform="translate(16.275 81.078288)scale(0.1 -0.1)">
       <use xlink:href="#DejaVuSans-49"/>
       <use x="63.623047" xlink:href="#DejaVuSans-48"/>
      </g>
     </g>
    </g>
    <g id="ytick_7">
     <g id="line2d_23">
      <path clip-path="url(#p5bbfb75ded)" d="M 36 56.0599 
L 259.2 56.0599 
" style="fill:none;stroke:#b0b0b0;stroke-linecap:square;stroke-width:0.8;"/>
     </g>
     <g id="line2d_24">
      <g>
       <use style="stroke:#000000;stroke-width:0.8;" x="36" xlink:href="#ma967e0790d" y="56.0599"/>
      </g>
     </g>
     <g id="text_14">
      <!-- 12 -->
      <g transform="translate(16.275 59.859118)scale(0.1 -0.1)">
       <use xlink:href="#DejaVuSans-49"/>
       <use x="63.623047" xlink:href="#DejaVuSans-50"/>
      </g>
     </g>
    </g>
    <g id="ytick_8">
     <g id="line2d_25">
      <path clip-path="url(#p5bbfb75ded)" d="M 36 34.84073 
L 259.2 34.84073 
" style="fill:none;stroke:#b0b0b0;stroke-linecap:square;stroke-width:0.8;"/>
     </g>
     <g id="line2d_26">
      <g>
       <use style="stroke:#000000;stroke-width:0.8;" x="36" xlink:href="#ma967e0790d" y="34.84073"/>
      </g>
     </g>
     <g id="text_15">
      <!-- 14 -->
      <g transform="translate(16.275 38.639949)scale(0.1 -0.1)">
       <use xlink:href="#DejaVuSans-49"/>
       <use x="63.623047" xlink:href="#DejaVuSans-52"/>
      </g>
     </g>
    </g>
    <g id="text_16">
     <!-- error (rho) -->
     <defs>
      <path d="M 41.109375 46.296875 
Q 39.59375 47.171875 37.8125 47.578125 
Q 36.03125 48 33.890625 48 
Q 26.265625 48 22.1875 43.046875 
Q 18.109375 38.09375 18.109375 28.8125 
L 18.109375 0 
L 9.078125 0 
L 9.078125 54.6875 
L 18.109375 54.6875 
L 18.109375 46.1875 
Q 20.953125 51.171875 25.484375 53.578125 
Q 30.03125 56 36.53125 56 
Q 37.453125 56 38.578125 55.875 
Q 39.703125 55.765625 41.0625 55.515625 
z
" id="DejaVuSans-114"/>
      <path d="M 30.609375 48.390625 
Q 23.390625 48.390625 19.1875 42.75 
Q 14.984375 37.109375 14.984375 27.296875 
Q 14.984375 17.484375 19.15625 11.84375 
Q 23.34375 6.203125 30.609375 6.203125 
Q 37.796875 6.203125 41.984375 11.859375 
Q 46.1875 17.53125 46.1875 27.296875 
Q 46.1875 37.015625 41.984375 42.703125 
Q 37.796875 48.390625 30.609375 48.390625 
z
M 30.609375 56 
Q 42.328125 56 49.015625 48.375 
Q 55.71875 40.765625 55.71875 27.296875 
Q 55.71875 13.875 49.015625 6.21875 
Q 42.328125 -1.421875 30.609375 -1.421875 
Q 18.84375 -1.421875 12.171875 6.21875 
Q 5.515625 13.875 5.515625 27.296875 
Q 5.515625 40.765625 12.171875 48.375 
Q 18.84375 56 30.609375 56 
z
" id="DejaVuSans-111"/>
      <path id="DejaVuSans-32"/>
      <path d="M 31 75.875 
Q 24.46875 64.65625 21.28125 53.65625 
Q 18.109375 42.671875 18.109375 31.390625 
Q 18.109375 20.125 21.3125 9.0625 
Q 24.515625 -2 31 -13.1875 
L 23.1875 -13.1875 
Q 15.875 -1.703125 12.234375 9.375 
Q 8.59375 20.453125 8.59375 31.390625 
Q 8.59375 42.28125 12.203125 53.3125 
Q 15.828125 64.359375 23.1875 75.875 
z
" id="DejaVuSans-40"/>
      <path d="M 54.890625 33.015625 
L 54.890625 0 
L 45.90625 0 
L 45.90625 32.71875 
Q 45.90625 40.484375 42.875 44.328125 
Q 39.84375 48.1875 33.796875 48.1875 
Q 26.515625 48.1875 22.3125 43.546875 
Q 18.109375 38.921875 18.109375 30.90625 
L 18.109375 0 
L 9.078125 0 
L 9.078125 75.984375 
L 18.109375 75.984375 
L 18.109375 46.1875 
Q 21.34375 51.125 25.703125 53.5625 
Q 30.078125 56 35.796875 56 
Q 45.21875 56 50.046875 50.171875 
Q 54.890625 44.34375 54.890625 33.015625 
z
" id="DejaVuSans-104"/>
      <path d="M 8.015625 75.875 
L 15.828125 75.875 
Q 23.140625 64.359375 26.78125 53.3125 
Q 30.421875 42.28125 30.421875 31.390625 
Q 30.421875 20.453125 26.78125 9.375 
Q 23.140625 -1.703125 15.828125 -13.1875 
L 8.015625 -13.1875 
Q 14.5 -2 17.703125 9.0625 
Q 20.90625 20.125 20.90625 31.390625 
Q 20.90625 42.671875 17.703125 53.65625 
Q 14.5 64.65625 8.015625 75.875 
z
" id="DejaVuSans-41"/>
     </defs>
     <g transform="translate(10.195312 133.533437)rotate(-90)scale(0.1 -0.1)">
      <use xlink:href="#DejaVuSans-101"/>
      <use x="61.523438" xlink:href="#DejaVuSans-114"/>
      <use x="102.621094" xlink:href="#DejaVuSans-114"/>
      <use x="143.703125" xlink:href="#DejaVuSans-111"/>
      <use x="204.884766" xlink:href="#DejaVuSans-114"/>
      <use x="245.998047" xlink:href="#DejaVuSans-32"/>
      <use x="277.785156" xlink:href="#DejaVuSans-40"/>
      <use x="316.798828" xlink:href="#DejaVuSans-114"/>
      <use x="357.896484" xlink:href="#DejaVuSans-104"/>
      <use x="421.275391" xlink:href="#DejaVuSans-111"/>
      <use x="482.457031" xlink:href="#DejaVuSans-41"/>
     </g>
    </g>
   </g>
   <g id="line2d_27">
    <path clip-path="url(#p5bbfb75ded)" d="M 46.145455 33.33273 
L 55.926819 33.431051 
L 56.928712 33.573696 
L 56.928712 33.719358 
L 57.951262 33.892061 
L 57.951262 34.105741 
L 58.984141 34.207186 
L 59.015128 35.052691 
L 60.01702 35.244768 
L 60.027349 35.60452 
L 61.060228 35.789168 
L 61.070557 36.715737 
L 62.082778 36.907582 
L 62.093107 37.904598 
L 63.125986 38.111087 
L 63.146644 38.943184 
L 64.158865 39.162773 
L 64.179523 39.797613 
L 65.191744 40.000529 
L 65.212402 40.635285 
L 66.214295 40.848271 
L 66.245281 41.691989 
L 67.257502 41.900675 
L 67.27816 42.938654 
L 68.290382 43.143379 
L 68.290382 43.743765 
L 69.312932 43.94263 
L 69.312932 44.726249 
L 70.35614 44.920129 
L 70.376797 45.894191 
L 71.37869 46.089787 
L 71.389019 46.671785 
L 72.411569 46.866532 
L 72.421898 48.015342 
L 73.444448 48.205909 
L 73.444448 48.770679 
L 74.487656 48.959685 
L 74.508313 49.52565 
L 75.510206 49.710888 
L 75.530864 50.826719 
L 76.553414 51.013262 
L 76.553414 51.383742 
L 77.575964 51.567248 
L 77.586293 52.658179 
L 78.608843 52.836545 
L 78.608843 53.373976 
L 79.641722 53.553385 
L 79.652051 54.098215 
L 80.674601 54.266456 
L 80.674601 55.318824 
L 81.707481 55.492221 
L 81.717809 56.005482 
L 82.74036 56.175973 
L 82.761017 56.684382 
L 83.773239 56.852962 
L 83.793896 57.862601 
L 84.816446 58.030803 
L 84.816446 58.532323 
L 85.849326 58.699405 
L 85.880312 59.364285 
L 86.871876 59.530075 
L 86.871876 60.351356 
L 87.915084 60.515482 
L 87.915084 61.167549 
L 88.937634 61.329845 
L 88.947963 61.817111 
L 89.970513 61.978905 
L 89.980842 62.464086 
L 91.003392 62.625709 
L 91.003392 63.268735 
L 92.036271 63.42922 
L 92.0466 64.253374 
L 93.06915 64.389235 
L 93.120794 65.033219 
L 94.102029 65.183835 
L 94.122687 65.975199 
L 95.134908 66.132268 
L 95.134908 66.762751 
L 96.167787 66.920489 
L 96.178116 67.401183 
L 97.200666 67.550112 
L 97.231653 68.020646 
L 98.233545 68.177131 
L 98.233545 69.113474 
L 99.266424 69.276413 
L 99.266424 69.734033 
L 100.299304 69.888606 
L 100.33029 70.354083 
L 101.332183 70.509876 
L 101.373498 71.445926 
L 102.365062 71.601431 
L 102.396048 72.067709 
L 103.40827 72.222461 
L 103.40827 72.687158 
L 104.441149 72.841951 
L 104.492793 73.767048 
L 105.474028 73.920334 
L 105.484356 74.381944 
L 106.496578 74.536298 
L 106.496578 75.001193 
L 107.529457 75.155519 
L 107.539786 76.079885 
L 108.572665 76.232949 
L 108.593322 76.692942 
L 109.605544 76.853969 
L 109.605544 77.305313 
L 110.628094 77.45786 
L 110.638423 78.37741 
L 111.660973 78.522145 
L 111.681631 78.978123 
L 112.704181 79.129926 
L 112.71451 79.58425 
L 113.726731 79.735279 
L 113.73706 80.639573 
L 114.769939 80.790922 
L 114.769939 81.243809 
L 115.802818 81.394317 
L 115.823476 81.844781 
L 116.825368 81.994539 
L 116.877012 82.892226 
L 117.858248 83.043026 
L 117.868576 83.49643 
L 118.891127 83.648391 
L 118.911784 84.105871 
L 119.924006 84.259453 
L 119.934334 85.185982 
L 120.956885 85.34016 
L 120.967213 85.803415 
L 122.000093 85.958425 
L 122.000093 86.425948 
L 123.022643 86.582652 
L 123.063958 87.524704 
L 124.055522 87.690755 
L 124.076179 88.160167 
L 125.09873 88.319951 
L 125.09873 88.961015 
L 126.12128 89.123007 
L 126.131609 89.937149 
L 127.154159 90.099864 
L 127.174817 90.595131 
L 128.187038 90.749394 
L 128.207696 91.561052 
L 129.230246 91.722863 
L 129.240575 92.045665 
L 130.252796 92.207891 
L 130.273454 93.19709 
L 131.285675 93.364466 
L 131.296004 93.866444 
L 132.318554 94.033702 
L 132.339212 94.533885 
L 133.351433 94.700372 
L 133.361762 95.535016 
L 134.384312 95.71009 
L 134.384312 96.533038 
L 135.417192 96.698741 
L 135.417192 97.031241 
L 136.450071 97.197522 
L 136.460399 98.202462 
L 137.48295 98.378546 
L 137.48295 98.871717 
L 138.515829 99.038964 
L 138.526157 99.543026 
L 139.548708 99.711236 
L 139.579694 100.382584 
L 140.591916 100.550024 
L 140.612573 101.385841 
L 141.614466 101.552878 
L 141.624795 102.052846 
L 142.647345 102.21996 
L 142.68866 103.245015 
L 143.680224 103.418203 
L 143.700882 103.940686 
L 144.713103 104.115873 
L 144.723432 104.822749 
L 145.76664 104.99979 
L 145.76664 105.882971 
L 146.778861 106.059441 
L 146.799519 106.589066 
L 147.822069 106.765375 
L 147.842727 107.292427 
L 148.854948 107.468464 
L 148.854948 108.543235 
L 149.877498 108.724563 
L 149.877498 109.269048 
L 150.910377 109.450398 
L 150.941364 109.993584 
L 151.953585 110.174365 
L 151.974243 110.898805 
L 152.986464 111.089307 
L 152.986464 111.985281 
L 154.009015 112.174814 
L 154.009015 112.706844 
L 155.052222 112.888329 
L 155.07288 113.979025 
L 156.074773 114.161006 
L 156.085101 114.706991 
L 157.117981 114.888784 
L 157.117981 115.44351 
L 158.140531 115.616892 
L 158.140531 116.709671 
L 159.183739 116.891249 
L 159.204396 117.436559 
L 160.216618 117.618298 
L 160.226946 118.162876 
L 161.239168 118.344432 
L 161.239168 119.450798 
L 162.272047 119.637474 
L 162.282376 120.199321 
L 163.304926 120.387742 
L 163.325584 120.957864 
L 164.337805 121.14838 
L 164.337805 122.29057 
L 165.370684 122.480801 
L 165.381013 123.051803 
L 166.413892 123.251572 
L 166.424221 124.191878 
L 167.436442 124.382783 
L 167.436442 124.763982 
L 168.469321 124.955441 
L 168.469321 125.728998 
L 169.5022 125.922093 
L 169.512529 126.886413 
L 170.535079 127.078611 
L 170.545408 127.656192 
L 171.567959 127.849129 
L 171.578287 129.005005 
L 172.600838 129.197186 
L 172.600838 129.77323 
L 173.633717 129.96521 
L 173.654374 130.546002 
L 174.666596 130.740036 
L 174.687253 131.517979 
L 175.699475 131.722871 
L 175.709804 132.497857 
L 176.732354 132.695006 
L 176.732354 133.879361 
L 177.765233 134.076955 
L 177.78589 134.671298 
L 178.798112 134.86981 
L 178.860085 135.665748 
L 179.830991 135.863398 
L 179.84132 136.862742 
L 180.86387 137.063292 
L 180.884528 137.66519 
L 181.896749 137.866266 
L 181.938064 138.674867 
L 182.929628 138.877262 
L 182.939957 139.888218 
L 183.962507 140.090076 
L 183.972836 140.69621 
L 184.995386 140.898327 
L 185.026373 141.907735 
L 186.028265 142.109532 
L 186.028265 142.513992 
L 187.061144 142.71656 
L 187.112788 143.934417 
L 188.094023 144.137066 
L 188.094023 144.744829 
L 189.137231 144.947296 
L 189.14756 145.564182 
L 190.159782 145.756599 
L 190.190768 146.567066 
L 191.202989 146.779576 
L 191.223647 147.779916 
L 192.22554 147.981838 
L 192.246197 148.601364 
L 193.268748 148.794744 
L 193.268748 150.01702 
L 194.291298 150.22187 
L 194.301627 150.838134 
L 195.324177 151.044054 
L 195.365492 152.073848 
L 196.357056 152.280752 
L 196.377714 152.900831 
L 197.389935 153.118043 
L 197.420921 153.728928 
L 198.422814 153.936154 
L 198.433143 155.17289 
L 199.455693 155.39178 
L 199.455693 156.004213 
L 200.488572 156.21205 
L 200.50923 157.047544 
L 201.521451 157.256434 
L 201.542109 158.300917 
L 202.564659 158.50932 
L 202.564659 159.134882 
L 203.597538 159.343572 
L 203.628524 159.969651 
L 204.620088 160.178328 
L 204.630417 161.428645 
L 205.652967 161.638756 
L 205.683954 162.267737 
L 206.685847 162.477712 
L 206.696175 163.528607 
L 207.718726 163.738983 
L 207.729054 164.159449 
L 208.761933 164.380459 
L 208.761933 165.42214 
L 209.784484 165.632477 
L 209.81547 166.683864 
L 210.827692 166.894074 
L 210.848349 167.316769 
L 211.860571 167.5283 
L 211.881228 168.794939 
L 212.883121 169.005676 
L 212.89345 169.639572 
L 213.916 169.851064 
L 213.926329 170.485579 
L 214.948879 170.696711 
L 214.948879 171.968229 
L 215.981758 172.180196 
L 215.992087 172.60416 
L 217.024966 172.816164 
L 217.035295 174.084889 
L 218.057845 174.295854 
L 218.057845 174.887082 
L 219.090724 175.083488 
L 219.111382 175.771364 
L 220.113274 175.941288 
L 220.123603 176.733261 
L 221.146153 176.886636 
L 221.156482 177.303403 
L 222.179032 177.439199 
L 222.189361 178.055284 
L 223.22224 178.285948 
L 223.232569 178.399654 
L 224.24479 178.615762 
L 224.24479 179.117103 
L 225.27767 179.312527 
L 225.27767 179.474664 
L 226.310549 179.642583 
L 226.341535 179.804148 
L 227.353756 179.959982 
L 227.364085 180.325627 
L 228.386636 180.45802 
L 228.396964 180.579465 
L 229.409186 180.6993 
L 229.409186 180.812865 
L 230.442065 180.977525 
L 230.462722 181.136464 
L 231.485273 181.283095 
L 231.516259 181.41036 
L 236.639339 181.549984 
L 249.054545 181.548317 
L 249.054545 181.548317 
" style="fill:none;stroke:#0b64d4;stroke-linecap:square;stroke-width:1.5;"/>
   </g>
   <g id="line2d_28">
    <path clip-path="url(#p5bbfb75ded)" d="M 52.342729 33.33273 
L 53.385937 33.33273 
L 53.385937 33.33273 
L 54.418816 33.60175 
L 54.418816 33.75128 
L 55.451695 33.916877 
L 55.49301 34.357205 
L 56.484574 34.517347 
L 56.505231 35.012447 
L 57.507124 35.195793 
L 57.517453 36.084817 
L 58.540003 36.263426 
L 58.560661 36.989436 
L 59.572882 37.162863 
L 59.572882 37.726119 
L 60.605761 37.91701 
L 60.626419 38.699993 
L 61.648969 38.898633 
L 61.669627 39.916518 
L 62.671519 40.125033 
L 62.692177 40.752268 
L 63.704399 40.958622 
L 63.704399 41.603012 
L 64.747606 41.803149 
L 64.768264 43.068721 
L 65.780485 43.278306 
L 65.780485 43.911235 
L 66.803036 44.121462 
L 66.813364 44.753898 
L 67.835915 44.965957 
L 67.856572 46.236046 
L 68.879123 46.448716 
L 68.889451 47.0857 
L 69.901673 47.297222 
L 69.912002 47.935086 
L 70.934552 48.144997 
L 70.965538 49.411852 
L 71.967431 49.622167 
L 71.967431 50.252181 
L 73.020968 50.461276 
L 73.031296 51.090387 
L 74.043518 51.299773 
L 74.053847 52.558461 
L 75.076397 52.766882 
L 75.076397 53.393842 
L 76.098947 53.61235 
L 76.109276 54.437468 
L 77.131826 54.656843 
L 77.152484 55.682668 
L 78.164705 55.890238 
L 78.185363 56.512266 
L 79.197584 56.719201 
L 79.218242 57.548249 
L 80.240792 57.755681 
L 80.26145 58.787065 
L 81.263343 58.993206 
L 81.284 59.610507 
L 82.30655 59.816549 
L 82.347866 60.847711 
L 83.339429 61.052642 
L 83.339429 61.473803 
L 84.36198 61.66917 
L 84.413624 62.901326 
L 85.394859 63.106725 
L 85.415516 63.51478 
L 86.458724 63.718617 
L 86.458724 64.939989 
L 87.470946 65.143206 
L 87.470946 65.752844 
L 88.503825 65.956259 
L 88.534811 66.767255 
L 89.536704 66.969839 
L 89.56769 67.981979 
L 90.559254 68.183933 
L 90.59024 68.788104 
L 91.592133 68.99902 
L 91.633448 69.792277 
L 92.655999 69.992911 
L 92.666327 70.996185 
L 93.657891 71.196754 
L 93.678549 71.796847 
L 94.701099 72.00721 
L 94.711428 72.797133 
L 95.723649 72.996911 
L 95.754636 73.99337 
L 96.756528 74.19217 
L 96.777186 74.788138 
L 97.789407 74.986508 
L 97.820394 75.581904 
L 98.822286 75.780051 
L 98.863602 76.968424 
L 99.855166 77.166255 
L 99.875823 77.759406 
L 100.898373 77.956871 
L 100.898373 78.549456 
L 101.920924 78.746958 
L 101.962239 79.939974 
L 102.964132 80.12696 
L 102.995118 80.53052 
L 103.986682 80.717352 
L 104.017668 81.896984 
L 105.019561 82.093437 
L 105.040218 82.682499 
L 106.05244 82.878789 
L 106.062769 83.66212 
L 107.085319 83.857837 
L 107.105977 84.835826 
L 108.128527 85.031287 
L 108.128527 85.617003 
L 109.151077 85.81222 
L 109.171735 86.592565 
L 110.183956 86.787435 
L 110.183956 87.761244 
L 111.216835 87.955889 
L 111.216835 88.73258 
L 112.260043 88.926671 
L 112.270372 89.508654 
L 113.282593 89.702499 
L 113.303251 90.283689 
L 114.315472 90.477196 
L 114.367116 91.637965 
L 115.348351 91.830803 
L 115.369009 92.409686 
L 116.391559 92.60263 
L 116.401888 93.18047 
L 117.41411 93.372643 
L 117.49674 94.142061 
L 117.527726 94.52627 
L 118.457317 94.71827 
L 118.467646 95.29381 
L 119.479868 95.485494 
L 119.531512 96.060973 
L 119.54184 96.443906 
L 120.512747 96.635222 
L 120.543733 97.20891 
L 121.555955 97.399975 
L 121.576612 97.972816 
L 122.588834 98.173218 
L 122.609491 99.30763 
L 123.611384 99.498195 
L 123.621713 100.069212 
L 124.644263 100.268851 
L 124.654592 100.829456 
L 125.687471 101.019355 
L 125.6978 102.160924 
L 126.72035 102.351133 
L 126.72035 102.920998 
L 127.7429 103.110931 
L 127.753229 103.679809 
L 128.775779 103.869616 
L 128.786108 105.00581 
L 129.818987 105.194815 
L 129.849973 105.762224 
L 130.851866 105.951335 
L 130.862195 106.51967 
L 131.874416 106.709377 
L 131.92606 107.850904 
L 132.907295 108.041837 
L 132.907295 108.61397 
L 133.940174 108.804622 
L 133.950503 109.376265 
L 134.973054 109.566977 
L 135.014369 110.725086 
L 136.005933 110.916491 
L 136.036919 111.48081 
L 137.038812 111.671928 
L 137.069798 112.240043 
L 138.082019 112.439795 
L 138.092348 113.583116 
L 139.114899 113.775397 
L 139.135556 114.355224 
L 140.137449 114.558543 
L 140.168435 115.139698 
L 141.180657 115.323591 
L 141.190985 116.483228 
L 142.213536 116.676301 
L 142.254851 117.254632 
L 143.236086 117.447398 
L 143.267072 118.025423 
L 144.268965 118.218676 
L 144.31028 119.386977 
L 145.301844 119.581797 
L 145.312173 120.16607 
L 146.334723 120.360638 
L 146.334723 120.943489 
L 147.367602 121.137858 
L 147.398589 122.302186 
L 148.41081 122.495724 
L 148.41081 123.076071 
L 149.443689 123.269779 
L 149.443689 124.046197 
L 150.466239 124.239517 
L 150.497226 125.205841 
L 151.509447 125.398574 
L 151.509447 125.976651 
L 152.542326 126.179205 
L 152.573313 127.131816 
L 153.585534 127.324007 
L 153.585534 128.100989 
L 154.608084 128.283611 
L 154.608084 128.860145 
L 155.640963 129.052748 
L 155.651292 130.01457 
L 156.663514 130.206643 
L 156.684171 130.590151 
L 157.696393 130.781787 
L 157.727379 131.93411 
L 158.729272 132.125676 
L 158.760258 132.699762 
L 159.762151 132.900416 
L 159.77248 133.463568 
L 160.79503 133.654248 
L 160.805359 134.631337 
L 161.827909 134.804519 
L 161.869224 135.770095 
L 162.860788 135.964124 
L 162.871117 136.352456 
L 163.893667 136.546705 
L 163.914325 137.716417 
L 164.926546 137.911396 
L 164.957533 138.495831 
L 165.959425 138.6905 
L 165.990412 139.274118 
L 166.992304 139.468384 
L 167.012962 140.624937 
L 168.035512 140.820523 
L 168.045841 141.209296 
L 169.058062 141.407705 
L 169.068391 142.590032 
L 170.090941 142.796737 
L 170.121928 143.376479 
L 171.134149 143.582858 
L 171.144478 144.358667 
L 172.1567 144.554923 
L 172.1567 145.533201 
L 173.199907 145.728798 
L 173.199907 146.317138 
L 174.243115 146.513918 
L 174.274102 147.500073 
L 175.265666 147.697335 
L 175.275994 148.486051 
L 176.308873 148.683499 
L 176.308873 149.275206 
L 177.321095 149.47216 
L 177.341752 150.454388 
L 178.364303 150.65026 
L 178.374632 151.433507 
L 179.386853 151.629535 
L 179.397182 152.21853 
L 180.419732 152.415524 
L 180.44039 153.007201 
L 181.452611 153.205034 
L 181.493926 154.39656 
L 182.48549 154.595365 
L 182.495819 155.192637 
L 183.518369 155.391921 
L 183.559684 155.990469 
L 184.551248 156.190149 
L 184.571906 157.188588 
L 185.594456 157.386479 
L 185.625443 158.386348 
L 186.627335 158.5964 
L 186.637664 158.986885 
L 187.649885 159.197369 
L 187.680872 160.396068 
L 188.682765 160.59721 
L 188.682765 161.199095 
L 189.725972 161.399463 
L 189.756959 162.399896 
L 190.758851 162.599699 
L 190.779509 163.207281 
L 191.802059 163.396149 
L 191.812388 164.392093 
L 192.82461 164.592414 
L 192.82461 165.395221 
L 193.84716 165.606211 
L 193.84716 166.399543 
L 194.880039 166.600505 
L 194.911025 167.203132 
L 195.912918 167.413585 
L 195.943904 168.003117 
L 196.945797 168.212219 
L 196.956126 169.390547 
L 197.989005 169.587721 
L 198.009662 170.182386 
L 199.021884 170.38075 
L 199.021884 170.970165 
L 200.044434 171.167614 
L 200.054763 172.351426 
L 201.077313 172.548157 
L 201.077313 172.940523 
L 202.110192 173.147865 
L 202.151507 173.724555 
L 202.151507 174.302329 
L 203.143071 174.49449 
L 203.163729 175.01551 
L 204.17595 175.185943 
L 204.186279 175.675956 
L 205.208829 175.814212 
L 205.219158 176.666611 
L 206.241709 176.795388 
L 206.293352 177.184924 
L 207.274588 177.286744 
L 207.284916 177.644526 
L 208.307467 177.746327 
L 208.348782 178.393944 
L 209.350674 178.597248 
L 209.371332 178.785188 
L 210.383554 178.971458 
L 210.383554 179.157015 
L 211.406104 179.320444 
L 211.406104 179.577577 
L 212.438983 179.733312 
L 212.438983 180.032894 
L 213.482191 180.172136 
L 213.502848 180.313007 
L 214.51507 180.430604 
L 214.525399 180.718689 
L 215.558278 180.873162 
L 215.558278 180.922244 
L 216.591157 181.061165 
L 216.601485 181.149876 
L 217.613707 181.280531 
L 217.634365 181.402534 
L 223.810981 181.549268 
L 248.58975 181.570366 
L 248.58975 181.570366 
" style="fill:none;stroke:#0dfa2c;stroke-linecap:square;stroke-width:1.5;"/>
   </g>
   <g id="line2d_29">
    <path clip-path="url(#p5bbfb75ded)" d="M 46.145455 33.33273 
L 46.145455 33.921237 
L 55.451695 34.107622 
L 55.472352 34.329886 
L 56.474245 34.442077 
L 56.494903 34.922109 
L 57.517453 35.083674 
L 57.527782 36.141007 
L 58.540003 36.317703 
L 58.550332 36.845284 
L 59.572882 37.024164 
L 59.583211 37.566359 
L 60.605761 37.751506 
L 60.626419 38.499648 
L 61.63864 38.690831 
L 61.679956 39.664968 
L 62.681848 39.863943 
L 62.702506 40.473669 
L 63.714727 40.662012 
L 63.714727 41.893503 
L 64.747606 42.099906 
L 64.768264 42.704879 
L 65.780485 42.91124 
L 65.801143 43.526712 
L 66.803036 43.743361 
L 66.834022 44.554067 
L 67.835915 44.7605 
L 67.856572 45.797541 
L 68.910109 46.006224 
L 68.961753 46.634756 
L 69.901673 46.845164 
L 69.912002 47.473089 
L 70.934552 47.689986 
L 70.986196 48.933393 
L 71.97776 49.14308 
L 71.998417 49.768243 
L 73.00031 49.978202 
L 73.062283 51.028254 
L 74.033189 51.237803 
L 74.064175 51.871321 
L 75.066068 52.081524 
L 75.076397 53.352713 
L 76.098947 53.56413 
L 76.119605 54.200416 
L 77.131826 54.41301 
L 77.142155 55.261145 
L 78.164705 55.473812 
L 78.206021 56.536029 
L 79.197584 56.757638 
L 79.228571 57.383556 
L 80.240792 57.59608 
L 80.26145 58.444616 
L 81.263343 58.657216 
L 81.273671 59.71725 
L 82.296222 59.929701 
L 82.316879 60.567709 
L 83.329101 60.789715 
L 83.349758 61.840572 
L 84.36198 62.052387 
L 84.36198 62.476871 
L 85.405188 62.689462 
L 85.405188 63.96114 
L 86.427738 64.173016 
L 86.438067 64.809108 
L 87.460617 65.021366 
L 87.470946 65.657527 
L 88.493496 65.869812 
L 88.524482 66.505258 
L 89.526375 66.716803 
L 89.56769 67.988795 
L 90.569583 68.201078 
L 90.569583 68.835934 
L 91.592133 69.047864 
L 91.633448 70.317493 
L 92.625012 70.529429 
L 92.64567 71.165336 
L 93.657891 71.377417 
L 93.678549 72.012032 
L 94.701099 72.223932 
L 94.701099 73.494375 
L 95.723649 73.716792 
L 95.733978 74.340869 
L 96.756528 74.55248 
L 96.766857 75.186365 
L 97.789407 75.397895 
L 97.810065 76.667192 
L 98.822286 76.878748 
L 98.832615 77.513327 
L 99.886152 77.724968 
L 99.896481 78.35937 
L 100.888045 78.571032 
L 100.92936 79.839969 
L 101.931252 80.051347 
L 101.95191 80.684237 
L 102.953803 80.89543 
L 102.964132 81.740076 
L 103.986682 81.951391 
L 103.997011 82.585413 
L 105.019561 82.796724 
L 105.060876 83.864113 
L 106.073097 84.065019 
L 106.083426 85.121766 
L 107.085319 85.33201 
L 107.116305 85.542907 
L 108.138856 85.753696 
L 108.138856 87.028898 
L 109.151077 87.229258 
L 109.182063 87.861819 
L 110.183956 88.073065 
L 110.194285 89.127773 
L 111.216835 89.338645 
L 111.227164 90.394233 
L 112.260043 90.605363 
L 112.260043 91.025431 
L 113.282593 91.235451 
L 113.31358 92.497711 
L 114.315472 92.718698 
L 114.325801 93.33951 
L 115.348351 93.56052 
L 115.35868 94.182095 
L 116.38123 94.392482 
L 116.391559 95.235333 
L 117.424438 95.446126 
L 117.434767 96.496497 
L 118.446989 96.717018 
L 118.467646 97.336759 
L 119.479868 97.546698 
L 119.521183 98.806604 
L 120.512747 99.016573 
L 120.533404 99.647174 
L 121.545626 99.857335 
L 121.545626 100.49819 
L 122.588834 100.697311 
L 122.609491 101.74739 
L 123.621713 101.967507 
L 123.632041 103.005639 
L 124.654592 103.215374 
L 124.664921 103.634566 
L 125.677142 103.844166 
L 125.687471 105.101303 
L 126.710021 105.310776 
L 126.72035 105.949679 
L 127.7429 106.148693 
L 127.753229 106.777058 
L 128.775779 106.986489 
L 128.827423 108.24253 
L 129.808658 108.451851 
L 129.808658 109.079703 
L 130.841537 109.288858 
L 130.862195 109.927099 
L 131.874416 110.125881 
L 131.915732 110.963105 
L 132.917624 111.172415 
L 132.958939 112.216702 
L 133.940174 112.425587 
L 133.960832 113.052242 
L 134.973054 113.261173 
L 134.993711 114.524796 
L 136.005933 114.723175 
L 136.036919 115.349552 
L 137.038812 115.558301 
L 137.04914 116.184517 
L 138.071691 116.393606 
L 138.113006 117.446148 
L 139.10457 117.644136 
L 139.145885 118.685965 
L 140.137449 118.904751 
L 140.147778 119.310988 
L 141.170328 119.519277 
L 141.180657 120.560772 
L 142.234193 120.768963 
L 142.234193 121.601791 
L 143.236086 121.809969 
L 143.256744 122.849346 
L 144.268965 123.056867 
L 144.289623 123.68017 
L 145.301844 123.887889 
L 145.33283 124.926388 
L 146.334723 125.134345 
L 146.345052 125.54989 
L 147.367602 125.75761 
L 147.398589 127.003063 
L 148.400481 127.210604 
L 148.400481 127.832379 
L 149.43336 128.039662 
L 149.454018 128.660832 
L 150.466239 128.867974 
L 150.476568 130.11006 
L 151.499118 130.316951 
L 151.540434 130.938052 
L 152.531998 131.145053 
L 152.552655 131.972962 
L 153.564877 132.179946 
L 153.564877 132.80056 
L 154.597756 133.007407 
L 154.628742 134.245436 
L 155.630635 134.451816 
L 155.640963 135.0706 
L 156.663514 135.27679 
L 156.673843 135.895189 
L 157.696393 136.101207 
L 157.71705 137.132883 
L 158.739601 137.33925 
L 158.739601 137.95813 
L 159.762151 138.164404 
L 159.793137 138.987448 
L 160.79503 139.193313 
L 160.826016 140.22204 
L 161.838238 140.427583 
L 161.858895 141.044814 
L 162.860788 141.260871 
L 162.891774 142.074432 
L 163.893667 142.290751 
L 163.903996 143.312364 
L 164.926546 143.51882 
L 164.947204 144.147137 
L 165.959425 144.342904 
L 165.980083 145.166382 
L 166.992304 145.372162 
L 167.033619 146.403383 
L 168.025183 146.609608 
L 168.05617 147.238448 
L 169.058062 147.434224 
L 169.099378 148.672045 
L 170.090941 148.878793 
L 170.10127 149.495835 
L 171.123821 149.701845 
L 171.154807 150.527432 
L 172.167028 150.734071 
L 172.177357 151.767779 
L 173.189579 151.974361 
L 173.210236 152.593667 
L 174.222458 152.799988 
L 174.232787 153.830201 
L 175.255337 154.035515 
L 175.275994 154.44662 
L 176.288216 154.652156 
L 176.308873 155.684048 
L 177.321095 155.890714 
L 177.331424 156.924613 
L 178.364303 157.130944 
L 178.38496 157.955811 
L 179.386853 158.161854 
L 179.397182 158.789684 
L 180.430061 158.985039 
L 180.450718 160.012626 
L 181.46294 160.217404 
L 181.46294 160.629926 
L 182.48549 160.836008 
L 182.495819 161.866902 
L 183.528698 162.072696 
L 183.549356 163.099208 
L 184.551248 163.304242 
L 184.561577 163.714005 
L 185.584127 163.918646 
L 185.625443 164.735862 
L 186.627335 164.949789 
L 186.627335 165.957979 
L 187.660214 166.161275 
L 187.660214 166.769633 
L 188.682765 166.971988 
L 188.703422 167.778976 
L 189.715644 167.979944 
L 189.767288 168.992967 
L 190.758851 169.182717 
L 190.758851 169.779908 
L 191.79173 169.978154 
L 191.822717 171.161605 
L 192.814281 171.357809 
L 192.834938 171.946551 
L 193.857489 172.142409 
L 193.878146 172.737505 
L 194.911025 172.922459 
L 194.911025 173.893085 
L 195.912918 174.086089 
L 195.954233 174.999714 
L 196.956126 175.151083 
L 196.956126 175.457348 
L 197.978676 175.610978 
L 198.03032 176.453595 
L 199.011555 176.587743 
L 199.032213 176.955675 
L 200.054763 177.176056 
L 200.054763 177.378247 
L 201.087642 177.589521 
L 201.118628 178.088462 
L 202.120521 178.286869 
L 202.120521 178.45936 
L 203.143071 178.628506 
L 203.163729 178.788729 
L 204.186279 178.944982 
L 204.206937 179.164987 
L 205.219158 179.301193 
L 205.250145 179.554389 
L 206.252037 179.673628 
L 206.262366 179.782798 
L 207.295245 179.947388 
L 207.315903 180.159342 
L 208.307467 180.314488 
L 208.307467 180.363811 
L 209.340346 180.508629 
L 209.340346 180.556433 
L 210.383554 180.692313 
L 210.393882 180.776394 
L 211.426761 180.900251 
L 211.43709 181.009905 
L 213.471862 181.18012 
L 213.482191 181.292933 
L 222.809089 181.416653 
L 222.809089 181.415517 
L 247.556871 181.414919 
L 247.556871 181.414909 
" style="fill:none;stroke:#a80dfa;stroke-linecap:square;stroke-width:1.5;"/>
   </g>
   <g id="line2d_30">
    <path clip-path="url(#p5bbfb75ded)" d="M 49.254421 33.33273 
L 53.375608 33.33273 
L 53.396266 33.966177 
L 54.429145 34.154469 
L 54.449802 34.363132 
L 55.441366 34.508195 
L 55.441366 34.958369 
L 56.494903 35.112937 
L 56.51556 36.163409 
L 57.507124 36.334734 
L 57.507124 36.853446 
L 58.540003 37.027882 
L 58.550332 37.738306 
L 59.583211 37.928124 
L 59.59354 38.834987 
L 60.605761 39.027499 
L 60.61609 39.571424 
L 61.63864 39.754569 
L 61.669627 40.491199 
L 62.671519 40.674351 
L 62.692177 41.411942 
L 63.704399 41.599984 
L 63.756042 42.553421 
L 64.737278 42.746041 
L 64.747606 43.13949 
L 65.770157 43.322735 
L 65.770157 44.477534 
L 66.803036 44.671698 
L 66.823693 45.272872 
L 67.835915 45.461112 
L 67.87723 46.062106 
L 68.879123 46.263713 
L 68.910109 47.074231 
L 69.912002 47.275505 
L 69.942988 48.297706 
L 70.934552 48.490688 
L 70.944881 49.097272 
L 71.967431 49.299723 
L 71.998417 50.114996 
L 73.00031 50.319763 
L 73.020968 51.343872 
L 74.033189 51.551097 
L 74.053847 52.170327 
L 75.076397 52.376359 
L 75.117712 53.613795 
L 76.109276 53.818927 
L 76.109276 54.437332 
L 77.131826 54.643193 
L 77.131826 55.264307 
L 78.164705 55.47181 
L 78.195692 56.716532 
L 79.207913 56.924439 
L 79.218242 57.339918 
L 80.230463 57.548489 
L 80.230463 58.802318 
L 81.263343 59.022131 
L 81.273671 59.651754 
L 82.296222 59.852205 
L 82.337537 60.903009 
L 83.329101 61.113508 
L 83.329101 61.533798 
L 84.36198 61.754231 
L 84.382637 63.004665 
L 85.394859 63.225736 
L 85.405188 63.846558 
L 86.438067 64.057575 
L 86.469053 64.691628 
L 87.470946 64.903546 
L 87.501932 65.959184 
L 88.503825 66.169729 
L 88.534811 67.225443 
L 89.536704 67.436128 
L 89.557361 67.858138 
L 90.559254 68.06919 
L 90.569583 69.346504 
L 91.602462 69.5471 
L 91.602462 70.181968 
L 92.635341 70.404405 
L 92.655999 71.027976 
L 93.657891 71.239397 
L 93.709535 72.296628 
L 94.711428 72.508232 
L 94.732085 73.564825 
L 95.764964 73.776321 
L 95.764964 74.632464 
L 96.756528 74.833458 
L 96.766857 75.468781 
L 97.799736 75.680289 
L 97.841051 76.526567 
L 98.822286 76.748602 
L 98.842944 77.796022 
L 99.855166 78.007748 
L 99.865494 78.642326 
L 100.888045 78.853939 
L 100.919031 79.488259 
L 101.920924 79.699852 
L 101.941581 80.970437 
L 102.97446 81.182485 
L 102.995118 81.816928 
L 103.997011 82.028665 
L 104.007339 82.663682 
L 105.02989 82.875262 
L 105.060876 84.145869 
L 106.062769 84.357698 
L 106.083426 84.991911 
L 107.085319 85.214121 
L 107.105977 85.838426 
L 108.118198 86.050129 
L 108.169842 87.321145 
L 109.151077 87.532945 
L 109.171735 88.168097 
L 110.183956 88.379898 
L 110.204614 89.015746 
L 111.216835 89.227785 
L 111.216835 90.507755 
L 112.260043 90.708796 
L 112.280701 91.354326 
L 113.282593 91.555438 
L 113.323908 92.403203 
L 114.315472 92.614956 
L 114.33613 93.462511 
L 115.348351 93.685067 
L 115.389667 94.734799 
L 116.38123 94.946169 
L 116.391559 95.792754 
L 117.41411 96.01507 
L 117.41411 96.639517 
L 118.457317 96.851256 
L 118.467646 97.69856 
L 119.479868 97.910449 
L 119.490196 98.97071 
L 120.512747 99.182678 
L 120.543733 99.819313 
L 121.576612 100.031582 
L 121.576612 101.101315 
L 122.578505 101.302234 
L 122.599162 101.725739 
L 123.621713 101.937441 
L 123.652699 102.996753 
L 124.644263 103.208662 
L 124.664921 104.270142 
L 125.677142 104.48223 
L 125.6978 104.906625 
L 126.72035 105.118863 
L 126.741007 106.402432 
L 127.753229 106.603331 
L 127.753229 107.238911 
L 128.775779 107.461384 
L 128.827423 108.510854 
L 129.818987 108.722883 
L 129.829316 109.359742 
L 130.841537 109.572059 
L 130.851866 110.633976 
L 131.884745 110.846818 
L 131.895074 111.695488 
L 132.907295 111.907602 
L 132.907295 112.543916 
L 133.950503 112.756067 
L 133.950503 113.826996 
L 134.973054 114.028447 
L 134.983382 114.452589 
L 136.005933 114.664702 
L 136.016261 115.726274 
L 137.038812 115.938721 
L 137.080127 117.000933 
L 138.071691 117.213017 
L 138.071691 117.637523 
L 139.10457 117.849797 
L 139.145885 119.122429 
L 140.137449 119.334582 
L 140.168435 119.970887 
L 141.170328 120.183005 
L 141.170328 120.830327 
L 142.213536 121.031983 
L 142.213536 122.306266 
L 143.236086 122.529779 
L 143.256744 123.156134 
L 144.268965 123.368466 
L 144.279294 124.004602 
L 145.312173 124.216779 
L 145.322502 125.489581 
L 146.345052 125.701707 
L 146.36571 126.338126 
L 147.377931 126.550267 
L 147.38826 127.187983 
L 148.41081 127.400443 
L 148.431468 128.674124 
L 149.443689 128.886393 
L 149.443689 129.522693 
L 150.466239 129.745489 
L 150.466239 130.371342 
L 151.509447 130.583483 
L 151.509447 131.644192 
L 152.531998 131.856365 
L 152.542326 132.917784 
L 153.564877 133.140887 
L 153.564877 133.555024 
L 154.608084 133.767796 
L 154.628742 134.828647 
L 155.640963 135.04081 
L 155.640963 136.10163 
L 156.663514 136.313783 
L 156.673843 137.162339 
L 157.706722 137.385112 
L 157.71705 138.010979 
L 158.760258 138.223725 
L 158.770587 139.073113 
L 159.762151 139.285536 
L 159.77248 140.346416 
L 160.79503 140.558554 
L 160.79503 141.195157 
L 161.827909 141.407342 
L 161.827909 142.467942 
L 162.881446 142.680113 
L 162.881446 143.10452 
L 163.893667 143.316702 
L 163.914325 144.378581 
L 164.926546 144.591019 
L 164.936875 145.652104 
L 165.969754 145.864129 
L 166.00074 146.712807 
L 167.002633 146.924964 
L 167.012962 147.561371 
L 168.035512 147.773507 
L 168.05617 148.8345 
L 169.058062 149.046631 
L 169.058062 149.471065 
L 170.090941 149.683299 
L 170.142585 150.957047 
L 171.123821 151.169269 
L 171.144478 151.816176 
L 172.1567 152.017719 
L 172.167028 152.654232 
L 173.189579 152.86637 
L 173.199907 154.139498 
L 174.222458 154.351713 
L 174.253444 154.98839 
L 175.255337 155.200625 
L 175.275994 155.848859 
L 176.298545 156.050187 
L 176.308873 157.323158 
L 177.321095 157.535332 
L 177.321095 158.171834 
L 178.353974 158.383972 
L 178.374632 159.020378 
L 179.386853 159.232503 
L 179.397182 160.505746 
L 180.419732 160.717944 
L 180.419732 161.354931 
L 181.452611 161.567139 
L 181.46294 162.203708 
L 182.48549 162.415702 
L 182.526805 163.688675 
L 183.518369 163.900803 
L 183.518369 164.537185 
L 184.551248 164.749321 
L 184.551248 165.385959 
L 185.584127 165.59814 
L 185.594456 166.872003 
L 186.617006 167.084311 
L 186.637664 167.720493 
L 187.649885 167.932597 
L 187.649885 168.569238 
L 188.682765 168.781431 
L 188.713751 169.629722 
L 189.756959 169.841852 
L 189.756959 170.913178 
L 190.758851 171.114716 
L 190.789838 171.751543 
L 191.812388 171.963835 
L 191.833046 173.236572 
L 192.814281 173.4487 
L 192.834938 174.060816 
L 193.857489 174.27199 
L 193.878146 174.852155 
L 194.880039 175.058221 
L 194.890368 176.10734 
L 195.912918 176.274958 
L 195.912918 176.730931 
L 196.945797 176.870932 
L 196.976783 177.558863 
L 197.978676 177.692027 
L 197.999334 177.954115 
L 199.011555 178.055516 
L 199.032213 178.724558 
L 200.044434 178.927179 
L 200.044434 179.125058 
L 201.087642 179.30801 
L 201.097971 179.49035 
L 202.110192 179.650006 
L 202.151507 180.047223 
L 203.163729 180.190894 
L 203.163729 180.329239 
L 204.17595 180.45769 
L 204.17595 180.588298 
L 205.219158 180.70551 
L 205.239816 180.994807 
L 206.252037 181.144131 
L 206.252037 181.192048 
L 207.284916 181.334042 
L 207.295245 181.376007 
L 208.328124 181.506096 
L 208.328124 181.587273 
L 217.634365 181.575169 
L 218.677572 181.578478 
L 218.677572 181.578478 
" style="fill:none;stroke:#fa4a0d;stroke-linecap:square;stroke-width:1.5;"/>
   </g>
   <g id="patch_3">
    <path d="M 36 189 
L 36 25.92 
" style="fill:none;stroke:#000000;stroke-linecap:square;stroke-linejoin:miter;stroke-width:0.8;"/>
   </g>
   <g id="patch_4">
    <path d="M 259.2 189 
L 259.2 25.92 
" style="fill:none;stroke:#000000;stroke-linecap:square;stroke-linejoin:miter;stroke-width:0.8;"/>
   </g>
   <g id="patch_5">
    <path d="M 36 189 
L 259.2 189 
" style="fill:none;stroke:#000000;stroke-linecap:square;stroke-linejoin:miter;stroke-width:0.8;"/>
   </g>
   <g id="patch_6">
    <path d="M 36 25.92 
L 259.2 25.92 
" style="fill:none;stroke:#000000;stroke-linecap:square;stroke-linejoin:miter;stroke-width:0.8;"/>
   </g>
  </g>
 </g>
 <defs>
  <clipPath id="p5bbfb75ded">
   <rect height="163.08" width="223.2" x="36" y="25.92"/>
  </clipPath>
 </defs>
</svg>
