<?xml version="1.0" encoding="utf-8" standalone="no"?>
<!DOCTYPE svg PUBLIC "-//W3C//DTD SVG 1.1//EN"
  "http://www.w3.org/Graphics/SVG/1.1/DTD/svg11.dtd">
<!-- Created with matplotlib (https://matplotlib.org/) -->
<svg height="288pt" version="1.1" viewBox="0 0 432 288" width="432pt" xmlns="http://www.w3.org/2000/svg" xmlns:xlink="http://www.w3.org/1999/xlink">
 <defs>
  <style type="text/css">
*{stroke-linecap:butt;stroke-linejoin:round;}
  </style>
 </defs>
 <g id="figure_1">
  <g id="patch_1">
   <path d="M 0 288 
L 432 288 
L 432 0 
L 0 0 
z
" style="fill:#ffffff;"/>
  </g>
  <g id="axes_1">
   <g id="patch_2">
    <path d="M 54 252 
L 388.8 252 
L 388.8 34.56 
L 54 34.56 
z
" style="fill:#ffffff;"/>
   </g>
   <g id="matplotlib.axis_1">
    <g id="xtick_1">
     <g id="line2d_1">
      <path clip-path="url(#p3c1701b77e)" d="M 72.499265 252 
L 72.499265 34.56 
" style="fill:none;stroke:#b0b0b0;stroke-linecap:square;stroke-width:0.8;"/>
     </g>
     <g id="line2d_2">
      <defs>
       <path d="M 0 0 
L 0 3.5 
" id="m0118f9ee13" style="stroke:#000000;stroke-width:0.8;"/>
      </defs>
      <g>
       <use style="stroke:#000000;stroke-width:0.8;" x="72.499265" xlink:href="#m0118f9ee13" y="252"/>
      </g>
     </g>
     <g id="text_1">
      <!-- 20 -->
      <defs>
       <path d="M 19.1875 8.296875 
L 53.609375 8.296875 
L 53.609375 0 
L 7.328125 0 
L 7.328125 8.296875 
Q 12.9375 14.109375 22.625 23.890625 
Q 32.328125 33.6875 34.8125 36.53125 
Q 39.546875 41.84375 41.421875 45.53125 
Q 43.3125 49.21875 43.3125 52.78125 
Q 43.3125 58.59375 39.234375 62.25 
Q 35.15625 65.921875 28.609375 65.921875 
Q 23.96875 65.921875 18.8125 64.3125 
Q 13.671875 62.703125 7.8125 59.421875 
L 7.8125 69.390625 
Q 13.765625 71.78125 18.9375 73 
Q 24.125 74.21875 28.421875 74.21875 
Q 39.75 74.21875 46.484375 68.546875 
Q 53.21875 62.890625 53.21875 53.421875 
Q 53.21875 48.921875 51.53125 44.890625 
Q 49.859375 40.875 45.40625 35.40625 
Q 44.1875 33.984375 37.640625 27.21875 
Q 31.109375 20.453125 19.1875 8.296875 
z
" id="DejaVuSans-50"/>
       <path d="M 31.78125 66.40625 
Q 24.171875 66.40625 20.328125 58.90625 
Q 16.5 51.421875 16.5 36.375 
Q 16.5 21.390625 20.328125 13.890625 
Q 24.171875 6.390625 31.78125 6.390625 
Q 39.453125 6.390625 43.28125 13.890625 
Q 47.125 21.390625 47.125 36.375 
Q 47.125 51.421875 43.28125 58.90625 
Q 39.453125 66.40625 31.78125 66.40625 
z
M 31.78125 74.21875 
Q 44.046875 74.21875 50.515625 64.515625 
Q 56.984375 54.828125 56.984375 36.375 
Q 56.984375 17.96875 50.515625 8.265625 
Q 44.046875 -1.421875 31.78125 -1.421875 
Q 19.53125 -1.421875 13.0625 8.265625 
Q 6.59375 17.96875 6.59375 36.375 
Q 6.59375 54.828125 13.0625 64.515625 
Q 19.53125 74.21875 31.78125 74.21875 
z
" id="DejaVuSans-48"/>
      </defs>
      <g transform="translate(66.136765 266.598437)scale(0.1 -0.1)">
       <use xlink:href="#DejaVuSans-50"/>
       <use x="63.623047" xlink:href="#DejaVuSans-48"/>
      </g>
     </g>
    </g>
    <g id="xtick_2">
     <g id="line2d_3">
      <path clip-path="url(#p3c1701b77e)" d="M 126.464449 252 
L 126.464449 34.56 
" style="fill:none;stroke:#b0b0b0;stroke-linecap:square;stroke-width:0.8;"/>
     </g>
     <g id="line2d_4">
      <g>
       <use style="stroke:#000000;stroke-width:0.8;" x="126.464449" xlink:href="#m0118f9ee13" y="252"/>
      </g>
     </g>
     <g id="text_2">
      <!-- 30 -->
      <defs>
       <path d="M 40.578125 39.3125 
Q 47.65625 37.796875 51.625 33 
Q 55.609375 28.21875 55.609375 21.1875 
Q 55.609375 10.40625 48.1875 4.484375 
Q 40.765625 -1.421875 27.09375 -1.421875 
Q 22.515625 -1.421875 17.65625 -0.515625 
Q 12.796875 0.390625 7.625 2.203125 
L 7.625 11.71875 
Q 11.71875 9.328125 16.59375 8.109375 
Q 21.484375 6.890625 26.8125 6.890625 
Q 36.078125 6.890625 40.9375 10.546875 
Q 45.796875 14.203125 45.796875 21.1875 
Q 45.796875 27.640625 41.28125 31.265625 
Q 36.765625 34.90625 28.71875 34.90625 
L 20.21875 34.90625 
L 20.21875 43.015625 
L 29.109375 43.015625 
Q 36.375 43.015625 40.234375 45.921875 
Q 44.09375 48.828125 44.09375 54.296875 
Q 44.09375 59.90625 40.109375 62.90625 
Q 36.140625 65.921875 28.71875 65.921875 
Q 24.65625 65.921875 20.015625 65.03125 
Q 15.375 64.15625 9.8125 62.3125 
L 9.8125 71.09375 
Q 15.4375 72.65625 20.34375 73.4375 
Q 25.25 74.21875 29.59375 74.21875 
Q 40.828125 74.21875 47.359375 69.109375 
Q 53.90625 64.015625 53.90625 55.328125 
Q 53.90625 49.265625 50.4375 45.09375 
Q 46.96875 40.921875 40.578125 39.3125 
z
" id="DejaVuSans-51"/>
      </defs>
      <g transform="translate(120.101949 266.598437)scale(0.1 -0.1)">
       <use xlink:href="#DejaVuSans-51"/>
       <use x="63.623047" xlink:href="#DejaVuSans-48"/>
      </g>
     </g>
    </g>
    <g id="xtick_3">
     <g id="line2d_5">
      <path clip-path="url(#p3c1701b77e)" d="M 180.429632 252 
L 180.429632 34.56 
" style="fill:none;stroke:#b0b0b0;stroke-linecap:square;stroke-width:0.8;"/>
     </g>
     <g id="line2d_6">
      <g>
       <use style="stroke:#000000;stroke-width:0.8;" x="180.429632" xlink:href="#m0118f9ee13" y="252"/>
      </g>
     </g>
     <g id="text_3">
      <!-- 40 -->
      <defs>
       <path d="M 37.796875 64.3125 
L 12.890625 25.390625 
L 37.796875 25.390625 
z
M 35.203125 72.90625 
L 47.609375 72.90625 
L 47.609375 25.390625 
L 58.015625 25.390625 
L 58.015625 17.1875 
L 47.609375 17.1875 
L 47.609375 0 
L 37.796875 0 
L 37.796875 17.1875 
L 4.890625 17.1875 
L 4.890625 26.703125 
z
" id="DejaVuSans-52"/>
      </defs>
      <g transform="translate(174.067132 266.598437)scale(0.1 -0.1)">
       <use xlink:href="#DejaVuSans-52"/>
       <use x="63.623047" xlink:href="#DejaVuSans-48"/>
      </g>
     </g>
    </g>
    <g id="xtick_4">
     <g id="line2d_7">
      <path clip-path="url(#p3c1701b77e)" d="M 234.394816 252 
L 234.394816 34.56 
" style="fill:none;stroke:#b0b0b0;stroke-linecap:square;stroke-width:0.8;"/>
     </g>
     <g id="line2d_8">
      <g>
       <use style="stroke:#000000;stroke-width:0.8;" x="234.394816" xlink:href="#m0118f9ee13" y="252"/>
      </g>
     </g>
     <g id="text_4">
      <!-- 50 -->
      <defs>
       <path d="M 10.796875 72.90625 
L 49.515625 72.90625 
L 49.515625 64.59375 
L 19.828125 64.59375 
L 19.828125 46.734375 
Q 21.96875 47.46875 24.109375 47.828125 
Q 26.265625 48.1875 28.421875 48.1875 
Q 40.625 48.1875 47.75 41.5 
Q 54.890625 34.8125 54.890625 23.390625 
Q 54.890625 11.625 47.5625 5.09375 
Q 40.234375 -1.421875 26.90625 -1.421875 
Q 22.3125 -1.421875 17.546875 -0.640625 
Q 12.796875 0.140625 7.71875 1.703125 
L 7.71875 11.625 
Q 12.109375 9.234375 16.796875 8.0625 
Q 21.484375 6.890625 26.703125 6.890625 
Q 35.15625 6.890625 40.078125 11.328125 
Q 45.015625 15.765625 45.015625 23.390625 
Q 45.015625 31 40.078125 35.4375 
Q 35.15625 39.890625 26.703125 39.890625 
Q 22.75 39.890625 18.8125 39.015625 
Q 14.890625 38.140625 10.796875 36.28125 
z
" id="DejaVuSans-53"/>
      </defs>
      <g transform="translate(228.032316 266.598437)scale(0.1 -0.1)">
       <use xlink:href="#DejaVuSans-53"/>
       <use x="63.623047" xlink:href="#DejaVuSans-48"/>
      </g>
     </g>
    </g>
    <g id="xtick_5">
     <g id="line2d_9">
      <path clip-path="url(#p3c1701b77e)" d="M 288.36 252 
L 288.36 34.56 
" style="fill:none;stroke:#b0b0b0;stroke-linecap:square;stroke-width:0.8;"/>
     </g>
     <g id="line2d_10">
      <g>
       <use style="stroke:#000000;stroke-width:0.8;" x="288.36" xlink:href="#m0118f9ee13" y="252"/>
      </g>
     </g>
     <g id="text_5">
      <!-- 60 -->
      <defs>
       <path d="M 33.015625 40.375 
Q 26.375 40.375 22.484375 35.828125 
Q 18.609375 31.296875 18.609375 23.390625 
Q 18.609375 15.53125 22.484375 10.953125 
Q 26.375 6.390625 33.015625 6.390625 
Q 39.65625 6.390625 43.53125 10.953125 
Q 47.40625 15.53125 47.40625 23.390625 
Q 47.40625 31.296875 43.53125 35.828125 
Q 39.65625 40.375 33.015625 40.375 
z
M 52.59375 71.296875 
L 52.59375 62.3125 
Q 48.875 64.0625 45.09375 64.984375 
Q 41.3125 65.921875 37.59375 65.921875 
Q 27.828125 65.921875 22.671875 59.328125 
Q 17.53125 52.734375 16.796875 39.40625 
Q 19.671875 43.65625 24.015625 45.921875 
Q 28.375 48.1875 33.59375 48.1875 
Q 44.578125 48.1875 50.953125 41.515625 
Q 57.328125 34.859375 57.328125 23.390625 
Q 57.328125 12.15625 50.6875 5.359375 
Q 44.046875 -1.421875 33.015625 -1.421875 
Q 20.359375 -1.421875 13.671875 8.265625 
Q 6.984375 17.96875 6.984375 36.375 
Q 6.984375 53.65625 15.1875 63.9375 
Q 23.390625 74.21875 37.203125 74.21875 
Q 40.921875 74.21875 44.703125 73.484375 
Q 48.484375 72.75 52.59375 71.296875 
z
" id="DejaVuSans-54"/>
      </defs>
      <g transform="translate(281.9975 266.598437)scale(0.1 -0.1)">
       <use xlink:href="#DejaVuSans-54"/>
       <use x="63.623047" xlink:href="#DejaVuSans-48"/>
      </g>
     </g>
    </g>
    <g id="xtick_6">
     <g id="line2d_11">
      <path clip-path="url(#p3c1701b77e)" d="M 342.325184 252 
L 342.325184 34.56 
" style="fill:none;stroke:#b0b0b0;stroke-linecap:square;stroke-width:0.8;"/>
     </g>
     <g id="line2d_12">
      <g>
       <use style="stroke:#000000;stroke-width:0.8;" x="342.325184" xlink:href="#m0118f9ee13" y="252"/>
      </g>
     </g>
     <g id="text_6">
      <!-- 70 -->
      <defs>
       <path d="M 8.203125 72.90625 
L 55.078125 72.90625 
L 55.078125 68.703125 
L 28.609375 0 
L 18.3125 0 
L 43.21875 64.59375 
L 8.203125 64.59375 
z
" id="DejaVuSans-55"/>
      </defs>
      <g transform="translate(335.962684 266.598437)scale(0.1 -0.1)">
       <use xlink:href="#DejaVuSans-55"/>
       <use x="63.623047" xlink:href="#DejaVuSans-48"/>
      </g>
     </g>
    </g>
   </g>
   <g id="matplotlib.axis_2">
    <g id="ytick_1">
     <g id="line2d_13">
      <path clip-path="url(#p3c1701b77e)" d="M 54 237.661167 
L 388.8 237.661167 
" style="fill:none;stroke:#b0b0b0;stroke-linecap:square;stroke-width:0.8;"/>
     </g>
     <g id="line2d_14">
      <defs>
       <path d="M 0 0 
L -3.5 0 
" id="mb3abea4420" style="stroke:#000000;stroke-width:0.8;"/>
      </defs>
      <g>
       <use style="stroke:#000000;stroke-width:0.8;" x="54" xlink:href="#mb3abea4420" y="237.661167"/>
      </g>
     </g>
     <g id="text_7">
      <!-- −3 -->
      <defs>
       <path d="M 10.59375 35.5 
L 73.1875 35.5 
L 73.1875 27.203125 
L 10.59375 27.203125 
z
" id="DejaVuSans-8722"/>
      </defs>
      <g transform="translate(32.257812 241.460386)scale(0.1 -0.1)">
       <use xlink:href="#DejaVuSans-8722"/>
       <use x="83.789062" xlink:href="#DejaVuSans-51"/>
      </g>
     </g>
    </g>
    <g id="ytick_2">
     <g id="line2d_15">
      <path clip-path="url(#p3c1701b77e)" d="M 54 206.194459 
L 388.8 206.194459 
" style="fill:none;stroke:#b0b0b0;stroke-linecap:square;stroke-width:0.8;"/>
     </g>
     <g id="line2d_16">
      <g>
       <use style="stroke:#000000;stroke-width:0.8;" x="54" xlink:href="#mb3abea4420" y="206.194459"/>
      </g>
     </g>
     <g id="text_8">
      <!-- −2 -->
      <g transform="translate(32.257812 209.993678)scale(0.1 -0.1)">
       <use xlink:href="#DejaVuSans-8722"/>
       <use x="83.789062" xlink:href="#DejaVuSans-50"/>
      </g>
     </g>
    </g>
    <g id="ytick_3">
     <g id="line2d_17">
      <path clip-path="url(#p3c1701b77e)" d="M 54 174.72775 
L 388.8 174.72775 
" style="fill:none;stroke:#b0b0b0;stroke-linecap:square;stroke-width:0.8;"/>
     </g>
     <g id="line2d_18">
      <g>
       <use style="stroke:#000000;stroke-width:0.8;" x="54" xlink:href="#mb3abea4420" y="174.72775"/>
      </g>
     </g>
     <g id="text_9">
      <!-- −1 -->
      <defs>
       <path d="M 12.40625 8.296875 
L 28.515625 8.296875 
L 28.515625 63.921875 
L 10.984375 60.40625 
L 10.984375 69.390625 
L 28.421875 72.90625 
L 38.28125 72.90625 
L 38.28125 8.296875 
L 54.390625 8.296875 
L 54.390625 0 
L 12.40625 0 
z
" id="DejaVuSans-49"/>
      </defs>
      <g transform="translate(32.257812 178.526969)scale(0.1 -0.1)">
       <use xlink:href="#DejaVuSans-8722"/>
       <use x="83.789062" xlink:href="#DejaVuSans-49"/>
      </g>
     </g>
    </g>
    <g id="ytick_4">
     <g id="line2d_19">
      <path clip-path="url(#p3c1701b77e)" d="M 54 143.261042 
L 388.8 143.261042 
" style="fill:none;stroke:#b0b0b0;stroke-linecap:square;stroke-width:0.8;"/>
     </g>
     <g id="line2d_20">
      <g>
       <use style="stroke:#000000;stroke-width:0.8;" x="54" xlink:href="#mb3abea4420" y="143.261042"/>
      </g>
     </g>
     <g id="text_10">
      <!-- 0 -->
      <g transform="translate(40.6375 147.060261)scale(0.1 -0.1)">
       <use xlink:href="#DejaVuSans-48"/>
      </g>
     </g>
    </g>
    <g id="ytick_5">
     <g id="line2d_21">
      <path clip-path="url(#p3c1701b77e)" d="M 54 111.794334 
L 388.8 111.794334 
" style="fill:none;stroke:#b0b0b0;stroke-linecap:square;stroke-width:0.8;"/>
     </g>
     <g id="line2d_22">
      <g>
       <use style="stroke:#000000;stroke-width:0.8;" x="54" xlink:href="#mb3abea4420" y="111.794334"/>
      </g>
     </g>
     <g id="text_11">
      <!-- 1 -->
      <g transform="translate(40.6375 115.593552)scale(0.1 -0.1)">
       <use xlink:href="#DejaVuSans-49"/>
      </g>
     </g>
    </g>
    <g id="ytick_6">
     <g id="line2d_23">
      <path clip-path="url(#p3c1701b77e)" d="M 54 80.327625 
L 388.8 80.327625 
" style="fill:none;stroke:#b0b0b0;stroke-linecap:square;stroke-width:0.8;"/>
     </g>
     <g id="line2d_24">
      <g>
       <use style="stroke:#000000;stroke-width:0.8;" x="54" xlink:href="#mb3abea4420" y="80.327625"/>
      </g>
     </g>
     <g id="text_12">
      <!-- 2 -->
      <g transform="translate(40.6375 84.126844)scale(0.1 -0.1)">
       <use xlink:href="#DejaVuSans-50"/>
      </g>
     </g>
    </g>
    <g id="ytick_7">
     <g id="line2d_25">
      <path clip-path="url(#p3c1701b77e)" d="M 54 48.860917 
L 388.8 48.860917 
" style="fill:none;stroke:#b0b0b0;stroke-linecap:square;stroke-width:0.8;"/>
     </g>
     <g id="line2d_26">
      <g>
       <use style="stroke:#000000;stroke-width:0.8;" x="54" xlink:href="#mb3abea4420" y="48.860917"/>
      </g>
     </g>
     <g id="text_13">
      <!-- 3 -->
      <g transform="translate(40.6375 52.660136)scale(0.1 -0.1)">
       <use xlink:href="#DejaVuSans-51"/>
      </g>
     </g>
    </g>
   </g>
   <g id="line2d_27">
    <path clip-path="url(#p3c1701b77e)" d="M 69.218182 143.261004 
L 69.218182 143.261004 
L 147.473095 143.240415 
L 147.473095 143.240352 
L 148.012747 142.921106 
L 148.552398 141.988759 
L 149.09205 140.457233 
L 149.626306 136.44277 
L 151.245261 122.607591 
L 151.784913 119.308416 
L 152.329961 118.465974 
L 153.409265 118.451727 
L 153.948917 118.044847 
L 154.483172 116.319848 
L 156.118317 106.537018 
L 156.668762 104.874781 
L 157.186828 103.972159 
L 157.721083 103.751219 
L 167.979865 103.671836 
L 168.51412 102.994106 
L 170.133075 99.632257 
L 171.212379 98.024424 
L 172.291683 97.007334 
L 173.916035 96.185638 
L 174.989942 95.858077 
L 178.23325 95.505287 
L 187.401934 95.055864 
L 187.401934 95.051879 
L 187.941586 94.940454 
L 187.941586 94.940456 
L 189.560542 95.385969 
L 196.04176 95.234813 
L 196.04176 95.234968 
L 198.200368 95.167532 
L 198.200368 95.164248 
L 201.432882 94.983597 
L 201.432882 94.98404 
L 203.057234 94.915539 
L 203.057234 94.900295 
L 206.289749 94.517597 
L 207.369052 94.233824 
L 208.448356 94.212254 
L 208.448356 94.207046 
L 210.067311 93.628033 
L 211.146615 93.536118 
L 211.686267 93.282692 
L 212.225919 92.809351 
L 213.844874 91.081982 
L 213.844874 91.052516 
L 216.543133 88.957095 
L 216.543133 88.957467 
L 217.082785 88.880118 
L 217.622437 86.765808 
L 218.701741 77.236799 
L 218.701741 76.834437 
L 219.246789 71.978611 
L 219.781044 68.763048 
L 220.320696 67.340229 
L 220.865745 67.177933 
L 223.024352 67.066153 
L 223.024352 67.043599 
L 223.564004 66.047748 
L 224.098259 63.099931 
L 225.177563 56.960765 
L 226.256867 53.007772 
L 226.801915 51.834245 
L 227.33617 51.379876 
L 227.33617 51.379923 
L 241.372515 51.364358 
L 241.372515 51.360823 
L 241.90677 51.164146 
L 242.446422 50.804428 
L 242.986074 50.19679 
L 244.605029 48.032609 
L 245.684333 46.95881 
L 246.763636 46.374919 
L 248.922244 45.803011 
L 251.625899 45.452827 
L 253.77911 45.36271 
L 253.77911 45.367547 
L 254.858414 46.651916 
L 257.027814 46.540111 
L 257.027814 46.549463 
L 260.254932 46.346447 
L 261.334236 46.275577 
L 261.334236 46.275645 
L 263.49824 46.182937 
L 263.49824 46.168934 
L 263.49824 46.164693 
L 270.513714 45.814476 
L 271.587621 45.568609 
L 272.666925 45.497191 
L 272.666925 45.497253 
L 273.757021 45.386458 
L 273.757021 45.361293 
L 274.830928 45.04996 
L 276.444487 45.008312 
L 276.444487 44.988053 
L 277.523791 44.640963 
L 279.142747 44.58785 
L 279.687795 44.447199 
L 280.232843 242.020013 
L 280.23824 242.001119 
L 282.920309 241.68853 
L 284.544662 241.576507 
L 285.623965 241.388703 
L 285.623965 241.378238 
L 286.703269 241.195801 
L 288.316828 241.105357 
L 289.401528 240.56847 
L 290.480832 240.020684 
L 290.480832 240.020709 
L 291.015087 239.961798 
L 292.099787 239.629169 
L 298.030561 239.567899 
L 298.030561 239.558199 
L 298.570213 239.224593 
L 299.109865 238.086488 
L 299.649516 236.727255 
L 300.189168 235.079385 
L 301.273868 231.441343 
L 301.808124 230.578006 
L 303.432476 230.523438 
L 306.130735 230.407176 
L 306.66499 230.070061 
L 306.66499 229.996997 
L 307.749691 227.852077 
L 308.823598 225.774329 
L 309.902901 224.582816 
L 310.442553 224.202447 
L 310.982205 223.539359 
L 312.061509 222.192457 
L 313.140812 221.779399 
L 315.304816 219.366644 
L 316.394913 218.626022 
L 317.463424 218.280736 
L 318.537331 218.115823 
L 318.537331 218.121577 
L 319.622031 218.600053 
L 319.622031 218.599936 
L 321.775242 218.513857 
L 326.632108 218.029559 
L 326.632108 218.029722 
L 328.251064 217.96554 
L 328.251064 217.958332 
L 329.870019 217.887714 
L 329.870019 217.887794 
L 347.138878 217.287748 
L 347.138878 217.288064 
L 350.376789 217.005833 
L 351.461489 216.794212 
L 354.159749 216.7793 
L 355.244449 216.359843 
L 355.244449 216.354736 
L 356.312959 215.954865 
L 356.858008 215.86554 
L 357.392263 215.691817 
L 360.635571 215.668348 
L 372.502515 215.565118 
L 373.581818 215.514428 
L 373.581818 215.514428 
" style="fill:none;stroke:#0b64d4;stroke-linecap:square;stroke-width:1.5;"/>
   </g>
   <g id="line2d_28">
    <path clip-path="url(#p3c1701b77e)" d="M 69.218182 143.264116 
L 69.218182 143.264116 
L 148.012747 143.242834 
L 148.012747 143.198824 
L 148.012747 143.143422 
L 148.552398 143.056845 
L 148.552398 142.278255 
L 149.09205 142.047869 
L 149.09205 141.196772 
L 149.626306 140.863647 
L 149.626306 139.582785 
L 150.165957 138.764221 
L 150.165957 132.518636 
L 150.705609 131.566599 
L 150.705609 128.892461 
L 151.245261 128.063081 
L 151.245261 123.649304 
L 151.784913 122.815076 
L 151.784913 121.207879 
L 152.329961 120.513166 
L 152.329961 118.469213 
L 153.948917 118.329845 
L 154.483172 118.2168 
L 154.483172 117.632263 
L 155.028221 117.31929 
L 155.028221 113.477063 
L 155.562476 112.713956 
L 155.562476 110.694113 
L 156.118317 110.041211 
L 156.118317 107.132796 
L 156.668762 106.630023 
L 156.668762 105.49092 
L 157.186828 105.188456 
L 157.186828 104.452655 
L 157.721083 104.254995 
L 157.721083 103.745162 
L 160.430135 103.706667 
L 168.51412 103.620629 
L 168.51412 103.301551 
L 169.053772 103.147616 
L 169.053772 101.985927 
L 169.59882 101.733895 
L 169.59882 101.035702 
L 170.133075 100.797621 
L 170.133075 100.213584 
L 170.672727 99.994504 
L 170.672727 99.027821 
L 171.212379 98.858832 
L 171.212379 98.4007 
L 171.757427 98.255729 
L 171.757427 97.511433 
L 172.291683 97.337325 
L 172.291683 97.152501 
L 172.831335 96.96503 
L 172.831335 96.760175 
L 173.376383 96.62662 
L 173.376383 96.465712 
L 173.916035 96.32096 
L 173.916035 96.178519 
L 174.989942 95.981342 
L 174.989942 95.828199 
L 176.608897 95.651299 
L 176.608897 95.638912 
L 178.23325 95.497446 
L 178.23325 95.460088 
L 183.08472 95.262211 
L 183.08472 95.254625 
L 187.401934 95.138806 
L 187.401934 95.081584 
L 187.941586 94.947613 
L 187.941586 94.897116 
L 188.481238 94.886568 
L 188.481238 94.939022 
L 189.02089 95.080008 
L 189.02089 95.234133 
L 190.650638 95.308586 
L 195.502108 95.208492 
L 195.502108 95.204616 
L 200.353578 95.051947 
L 200.353578 94.99795 
L 205.750097 94.670597 
L 205.750097 94.654775 
L 206.289749 94.554845 
L 206.8294 94.40354 
L 206.8294 94.338626 
L 209.52766 93.957116 
L 209.52766 93.680808 
L 212.225919 93.302046 
L 212.225919 92.960749 
L 212.765571 92.759736 
L 212.765571 92.53805 
L 213.305222 92.421266 
L 213.305222 91.822827 
L 213.844874 91.70209 
L 213.844874 91.348709 
L 214.389923 91.230256 
L 214.389923 90.666569 
L 214.924178 90.500179 
L 214.924178 90.331739 
L 215.46383 90.153002 
L 215.46383 90.036703 
L 216.003482 89.87524 
L 216.003482 89.69263 
L 216.543133 89.488184 
L 216.543133 89.037182 
L 217.622437 88.826309 
L 217.622437 87.970029 
L 218.167485 87.464915 
L 218.167485 84.186137 
L 218.701741 83.137304 
L 218.701741 77.991892 
L 219.246789 76.875362 
L 219.246789 73.928811 
L 219.781044 72.963982 
L 219.781044 70.551752 
L 220.320696 69.920143 
L 220.320696 67.735235 
L 220.865745 67.496051 
L 220.865745 67.152109 
L 223.564004 66.998187 
L 223.564004 66.363137 
L 224.098259 66.060998 
L 224.098259 64.50265 
L 224.637911 63.839768 
L 224.637911 61.845045 
L 225.177563 61.16188 
L 225.177563 58.050854 
L 225.728008 57.479304 
L 225.733404 56.104605 
L 226.256867 55.659418 
L 226.256867 53.34529 
L 226.801915 53.016874 
L 226.801915 52.474131 
L 227.33617 52.217469 
L 227.33617 51.414771 
L 228.415474 51.312337 
L 241.90677 51.237736 
L 241.90677 51.196976 
L 242.446422 51.087587 
L 242.446422 50.810804 
L 242.986074 50.640558 
L 242.986074 50.412635 
L 243.525725 50.279566 
L 243.525725 49.798642 
L 244.070774 49.62526 
L 244.070774 48.725166 
L 244.605029 48.595085 
L 244.605029 48.336545 
L 245.150077 48.200488 
L 245.150077 47.466408 
L 245.684333 47.271168 
L 245.684333 47.072627 
L 246.223985 46.884778 
L 246.223985 46.73663 
L 246.763636 46.583516 
L 246.763636 46.38036 
L 247.308685 46.25756 
L 247.308685 46.219507 
L 247.848337 46.078831 
L 247.848337 46.018688 
L 248.922244 45.85334 
L 248.922244 45.74074 
L 250.001547 45.595232 
L 250.001547 45.564336 
L 251.625899 45.412116 
L 251.625899 45.378551 
L 254.340348 45.285962 
L 254.340348 45.436976 
L 254.340348 45.594529 
L 254.858414 45.765549 
L 254.858414 46.262533 
L 255.408859 46.505549 
L 255.408859 46.563942 
L 255.408859 46.521224 
L 258.641373 46.385664 
L 258.641373 46.367935 
L 258.641373 46.368294 
L 260.799981 46.260518 
L 260.799981 46.259586 
L 260.799981 46.245837 
L 271.047969 45.60477 
L 274.291277 45.225323 
L 274.291277 45.088306 
L 276.989536 44.931876 
L 276.989536 44.710234 
L 280.23824 44.443636 
L 280.23824 242.116364 
L 280.23824 241.994651 
L 282.920309 241.727105 
L 282.920309 241.692818 
L 283.459961 241.560026 
L 283.459961 241.521149 
L 285.623965 241.446603 
L 285.623965 241.428128 
L 285.623965 241.326194 
L 286.158221 241.203909 
L 286.158221 241.168142 
L 288.85648 241.026006 
L 288.85648 240.942915 
L 289.401528 240.849472 
L 289.401528 240.541723 
L 289.935783 240.38961 
L 289.935783 240.322541 
L 290.480832 240.186071 
L 290.480832 239.999532 
L 291.576325 239.826383 
L 291.576325 239.692933 
L 293.718743 239.527003 
L 298.570213 239.47162 
L 298.570213 239.425818 
L 298.570213 239.246127 
L 299.109865 239.139039 
L 299.109865 238.547638 
L 299.649516 238.283793 
L 299.649516 237.568994 
L 300.189168 237.268168 
L 300.189168 235.727172 
L 300.72882 235.391043 
L 300.72882 234.283726 
L 301.273868 233.941716 
L 301.273868 231.681437 
L 301.808124 231.377562 
L 301.808124 230.748159 
L 302.353172 230.48849 
L 302.353172 230.413646 
L 306.130735 230.297347 
L 307.204642 230.187635 
L 307.204642 229.279336 
L 307.749691 228.990414 
L 307.749691 228.152396 
L 308.283946 227.897984 
L 308.283946 226.905308 
L 308.823598 226.652758 
L 308.823598 226.099104 
L 309.36325 225.879624 
L 309.36325 225.378283 
L 309.902901 225.234726 
L 309.902901 224.653421 
L 310.442553 224.476288 
L 310.442553 224.313261 
L 310.982205 224.162861 
L 310.982205 223.603847 
L 311.521857 223.447904 
L 311.521857 222.954824 
L 312.061509 222.787915 
L 312.061509 222.169942 
L 312.606557 221.98143 
L 312.606557 221.949277 
L 313.140812 221.822079 
L 313.140812 221.752065 
L 313.680464 221.669749 
L 313.680464 221.2757 
L 314.225513 221.127811 
L 314.225513 220.730964 
L 314.759768 220.596472 
L 314.770561 219.850818 
L 315.304816 219.64951 
L 315.304816 219.449737 
L 315.844468 219.258589 
L 315.844468 218.90026 
L 316.394913 218.763351 
L 316.394913 218.637206 
L 316.918375 218.465512 
L 316.918375 218.419705 
L 317.463424 218.288941 
L 317.463424 218.203016 
L 318.537331 218.055239 
L 318.537331 217.991505 
L 319.076983 218.053984 
L 319.076983 218.117599 
L 319.622031 218.277934 
L 319.622031 218.428876 
L 321.240986 218.440025 
L 321.240986 218.392842 
L 321.240986 218.394167 
L 322.854545 218.323488 
L 322.854545 218.307563 
L 322.854545 218.279358 
L 323.394197 218.15087 
L 323.394197 218.139073 
L 326.092456 217.962906 
L 326.092456 217.937143 
L 331.488975 217.724676 
L 331.488975 217.676004 
L 340.123404 217.42772 
L 340.123404 217.404918 
L 345.525319 217.259647 
L 345.525319 217.2283 
L 349.302882 217.045987 
L 349.302882 216.972213 
L 350.916441 216.814665 
L 355.244449 216.495941 
L 355.244449 216.301217 
L 355.778704 216.150572 
L 355.778704 216.107649 
L 356.312959 215.974542 
L 356.312959 215.866673 
L 357.39766 215.709103 
L 357.39766 215.597343 
L 361.175222 215.544418 
L 373.047563 215.432996 
L 373.047563 215.423864 
L 373.581818 215.391422 
L 373.581818 215.391422 
" style="fill:none;stroke:#a80dfa;stroke-linecap:square;stroke-width:1.5;"/>
   </g>
   <g id="patch_3">
    <path d="M 54 252 
L 54 34.56 
" style="fill:none;stroke:#000000;stroke-linecap:square;stroke-linejoin:miter;stroke-width:0.8;"/>
   </g>
   <g id="patch_4">
    <path d="M 388.8 252 
L 388.8 34.56 
" style="fill:none;stroke:#000000;stroke-linecap:square;stroke-linejoin:miter;stroke-width:0.8;"/>
   </g>
   <g id="patch_5">
    <path d="M 54 252 
L 388.8 252 
" style="fill:none;stroke:#000000;stroke-linecap:square;stroke-linejoin:miter;stroke-width:0.8;"/>
   </g>
   <g id="patch_6">
    <path d="M 54 34.56 
L 388.8 34.56 
" style="fill:none;stroke:#000000;stroke-linecap:square;stroke-linejoin:miter;stroke-width:0.8;"/>
   </g>
   <g id="legend_1">
    <g id="patch_7">
     <path d="M 61 71.91625 
L 180.367188 71.91625 
Q 182.367188 71.91625 182.367188 69.91625 
L 182.367188 41.56 
Q 182.367188 39.56 180.367188 39.56 
L 61 39.56 
Q 59 39.56 59 41.56 
L 59 69.91625 
Q 59 71.91625 61 71.91625 
z
" style="fill:#ffffff;opacity:0.8;stroke:#cccccc;stroke-linejoin:miter;"/>
    </g>
    <g id="line2d_29">
     <path d="M 63 47.658437 
L 83 47.658437 
" style="fill:none;stroke:#0b64d4;stroke-linecap:square;stroke-width:1.5;"/>
    </g>
    <g id="line2d_30"/>
    <g id="text_14">
     <!-- ground truth -->
     <defs>
      <path d="M 45.40625 27.984375 
Q 45.40625 37.75 41.375 43.109375 
Q 37.359375 48.484375 30.078125 48.484375 
Q 22.859375 48.484375 18.828125 43.109375 
Q 14.796875 37.75 14.796875 27.984375 
Q 14.796875 18.265625 18.828125 12.890625 
Q 22.859375 7.515625 30.078125 7.515625 
Q 37.359375 7.515625 41.375 12.890625 
Q 45.40625 18.265625 45.40625 27.984375 
z
M 54.390625 6.78125 
Q 54.390625 -7.171875 48.1875 -13.984375 
Q 42 -20.796875 29.203125 -20.796875 
Q 24.46875 -20.796875 20.265625 -20.09375 
Q 16.0625 -19.390625 12.109375 -17.921875 
L 12.109375 -9.1875 
Q 16.0625 -11.328125 19.921875 -12.34375 
Q 23.78125 -13.375 27.78125 -13.375 
Q 36.625 -13.375 41.015625 -8.765625 
Q 45.40625 -4.15625 45.40625 5.171875 
L 45.40625 9.625 
Q 42.625 4.78125 38.28125 2.390625 
Q 33.9375 0 27.875 0 
Q 17.828125 0 11.671875 7.65625 
Q 5.515625 15.328125 5.515625 27.984375 
Q 5.515625 40.671875 11.671875 48.328125 
Q 17.828125 56 27.875 56 
Q 33.9375 56 38.28125 53.609375 
Q 42.625 51.21875 45.40625 46.390625 
L 45.40625 54.6875 
L 54.390625 54.6875 
z
" id="DejaVuSans-103"/>
      <path d="M 41.109375 46.296875 
Q 39.59375 47.171875 37.8125 47.578125 
Q 36.03125 48 33.890625 48 
Q 26.265625 48 22.1875 43.046875 
Q 18.109375 38.09375 18.109375 28.8125 
L 18.109375 0 
L 9.078125 0 
L 9.078125 54.6875 
L 18.109375 54.6875 
L 18.109375 46.1875 
Q 20.953125 51.171875 25.484375 53.578125 
Q 30.03125 56 36.53125 56 
Q 37.453125 56 38.578125 55.875 
Q 39.703125 55.765625 41.0625 55.515625 
z
" id="DejaVuSans-114"/>
      <path d="M 30.609375 48.390625 
Q 23.390625 48.390625 19.1875 42.75 
Q 14.984375 37.109375 14.984375 27.296875 
Q 14.984375 17.484375 19.15625 11.84375 
Q 23.34375 6.203125 30.609375 6.203125 
Q 37.796875 6.203125 41.984375 11.859375 
Q 46.1875 17.53125 46.1875 27.296875 
Q 46.1875 37.015625 41.984375 42.703125 
Q 37.796875 48.390625 30.609375 48.390625 
z
M 30.609375 56 
Q 42.328125 56 49.015625 48.375 
Q 55.71875 40.765625 55.71875 27.296875 
Q 55.71875 13.875 49.015625 6.21875 
Q 42.328125 -1.421875 30.609375 -1.421875 
Q 18.84375 -1.421875 12.171875 6.21875 
Q 5.515625 13.875 5.515625 27.296875 
Q 5.515625 40.765625 12.171875 48.375 
Q 18.84375 56 30.609375 56 
z
" id="DejaVuSans-111"/>
      <path d="M 8.5 21.578125 
L 8.5 54.6875 
L 17.484375 54.6875 
L 17.484375 21.921875 
Q 17.484375 14.15625 20.5 10.265625 
Q 23.53125 6.390625 29.59375 6.390625 
Q 36.859375 6.390625 41.078125 11.03125 
Q 45.3125 15.671875 45.3125 23.6875 
L 45.3125 54.6875 
L 54.296875 54.6875 
L 54.296875 0 
L 45.3125 0 
L 45.3125 8.40625 
Q 42.046875 3.421875 37.71875 1 
Q 33.40625 -1.421875 27.6875 -1.421875 
Q 18.265625 -1.421875 13.375 4.4375 
Q 8.5 10.296875 8.5 21.578125 
z
M 31.109375 56 
z
" id="DejaVuSans-117"/>
      <path d="M 54.890625 33.015625 
L 54.890625 0 
L 45.90625 0 
L 45.90625 32.71875 
Q 45.90625 40.484375 42.875 44.328125 
Q 39.84375 48.1875 33.796875 48.1875 
Q 26.515625 48.1875 22.3125 43.546875 
Q 18.109375 38.921875 18.109375 30.90625 
L 18.109375 0 
L 9.078125 0 
L 9.078125 54.6875 
L 18.109375 54.6875 
L 18.109375 46.1875 
Q 21.34375 51.125 25.703125 53.5625 
Q 30.078125 56 35.796875 56 
Q 45.21875 56 50.046875 50.171875 
Q 54.890625 44.34375 54.890625 33.015625 
z
" id="DejaVuSans-110"/>
      <path d="M 45.40625 46.390625 
L 45.40625 75.984375 
L 54.390625 75.984375 
L 54.390625 0 
L 45.40625 0 
L 45.40625 8.203125 
Q 42.578125 3.328125 38.25 0.953125 
Q 33.9375 -1.421875 27.875 -1.421875 
Q 17.96875 -1.421875 11.734375 6.484375 
Q 5.515625 14.40625 5.515625 27.296875 
Q 5.515625 40.1875 11.734375 48.09375 
Q 17.96875 56 27.875 56 
Q 33.9375 56 38.25 53.625 
Q 42.578125 51.265625 45.40625 46.390625 
z
M 14.796875 27.296875 
Q 14.796875 17.390625 18.875 11.75 
Q 22.953125 6.109375 30.078125 6.109375 
Q 37.203125 6.109375 41.296875 11.75 
Q 45.40625 17.390625 45.40625 27.296875 
Q 45.40625 37.203125 41.296875 42.84375 
Q 37.203125 48.484375 30.078125 48.484375 
Q 22.953125 48.484375 18.875 42.84375 
Q 14.796875 37.203125 14.796875 27.296875 
z
" id="DejaVuSans-100"/>
      <path id="DejaVuSans-32"/>
      <path d="M 18.3125 70.21875 
L 18.3125 54.6875 
L 36.8125 54.6875 
L 36.8125 47.703125 
L 18.3125 47.703125 
L 18.3125 18.015625 
Q 18.3125 11.328125 20.140625 9.421875 
Q 21.96875 7.515625 27.59375 7.515625 
L 36.8125 7.515625 
L 36.8125 0 
L 27.59375 0 
Q 17.1875 0 13.234375 3.875 
Q 9.28125 7.765625 9.28125 18.015625 
L 9.28125 47.703125 
L 2.6875 47.703125 
L 2.6875 54.6875 
L 9.28125 54.6875 
L 9.28125 70.21875 
z
" id="DejaVuSans-116"/>
      <path d="M 54.890625 33.015625 
L 54.890625 0 
L 45.90625 0 
L 45.90625 32.71875 
Q 45.90625 40.484375 42.875 44.328125 
Q 39.84375 48.1875 33.796875 48.1875 
Q 26.515625 48.1875 22.3125 43.546875 
Q 18.109375 38.921875 18.109375 30.90625 
L 18.109375 0 
L 9.078125 0 
L 9.078125 75.984375 
L 18.109375 75.984375 
L 18.109375 46.1875 
Q 21.34375 51.125 25.703125 53.5625 
Q 30.078125 56 35.796875 56 
Q 45.21875 56 50.046875 50.171875 
Q 54.890625 44.34375 54.890625 33.015625 
z
" id="DejaVuSans-104"/>
     </defs>
     <g transform="translate(91 51.158437)scale(0.1 -0.1)">
      <use xlink:href="#DejaVuSans-103"/>
      <use x="63.476562" xlink:href="#DejaVuSans-114"/>
      <use x="104.558594" xlink:href="#DejaVuSans-111"/>
      <use x="165.740234" xlink:href="#DejaVuSans-117"/>
      <use x="229.119141" xlink:href="#DejaVuSans-110"/>
      <use x="292.498047" xlink:href="#DejaVuSans-100"/>
      <use x="355.974609" xlink:href="#DejaVuSans-32"/>
      <use x="387.761719" xlink:href="#DejaVuSans-116"/>
      <use x="426.970703" xlink:href="#DejaVuSans-114"/>
      <use x="468.083984" xlink:href="#DejaVuSans-117"/>
      <use x="531.462891" xlink:href="#DejaVuSans-116"/>
      <use x="570.671875" xlink:href="#DejaVuSans-104"/>
     </g>
    </g>
    <g id="line2d_31">
     <path d="M 63 62.336562 
L 83 62.336562 
" style="fill:none;stroke:#a80dfa;stroke-linecap:square;stroke-width:1.5;"/>
    </g>
    <g id="line2d_32"/>
    <g id="text_15">
     <!-- odometry filtered -->
     <defs>
      <path d="M 52 44.1875 
Q 55.375 50.25 60.0625 53.125 
Q 64.75 56 71.09375 56 
Q 79.640625 56 84.28125 50.015625 
Q 88.921875 44.046875 88.921875 33.015625 
L 88.921875 0 
L 79.890625 0 
L 79.890625 32.71875 
Q 79.890625 40.578125 77.09375 44.375 
Q 74.3125 48.1875 68.609375 48.1875 
Q 61.625 48.1875 57.5625 43.546875 
Q 53.515625 38.921875 53.515625 30.90625 
L 53.515625 0 
L 44.484375 0 
L 44.484375 32.71875 
Q 44.484375 40.625 41.703125 44.40625 
Q 38.921875 48.1875 33.109375 48.1875 
Q 26.21875 48.1875 22.15625 43.53125 
Q 18.109375 38.875 18.109375 30.90625 
L 18.109375 0 
L 9.078125 0 
L 9.078125 54.6875 
L 18.109375 54.6875 
L 18.109375 46.1875 
Q 21.1875 51.21875 25.484375 53.609375 
Q 29.78125 56 35.6875 56 
Q 41.65625 56 45.828125 52.96875 
Q 50 49.953125 52 44.1875 
z
" id="DejaVuSans-109"/>
      <path d="M 56.203125 29.59375 
L 56.203125 25.203125 
L 14.890625 25.203125 
Q 15.484375 15.921875 20.484375 11.0625 
Q 25.484375 6.203125 34.421875 6.203125 
Q 39.59375 6.203125 44.453125 7.46875 
Q 49.3125 8.734375 54.109375 11.28125 
L 54.109375 2.78125 
Q 49.265625 0.734375 44.1875 -0.34375 
Q 39.109375 -1.421875 33.890625 -1.421875 
Q 20.796875 -1.421875 13.15625 6.1875 
Q 5.515625 13.8125 5.515625 26.8125 
Q 5.515625 40.234375 12.765625 48.109375 
Q 20.015625 56 32.328125 56 
Q 43.359375 56 49.78125 48.890625 
Q 56.203125 41.796875 56.203125 29.59375 
z
M 47.21875 32.234375 
Q 47.125 39.59375 43.09375 43.984375 
Q 39.0625 48.390625 32.421875 48.390625 
Q 24.90625 48.390625 20.390625 44.140625 
Q 15.875 39.890625 15.1875 32.171875 
z
" id="DejaVuSans-101"/>
      <path d="M 32.171875 -5.078125 
Q 28.375 -14.84375 24.75 -17.8125 
Q 21.140625 -20.796875 15.09375 -20.796875 
L 7.90625 -20.796875 
L 7.90625 -13.28125 
L 13.1875 -13.28125 
Q 16.890625 -13.28125 18.9375 -11.515625 
Q 21 -9.765625 23.484375 -3.21875 
L 25.09375 0.875 
L 2.984375 54.6875 
L 12.5 54.6875 
L 29.59375 11.921875 
L 46.6875 54.6875 
L 56.203125 54.6875 
z
" id="DejaVuSans-121"/>
      <path d="M 37.109375 75.984375 
L 37.109375 68.5 
L 28.515625 68.5 
Q 23.6875 68.5 21.796875 66.546875 
Q 19.921875 64.59375 19.921875 59.515625 
L 19.921875 54.6875 
L 34.71875 54.6875 
L 34.71875 47.703125 
L 19.921875 47.703125 
L 19.921875 0 
L 10.890625 0 
L 10.890625 47.703125 
L 2.296875 47.703125 
L 2.296875 54.6875 
L 10.890625 54.6875 
L 10.890625 58.5 
Q 10.890625 67.625 15.140625 71.796875 
Q 19.390625 75.984375 28.609375 75.984375 
z
" id="DejaVuSans-102"/>
      <path d="M 9.421875 54.6875 
L 18.40625 54.6875 
L 18.40625 0 
L 9.421875 0 
z
M 9.421875 75.984375 
L 18.40625 75.984375 
L 18.40625 64.59375 
L 9.421875 64.59375 
z
" id="DejaVuSans-105"/>
      <path d="M 9.421875 75.984375 
L 18.40625 75.984375 
L 18.40625 0 
L 9.421875 0 
z
" id="DejaVuSans-108"/>
     </defs>
     <g transform="translate(91 65.836562)scale(0.1 -0.1)">
      <use xlink:href="#DejaVuSans-111"/>
      <use x="61.181641" xlink:href="#DejaVuSans-100"/>
      <use x="124.658203" xlink:href="#DejaVuSans-111"/>
      <use x="185.839844" xlink:href="#DejaVuSans-109"/>
      <use x="283.251953" xlink:href="#DejaVuSans-101"/>
      <use x="344.775391" xlink:href="#DejaVuSans-116"/>
      <use x="383.984375" xlink:href="#DejaVuSans-114"/>
      <use x="425.097656" xlink:href="#DejaVuSans-121"/>
      <use x="484.277344" xlink:href="#DejaVuSans-32"/>
      <use x="516.064453" xlink:href="#DejaVuSans-102"/>
      <use x="551.269531" xlink:href="#DejaVuSans-105"/>
      <use x="579.052734" xlink:href="#DejaVuSans-108"/>
      <use x="606.835938" xlink:href="#DejaVuSans-116"/>
      <use x="646.044922" xlink:href="#DejaVuSans-101"/>
      <use x="707.568359" xlink:href="#DejaVuSans-114"/>
      <use x="748.650391" xlink:href="#DejaVuSans-101"/>
      <use x="810.173828" xlink:href="#DejaVuSans-100"/>
     </g>
    </g>
   </g>
  </g>
  <g id="axes_2">
   <g id="patch_8">
    <path d="M 79 227 
L 263.14 227 
L 263.14 150.896 
L 79 150.896 
z
" style="fill:#ffffff;"/>
   </g>
   <g id="matplotlib.axis_3">
    <g id="xtick_7">
     <g id="line2d_33">
      <path clip-path="url(#p481662993e)" d="M 79 227 
L 79 150.896 
" style="fill:none;stroke:#b0b0b0;stroke-linecap:square;stroke-width:0.8;"/>
     </g>
     <g id="line2d_34">
      <g>
       <use style="stroke:#000000;stroke-width:0.8;" x="79" xlink:href="#m0118f9ee13" y="227"/>
      </g>
     </g>
     <g id="text_16">
      <!-- 34.0 -->
      <defs>
       <path d="M 10.6875 12.40625 
L 21 12.40625 
L 21 0 
L 10.6875 0 
z
" id="DejaVuSans-46"/>
      </defs>
      <g transform="translate(67.867188 241.598437)scale(0.1 -0.1)">
       <use xlink:href="#DejaVuSans-51"/>
       <use x="63.623047" xlink:href="#DejaVuSans-52"/>
       <use x="127.246094" xlink:href="#DejaVuSans-46"/>
       <use x="159.033203" xlink:href="#DejaVuSans-48"/>
      </g>
     </g>
    </g>
    <g id="xtick_8">
     <g id="line2d_35">
      <path clip-path="url(#p481662993e)" d="M 125.035 227 
L 125.035 150.896 
" style="fill:none;stroke:#b0b0b0;stroke-linecap:square;stroke-width:0.8;"/>
     </g>
     <g id="line2d_36">
      <g>
       <use style="stroke:#000000;stroke-width:0.8;" x="125.035" xlink:href="#m0118f9ee13" y="227"/>
      </g>
     </g>
     <g id="text_17">
      <!-- 34.5 -->
      <g transform="translate(113.902187 241.598437)scale(0.1 -0.1)">
       <use xlink:href="#DejaVuSans-51"/>
       <use x="63.623047" xlink:href="#DejaVuSans-52"/>
       <use x="127.246094" xlink:href="#DejaVuSans-46"/>
       <use x="159.033203" xlink:href="#DejaVuSans-53"/>
      </g>
     </g>
    </g>
    <g id="xtick_9">
     <g id="line2d_37">
      <path clip-path="url(#p481662993e)" d="M 171.07 227 
L 171.07 150.896 
" style="fill:none;stroke:#b0b0b0;stroke-linecap:square;stroke-width:0.8;"/>
     </g>
     <g id="line2d_38">
      <g>
       <use style="stroke:#000000;stroke-width:0.8;" x="171.07" xlink:href="#m0118f9ee13" y="227"/>
      </g>
     </g>
     <g id="text_18">
      <!-- 35.0 -->
      <g transform="translate(159.937188 241.598437)scale(0.1 -0.1)">
       <use xlink:href="#DejaVuSans-51"/>
       <use x="63.623047" xlink:href="#DejaVuSans-53"/>
       <use x="127.246094" xlink:href="#DejaVuSans-46"/>
       <use x="159.033203" xlink:href="#DejaVuSans-48"/>
      </g>
     </g>
    </g>
    <g id="xtick_10">
     <g id="line2d_39">
      <path clip-path="url(#p481662993e)" d="M 217.105 227 
L 217.105 150.896 
" style="fill:none;stroke:#b0b0b0;stroke-linecap:square;stroke-width:0.8;"/>
     </g>
     <g id="line2d_40">
      <g>
       <use style="stroke:#000000;stroke-width:0.8;" x="217.105" xlink:href="#m0118f9ee13" y="227"/>
      </g>
     </g>
     <g id="text_19">
      <!-- 35.5 -->
      <g transform="translate(205.972188 241.598437)scale(0.1 -0.1)">
       <use xlink:href="#DejaVuSans-51"/>
       <use x="63.623047" xlink:href="#DejaVuSans-53"/>
       <use x="127.246094" xlink:href="#DejaVuSans-46"/>
       <use x="159.033203" xlink:href="#DejaVuSans-53"/>
      </g>
     </g>
    </g>
    <g id="xtick_11">
     <g id="line2d_41">
      <path clip-path="url(#p481662993e)" d="M 263.14 227 
L 263.14 150.896 
" style="fill:none;stroke:#b0b0b0;stroke-linecap:square;stroke-width:0.8;"/>
     </g>
     <g id="line2d_42">
      <g>
       <use style="stroke:#000000;stroke-width:0.8;" x="263.14" xlink:href="#m0118f9ee13" y="227"/>
      </g>
     </g>
     <g id="text_20">
      <!-- 36.0 -->
      <g transform="translate(252.007187 241.598437)scale(0.1 -0.1)">
       <use xlink:href="#DejaVuSans-51"/>
       <use x="63.623047" xlink:href="#DejaVuSans-54"/>
       <use x="127.246094" xlink:href="#DejaVuSans-46"/>
       <use x="159.033203" xlink:href="#DejaVuSans-48"/>
      </g>
     </g>
    </g>
   </g>
   <g id="matplotlib.axis_4">
    <g id="ytick_8">
     <g id="line2d_43">
      <path clip-path="url(#p481662993e)" d="M 79 221.9264 
L 263.14 221.9264 
" style="fill:none;stroke:#b0b0b0;stroke-linecap:square;stroke-width:0.8;"/>
     </g>
     <g id="line2d_44">
      <g>
       <use style="stroke:#000000;stroke-width:0.8;" x="79" xlink:href="#mb3abea4420" y="221.9264"/>
      </g>
     </g>
     <g id="text_21">
      <!-- 0.0 -->
      <g transform="translate(56.096875 225.725619)scale(0.1 -0.1)">
       <use xlink:href="#DejaVuSans-48"/>
       <use x="63.623047" xlink:href="#DejaVuSans-46"/>
       <use x="95.410156" xlink:href="#DejaVuSans-48"/>
      </g>
     </g>
    </g>
    <g id="ytick_9">
     <g id="line2d_45">
      <path clip-path="url(#p481662993e)" d="M 79 196.5584 
L 263.14 196.5584 
" style="fill:none;stroke:#b0b0b0;stroke-linecap:square;stroke-width:0.8;"/>
     </g>
     <g id="line2d_46">
      <g>
       <use style="stroke:#000000;stroke-width:0.8;" x="79" xlink:href="#mb3abea4420" y="196.5584"/>
      </g>
     </g>
     <g id="text_22">
      <!-- 0.5 -->
      <g transform="translate(56.096875 200.357619)scale(0.1 -0.1)">
       <use xlink:href="#DejaVuSans-48"/>
       <use x="63.623047" xlink:href="#DejaVuSans-46"/>
       <use x="95.410156" xlink:href="#DejaVuSans-53"/>
      </g>
     </g>
    </g>
    <g id="ytick_10">
     <g id="line2d_47">
      <path clip-path="url(#p481662993e)" d="M 79 171.1904 
L 263.14 171.1904 
" style="fill:none;stroke:#b0b0b0;stroke-linecap:square;stroke-width:0.8;"/>
     </g>
     <g id="line2d_48">
      <g>
       <use style="stroke:#000000;stroke-width:0.8;" x="79" xlink:href="#mb3abea4420" y="171.1904"/>
      </g>
     </g>
     <g id="text_23">
      <!-- 1.0 -->
      <g transform="translate(56.096875 174.989619)scale(0.1 -0.1)">
       <use xlink:href="#DejaVuSans-49"/>
       <use x="63.623047" xlink:href="#DejaVuSans-46"/>
       <use x="95.410156" xlink:href="#DejaVuSans-48"/>
      </g>
     </g>
    </g>
   </g>
   <g id="line2d_49">
    <path clip-path="url(#p481662993e)" d="M 78.35551 221.378297 
L 87.56251 219.956072 
L 87.56251 219.875008 
L 96.76951 217.590642 
L 96.76951 217.40562 
L 105.88444 211.608621 
L 105.88444 210.932818 
L 115.09144 203.312328 
L 115.09144 202.714871 
L 124.29844 196.248232 
L 124.29844 195.687354 
L 133.50544 189.186162 
L 133.50544 188.62538 
L 142.71244 183.512933 
L 142.71244 183.305887 
L 152.01151 181.947558 
L 170.42551 181.924587 
L 179.63251 181.282702 
L 179.63251 181.268545 
L 188.74744 178.810329 
L 188.74744 178.487208 
L 198.04651 172.873262 
L 198.04651 172.529547 
L 207.16144 167.517607 
L 207.16144 167.163147 
L 216.64465 162.926632 
L 216.64465 162.713657 
L 226.03579 160.113618 
L 226.03579 160.033515 
L 234.87451 158.578154 
L 243.98944 158.221917 
L 271.61044 158.22144 
L 271.61044 158.22144 
" style="fill:none;stroke:#0b64d4;stroke-linecap:square;stroke-width:1.5;"/>
   </g>
   <g id="line2d_50">
    <path clip-path="url(#p481662993e)" d="M 78.35551 221.736753 
L 87.56251 221.597158 
L 87.56251 221.412492 
L 87.56251 221.208932 
L 87.56251 220.957486 
L 87.56251 220.670991 
L 87.56251 220.341783 
L 96.76951 219.970316 
L 96.76951 219.52175 
L 96.76951 219.081939 
L 96.76951 218.598032 
L 105.88444 218.06091 
L 105.88444 217.513341 
L 105.88444 216.841308 
L 105.88444 215.995686 
L 115.09144 214.675857 
L 115.09144 213.053782 
L 115.09144 211.307694 
L 115.09144 209.518203 
L 115.09144 207.899627 
L 115.09144 206.225538 
L 115.09144 204.605659 
L 124.29844 203.070621 
L 124.29844 201.6209 
L 124.29844 200.226875 
L 124.29844 198.75892 
L 133.50544 197.421652 
L 133.50544 196.013311 
L 133.50544 194.615023 
L 133.50544 193.002714 
L 133.50544 191.800402 
L 133.50544 190.305007 
L 142.71244 188.959923 
L 142.71244 187.608678 
L 142.71244 186.368525 
L 152.01151 185.24839 
L 152.01151 184.272459 
L 152.01151 183.475956 
L 152.01151 182.847401 
L 152.01151 182.377131 
L 152.01151 182.082903 
L 152.01151 181.952781 
L 161.12644 181.934375 
L 161.12644 181.929419 
L 161.12644 181.928617 
L 161.12644 181.925113 
L 170.42551 181.924365 
L 170.42551 181.920727 
L 170.42551 181.919466 
L 170.42551 181.915336 
L 170.42551 181.911902 
L 170.42551 181.904311 
L 179.63251 181.898257 
L 179.63251 181.888835 
L 179.63251 181.847267 
L 179.63251 181.728067 
L 188.74744 181.545796 
L 188.74744 181.294809 
L 188.74744 181.004612 
L 188.74744 180.603307 
L 198.04651 180.098678 
L 198.04651 179.454219 
L 198.04651 178.616955 
L 198.04651 177.561925 
L 198.04651 176.358826 
L 198.04651 175.06021 
L 198.04651 173.903583 
L 207.16144 172.673173 
L 207.16144 171.484954 
L 207.16144 170.495236 
L 207.16144 169.416437 
L 216.64465 168.363717 
L 216.64465 167.287921 
L 216.64465 166.345702 
L 216.64465 165.40275 
L 216.64465 164.514257 
L 216.64465 163.674272 
L 226.03579 162.863617 
L 226.03579 162.191492 
L 226.03579 161.56048 
L 226.03579 161.026961 
L 234.87451 160.539276 
L 234.87451 160.09472 
L 234.87451 159.706514 
L 234.87451 159.352891 
L 243.98944 159.034191 
L 243.98944 158.764057 
L 243.98944 158.554407 
L 243.98944 158.411571 
L 243.98944 158.295012 
L 243.98944 158.212152 
L 253.19644 158.169606 
L 253.19644 158.161279 
L 253.19644 158.161255 
L 253.19644 158.160117 
L 253.19644 158.160081 
L 253.19644 158.159394 
L 262.40344 158.159213 
L 262.40344 158.159031 
L 262.40344 158.159004 
L 262.40344 158.158399 
L 262.40344 158.158373 
L 271.61044 158.158346 
" style="fill:none;stroke:#a80dfa;stroke-linecap:square;stroke-width:1.5;"/>
   </g>
   <g id="patch_9">
    <path d="M 79 227 
L 79 150.896 
" style="fill:none;stroke:#000000;stroke-linecap:square;stroke-linejoin:miter;stroke-width:0.8;"/>
   </g>
   <g id="patch_10">
    <path d="M 263.14 227 
L 263.14 150.896 
" style="fill:none;stroke:#000000;stroke-linecap:square;stroke-linejoin:miter;stroke-width:0.8;"/>
   </g>
   <g id="patch_11">
    <path d="M 79 227 
L 263.14 227 
" style="fill:none;stroke:#000000;stroke-linecap:square;stroke-linejoin:miter;stroke-width:0.8;"/>
   </g>
   <g id="patch_12">
    <path d="M 79 150.896 
L 263.14 150.896 
" style="fill:none;stroke:#000000;stroke-linecap:square;stroke-linejoin:miter;stroke-width:0.8;"/>
   </g>
  </g>
 </g>
 <defs>
  <clipPath id="p3c1701b77e">
   <rect height="217.44" width="334.8" x="54" y="34.56"/>
  </clipPath>
  <clipPath id="p481662993e">
   <rect height="76.104" width="184.14" x="79" y="150.896"/>
  </clipPath>
 </defs>
</svg>
