<?xml version="1.0" encoding="utf-8" standalone="no"?>
<!DOCTYPE svg PUBLIC "-//W3C//DTD SVG 1.1//EN"
  "http://www.w3.org/Graphics/SVG/1.1/DTD/svg11.dtd">
<!-- Created with matplotlib (https://matplotlib.org/) -->
<svg height="432pt" version="1.1" viewBox="0 0 576 432" width="576pt" xmlns="http://www.w3.org/2000/svg" xmlns:xlink="http://www.w3.org/1999/xlink">
 <defs>
  <style type="text/css">
*{stroke-linecap:butt;stroke-linejoin:round;}
  </style>
 </defs>
 <g id="figure_1">
  <g id="patch_1">
   <path d="M 0 432 
L 576 432 
L 576 0 
L 0 0 
z
" style="fill:#ffffff;"/>
  </g>
  <g id="axes_1">
   <g id="patch_2">
    <path d="M 72 378 
L 518.4 378 
L 518.4 51.84 
L 72 51.84 
z
" style="fill:#ffffff;"/>
   </g>
   <g id="matplotlib.axis_1">
    <g id="xtick_1">
     <g id="line2d_1">
      <path clip-path="url(#pa83bbdf918)" d="M 90.023387 378 
L 90.023387 51.84 
" style="fill:none;stroke:#b0b0b0;stroke-linecap:square;stroke-width:0.8;"/>
     </g>
     <g id="line2d_2">
      <defs>
       <path d="M 0 0 
L 0 3.5 
" id="m3591f7e0eb" style="stroke:#000000;stroke-width:0.8;"/>
      </defs>
      <g>
       <use style="stroke:#000000;stroke-width:0.8;" x="90.023387" xlink:href="#m3591f7e0eb" y="378"/>
      </g>
     </g>
     <g id="text_1">
      <!-- 1.5 -->
      <defs>
       <path d="M 12.40625 8.296875 
L 28.515625 8.296875 
L 28.515625 63.921875 
L 10.984375 60.40625 
L 10.984375 69.390625 
L 28.421875 72.90625 
L 38.28125 72.90625 
L 38.28125 8.296875 
L 54.390625 8.296875 
L 54.390625 0 
L 12.40625 0 
z
" id="DejaVuSans-49"/>
       <path d="M 10.6875 12.40625 
L 21 12.40625 
L 21 0 
L 10.6875 0 
z
" id="DejaVuSans-46"/>
       <path d="M 10.796875 72.90625 
L 49.515625 72.90625 
L 49.515625 64.59375 
L 19.828125 64.59375 
L 19.828125 46.734375 
Q 21.96875 47.46875 24.109375 47.828125 
Q 26.265625 48.1875 28.421875 48.1875 
Q 40.625 48.1875 47.75 41.5 
Q 54.890625 34.8125 54.890625 23.390625 
Q 54.890625 11.625 47.5625 5.09375 
Q 40.234375 -1.421875 26.90625 -1.421875 
Q 22.3125 -1.421875 17.546875 -0.640625 
Q 12.796875 0.140625 7.71875 1.703125 
L 7.71875 11.625 
Q 12.109375 9.234375 16.796875 8.0625 
Q 21.484375 6.890625 26.703125 6.890625 
Q 35.15625 6.890625 40.078125 11.328125 
Q 45.015625 15.765625 45.015625 23.390625 
Q 45.015625 31 40.078125 35.4375 
Q 35.15625 39.890625 26.703125 39.890625 
Q 22.75 39.890625 18.8125 39.015625 
Q 14.890625 38.140625 10.796875 36.28125 
z
" id="DejaVuSans-53"/>
      </defs>
      <g transform="translate(82.071825 392.598437)scale(0.1 -0.1)">
       <use xlink:href="#DejaVuSans-49"/>
       <use x="63.623047" xlink:href="#DejaVuSans-46"/>
       <use x="95.410156" xlink:href="#DejaVuSans-53"/>
      </g>
     </g>
    </g>
    <g id="xtick_2">
     <g id="line2d_3">
      <path clip-path="url(#pa83bbdf918)" d="M 175.268563 378 
L 175.268563 51.84 
" style="fill:none;stroke:#b0b0b0;stroke-linecap:square;stroke-width:0.8;"/>
     </g>
     <g id="line2d_4">
      <g>
       <use style="stroke:#000000;stroke-width:0.8;" x="175.268563" xlink:href="#m3591f7e0eb" y="378"/>
      </g>
     </g>
     <g id="text_2">
      <!-- 2.0 -->
      <defs>
       <path d="M 19.1875 8.296875 
L 53.609375 8.296875 
L 53.609375 0 
L 7.328125 0 
L 7.328125 8.296875 
Q 12.9375 14.109375 22.625 23.890625 
Q 32.328125 33.6875 34.8125 36.53125 
Q 39.546875 41.84375 41.421875 45.53125 
Q 43.3125 49.21875 43.3125 52.78125 
Q 43.3125 58.59375 39.234375 62.25 
Q 35.15625 65.921875 28.609375 65.921875 
Q 23.96875 65.921875 18.8125 64.3125 
Q 13.671875 62.703125 7.8125 59.421875 
L 7.8125 69.390625 
Q 13.765625 71.78125 18.9375 73 
Q 24.125 74.21875 28.421875 74.21875 
Q 39.75 74.21875 46.484375 68.546875 
Q 53.21875 62.890625 53.21875 53.421875 
Q 53.21875 48.921875 51.53125 44.890625 
Q 49.859375 40.875 45.40625 35.40625 
Q 44.1875 33.984375 37.640625 27.21875 
Q 31.109375 20.453125 19.1875 8.296875 
z
" id="DejaVuSans-50"/>
       <path d="M 31.78125 66.40625 
Q 24.171875 66.40625 20.328125 58.90625 
Q 16.5 51.421875 16.5 36.375 
Q 16.5 21.390625 20.328125 13.890625 
Q 24.171875 6.390625 31.78125 6.390625 
Q 39.453125 6.390625 43.28125 13.890625 
Q 47.125 21.390625 47.125 36.375 
Q 47.125 51.421875 43.28125 58.90625 
Q 39.453125 66.40625 31.78125 66.40625 
z
M 31.78125 74.21875 
Q 44.046875 74.21875 50.515625 64.515625 
Q 56.984375 54.828125 56.984375 36.375 
Q 56.984375 17.96875 50.515625 8.265625 
Q 44.046875 -1.421875 31.78125 -1.421875 
Q 19.53125 -1.421875 13.0625 8.265625 
Q 6.59375 17.96875 6.59375 36.375 
Q 6.59375 54.828125 13.0625 64.515625 
Q 19.53125 74.21875 31.78125 74.21875 
z
" id="DejaVuSans-48"/>
      </defs>
      <g transform="translate(167.317 392.598437)scale(0.1 -0.1)">
       <use xlink:href="#DejaVuSans-50"/>
       <use x="63.623047" xlink:href="#DejaVuSans-46"/>
       <use x="95.410156" xlink:href="#DejaVuSans-48"/>
      </g>
     </g>
    </g>
    <g id="xtick_3">
     <g id="line2d_5">
      <path clip-path="url(#pa83bbdf918)" d="M 260.513738 378 
L 260.513738 51.84 
" style="fill:none;stroke:#b0b0b0;stroke-linecap:square;stroke-width:0.8;"/>
     </g>
     <g id="line2d_6">
      <g>
       <use style="stroke:#000000;stroke-width:0.8;" x="260.513738" xlink:href="#m3591f7e0eb" y="378"/>
      </g>
     </g>
     <g id="text_3">
      <!-- 2.5 -->
      <g transform="translate(252.562176 392.598437)scale(0.1 -0.1)">
       <use xlink:href="#DejaVuSans-50"/>
       <use x="63.623047" xlink:href="#DejaVuSans-46"/>
       <use x="95.410156" xlink:href="#DejaVuSans-53"/>
      </g>
     </g>
    </g>
    <g id="xtick_4">
     <g id="line2d_7">
      <path clip-path="url(#pa83bbdf918)" d="M 345.758914 378 
L 345.758914 51.84 
" style="fill:none;stroke:#b0b0b0;stroke-linecap:square;stroke-width:0.8;"/>
     </g>
     <g id="line2d_8">
      <g>
       <use style="stroke:#000000;stroke-width:0.8;" x="345.758914" xlink:href="#m3591f7e0eb" y="378"/>
      </g>
     </g>
     <g id="text_4">
      <!-- 3.0 -->
      <defs>
       <path d="M 40.578125 39.3125 
Q 47.65625 37.796875 51.625 33 
Q 55.609375 28.21875 55.609375 21.1875 
Q 55.609375 10.40625 48.1875 4.484375 
Q 40.765625 -1.421875 27.09375 -1.421875 
Q 22.515625 -1.421875 17.65625 -0.515625 
Q 12.796875 0.390625 7.625 2.203125 
L 7.625 11.71875 
Q 11.71875 9.328125 16.59375 8.109375 
Q 21.484375 6.890625 26.8125 6.890625 
Q 36.078125 6.890625 40.9375 10.546875 
Q 45.796875 14.203125 45.796875 21.1875 
Q 45.796875 27.640625 41.28125 31.265625 
Q 36.765625 34.90625 28.71875 34.90625 
L 20.21875 34.90625 
L 20.21875 43.015625 
L 29.109375 43.015625 
Q 36.375 43.015625 40.234375 45.921875 
Q 44.09375 48.828125 44.09375 54.296875 
Q 44.09375 59.90625 40.109375 62.90625 
Q 36.140625 65.921875 28.71875 65.921875 
Q 24.65625 65.921875 20.015625 65.03125 
Q 15.375 64.15625 9.8125 62.3125 
L 9.8125 71.09375 
Q 15.4375 72.65625 20.34375 73.4375 
Q 25.25 74.21875 29.59375 74.21875 
Q 40.828125 74.21875 47.359375 69.109375 
Q 53.90625 64.015625 53.90625 55.328125 
Q 53.90625 49.265625 50.4375 45.09375 
Q 46.96875 40.921875 40.578125 39.3125 
z
" id="DejaVuSans-51"/>
      </defs>
      <g transform="translate(337.807351 392.598437)scale(0.1 -0.1)">
       <use xlink:href="#DejaVuSans-51"/>
       <use x="63.623047" xlink:href="#DejaVuSans-46"/>
       <use x="95.410156" xlink:href="#DejaVuSans-48"/>
      </g>
     </g>
    </g>
    <g id="xtick_5">
     <g id="line2d_9">
      <path clip-path="url(#pa83bbdf918)" d="M 431.004089 378 
L 431.004089 51.84 
" style="fill:none;stroke:#b0b0b0;stroke-linecap:square;stroke-width:0.8;"/>
     </g>
     <g id="line2d_10">
      <g>
       <use style="stroke:#000000;stroke-width:0.8;" x="431.004089" xlink:href="#m3591f7e0eb" y="378"/>
      </g>
     </g>
     <g id="text_5">
      <!-- 3.5 -->
      <g transform="translate(423.052526 392.598437)scale(0.1 -0.1)">
       <use xlink:href="#DejaVuSans-51"/>
       <use x="63.623047" xlink:href="#DejaVuSans-46"/>
       <use x="95.410156" xlink:href="#DejaVuSans-53"/>
      </g>
     </g>
    </g>
    <g id="xtick_6">
     <g id="line2d_11">
      <path clip-path="url(#pa83bbdf918)" d="M 516.249264 378 
L 516.249264 51.84 
" style="fill:none;stroke:#b0b0b0;stroke-linecap:square;stroke-width:0.8;"/>
     </g>
     <g id="line2d_12">
      <g>
       <use style="stroke:#000000;stroke-width:0.8;" x="516.249264" xlink:href="#m3591f7e0eb" y="378"/>
      </g>
     </g>
     <g id="text_6">
      <!-- 4.0 -->
      <defs>
       <path d="M 37.796875 64.3125 
L 12.890625 25.390625 
L 37.796875 25.390625 
z
M 35.203125 72.90625 
L 47.609375 72.90625 
L 47.609375 25.390625 
L 58.015625 25.390625 
L 58.015625 17.1875 
L 47.609375 17.1875 
L 47.609375 0 
L 37.796875 0 
L 37.796875 17.1875 
L 4.890625 17.1875 
L 4.890625 26.703125 
z
" id="DejaVuSans-52"/>
      </defs>
      <g transform="translate(508.297702 392.598437)scale(0.1 -0.1)">
       <use xlink:href="#DejaVuSans-52"/>
       <use x="63.623047" xlink:href="#DejaVuSans-46"/>
       <use x="95.410156" xlink:href="#DejaVuSans-48"/>
      </g>
     </g>
    </g>
    <g id="text_7">
     <!-- time -->
     <defs>
      <path d="M 18.3125 70.21875 
L 18.3125 54.6875 
L 36.8125 54.6875 
L 36.8125 47.703125 
L 18.3125 47.703125 
L 18.3125 18.015625 
Q 18.3125 11.328125 20.140625 9.421875 
Q 21.96875 7.515625 27.59375 7.515625 
L 36.8125 7.515625 
L 36.8125 0 
L 27.59375 0 
Q 17.1875 0 13.234375 3.875 
Q 9.28125 7.765625 9.28125 18.015625 
L 9.28125 47.703125 
L 2.6875 47.703125 
L 2.6875 54.6875 
L 9.28125 54.6875 
L 9.28125 70.21875 
z
" id="DejaVuSans-116"/>
      <path d="M 9.421875 54.6875 
L 18.40625 54.6875 
L 18.40625 0 
L 9.421875 0 
z
M 9.421875 75.984375 
L 18.40625 75.984375 
L 18.40625 64.59375 
L 9.421875 64.59375 
z
" id="DejaVuSans-105"/>
      <path d="M 52 44.1875 
Q 55.375 50.25 60.0625 53.125 
Q 64.75 56 71.09375 56 
Q 79.640625 56 84.28125 50.015625 
Q 88.921875 44.046875 88.921875 33.015625 
L 88.921875 0 
L 79.890625 0 
L 79.890625 32.71875 
Q 79.890625 40.578125 77.09375 44.375 
Q 74.3125 48.1875 68.609375 48.1875 
Q 61.625 48.1875 57.5625 43.546875 
Q 53.515625 38.921875 53.515625 30.90625 
L 53.515625 0 
L 44.484375 0 
L 44.484375 32.71875 
Q 44.484375 40.625 41.703125 44.40625 
Q 38.921875 48.1875 33.109375 48.1875 
Q 26.21875 48.1875 22.15625 43.53125 
Q 18.109375 38.875 18.109375 30.90625 
L 18.109375 0 
L 9.078125 0 
L 9.078125 54.6875 
L 18.109375 54.6875 
L 18.109375 46.1875 
Q 21.1875 51.21875 25.484375 53.609375 
Q 29.78125 56 35.6875 56 
Q 41.65625 56 45.828125 52.96875 
Q 50 49.953125 52 44.1875 
z
" id="DejaVuSans-109"/>
      <path d="M 56.203125 29.59375 
L 56.203125 25.203125 
L 14.890625 25.203125 
Q 15.484375 15.921875 20.484375 11.0625 
Q 25.484375 6.203125 34.421875 6.203125 
Q 39.59375 6.203125 44.453125 7.46875 
Q 49.3125 8.734375 54.109375 11.28125 
L 54.109375 2.78125 
Q 49.265625 0.734375 44.1875 -0.34375 
Q 39.109375 -1.421875 33.890625 -1.421875 
Q 20.796875 -1.421875 13.15625 6.1875 
Q 5.515625 13.8125 5.515625 26.8125 
Q 5.515625 40.234375 12.765625 48.109375 
Q 20.015625 56 32.328125 56 
Q 43.359375 56 49.78125 48.890625 
Q 56.203125 41.796875 56.203125 29.59375 
z
M 47.21875 32.234375 
Q 47.125 39.59375 43.09375 43.984375 
Q 39.0625 48.390625 32.421875 48.390625 
Q 24.90625 48.390625 20.390625 44.140625 
Q 15.875 39.890625 15.1875 32.171875 
z
" id="DejaVuSans-101"/>
     </defs>
     <g transform="translate(283.903906 406.276563)scale(0.1 -0.1)">
      <use xlink:href="#DejaVuSans-116"/>
      <use x="39.208984" xlink:href="#DejaVuSans-105"/>
      <use x="66.992188" xlink:href="#DejaVuSans-109"/>
      <use x="164.404297" xlink:href="#DejaVuSans-101"/>
     </g>
    </g>
    <g id="text_8">
     <!-- 1e10 -->
     <g transform="translate(493.159375 405.276563)scale(0.1 -0.1)">
      <use xlink:href="#DejaVuSans-49"/>
      <use x="63.623047" xlink:href="#DejaVuSans-101"/>
      <use x="125.146484" xlink:href="#DejaVuSans-49"/>
      <use x="188.769531" xlink:href="#DejaVuSans-48"/>
     </g>
    </g>
   </g>
   <g id="matplotlib.axis_2">
    <g id="ytick_1">
     <g id="line2d_13">
      <path clip-path="url(#pa83bbdf918)" d="M 72 369.825961 
L 518.4 369.825961 
" style="fill:none;stroke:#b0b0b0;stroke-linecap:square;stroke-width:0.8;"/>
     </g>
     <g id="line2d_14">
      <defs>
       <path d="M 0 0 
L -3.5 0 
" id="mb574e389ac" style="stroke:#000000;stroke-width:0.8;"/>
      </defs>
      <g>
       <use style="stroke:#000000;stroke-width:0.8;" x="72" xlink:href="#mb574e389ac" y="369.825961"/>
      </g>
     </g>
     <g id="text_9">
      <!-- 0 -->
      <g transform="translate(58.6375 373.62518)scale(0.1 -0.1)">
       <use xlink:href="#DejaVuSans-48"/>
      </g>
     </g>
    </g>
    <g id="ytick_2">
     <g id="line2d_15">
      <path clip-path="url(#pa83bbdf918)" d="M 72 302.036939 
L 518.4 302.036939 
" style="fill:none;stroke:#b0b0b0;stroke-linecap:square;stroke-width:0.8;"/>
     </g>
     <g id="line2d_16">
      <g>
       <use style="stroke:#000000;stroke-width:0.8;" x="72" xlink:href="#mb574e389ac" y="302.036939"/>
      </g>
     </g>
     <g id="text_10">
      <!-- 2 -->
      <g transform="translate(58.6375 305.836158)scale(0.1 -0.1)">
       <use xlink:href="#DejaVuSans-50"/>
      </g>
     </g>
    </g>
    <g id="ytick_3">
     <g id="line2d_17">
      <path clip-path="url(#pa83bbdf918)" d="M 72 234.247917 
L 518.4 234.247917 
" style="fill:none;stroke:#b0b0b0;stroke-linecap:square;stroke-width:0.8;"/>
     </g>
     <g id="line2d_18">
      <g>
       <use style="stroke:#000000;stroke-width:0.8;" x="72" xlink:href="#mb574e389ac" y="234.247917"/>
      </g>
     </g>
     <g id="text_11">
      <!-- 4 -->
      <g transform="translate(58.6375 238.047136)scale(0.1 -0.1)">
       <use xlink:href="#DejaVuSans-52"/>
      </g>
     </g>
    </g>
    <g id="ytick_4">
     <g id="line2d_19">
      <path clip-path="url(#pa83bbdf918)" d="M 72 166.458895 
L 518.4 166.458895 
" style="fill:none;stroke:#b0b0b0;stroke-linecap:square;stroke-width:0.8;"/>
     </g>
     <g id="line2d_20">
      <g>
       <use style="stroke:#000000;stroke-width:0.8;" x="72" xlink:href="#mb574e389ac" y="166.458895"/>
      </g>
     </g>
     <g id="text_12">
      <!-- 6 -->
      <defs>
       <path d="M 33.015625 40.375 
Q 26.375 40.375 22.484375 35.828125 
Q 18.609375 31.296875 18.609375 23.390625 
Q 18.609375 15.53125 22.484375 10.953125 
Q 26.375 6.390625 33.015625 6.390625 
Q 39.65625 6.390625 43.53125 10.953125 
Q 47.40625 15.53125 47.40625 23.390625 
Q 47.40625 31.296875 43.53125 35.828125 
Q 39.65625 40.375 33.015625 40.375 
z
M 52.59375 71.296875 
L 52.59375 62.3125 
Q 48.875 64.0625 45.09375 64.984375 
Q 41.3125 65.921875 37.59375 65.921875 
Q 27.828125 65.921875 22.671875 59.328125 
Q 17.53125 52.734375 16.796875 39.40625 
Q 19.671875 43.65625 24.015625 45.921875 
Q 28.375 48.1875 33.59375 48.1875 
Q 44.578125 48.1875 50.953125 41.515625 
Q 57.328125 34.859375 57.328125 23.390625 
Q 57.328125 12.15625 50.6875 5.359375 
Q 44.046875 -1.421875 33.015625 -1.421875 
Q 20.359375 -1.421875 13.671875 8.265625 
Q 6.984375 17.96875 6.984375 36.375 
Q 6.984375 53.65625 15.1875 63.9375 
Q 23.390625 74.21875 37.203125 74.21875 
Q 40.921875 74.21875 44.703125 73.484375 
Q 48.484375 72.75 52.59375 71.296875 
z
" id="DejaVuSans-54"/>
      </defs>
      <g transform="translate(58.6375 170.258114)scale(0.1 -0.1)">
       <use xlink:href="#DejaVuSans-54"/>
      </g>
     </g>
    </g>
    <g id="ytick_5">
     <g id="line2d_21">
      <path clip-path="url(#pa83bbdf918)" d="M 72 98.669873 
L 518.4 98.669873 
" style="fill:none;stroke:#b0b0b0;stroke-linecap:square;stroke-width:0.8;"/>
     </g>
     <g id="line2d_22">
      <g>
       <use style="stroke:#000000;stroke-width:0.8;" x="72" xlink:href="#mb574e389ac" y="98.669873"/>
      </g>
     </g>
     <g id="text_13">
      <!-- 8 -->
      <defs>
       <path d="M 31.78125 34.625 
Q 24.75 34.625 20.71875 30.859375 
Q 16.703125 27.09375 16.703125 20.515625 
Q 16.703125 13.921875 20.71875 10.15625 
Q 24.75 6.390625 31.78125 6.390625 
Q 38.8125 6.390625 42.859375 10.171875 
Q 46.921875 13.96875 46.921875 20.515625 
Q 46.921875 27.09375 42.890625 30.859375 
Q 38.875 34.625 31.78125 34.625 
z
M 21.921875 38.8125 
Q 15.578125 40.375 12.03125 44.71875 
Q 8.5 49.078125 8.5 55.328125 
Q 8.5 64.0625 14.71875 69.140625 
Q 20.953125 74.21875 31.78125 74.21875 
Q 42.671875 74.21875 48.875 69.140625 
Q 55.078125 64.0625 55.078125 55.328125 
Q 55.078125 49.078125 51.53125 44.71875 
Q 48 40.375 41.703125 38.8125 
Q 48.828125 37.15625 52.796875 32.3125 
Q 56.78125 27.484375 56.78125 20.515625 
Q 56.78125 9.90625 50.3125 4.234375 
Q 43.84375 -1.421875 31.78125 -1.421875 
Q 19.734375 -1.421875 13.25 4.234375 
Q 6.78125 9.90625 6.78125 20.515625 
Q 6.78125 27.484375 10.78125 32.3125 
Q 14.796875 37.15625 21.921875 38.8125 
z
M 18.3125 54.390625 
Q 18.3125 48.734375 21.84375 45.5625 
Q 25.390625 42.390625 31.78125 42.390625 
Q 38.140625 42.390625 41.71875 45.5625 
Q 45.3125 48.734375 45.3125 54.390625 
Q 45.3125 60.0625 41.71875 63.234375 
Q 38.140625 66.40625 31.78125 66.40625 
Q 25.390625 66.40625 21.84375 63.234375 
Q 18.3125 60.0625 18.3125 54.390625 
z
" id="DejaVuSans-56"/>
      </defs>
      <g transform="translate(58.6375 102.469092)scale(0.1 -0.1)">
       <use xlink:href="#DejaVuSans-56"/>
      </g>
     </g>
    </g>
    <g id="text_14">
     <!-- error (rho) -->
     <defs>
      <path d="M 41.109375 46.296875 
Q 39.59375 47.171875 37.8125 47.578125 
Q 36.03125 48 33.890625 48 
Q 26.265625 48 22.1875 43.046875 
Q 18.109375 38.09375 18.109375 28.8125 
L 18.109375 0 
L 9.078125 0 
L 9.078125 54.6875 
L 18.109375 54.6875 
L 18.109375 46.1875 
Q 20.953125 51.171875 25.484375 53.578125 
Q 30.03125 56 36.53125 56 
Q 37.453125 56 38.578125 55.875 
Q 39.703125 55.765625 41.0625 55.515625 
z
" id="DejaVuSans-114"/>
      <path d="M 30.609375 48.390625 
Q 23.390625 48.390625 19.1875 42.75 
Q 14.984375 37.109375 14.984375 27.296875 
Q 14.984375 17.484375 19.15625 11.84375 
Q 23.34375 6.203125 30.609375 6.203125 
Q 37.796875 6.203125 41.984375 11.859375 
Q 46.1875 17.53125 46.1875 27.296875 
Q 46.1875 37.015625 41.984375 42.703125 
Q 37.796875 48.390625 30.609375 48.390625 
z
M 30.609375 56 
Q 42.328125 56 49.015625 48.375 
Q 55.71875 40.765625 55.71875 27.296875 
Q 55.71875 13.875 49.015625 6.21875 
Q 42.328125 -1.421875 30.609375 -1.421875 
Q 18.84375 -1.421875 12.171875 6.21875 
Q 5.515625 13.875 5.515625 27.296875 
Q 5.515625 40.765625 12.171875 48.375 
Q 18.84375 56 30.609375 56 
z
" id="DejaVuSans-111"/>
      <path id="DejaVuSans-32"/>
      <path d="M 31 75.875 
Q 24.46875 64.65625 21.28125 53.65625 
Q 18.109375 42.671875 18.109375 31.390625 
Q 18.109375 20.125 21.3125 9.0625 
Q 24.515625 -2 31 -13.1875 
L 23.1875 -13.1875 
Q 15.875 -1.703125 12.234375 9.375 
Q 8.59375 20.453125 8.59375 31.390625 
Q 8.59375 42.28125 12.203125 53.3125 
Q 15.828125 64.359375 23.1875 75.875 
z
" id="DejaVuSans-40"/>
      <path d="M 54.890625 33.015625 
L 54.890625 0 
L 45.90625 0 
L 45.90625 32.71875 
Q 45.90625 40.484375 42.875 44.328125 
Q 39.84375 48.1875 33.796875 48.1875 
Q 26.515625 48.1875 22.3125 43.546875 
Q 18.109375 38.921875 18.109375 30.90625 
L 18.109375 0 
L 9.078125 0 
L 9.078125 75.984375 
L 18.109375 75.984375 
L 18.109375 46.1875 
Q 21.34375 51.125 25.703125 53.5625 
Q 30.078125 56 35.796875 56 
Q 45.21875 56 50.046875 50.171875 
Q 54.890625 44.34375 54.890625 33.015625 
z
" id="DejaVuSans-104"/>
      <path d="M 8.015625 75.875 
L 15.828125 75.875 
Q 23.140625 64.359375 26.78125 53.3125 
Q 30.421875 42.28125 30.421875 31.390625 
Q 30.421875 20.453125 26.78125 9.375 
Q 23.140625 -1.703125 15.828125 -13.1875 
L 8.015625 -13.1875 
Q 14.5 -2 17.703125 9.0625 
Q 20.90625 20.125 20.90625 31.390625 
Q 20.90625 42.671875 17.703125 53.65625 
Q 14.5 64.65625 8.015625 75.875 
z
" id="DejaVuSans-41"/>
     </defs>
     <g transform="translate(52.557812 240.993437)rotate(-90)scale(0.1 -0.1)">
      <use xlink:href="#DejaVuSans-101"/>
      <use x="61.523438" xlink:href="#DejaVuSans-114"/>
      <use x="102.621094" xlink:href="#DejaVuSans-114"/>
      <use x="143.703125" xlink:href="#DejaVuSans-111"/>
      <use x="204.884766" xlink:href="#DejaVuSans-114"/>
      <use x="245.998047" xlink:href="#DejaVuSans-32"/>
      <use x="277.785156" xlink:href="#DejaVuSans-40"/>
      <use x="316.798828" xlink:href="#DejaVuSans-114"/>
      <use x="357.896484" xlink:href="#DejaVuSans-104"/>
      <use x="421.275391" xlink:href="#DejaVuSans-111"/>
      <use x="482.457031" xlink:href="#DejaVuSans-41"/>
     </g>
    </g>
   </g>
   <g id="line2d_23">
    <path clip-path="url(#pa83bbdf918)" d="M 92.290909 66.665455 
L 94.029911 66.678624 
L 94.04696 66.791041 
L 95.734814 66.909136 
L 95.734814 68.044374 
L 97.439718 68.319179 
L 97.439718 70.485721 
L 99.16167 71.114868 
L 99.16167 72.354619 
L 100.849525 72.969394 
L 100.849525 75.515236 
L 102.554428 76.136995 
L 102.571477 79.316211 
L 104.276381 79.966004 
L 104.276381 81.905217 
L 105.964235 82.524753 
L 105.981284 86.364615 
L 107.669139 87.021633 
L 107.669139 88.921204 
L 109.374042 89.575001 
L 109.391091 92.131985 
L 111.078946 92.774458 
L 111.078946 94.709623 
L 112.783849 95.342132 
L 112.800898 98.547611 
L 114.488753 99.198467 
L 114.505802 102.409473 
L 116.193656 103.063795 
L 116.193656 104.362017 
L 117.89856 105.004038 
L 117.915609 108.256924 
L 119.603463 108.915137 
L 119.620512 111.50421 
L 121.308367 112.187106 
L 121.325416 115.405936 
L 123.01327 116.043867 
L 123.030319 117.993751 
L 124.735223 118.650717 
L 124.735223 121.916175 
L 126.423077 122.576495 
L 126.423077 123.884976 
L 128.127981 124.533875 
L 128.14503 127.802805 
L 129.832884 128.461248 
L 129.832884 131.077453 
L 131.537788 131.725638 
L 131.537788 133.687485 
L 133.242691 134.347246 
L 133.25974 137.607834 
L 134.947595 138.26187 
L 134.964644 141.529919 
L 136.652498 142.187004 
L 136.652498 143.524988 
L 138.357402 144.151003 
L 138.374451 147.405746 
L 140.062305 148.06137 
L 140.079354 151.322117 
L 141.767209 151.97816 
L 141.784258 153.284003 
L 143.472112 153.941508 
L 143.489161 157.19498 
L 145.194065 157.847294 
L 145.194065 161.104115 
L 146.881919 161.758235 
L 146.898968 163.059574 
L 148.586823 163.713574 
L 148.586823 167.615746 
L 150.308775 168.297282 
L 150.308775 170.22089 
L 151.99663 170.869826 
L 152.013679 172.82585 
L 153.701533 173.480146 
L 153.701533 176.728019 
L 155.406437 177.380474 
L 155.406437 180.630768 
L 157.11134 181.282342 
L 157.128389 182.581121 
L 158.816244 183.232876 
L 158.816244 186.478102 
L 160.521147 187.129537 
L 160.521147 190.385813 
L 162.226051 191.039643 
L 162.226051 191.689827 
L 163.930954 192.344022 
L 163.930954 196.257067 
L 165.635858 196.910329 
L 165.635858 198.867316 
L 167.340761 199.521825 
L 167.357811 203.439713 
L 169.045665 204.093875 
L 169.062714 206.023057 
L 170.750568 206.652199 
L 170.767618 208.55099 
L 172.455472 209.216809 
L 172.472521 212.311903 
L 174.160376 212.932909 
L 174.160376 214.781629 
L 175.865279 215.386907 
L 175.882328 218.998764 
L 177.570183 219.598744 
L 177.587232 221.356276 
L 179.275086 221.932951 
L 179.275086 224.228232 
L 180.97999 224.800538 
L 180.997039 226.510274 
L 182.684893 227.04295 
L 182.684893 229.835319 
L 184.406846 230.392204 
L 184.406846 232.572757 
L 186.0947 233.115809 
L 186.111749 234.726754 
L 187.799604 235.252896 
L 187.799604 237.88486 
L 189.504507 238.408657 
L 189.504507 240.459846 
L 191.209411 240.970105 
L 191.22646 242.479868 
L 192.914314 242.978524 
L 192.914314 245.449194 
L 194.619218 245.945304 
L 194.619218 247.401585 
L 196.324121 247.884515 
L 196.324121 250.740347 
L 198.046074 251.206114 
L 198.046074 252.589635 
L 199.733928 253.050693 
L 199.750977 254.868224 
L 201.438832 255.322909 
L 201.455881 256.663252 
L 203.143735 257.106895 
L 203.160784 259.297884 
L 204.865688 259.736395 
L 204.865688 261.874004 
L 206.553542 262.299009 
L 206.570591 263.133578 
L 208.258446 263.549053 
L 208.258446 264.789277 
L 209.963349 265.20154 
L 209.963349 267.649773 
L 211.668253 268.056854 
L 211.685302 269.238934 
L 213.373156 269.631755 
L 213.390205 271.187015 
L 215.07806 271.571986 
L 215.095109 273.481778 
L 216.782963 273.861799 
L 216.782963 274.970747 
L 218.487867 275.340959 
L 218.504916 276.80035 
L 220.19277 277.165491 
L 220.209819 278.960698 
L 221.897674 279.318843 
L 221.914723 280.714122 
L 223.602577 281.061167 
L 223.619626 282.110966 
L 225.307481 282.438212 
L 225.307481 284.136435 
L 227.012384 284.473552 
L 227.012384 285.794132 
L 228.734337 286.122088 
L 228.734337 287.74387 
L 230.422191 288.069231 
L 230.43924 289.014837 
L 232.127095 289.331871 
L 232.127095 290.887539 
L 233.849047 291.1946 
L 233.849047 291.805335 
L 235.536902 292.108519 
L 235.536902 293.023028 
L 237.241805 293.32422 
L 237.258854 295.112372 
L 238.946709 295.406533 
L 238.946709 296.281963 
L 240.668661 296.568054 
L 240.668661 297.707052 
L 242.356516 297.988387 
L 242.373565 299.381866 
L 244.061419 299.661453 
L 244.078468 300.474847 
L 245.766323 300.744707 
L 245.766323 301.810349 
L 247.488275 302.074331 
L 247.488275 303.116814 
L 249.193179 303.372844 
L 249.193179 304.933921 
L 250.898082 305.190437 
L 250.898082 305.949158 
L 252.585937 306.201241 
L 252.602986 306.947352 
L 254.29084 307.193491 
L 254.29084 308.178448 
L 255.995744 308.422978 
L 256.012793 309.622329 
L 257.700647 309.85851 
L 257.717696 310.566799 
L 259.405551 310.798554 
L 259.4226 312.180917 
L 261.110454 312.404103 
L 261.110454 313.07187 
L 262.815358 313.29619 
L 262.815358 313.955459 
L 264.520261 314.172814 
L 264.53731 314.827861 
L 266.225165 315.043507 
L 266.242214 316.321264 
L 267.930068 316.530405 
L 267.930068 317.157656 
L 269.634972 317.362689 
L 269.652021 318.381905 
L 271.339875 318.584096 
L 271.339875 319.571841 
L 273.044779 319.767273 
L 273.061828 320.150818 
L 274.749682 320.341888 
L 274.749682 320.924773 
L 276.454586 321.115463 
L 276.471635 322.252311 
L 278.159489 322.438507 
L 278.176538 322.996645 
L 279.864393 323.179089 
L 279.864393 323.725548 
L 281.569296 323.906017 
L 281.586345 324.976358 
L 283.2742 325.151483 
L 283.291249 325.676772 
L 284.979103 325.848457 
L 284.979103 326.361188 
L 286.684007 326.52983 
L 286.701056 327.533767 
L 288.40596 327.69809 
L 288.40596 328.188846 
L 290.093814 328.358674 
L 290.093814 328.831297 
L 291.815767 328.989793 
L 291.815767 329.942409 
L 293.503621 330.098308 
L 293.52067 330.557668 
L 295.208525 330.716581 
L 295.225574 331.314409 
L 296.913428 331.464643 
L 296.913428 332.206589 
L 298.635381 332.354147 
L 298.635381 332.790633 
L 300.323235 332.933775 
L 300.340284 333.787108 
L 302.028139 333.928407 
L 302.045188 334.346309 
L 303.733042 334.485348 
L 303.733042 334.8966 
L 305.437946 335.032391 
L 305.454995 335.844973 
L 307.142849 335.978051 
L 307.159898 336.370151 
L 308.847753 336.50065 
L 308.847753 337.143992 
L 310.569705 337.271504 
L 310.569705 337.523112 
L 312.25756 337.648023 
L 312.25756 338.272747 
L 313.962463 338.396751 
L 313.962463 338.880563 
L 315.667367 339.002631 
L 315.684416 339.595915 
L 317.37227 339.713055 
L 317.389319 340.060938 
L 319.094223 340.176484 
L 319.094223 340.517981 
L 320.782077 340.630681 
L 320.799126 341.305241 
L 322.50403 341.524772 
L 322.50403 341.742168 
L 324.191884 341.957481 
L 324.208933 342.277029 
L 325.896788 342.490275 
L 325.896788 342.699392 
L 327.601691 342.908848 
L 327.601691 343.320102 
L 329.323644 343.523267 
L 329.323644 343.922049 
L 331.011498 344.122681 
L 331.011498 344.219192 
L 332.733451 344.414743 
L 332.733451 344.895388 
L 334.421305 345.084212 
L 334.421305 345.270344 
L 336.126209 345.456873 
L 336.126209 345.640604 
L 337.848161 345.824143 
L 337.848161 346.277544 
L 339.553065 346.455029 
L 339.553065 346.636054 
L 341.240919 346.808151 
L 341.257968 346.980748 
L 342.945823 347.152258 
L 342.945823 347.320087 
L 344.650726 347.490005 
L 344.667775 347.909036 
L 346.35563 348.072976 
L 346.372679 348.237172 
L 348.060533 348.39119 
L 348.060533 348.624613 
L 349.782486 348.775435 
L 349.782486 349.075345 
L 351.47034 349.223945 
L 351.487389 349.37043 
L 353.175244 349.517938 
L 353.175244 349.875991 
L 354.880147 350.019065 
L 354.880147 350.158974 
L 356.6021 350.297553 
L 356.6021 350.434152 
L 358.289954 350.570897 
L 358.289954 350.843921 
L 359.994858 350.980268 
L 359.994858 351.246075 
L 361.699761 351.379505 
L 361.71681 351.443804 
L 363.404665 351.572832 
L 363.404665 351.764078 
L 365.109568 351.890701 
L 365.109568 352.147631 
L 366.831521 352.269927 
L 366.831521 352.393377 
L 368.519375 352.517281 
L 368.519375 352.827483 
L 370.224279 352.951759 
L 370.224279 353.077084 
L 371.946231 353.20251 
L 371.946231 353.382936 
L 373.634086 353.502598 
L 373.651135 353.620397 
L 375.338989 353.740282 
L 375.356038 353.991753 
L 377.060942 354.112703 
L 377.060942 354.294419 
L 378.748796 354.415167 
L 378.765845 354.533776 
L 380.4537 354.653044 
L 380.470749 354.889931 
L 382.158603 355.006375 
L 382.175652 355.236768 
L 383.863507 355.349879 
L 383.863507 355.40614 
L 385.56841 355.519147 
L 385.585459 355.687349 
L 387.290363 355.854761 
L 387.290363 356.022144 
L 388.978217 356.184673 
L 388.995266 356.23887 
L 390.70017 356.401903 
L 390.70017 356.616827 
L 392.388024 356.773483 
L 392.388024 356.825316 
L 394.109977 356.980725 
L 394.109977 357.031796 
L 395.797831 357.185514 
L 395.81488 357.388198 
L 397.502735 357.535917 
L 397.502735 357.584786 
L 399.224687 357.731399 
L 399.224687 357.82749 
L 400.912542 357.97283 
L 400.912542 358.020461 
L 402.617445 358.16284 
L 402.617445 358.303525 
L 404.322349 358.446205 
L 404.322349 358.535268 
L 406.027252 358.672212 
L 406.027252 358.717445 
L 407.732156 358.852705 
L 407.749205 358.986299 
L 409.437059 359.119887 
L 409.454109 359.247123 
L 412.846867 359.413211 
L 412.846867 359.537076 
L 414.55177 359.660538 
L 414.55177 359.824468 
L 416.256674 359.94499 
L 416.273723 359.984579 
L 417.961577 360.103139 
L 417.961577 360.260243 
L 419.666481 360.376059 
L 419.666481 360.414053 
L 423.076288 360.601858 
L 423.093337 360.753132 
L 424.781191 360.898085 
L 424.781191 360.970519 
L 428.190998 361.149509 
L 428.208047 361.291214 
L 429.895902 361.428195 
L 429.912951 361.494221 
L 433.305709 361.649968 
L 433.322758 361.775366 
L 435.010612 361.894329 
L 435.027661 361.955002 
L 438.420419 362.102863 
L 438.437468 362.276807 
L 441.847275 362.419789 
L 441.847275 362.5322 
L 445.240033 362.671665 
L 445.257082 362.81232 
L 446.961986 362.929378 
L 446.961986 362.957848 
L 448.666889 363.072674 
L 448.666889 363.101111 
L 457.174358 363.161856 
L 498.109091 363.162666 
L 498.109091 363.163011 
" style="fill:none;stroke:#1f77b4;stroke-linecap:square;stroke-width:1.5;"/>
   </g>
   <g id="patch_3">
    <path d="M 72 378 
L 72 51.84 
" style="fill:none;stroke:#000000;stroke-linecap:square;stroke-linejoin:miter;stroke-width:0.8;"/>
   </g>
   <g id="patch_4">
    <path d="M 518.4 378 
L 518.4 51.84 
" style="fill:none;stroke:#000000;stroke-linecap:square;stroke-linejoin:miter;stroke-width:0.8;"/>
   </g>
   <g id="patch_5">
    <path d="M 72 378 
L 518.4 378 
" style="fill:none;stroke:#000000;stroke-linecap:square;stroke-linejoin:miter;stroke-width:0.8;"/>
   </g>
   <g id="patch_6">
    <path d="M 72 51.84 
L 518.4 51.84 
" style="fill:none;stroke:#000000;stroke-linecap:square;stroke-linejoin:miter;stroke-width:0.8;"/>
   </g>
   <g id="legend_1">
    <g id="patch_7">
     <path d="M 387.176562 74.518125 
L 511.4 74.518125 
Q 513.4 74.518125 513.4 72.518125 
L 513.4 58.84 
Q 513.4 56.84 511.4 56.84 
L 387.176562 56.84 
Q 385.176562 56.84 385.176562 58.84 
L 385.176562 72.518125 
Q 385.176562 74.518125 387.176562 74.518125 
z
" style="fill:#ffffff;opacity:0.8;stroke:#cccccc;stroke-linejoin:miter;"/>
    </g>
    <g id="line2d_24">
     <path d="M 389.176562 64.938438 
L 409.176562 64.938438 
" style="fill:none;stroke:#1f77b4;stroke-linecap:square;stroke-width:1.5;"/>
    </g>
    <g id="line2d_25"/>
    <g id="text_15">
     <!-- error (rho) vs time -->
     <defs>
      <path d="M 2.984375 54.6875 
L 12.5 54.6875 
L 29.59375 8.796875 
L 46.6875 54.6875 
L 56.203125 54.6875 
L 35.6875 0 
L 23.484375 0 
z
" id="DejaVuSans-118"/>
      <path d="M 44.28125 53.078125 
L 44.28125 44.578125 
Q 40.484375 46.53125 36.375 47.5 
Q 32.28125 48.484375 27.875 48.484375 
Q 21.1875 48.484375 17.84375 46.4375 
Q 14.5 44.390625 14.5 40.28125 
Q 14.5 37.15625 16.890625 35.375 
Q 19.28125 33.59375 26.515625 31.984375 
L 29.59375 31.296875 
Q 39.15625 29.25 43.1875 25.515625 
Q 47.21875 21.78125 47.21875 15.09375 
Q 47.21875 7.46875 41.1875 3.015625 
Q 35.15625 -1.421875 24.609375 -1.421875 
Q 20.21875 -1.421875 15.453125 -0.5625 
Q 10.6875 0.296875 5.421875 2 
L 5.421875 11.28125 
Q 10.40625 8.6875 15.234375 7.390625 
Q 20.0625 6.109375 24.8125 6.109375 
Q 31.15625 6.109375 34.5625 8.28125 
Q 37.984375 10.453125 37.984375 14.40625 
Q 37.984375 18.0625 35.515625 20.015625 
Q 33.0625 21.96875 24.703125 23.78125 
L 21.578125 24.515625 
Q 13.234375 26.265625 9.515625 29.90625 
Q 5.8125 33.546875 5.8125 39.890625 
Q 5.8125 47.609375 11.28125 51.796875 
Q 16.75 56 26.8125 56 
Q 31.78125 56 36.171875 55.265625 
Q 40.578125 54.546875 44.28125 53.078125 
z
" id="DejaVuSans-115"/>
     </defs>
     <g transform="translate(417.176562 68.438438)scale(0.1 -0.1)">
      <use xlink:href="#DejaVuSans-101"/>
      <use x="61.523438" xlink:href="#DejaVuSans-114"/>
      <use x="102.621094" xlink:href="#DejaVuSans-114"/>
      <use x="143.703125" xlink:href="#DejaVuSans-111"/>
      <use x="204.884766" xlink:href="#DejaVuSans-114"/>
      <use x="245.998047" xlink:href="#DejaVuSans-32"/>
      <use x="277.785156" xlink:href="#DejaVuSans-40"/>
      <use x="316.798828" xlink:href="#DejaVuSans-114"/>
      <use x="357.896484" xlink:href="#DejaVuSans-104"/>
      <use x="421.275391" xlink:href="#DejaVuSans-111"/>
      <use x="482.457031" xlink:href="#DejaVuSans-41"/>
      <use x="521.470703" xlink:href="#DejaVuSans-32"/>
      <use x="553.257812" xlink:href="#DejaVuSans-118"/>
      <use x="612.4375" xlink:href="#DejaVuSans-115"/>
      <use x="664.537109" xlink:href="#DejaVuSans-32"/>
      <use x="696.324219" xlink:href="#DejaVuSans-116"/>
      <use x="735.533203" xlink:href="#DejaVuSans-105"/>
      <use x="763.316406" xlink:href="#DejaVuSans-109"/>
      <use x="860.728516" xlink:href="#DejaVuSans-101"/>
     </g>
    </g>
   </g>
  </g>
 </g>
 <defs>
  <clipPath id="pa83bbdf918">
   <rect height="326.16" width="446.4" x="72" y="51.84"/>
  </clipPath>
 </defs>
</svg>
