<?xml version="1.0" encoding="utf-8" standalone="no"?>
<!DOCTYPE svg PUBLIC "-//W3C//DTD SVG 1.1//EN"
  "http://www.w3.org/Graphics/SVG/1.1/DTD/svg11.dtd">
<!-- Created with matplotlib (https://matplotlib.org/) -->
<svg height="288pt" version="1.1" viewBox="0 0 432 288" width="432pt" xmlns="http://www.w3.org/2000/svg" xmlns:xlink="http://www.w3.org/1999/xlink">
 <defs>
  <style type="text/css">
*{stroke-linecap:butt;stroke-linejoin:round;}
  </style>
 </defs>
 <g id="figure_1">
  <g id="patch_1">
   <path d="M 0 288 
L 432 288 
L 432 0 
L 0 0 
z
" style="fill:#ffffff;"/>
  </g>
  <g id="axes_1">
   <g id="patch_2">
    <path d="M 46.55 246.2 
L 421.2 246.2 
L 421.2 10.8 
L 46.55 10.8 
z
" style="fill:#ffffff;"/>
   </g>
   <g id="patch_3">
    <path clip-path="url(#p3f91ab0602)" d="M 151.795006 131.886054 
L 163.872698 131.886054 
L 163.872698 80.787385 
L 151.795006 80.787385 
L 151.795006 131.886054 
z
" style="fill:none;stroke:#808080;stroke-linejoin:miter;"/>
   </g>
   <g id="matplotlib.axis_1">
    <g id="xtick_1">
     <g id="line2d_1">
      <path clip-path="url(#p3f91ab0602)" d="M 67.251164 246.2 
L 67.251164 10.8 
" style="fill:none;stroke:#b0b0b0;stroke-linecap:square;stroke-width:0.8;"/>
     </g>
     <g id="line2d_2">
      <defs>
       <path d="M 0 0 
L 0 3.5 
" id="me47793daab" style="stroke:#000000;stroke-width:0.8;"/>
      </defs>
      <g>
       <use style="stroke:#000000;stroke-width:0.8;" x="67.251164" xlink:href="#me47793daab" y="246.2"/>
      </g>
     </g>
     <g id="text_1">
      <!-- 20 -->
      <defs>
       <path d="M 19.1875 8.296875 
L 53.609375 8.296875 
L 53.609375 0 
L 7.328125 0 
L 7.328125 8.296875 
Q 12.9375 14.109375 22.625 23.890625 
Q 32.328125 33.6875 34.8125 36.53125 
Q 39.546875 41.84375 41.421875 45.53125 
Q 43.3125 49.21875 43.3125 52.78125 
Q 43.3125 58.59375 39.234375 62.25 
Q 35.15625 65.921875 28.609375 65.921875 
Q 23.96875 65.921875 18.8125 64.3125 
Q 13.671875 62.703125 7.8125 59.421875 
L 7.8125 69.390625 
Q 13.765625 71.78125 18.9375 73 
Q 24.125 74.21875 28.421875 74.21875 
Q 39.75 74.21875 46.484375 68.546875 
Q 53.21875 62.890625 53.21875 53.421875 
Q 53.21875 48.921875 51.53125 44.890625 
Q 49.859375 40.875 45.40625 35.40625 
Q 44.1875 33.984375 37.640625 27.21875 
Q 31.109375 20.453125 19.1875 8.296875 
z
" id="DejaVuSans-50"/>
       <path d="M 31.78125 66.40625 
Q 24.171875 66.40625 20.328125 58.90625 
Q 16.5 51.421875 16.5 36.375 
Q 16.5 21.390625 20.328125 13.890625 
Q 24.171875 6.390625 31.78125 6.390625 
Q 39.453125 6.390625 43.28125 13.890625 
Q 47.125 21.390625 47.125 36.375 
Q 47.125 51.421875 43.28125 58.90625 
Q 39.453125 66.40625 31.78125 66.40625 
z
M 31.78125 74.21875 
Q 44.046875 74.21875 50.515625 64.515625 
Q 56.984375 54.828125 56.984375 36.375 
Q 56.984375 17.96875 50.515625 8.265625 
Q 44.046875 -1.421875 31.78125 -1.421875 
Q 19.53125 -1.421875 13.0625 8.265625 
Q 6.59375 17.96875 6.59375 36.375 
Q 6.59375 54.828125 13.0625 64.515625 
Q 19.53125 74.21875 31.78125 74.21875 
z
" id="DejaVuSans-48"/>
      </defs>
      <g transform="translate(60.888664 260.798437)scale(0.1 -0.1)">
       <use xlink:href="#DejaVuSans-50"/>
       <use x="63.623047" xlink:href="#DejaVuSans-48"/>
      </g>
     </g>
    </g>
    <g id="xtick_2">
     <g id="line2d_3">
      <path clip-path="url(#p3f91ab0602)" d="M 127.639623 246.2 
L 127.639623 10.8 
" style="fill:none;stroke:#b0b0b0;stroke-linecap:square;stroke-width:0.8;"/>
     </g>
     <g id="line2d_4">
      <g>
       <use style="stroke:#000000;stroke-width:0.8;" x="127.639623" xlink:href="#me47793daab" y="246.2"/>
      </g>
     </g>
     <g id="text_2">
      <!-- 30 -->
      <defs>
       <path d="M 40.578125 39.3125 
Q 47.65625 37.796875 51.625 33 
Q 55.609375 28.21875 55.609375 21.1875 
Q 55.609375 10.40625 48.1875 4.484375 
Q 40.765625 -1.421875 27.09375 -1.421875 
Q 22.515625 -1.421875 17.65625 -0.515625 
Q 12.796875 0.390625 7.625 2.203125 
L 7.625 11.71875 
Q 11.71875 9.328125 16.59375 8.109375 
Q 21.484375 6.890625 26.8125 6.890625 
Q 36.078125 6.890625 40.9375 10.546875 
Q 45.796875 14.203125 45.796875 21.1875 
Q 45.796875 27.640625 41.28125 31.265625 
Q 36.765625 34.90625 28.71875 34.90625 
L 20.21875 34.90625 
L 20.21875 43.015625 
L 29.109375 43.015625 
Q 36.375 43.015625 40.234375 45.921875 
Q 44.09375 48.828125 44.09375 54.296875 
Q 44.09375 59.90625 40.109375 62.90625 
Q 36.140625 65.921875 28.71875 65.921875 
Q 24.65625 65.921875 20.015625 65.03125 
Q 15.375 64.15625 9.8125 62.3125 
L 9.8125 71.09375 
Q 15.4375 72.65625 20.34375 73.4375 
Q 25.25 74.21875 29.59375 74.21875 
Q 40.828125 74.21875 47.359375 69.109375 
Q 53.90625 64.015625 53.90625 55.328125 
Q 53.90625 49.265625 50.4375 45.09375 
Q 46.96875 40.921875 40.578125 39.3125 
z
" id="DejaVuSans-51"/>
      </defs>
      <g transform="translate(121.277123 260.798437)scale(0.1 -0.1)">
       <use xlink:href="#DejaVuSans-51"/>
       <use x="63.623047" xlink:href="#DejaVuSans-48"/>
      </g>
     </g>
    </g>
    <g id="xtick_3">
     <g id="line2d_5">
      <path clip-path="url(#p3f91ab0602)" d="M 188.028082 246.2 
L 188.028082 10.8 
" style="fill:none;stroke:#b0b0b0;stroke-linecap:square;stroke-width:0.8;"/>
     </g>
     <g id="line2d_6">
      <g>
       <use style="stroke:#000000;stroke-width:0.8;" x="188.028082" xlink:href="#me47793daab" y="246.2"/>
      </g>
     </g>
     <g id="text_3">
      <!-- 40 -->
      <defs>
       <path d="M 37.796875 64.3125 
L 12.890625 25.390625 
L 37.796875 25.390625 
z
M 35.203125 72.90625 
L 47.609375 72.90625 
L 47.609375 25.390625 
L 58.015625 25.390625 
L 58.015625 17.1875 
L 47.609375 17.1875 
L 47.609375 0 
L 37.796875 0 
L 37.796875 17.1875 
L 4.890625 17.1875 
L 4.890625 26.703125 
z
" id="DejaVuSans-52"/>
      </defs>
      <g transform="translate(181.665582 260.798437)scale(0.1 -0.1)">
       <use xlink:href="#DejaVuSans-52"/>
       <use x="63.623047" xlink:href="#DejaVuSans-48"/>
      </g>
     </g>
    </g>
    <g id="xtick_4">
     <g id="line2d_7">
      <path clip-path="url(#p3f91ab0602)" d="M 248.416541 246.2 
L 248.416541 10.8 
" style="fill:none;stroke:#b0b0b0;stroke-linecap:square;stroke-width:0.8;"/>
     </g>
     <g id="line2d_8">
      <g>
       <use style="stroke:#000000;stroke-width:0.8;" x="248.416541" xlink:href="#me47793daab" y="246.2"/>
      </g>
     </g>
     <g id="text_4">
      <!-- 50 -->
      <defs>
       <path d="M 10.796875 72.90625 
L 49.515625 72.90625 
L 49.515625 64.59375 
L 19.828125 64.59375 
L 19.828125 46.734375 
Q 21.96875 47.46875 24.109375 47.828125 
Q 26.265625 48.1875 28.421875 48.1875 
Q 40.625 48.1875 47.75 41.5 
Q 54.890625 34.8125 54.890625 23.390625 
Q 54.890625 11.625 47.5625 5.09375 
Q 40.234375 -1.421875 26.90625 -1.421875 
Q 22.3125 -1.421875 17.546875 -0.640625 
Q 12.796875 0.140625 7.71875 1.703125 
L 7.71875 11.625 
Q 12.109375 9.234375 16.796875 8.0625 
Q 21.484375 6.890625 26.703125 6.890625 
Q 35.15625 6.890625 40.078125 11.328125 
Q 45.015625 15.765625 45.015625 23.390625 
Q 45.015625 31 40.078125 35.4375 
Q 35.15625 39.890625 26.703125 39.890625 
Q 22.75 39.890625 18.8125 39.015625 
Q 14.890625 38.140625 10.796875 36.28125 
z
" id="DejaVuSans-53"/>
      </defs>
      <g transform="translate(242.054041 260.798437)scale(0.1 -0.1)">
       <use xlink:href="#DejaVuSans-53"/>
       <use x="63.623047" xlink:href="#DejaVuSans-48"/>
      </g>
     </g>
    </g>
    <g id="xtick_5">
     <g id="line2d_9">
      <path clip-path="url(#p3f91ab0602)" d="M 308.805 246.2 
L 308.805 10.8 
" style="fill:none;stroke:#b0b0b0;stroke-linecap:square;stroke-width:0.8;"/>
     </g>
     <g id="line2d_10">
      <g>
       <use style="stroke:#000000;stroke-width:0.8;" x="308.805" xlink:href="#me47793daab" y="246.2"/>
      </g>
     </g>
     <g id="text_5">
      <!-- 60 -->
      <defs>
       <path d="M 33.015625 40.375 
Q 26.375 40.375 22.484375 35.828125 
Q 18.609375 31.296875 18.609375 23.390625 
Q 18.609375 15.53125 22.484375 10.953125 
Q 26.375 6.390625 33.015625 6.390625 
Q 39.65625 6.390625 43.53125 10.953125 
Q 47.40625 15.53125 47.40625 23.390625 
Q 47.40625 31.296875 43.53125 35.828125 
Q 39.65625 40.375 33.015625 40.375 
z
M 52.59375 71.296875 
L 52.59375 62.3125 
Q 48.875 64.0625 45.09375 64.984375 
Q 41.3125 65.921875 37.59375 65.921875 
Q 27.828125 65.921875 22.671875 59.328125 
Q 17.53125 52.734375 16.796875 39.40625 
Q 19.671875 43.65625 24.015625 45.921875 
Q 28.375 48.1875 33.59375 48.1875 
Q 44.578125 48.1875 50.953125 41.515625 
Q 57.328125 34.859375 57.328125 23.390625 
Q 57.328125 12.15625 50.6875 5.359375 
Q 44.046875 -1.421875 33.015625 -1.421875 
Q 20.359375 -1.421875 13.671875 8.265625 
Q 6.984375 17.96875 6.984375 36.375 
Q 6.984375 53.65625 15.1875 63.9375 
Q 23.390625 74.21875 37.203125 74.21875 
Q 40.921875 74.21875 44.703125 73.484375 
Q 48.484375 72.75 52.59375 71.296875 
z
" id="DejaVuSans-54"/>
      </defs>
      <g transform="translate(302.4425 260.798437)scale(0.1 -0.1)">
       <use xlink:href="#DejaVuSans-54"/>
       <use x="63.623047" xlink:href="#DejaVuSans-48"/>
      </g>
     </g>
    </g>
    <g id="xtick_6">
     <g id="line2d_11">
      <path clip-path="url(#p3f91ab0602)" d="M 369.193459 246.2 
L 369.193459 10.8 
" style="fill:none;stroke:#b0b0b0;stroke-linecap:square;stroke-width:0.8;"/>
     </g>
     <g id="line2d_12">
      <g>
       <use style="stroke:#000000;stroke-width:0.8;" x="369.193459" xlink:href="#me47793daab" y="246.2"/>
      </g>
     </g>
     <g id="text_6">
      <!-- 70 -->
      <defs>
       <path d="M 8.203125 72.90625 
L 55.078125 72.90625 
L 55.078125 68.703125 
L 28.609375 0 
L 18.3125 0 
L 43.21875 64.59375 
L 8.203125 64.59375 
z
" id="DejaVuSans-55"/>
      </defs>
      <g transform="translate(362.830959 260.798437)scale(0.1 -0.1)">
       <use xlink:href="#DejaVuSans-55"/>
       <use x="63.623047" xlink:href="#DejaVuSans-48"/>
      </g>
     </g>
    </g>
    <g id="text_7">
     <!-- time (seconds) -->
     <defs>
      <path d="M 18.3125 70.21875 
L 18.3125 54.6875 
L 36.8125 54.6875 
L 36.8125 47.703125 
L 18.3125 47.703125 
L 18.3125 18.015625 
Q 18.3125 11.328125 20.140625 9.421875 
Q 21.96875 7.515625 27.59375 7.515625 
L 36.8125 7.515625 
L 36.8125 0 
L 27.59375 0 
Q 17.1875 0 13.234375 3.875 
Q 9.28125 7.765625 9.28125 18.015625 
L 9.28125 47.703125 
L 2.6875 47.703125 
L 2.6875 54.6875 
L 9.28125 54.6875 
L 9.28125 70.21875 
z
" id="DejaVuSans-116"/>
      <path d="M 9.421875 54.6875 
L 18.40625 54.6875 
L 18.40625 0 
L 9.421875 0 
z
M 9.421875 75.984375 
L 18.40625 75.984375 
L 18.40625 64.59375 
L 9.421875 64.59375 
z
" id="DejaVuSans-105"/>
      <path d="M 52 44.1875 
Q 55.375 50.25 60.0625 53.125 
Q 64.75 56 71.09375 56 
Q 79.640625 56 84.28125 50.015625 
Q 88.921875 44.046875 88.921875 33.015625 
L 88.921875 0 
L 79.890625 0 
L 79.890625 32.71875 
Q 79.890625 40.578125 77.09375 44.375 
Q 74.3125 48.1875 68.609375 48.1875 
Q 61.625 48.1875 57.5625 43.546875 
Q 53.515625 38.921875 53.515625 30.90625 
L 53.515625 0 
L 44.484375 0 
L 44.484375 32.71875 
Q 44.484375 40.625 41.703125 44.40625 
Q 38.921875 48.1875 33.109375 48.1875 
Q 26.21875 48.1875 22.15625 43.53125 
Q 18.109375 38.875 18.109375 30.90625 
L 18.109375 0 
L 9.078125 0 
L 9.078125 54.6875 
L 18.109375 54.6875 
L 18.109375 46.1875 
Q 21.1875 51.21875 25.484375 53.609375 
Q 29.78125 56 35.6875 56 
Q 41.65625 56 45.828125 52.96875 
Q 50 49.953125 52 44.1875 
z
" id="DejaVuSans-109"/>
      <path d="M 56.203125 29.59375 
L 56.203125 25.203125 
L 14.890625 25.203125 
Q 15.484375 15.921875 20.484375 11.0625 
Q 25.484375 6.203125 34.421875 6.203125 
Q 39.59375 6.203125 44.453125 7.46875 
Q 49.3125 8.734375 54.109375 11.28125 
L 54.109375 2.78125 
Q 49.265625 0.734375 44.1875 -0.34375 
Q 39.109375 -1.421875 33.890625 -1.421875 
Q 20.796875 -1.421875 13.15625 6.1875 
Q 5.515625 13.8125 5.515625 26.8125 
Q 5.515625 40.234375 12.765625 48.109375 
Q 20.015625 56 32.328125 56 
Q 43.359375 56 49.78125 48.890625 
Q 56.203125 41.796875 56.203125 29.59375 
z
M 47.21875 32.234375 
Q 47.125 39.59375 43.09375 43.984375 
Q 39.0625 48.390625 32.421875 48.390625 
Q 24.90625 48.390625 20.390625 44.140625 
Q 15.875 39.890625 15.1875 32.171875 
z
" id="DejaVuSans-101"/>
      <path id="DejaVuSans-32"/>
      <path d="M 31 75.875 
Q 24.46875 64.65625 21.28125 53.65625 
Q 18.109375 42.671875 18.109375 31.390625 
Q 18.109375 20.125 21.3125 9.0625 
Q 24.515625 -2 31 -13.1875 
L 23.1875 -13.1875 
Q 15.875 -1.703125 12.234375 9.375 
Q 8.59375 20.453125 8.59375 31.390625 
Q 8.59375 42.28125 12.203125 53.3125 
Q 15.828125 64.359375 23.1875 75.875 
z
" id="DejaVuSans-40"/>
      <path d="M 44.28125 53.078125 
L 44.28125 44.578125 
Q 40.484375 46.53125 36.375 47.5 
Q 32.28125 48.484375 27.875 48.484375 
Q 21.1875 48.484375 17.84375 46.4375 
Q 14.5 44.390625 14.5 40.28125 
Q 14.5 37.15625 16.890625 35.375 
Q 19.28125 33.59375 26.515625 31.984375 
L 29.59375 31.296875 
Q 39.15625 29.25 43.1875 25.515625 
Q 47.21875 21.78125 47.21875 15.09375 
Q 47.21875 7.46875 41.1875 3.015625 
Q 35.15625 -1.421875 24.609375 -1.421875 
Q 20.21875 -1.421875 15.453125 -0.5625 
Q 10.6875 0.296875 5.421875 2 
L 5.421875 11.28125 
Q 10.40625 8.6875 15.234375 7.390625 
Q 20.0625 6.109375 24.8125 6.109375 
Q 31.15625 6.109375 34.5625 8.28125 
Q 37.984375 10.453125 37.984375 14.40625 
Q 37.984375 18.0625 35.515625 20.015625 
Q 33.0625 21.96875 24.703125 23.78125 
L 21.578125 24.515625 
Q 13.234375 26.265625 9.515625 29.90625 
Q 5.8125 33.546875 5.8125 39.890625 
Q 5.8125 47.609375 11.28125 51.796875 
Q 16.75 56 26.8125 56 
Q 31.78125 56 36.171875 55.265625 
Q 40.578125 54.546875 44.28125 53.078125 
z
" id="DejaVuSans-115"/>
      <path d="M 48.78125 52.59375 
L 48.78125 44.1875 
Q 44.96875 46.296875 41.140625 47.34375 
Q 37.3125 48.390625 33.40625 48.390625 
Q 24.65625 48.390625 19.8125 42.84375 
Q 14.984375 37.3125 14.984375 27.296875 
Q 14.984375 17.28125 19.8125 11.734375 
Q 24.65625 6.203125 33.40625 6.203125 
Q 37.3125 6.203125 41.140625 7.25 
Q 44.96875 8.296875 48.78125 10.40625 
L 48.78125 2.09375 
Q 45.015625 0.34375 40.984375 -0.53125 
Q 36.96875 -1.421875 32.421875 -1.421875 
Q 20.0625 -1.421875 12.78125 6.34375 
Q 5.515625 14.109375 5.515625 27.296875 
Q 5.515625 40.671875 12.859375 48.328125 
Q 20.21875 56 33.015625 56 
Q 37.15625 56 41.109375 55.140625 
Q 45.0625 54.296875 48.78125 52.59375 
z
" id="DejaVuSans-99"/>
      <path d="M 30.609375 48.390625 
Q 23.390625 48.390625 19.1875 42.75 
Q 14.984375 37.109375 14.984375 27.296875 
Q 14.984375 17.484375 19.15625 11.84375 
Q 23.34375 6.203125 30.609375 6.203125 
Q 37.796875 6.203125 41.984375 11.859375 
Q 46.1875 17.53125 46.1875 27.296875 
Q 46.1875 37.015625 41.984375 42.703125 
Q 37.796875 48.390625 30.609375 48.390625 
z
M 30.609375 56 
Q 42.328125 56 49.015625 48.375 
Q 55.71875 40.765625 55.71875 27.296875 
Q 55.71875 13.875 49.015625 6.21875 
Q 42.328125 -1.421875 30.609375 -1.421875 
Q 18.84375 -1.421875 12.171875 6.21875 
Q 5.515625 13.875 5.515625 27.296875 
Q 5.515625 40.765625 12.171875 48.375 
Q 18.84375 56 30.609375 56 
z
" id="DejaVuSans-111"/>
      <path d="M 54.890625 33.015625 
L 54.890625 0 
L 45.90625 0 
L 45.90625 32.71875 
Q 45.90625 40.484375 42.875 44.328125 
Q 39.84375 48.1875 33.796875 48.1875 
Q 26.515625 48.1875 22.3125 43.546875 
Q 18.109375 38.921875 18.109375 30.90625 
L 18.109375 0 
L 9.078125 0 
L 9.078125 54.6875 
L 18.109375 54.6875 
L 18.109375 46.1875 
Q 21.34375 51.125 25.703125 53.5625 
Q 30.078125 56 35.796875 56 
Q 45.21875 56 50.046875 50.171875 
Q 54.890625 44.34375 54.890625 33.015625 
z
" id="DejaVuSans-110"/>
      <path d="M 45.40625 46.390625 
L 45.40625 75.984375 
L 54.390625 75.984375 
L 54.390625 0 
L 45.40625 0 
L 45.40625 8.203125 
Q 42.578125 3.328125 38.25 0.953125 
Q 33.9375 -1.421875 27.875 -1.421875 
Q 17.96875 -1.421875 11.734375 6.484375 
Q 5.515625 14.40625 5.515625 27.296875 
Q 5.515625 40.1875 11.734375 48.09375 
Q 17.96875 56 27.875 56 
Q 33.9375 56 38.25 53.625 
Q 42.578125 51.265625 45.40625 46.390625 
z
M 14.796875 27.296875 
Q 14.796875 17.390625 18.875 11.75 
Q 22.953125 6.109375 30.078125 6.109375 
Q 37.203125 6.109375 41.296875 11.75 
Q 45.40625 17.390625 45.40625 27.296875 
Q 45.40625 37.203125 41.296875 42.84375 
Q 37.203125 48.484375 30.078125 48.484375 
Q 22.953125 48.484375 18.875 42.84375 
Q 14.796875 37.203125 14.796875 27.296875 
z
" id="DejaVuSans-100"/>
      <path d="M 8.015625 75.875 
L 15.828125 75.875 
Q 23.140625 64.359375 26.78125 53.3125 
Q 30.421875 42.28125 30.421875 31.390625 
Q 30.421875 20.453125 26.78125 9.375 
Q 23.140625 -1.703125 15.828125 -13.1875 
L 8.015625 -13.1875 
Q 14.5 -2 17.703125 9.0625 
Q 20.90625 20.125 20.90625 31.390625 
Q 20.90625 42.671875 17.703125 53.65625 
Q 14.5 64.65625 8.015625 75.875 
z
" id="DejaVuSans-41"/>
     </defs>
     <g transform="translate(196.650781 274.476562)scale(0.1 -0.1)">
      <use xlink:href="#DejaVuSans-116"/>
      <use x="39.208984" xlink:href="#DejaVuSans-105"/>
      <use x="66.992188" xlink:href="#DejaVuSans-109"/>
      <use x="164.404297" xlink:href="#DejaVuSans-101"/>
      <use x="225.927734" xlink:href="#DejaVuSans-32"/>
      <use x="257.714844" xlink:href="#DejaVuSans-40"/>
      <use x="296.728516" xlink:href="#DejaVuSans-115"/>
      <use x="348.828125" xlink:href="#DejaVuSans-101"/>
      <use x="410.351562" xlink:href="#DejaVuSans-99"/>
      <use x="465.332031" xlink:href="#DejaVuSans-111"/>
      <use x="526.513672" xlink:href="#DejaVuSans-110"/>
      <use x="589.892578" xlink:href="#DejaVuSans-100"/>
      <use x="653.369141" xlink:href="#DejaVuSans-115"/>
      <use x="705.46875" xlink:href="#DejaVuSans-41"/>
     </g>
    </g>
   </g>
   <g id="matplotlib.axis_2">
    <g id="ytick_1">
     <g id="line2d_13">
      <path clip-path="url(#p3f91ab0602)" d="M 46.55 230.676815 
L 421.2 230.676815 
" style="fill:none;stroke:#b0b0b0;stroke-linecap:square;stroke-width:0.8;"/>
     </g>
     <g id="line2d_14">
      <defs>
       <path d="M 0 0 
L -3.5 0 
" id="mb8d0d0d4e4" style="stroke:#000000;stroke-width:0.8;"/>
      </defs>
      <g>
       <use style="stroke:#000000;stroke-width:0.8;" x="46.55" xlink:href="#mb8d0d0d4e4" y="230.676815"/>
      </g>
     </g>
     <g id="text_8">
      <!-- −3 -->
      <defs>
       <path d="M 10.59375 35.5 
L 73.1875 35.5 
L 73.1875 27.203125 
L 10.59375 27.203125 
z
" id="DejaVuSans-8722"/>
      </defs>
      <g transform="translate(24.807812 234.476034)scale(0.1 -0.1)">
       <use xlink:href="#DejaVuSans-8722"/>
       <use x="83.789062" xlink:href="#DejaVuSans-51"/>
      </g>
     </g>
    </g>
    <g id="ytick_2">
     <g id="line2d_15">
      <path clip-path="url(#p3f91ab0602)" d="M 46.55 196.611036 
L 421.2 196.611036 
" style="fill:none;stroke:#b0b0b0;stroke-linecap:square;stroke-width:0.8;"/>
     </g>
     <g id="line2d_16">
      <g>
       <use style="stroke:#000000;stroke-width:0.8;" x="46.55" xlink:href="#mb8d0d0d4e4" y="196.611036"/>
      </g>
     </g>
     <g id="text_9">
      <!-- −2 -->
      <g transform="translate(24.807812 200.410254)scale(0.1 -0.1)">
       <use xlink:href="#DejaVuSans-8722"/>
       <use x="83.789062" xlink:href="#DejaVuSans-50"/>
      </g>
     </g>
    </g>
    <g id="ytick_3">
     <g id="line2d_17">
      <path clip-path="url(#p3f91ab0602)" d="M 46.55 162.545256 
L 421.2 162.545256 
" style="fill:none;stroke:#b0b0b0;stroke-linecap:square;stroke-width:0.8;"/>
     </g>
     <g id="line2d_18">
      <g>
       <use style="stroke:#000000;stroke-width:0.8;" x="46.55" xlink:href="#mb8d0d0d4e4" y="162.545256"/>
      </g>
     </g>
     <g id="text_10">
      <!-- −1 -->
      <defs>
       <path d="M 12.40625 8.296875 
L 28.515625 8.296875 
L 28.515625 63.921875 
L 10.984375 60.40625 
L 10.984375 69.390625 
L 28.421875 72.90625 
L 38.28125 72.90625 
L 38.28125 8.296875 
L 54.390625 8.296875 
L 54.390625 0 
L 12.40625 0 
z
" id="DejaVuSans-49"/>
      </defs>
      <g transform="translate(24.807812 166.344475)scale(0.1 -0.1)">
       <use xlink:href="#DejaVuSans-8722"/>
       <use x="83.789062" xlink:href="#DejaVuSans-49"/>
      </g>
     </g>
    </g>
    <g id="ytick_4">
     <g id="line2d_19">
      <path clip-path="url(#p3f91ab0602)" d="M 46.55 128.479476 
L 421.2 128.479476 
" style="fill:none;stroke:#b0b0b0;stroke-linecap:square;stroke-width:0.8;"/>
     </g>
     <g id="line2d_20">
      <g>
       <use style="stroke:#000000;stroke-width:0.8;" x="46.55" xlink:href="#mb8d0d0d4e4" y="128.479476"/>
      </g>
     </g>
     <g id="text_11">
      <!-- 0 -->
      <g transform="translate(33.1875 132.278695)scale(0.1 -0.1)">
       <use xlink:href="#DejaVuSans-48"/>
      </g>
     </g>
    </g>
    <g id="ytick_5">
     <g id="line2d_21">
      <path clip-path="url(#p3f91ab0602)" d="M 46.55 94.413696 
L 421.2 94.413696 
" style="fill:none;stroke:#b0b0b0;stroke-linecap:square;stroke-width:0.8;"/>
     </g>
     <g id="line2d_22">
      <g>
       <use style="stroke:#000000;stroke-width:0.8;" x="46.55" xlink:href="#mb8d0d0d4e4" y="94.413696"/>
      </g>
     </g>
     <g id="text_12">
      <!-- 1 -->
      <g transform="translate(33.1875 98.212915)scale(0.1 -0.1)">
       <use xlink:href="#DejaVuSans-49"/>
      </g>
     </g>
    </g>
    <g id="ytick_6">
     <g id="line2d_23">
      <path clip-path="url(#p3f91ab0602)" d="M 46.55 60.347917 
L 421.2 60.347917 
" style="fill:none;stroke:#b0b0b0;stroke-linecap:square;stroke-width:0.8;"/>
     </g>
     <g id="line2d_24">
      <g>
       <use style="stroke:#000000;stroke-width:0.8;" x="46.55" xlink:href="#mb8d0d0d4e4" y="60.347917"/>
      </g>
     </g>
     <g id="text_13">
      <!-- 2 -->
      <g transform="translate(33.1875 64.147135)scale(0.1 -0.1)">
       <use xlink:href="#DejaVuSans-50"/>
      </g>
     </g>
    </g>
    <g id="ytick_7">
     <g id="line2d_25">
      <path clip-path="url(#p3f91ab0602)" d="M 46.55 26.282137 
L 421.2 26.282137 
" style="fill:none;stroke:#b0b0b0;stroke-linecap:square;stroke-width:0.8;"/>
     </g>
     <g id="line2d_26">
      <g>
       <use style="stroke:#000000;stroke-width:0.8;" x="46.55" xlink:href="#mb8d0d0d4e4" y="26.282137"/>
      </g>
     </g>
     <g id="text_14">
      <!-- 3 -->
      <g transform="translate(33.1875 30.081356)scale(0.1 -0.1)">
       <use xlink:href="#DejaVuSans-51"/>
      </g>
     </g>
    </g>
    <g id="text_15">
     <!-- yaw (radians) -->
     <defs>
      <path d="M 32.171875 -5.078125 
Q 28.375 -14.84375 24.75 -17.8125 
Q 21.140625 -20.796875 15.09375 -20.796875 
L 7.90625 -20.796875 
L 7.90625 -13.28125 
L 13.1875 -13.28125 
Q 16.890625 -13.28125 18.9375 -11.515625 
Q 21 -9.765625 23.484375 -3.21875 
L 25.09375 0.875 
L 2.984375 54.6875 
L 12.5 54.6875 
L 29.59375 11.921875 
L 46.6875 54.6875 
L 56.203125 54.6875 
z
" id="DejaVuSans-121"/>
      <path d="M 34.28125 27.484375 
Q 23.390625 27.484375 19.1875 25 
Q 14.984375 22.515625 14.984375 16.5 
Q 14.984375 11.71875 18.140625 8.90625 
Q 21.296875 6.109375 26.703125 6.109375 
Q 34.1875 6.109375 38.703125 11.40625 
Q 43.21875 16.703125 43.21875 25.484375 
L 43.21875 27.484375 
z
M 52.203125 31.203125 
L 52.203125 0 
L 43.21875 0 
L 43.21875 8.296875 
Q 40.140625 3.328125 35.546875 0.953125 
Q 30.953125 -1.421875 24.3125 -1.421875 
Q 15.921875 -1.421875 10.953125 3.296875 
Q 6 8.015625 6 15.921875 
Q 6 25.140625 12.171875 29.828125 
Q 18.359375 34.515625 30.609375 34.515625 
L 43.21875 34.515625 
L 43.21875 35.40625 
Q 43.21875 41.609375 39.140625 45 
Q 35.0625 48.390625 27.6875 48.390625 
Q 23 48.390625 18.546875 47.265625 
Q 14.109375 46.140625 10.015625 43.890625 
L 10.015625 52.203125 
Q 14.9375 54.109375 19.578125 55.046875 
Q 24.21875 56 28.609375 56 
Q 40.484375 56 46.34375 49.84375 
Q 52.203125 43.703125 52.203125 31.203125 
z
" id="DejaVuSans-97"/>
      <path d="M 4.203125 54.6875 
L 13.1875 54.6875 
L 24.421875 12.015625 
L 35.59375 54.6875 
L 46.1875 54.6875 
L 57.421875 12.015625 
L 68.609375 54.6875 
L 77.59375 54.6875 
L 63.28125 0 
L 52.6875 0 
L 40.921875 44.828125 
L 29.109375 0 
L 18.5 0 
z
" id="DejaVuSans-119"/>
      <path d="M 41.109375 46.296875 
Q 39.59375 47.171875 37.8125 47.578125 
Q 36.03125 48 33.890625 48 
Q 26.265625 48 22.1875 43.046875 
Q 18.109375 38.09375 18.109375 28.8125 
L 18.109375 0 
L 9.078125 0 
L 9.078125 54.6875 
L 18.109375 54.6875 
L 18.109375 46.1875 
Q 20.953125 51.171875 25.484375 53.578125 
Q 30.03125 56 36.53125 56 
Q 37.453125 56 38.578125 55.875 
Q 39.703125 55.765625 41.0625 55.515625 
z
" id="DejaVuSans-114"/>
     </defs>
     <g transform="translate(18.728125 162.623437)rotate(-90)scale(0.1 -0.1)">
      <use xlink:href="#DejaVuSans-121"/>
      <use x="59.179688" xlink:href="#DejaVuSans-97"/>
      <use x="120.458984" xlink:href="#DejaVuSans-119"/>
      <use x="202.246094" xlink:href="#DejaVuSans-32"/>
      <use x="234.033203" xlink:href="#DejaVuSans-40"/>
      <use x="273.046875" xlink:href="#DejaVuSans-114"/>
      <use x="314.160156" xlink:href="#DejaVuSans-97"/>
      <use x="375.439453" xlink:href="#DejaVuSans-100"/>
      <use x="438.916016" xlink:href="#DejaVuSans-105"/>
      <use x="466.699219" xlink:href="#DejaVuSans-97"/>
      <use x="527.978516" xlink:href="#DejaVuSans-110"/>
      <use x="591.357422" xlink:href="#DejaVuSans-115"/>
      <use x="643.457031" xlink:href="#DejaVuSans-41"/>
     </g>
    </g>
   </g>
   <g id="line2d_27">
    <path clip-path="url(#p3f91ab0602)" d="M 63.579545 128.479435 
L 63.579545 128.479435 
L 151.14885 128.457146 
L 151.14885 128.457077 
L 151.752735 128.111462 
L 152.356619 127.102106 
L 152.960504 125.444079 
L 153.558349 121.098032 
L 155.370003 106.120102 
L 155.973888 102.548423 
L 156.583811 101.636398 
L 157.79158 101.620974 
L 158.395465 101.180486 
L 158.993311 99.313007 
L 160.20108 91.70967 
L 160.823081 88.722139 
L 161.439043 86.922605 
L 162.018773 85.94543 
L 162.616618 85.70624 
L 174.096464 85.620301 
L 174.69431 84.886592 
L 176.505964 81.247063 
L 177.713733 79.506427 
L 178.921502 78.405327 
L 180.13531 77.76512 
L 181.940925 77.161144 
L 185.570272 76.779216 
L 195.830271 76.301356 
L 195.830271 76.288357 
L 196.434155 76.167728 
L 196.434155 76.16773 
L 198.245809 76.650042 
L 204.894578 76.491667 
L 209.719616 76.365587 
L 209.719616 76.366255 
L 210.927386 76.25794 
L 216.966231 75.712138 
L 216.966231 75.709945 
L 218.174001 75.402732 
L 219.38177 75.379381 
L 219.38177 75.373743 
L 220.589539 74.758814 
L 222.401193 74.647398 
L 223.005077 74.373039 
L 223.608962 73.860602 
L 224.816731 72.575716 
L 226.030539 71.49254 
L 227.836154 70.195115 
L 228.440039 69.690159 
L 228.440039 69.690562 
L 229.043923 69.606824 
L 229.647808 67.317877 
L 230.257731 62.090507 
L 231.4655 51.309295 
L 232.063346 47.828134 
L 232.667231 46.287794 
L 233.277154 46.112093 
L 235.692693 46.000332 
L 235.692693 45.966663 
L 236.296577 44.888557 
L 236.894423 41.697257 
L 238.102192 35.051012 
L 239.309961 30.771512 
L 239.919885 29.501055 
L 240.51773 29.009156 
L 240.51773 29.009207 
L 256.224769 28.992356 
L 256.224769 28.988528 
L 256.822614 28.775607 
L 257.426499 28.386177 
L 258.030384 27.72835 
L 259.842037 25.385413 
L 261.049807 24.222921 
L 262.257576 23.590801 
L 264.06923 23.089205 
L 267.088652 22.650564 
L 270.108075 22.494986 
L 270.108075 22.49678 
L 270.108075 22.500224 
L 271.315845 23.890678 
L 273.743461 23.769638 
L 273.743461 23.774817 
L 273.743461 23.779763 
L 277.354691 23.559978 
L 278.56246 23.483255 
L 278.56246 23.483327 
L 280.984037 23.382963 
L 280.984037 23.376858 
L 280.984037 23.363211 
L 287.022883 23.069506 
L 288.230652 22.984657 
L 288.230652 22.984726 
L 288.834537 22.985663 
L 288.834537 22.984068 
L 290.036267 22.717892 
L 291.244036 22.640575 
L 291.244036 22.640642 
L 291.847921 22.640163 
L 292.463883 22.493453 
L 293.665613 22.156404 
L 295.471228 22.111317 
L 295.471228 22.089384 
L 296.678997 21.713626 
L 298.490651 21.656126 
L 299.100575 21.503857 
L 299.710498 235.395691 
L 299.716537 235.375236 
L 302.717843 235.039319 
L 302.717843 235.036828 
L 303.925613 234.938805 
L 305.139421 234.870196 
L 306.951074 234.503401 
L 308.756689 234.405487 
L 309.970497 233.833468 
L 309.970497 233.824254 
L 311.178266 233.231222 
L 311.178266 233.231249 
L 311.776112 233.167473 
L 312.98992 232.807369 
L 319.626612 232.741039 
L 319.626612 232.730538 
L 320.230496 232.369376 
L 320.834381 231.137267 
L 321.438266 229.665764 
L 322.04215 227.881785 
L 323.255958 223.943249 
L 323.853804 223.008603 
L 325.671497 222.949528 
L 328.69092 222.825165 
L 328.69092 222.823663 
L 329.288765 222.458703 
L 329.288765 222.379604 
L 330.502573 220.057519 
L 331.704304 217.808154 
L 332.912073 216.518225 
L 333.515957 216.106439 
L 334.119842 215.388581 
L 335.327611 213.930429 
L 336.53538 213.483253 
L 338.956958 210.87121 
L 340.176804 210.069415 
L 341.372496 209.69561 
L 342.574226 209.517075 
L 342.574226 209.523304 
L 343.788034 210.041301 
L 343.788034 210.041175 
L 346.197534 209.947985 
L 351.028611 209.442511 
L 373.378379 208.635111 
L 373.378379 208.6339 
L 375.787879 208.556784 
L 378.203417 208.315403 
L 379.417225 208.086302 
L 382.436648 208.070158 
L 383.650456 207.627124 
L 383.650456 207.610527 
L 384.846148 207.177627 
L 385.456071 207.080925 
L 386.053917 206.892852 
L 389.07334 206.868012 
L 402.962685 206.755688 
L 404.170455 206.700811 
L 404.170455 206.700811 
" style="fill:none;stroke:#0b64d4;stroke-linecap:square;"/>
   </g>
   <g id="line2d_28">
    <path clip-path="url(#p3f91ab0602)" d="M 63.579545 128.482804 
L 63.579545 128.482804 
L 151.752735 128.459764 
L 151.752735 128.412119 
L 151.752735 128.352141 
L 152.356619 128.258413 
L 152.356619 127.415513 
L 152.960504 127.166099 
L 152.960504 126.244703 
L 153.558349 125.884062 
L 153.558349 124.497404 
L 154.162234 123.611228 
L 154.162234 116.849774 
L 154.766119 115.819101 
L 154.766119 112.924086 
L 155.370003 112.026201 
L 155.370003 107.247858 
L 155.973888 106.344725 
L 155.973888 104.604777 
L 156.583811 103.852682 
L 156.583811 101.639905 
L 158.395465 101.569059 
L 158.395465 101.489025 
L 158.993311 101.366642 
L 158.993311 100.733824 
L 159.603234 100.395001 
L 159.603234 96.235415 
L 160.20108 95.409278 
L 160.20108 93.222601 
L 160.823081 92.51577 
L 160.823081 89.367127 
L 161.439043 88.822827 
L 161.439043 87.589637 
L 162.018773 87.26219 
L 162.018773 86.465613 
L 162.616618 86.251628 
L 162.616618 85.699684 
L 165.648119 85.658009 
L 174.69431 85.564864 
L 174.69431 85.219431 
L 175.298195 85.052781 
L 175.298195 83.79514 
L 175.908118 83.522291 
L 175.908118 82.766429 
L 176.505964 82.508683 
L 176.505964 81.876406 
L 177.109848 81.63923 
L 177.109848 80.592701 
L 177.713733 80.409755 
L 177.713733 79.913782 
L 178.323657 79.756837 
L 178.323657 78.951064 
L 178.921502 78.762575 
L 178.921502 78.562485 
L 179.525387 78.359529 
L 179.525387 78.137753 
L 180.13531 77.993168 
L 180.13531 77.818969 
L 180.739195 77.66226 
L 180.739195 77.508055 
L 181.940925 77.329553 
L 181.940925 77.128799 
L 183.752579 76.950078 
L 183.752579 76.923878 
L 184.966387 76.793691 
L 184.966387 76.781734 
L 189.18754 76.599997 
L 189.18754 76.582064 
L 195.226386 76.462328 
L 195.226386 76.440046 
L 196.434155 76.289868 
L 196.434155 76.12081 
L 197.03804 76.109392 
L 197.03804 76.166179 
L 197.641925 76.31881 
L 197.641925 76.485665 
L 199.465656 76.566267 
L 204.284655 76.478692 
L 204.284655 76.459138 
L 204.284655 76.458553 
L 208.511847 76.345479 
L 208.511847 76.307123 
L 211.53127 76.186029 
L 211.53127 76.14925 
L 213.952847 76.104067 
L 213.952847 76.039404 
L 213.952847 76.004188 
L 216.362347 75.893509 
L 216.362347 75.858453 
L 216.966231 75.750269 
L 217.570116 75.615964 
L 217.570116 75.516191 
L 218.174001 75.341517 
L 218.174001 75.333909 
L 219.985654 75.306927 
L 219.985654 75.237947 
L 219.985654 75.172582 
L 220.589539 75.033766 
L 220.589539 74.804039 
L 223.608962 74.393992 
L 223.608962 74.024505 
L 224.212847 73.806889 
L 224.212847 73.566892 
L 224.816731 73.440462 
L 224.816731 72.792593 
L 225.420616 72.661883 
L 225.420616 72.279315 
L 226.030539 72.151077 
L 226.030539 71.540832 
L 226.628385 71.360698 
L 226.628385 71.178345 
L 227.23227 70.984844 
L 227.23227 70.858939 
L 227.836154 70.684141 
L 227.836154 70.486447 
L 228.440039 70.380335 
L 228.440039 69.776861 
L 229.647808 69.54857 
L 229.647808 68.621564 
L 230.257731 68.074729 
L 230.257731 64.525132 
L 230.855577 63.389668 
L 230.855577 57.819258 
L 231.4655 56.610505 
L 231.4655 53.420576 
L 232.063346 52.376055 
L 232.063346 49.764581 
L 232.667231 49.080802 
L 232.667231 46.715426 
L 233.277154 46.456487 
L 233.277154 46.084136 
L 236.296577 45.9175 
L 236.296577 45.229997 
L 236.894423 44.902902 
L 236.894423 43.215838 
L 237.498308 42.498203 
L 237.498308 40.338722 
L 238.102192 39.599129 
L 238.102192 36.23114 
L 238.718154 35.612382 
L 238.724193 34.124135 
L 239.309961 33.642177 
L 239.309961 31.136908 
L 239.919885 30.781366 
L 239.919885 30.193794 
L 240.51773 29.915932 
L 240.51773 29.046933 
L 241.7255 28.936038 
L 256.822614 28.855276 
L 256.822614 28.811149 
L 257.426499 28.692724 
L 257.426499 28.393079 
L 258.030384 28.208772 
L 258.030384 27.962023 
L 258.634268 27.817963 
L 258.634268 27.297316 
L 259.244192 27.109612 
L 259.244192 26.135174 
L 259.842037 25.994347 
L 259.842037 25.714453 
L 260.451961 25.567158 
L 260.451961 24.772445 
L 261.049807 24.561079 
L 261.049807 24.346138 
L 261.653691 24.142774 
L 261.653691 23.982389 
L 262.257576 23.816628 
L 262.257576 23.596692 
L 262.867499 23.463749 
L 262.867499 23.422553 
L 263.471384 23.270258 
L 263.471384 23.205147 
L 264.673114 23.05252 
L 264.673114 22.904242 
L 265.880883 22.765178 
L 265.880883 22.713266 
L 267.698576 22.559723 
L 267.698576 22.512136 
L 270.736115 22.411899 
L 270.736115 22.45656 
L 270.736115 22.745954 
L 271.315845 22.9311 
L 271.315845 23.469133 
L 271.931807 23.732222 
L 271.931807 23.795438 
L 271.931807 23.749191 
L 274.945191 23.636805 
L 290.036267 22.703103 
L 290.036267 22.618518 
L 292.463883 22.514352 
L 293.061729 22.409338 
L 293.061729 22.197918 
L 296.081152 22.028567 
L 296.081152 21.788618 
L 299.716537 21.5 
L 299.716537 235.5 
L 299.716537 235.368234 
L 302.717843 235.07859 
L 302.717843 235.041471 
L 303.321728 234.94507 
L 303.321728 234.855622 
L 305.743305 234.774919 
L 305.743305 234.754918 
L 305.743305 234.644564 
L 306.341151 234.512179 
L 306.341151 234.473457 
L 308.152805 234.340492 
L 308.152805 234.335355 
L 309.360574 234.319581 
L 309.360574 234.229628 
L 309.970497 234.128466 
L 309.970497 233.795298 
L 310.568343 233.630621 
L 310.568343 233.558012 
L 311.178266 233.41027 
L 311.178266 233.208323 
L 312.404152 233.020873 
L 312.404152 232.8764 
L 312.98992 232.719528 
L 312.98992 232.699586 
L 320.230496 232.587222 
L 320.230496 232.392689 
L 320.834381 232.276756 
L 320.834381 231.636507 
L 321.438266 231.350869 
L 321.438266 230.577029 
L 322.04215 230.251355 
L 322.04215 228.583077 
L 322.646035 228.219184 
L 322.646035 227.020406 
L 323.255958 226.650147 
L 323.255958 224.203174 
L 323.853804 223.8742 
L 323.853804 223.19281 
L 324.463727 222.911693 
L 324.463727 222.830667 
L 328.69092 222.712344 
L 328.69092 222.704762 
L 329.89265 222.585989 
L 329.89265 221.602666 
L 330.502573 221.28988 
L 330.502573 220.382643 
L 331.100419 220.107218 
L 331.100419 219.03255 
L 331.704304 218.759139 
L 331.704304 218.159754 
L 332.308188 217.922147 
L 332.308188 217.379395 
L 332.912073 217.223981 
L 332.912073 216.594662 
L 333.515957 216.402898 
L 333.515957 216.226405 
L 334.119842 216.063583 
L 334.119842 215.458395 
L 334.723727 215.289572 
L 334.723727 214.755765 
L 335.327611 214.57507 
L 335.327611 213.906054 
L 335.937535 213.701971 
L 335.937535 213.667163 
L 336.53538 213.569656 
L 336.53538 213.453661 
L 337.139265 213.364546 
L 337.139265 212.93795 
L 337.749188 212.777846 
L 337.749188 212.348219 
L 338.347034 212.202619 
L 338.359112 211.395376 
L 338.956958 211.177441 
L 338.956958 210.961167 
L 339.560842 210.75423 
L 339.560842 210.366305 
L 340.176804 210.218087 
L 340.176804 210.081523 
L 340.762573 209.950234 
L 340.762573 209.846057 
L 341.372496 209.704491 
L 341.372496 209.61147 
L 342.574226 209.472524 
L 342.574226 209.382488 
L 343.178111 209.450128 
L 343.178111 209.518998 
L 343.788034 209.692576 
L 343.788034 209.855985 
L 345.599688 209.868055 
L 345.599688 209.816975 
L 345.599688 209.818409 
L 347.405303 209.741892 
L 347.405303 209.724652 
L 347.405303 209.694117 
L 348.009188 209.555017 
L 348.009188 209.542245 
L 351.028611 209.351527 
L 351.028611 209.323636 
L 354.651918 209.144166 
L 354.651918 209.136663 
L 357.671341 209.017147 
L 357.671341 209.012898 
L 363.106302 208.88577 
L 363.106302 208.873163 
L 372.774495 208.572197 
L 372.774495 208.556244 
L 377.001687 208.358873 
L 377.001687 208.279005 
L 378.807302 208.134023 
L 378.807302 208.108444 
L 383.650456 207.803667 
L 383.650456 207.552586 
L 384.248302 207.389499 
L 384.248302 207.343031 
L 384.846148 207.198929 
L 384.846148 207.082151 
L 386.059956 206.911565 
L 386.059956 206.790575 
L 389.683263 206.734216 
L 403.572609 206.621395 
L 403.572609 206.602767 
L 404.170455 206.567645 
L 404.170455 206.567645 
" style="fill:none;stroke:#a80dfa;stroke-linecap:square;"/>
   </g>
   <g id="patch_4">
    <path d="M 46.55 246.2 
L 46.55 10.8 
" style="fill:none;stroke:#000000;stroke-linecap:square;stroke-linejoin:miter;stroke-width:0.8;"/>
   </g>
   <g id="patch_5">
    <path d="M 421.2 246.2 
L 421.2 10.8 
" style="fill:none;stroke:#000000;stroke-linecap:square;stroke-linejoin:miter;stroke-width:0.8;"/>
   </g>
   <g id="patch_6">
    <path d="M 46.55 246.2 
L 421.2 246.2 
" style="fill:none;stroke:#000000;stroke-linecap:square;stroke-linejoin:miter;stroke-width:0.8;"/>
   </g>
   <g id="patch_7">
    <path d="M 46.55 10.8 
L 421.2 10.8 
" style="fill:none;stroke:#000000;stroke-linecap:square;stroke-linejoin:miter;stroke-width:0.8;"/>
   </g>
   <g id="legend_1">
    <g id="patch_8">
     <path d="M 53.55 48.15625 
L 148.953125 48.15625 
Q 150.953125 48.15625 150.953125 46.15625 
L 150.953125 17.8 
Q 150.953125 15.8 148.953125 15.8 
L 53.55 15.8 
Q 51.55 15.8 51.55 17.8 
L 51.55 46.15625 
Q 51.55 48.15625 53.55 48.15625 
z
" style="fill:#ffffff;opacity:0.8;stroke:#cccccc;stroke-linejoin:miter;"/>
    </g>
    <g id="line2d_29">
     <path d="M 55.55 23.898438 
L 75.55 23.898438 
" style="fill:none;stroke:#0b64d4;stroke-linecap:square;"/>
    </g>
    <g id="line2d_30"/>
    <g id="text_16">
     <!-- ground truth -->
     <defs>
      <path d="M 45.40625 27.984375 
Q 45.40625 37.75 41.375 43.109375 
Q 37.359375 48.484375 30.078125 48.484375 
Q 22.859375 48.484375 18.828125 43.109375 
Q 14.796875 37.75 14.796875 27.984375 
Q 14.796875 18.265625 18.828125 12.890625 
Q 22.859375 7.515625 30.078125 7.515625 
Q 37.359375 7.515625 41.375 12.890625 
Q 45.40625 18.265625 45.40625 27.984375 
z
M 54.390625 6.78125 
Q 54.390625 -7.171875 48.1875 -13.984375 
Q 42 -20.796875 29.203125 -20.796875 
Q 24.46875 -20.796875 20.265625 -20.09375 
Q 16.0625 -19.390625 12.109375 -17.921875 
L 12.109375 -9.1875 
Q 16.0625 -11.328125 19.921875 -12.34375 
Q 23.78125 -13.375 27.78125 -13.375 
Q 36.625 -13.375 41.015625 -8.765625 
Q 45.40625 -4.15625 45.40625 5.171875 
L 45.40625 9.625 
Q 42.625 4.78125 38.28125 2.390625 
Q 33.9375 0 27.875 0 
Q 17.828125 0 11.671875 7.65625 
Q 5.515625 15.328125 5.515625 27.984375 
Q 5.515625 40.671875 11.671875 48.328125 
Q 17.828125 56 27.875 56 
Q 33.9375 56 38.28125 53.609375 
Q 42.625 51.21875 45.40625 46.390625 
L 45.40625 54.6875 
L 54.390625 54.6875 
z
" id="DejaVuSans-103"/>
      <path d="M 8.5 21.578125 
L 8.5 54.6875 
L 17.484375 54.6875 
L 17.484375 21.921875 
Q 17.484375 14.15625 20.5 10.265625 
Q 23.53125 6.390625 29.59375 6.390625 
Q 36.859375 6.390625 41.078125 11.03125 
Q 45.3125 15.671875 45.3125 23.6875 
L 45.3125 54.6875 
L 54.296875 54.6875 
L 54.296875 0 
L 45.3125 0 
L 45.3125 8.40625 
Q 42.046875 3.421875 37.71875 1 
Q 33.40625 -1.421875 27.6875 -1.421875 
Q 18.265625 -1.421875 13.375 4.4375 
Q 8.5 10.296875 8.5 21.578125 
z
M 31.109375 56 
z
" id="DejaVuSans-117"/>
      <path d="M 54.890625 33.015625 
L 54.890625 0 
L 45.90625 0 
L 45.90625 32.71875 
Q 45.90625 40.484375 42.875 44.328125 
Q 39.84375 48.1875 33.796875 48.1875 
Q 26.515625 48.1875 22.3125 43.546875 
Q 18.109375 38.921875 18.109375 30.90625 
L 18.109375 0 
L 9.078125 0 
L 9.078125 75.984375 
L 18.109375 75.984375 
L 18.109375 46.1875 
Q 21.34375 51.125 25.703125 53.5625 
Q 30.078125 56 35.796875 56 
Q 45.21875 56 50.046875 50.171875 
Q 54.890625 44.34375 54.890625 33.015625 
z
" id="DejaVuSans-104"/>
     </defs>
     <g transform="translate(83.55 27.398438)scale(0.1 -0.1)">
      <use xlink:href="#DejaVuSans-103"/>
      <use x="63.476562" xlink:href="#DejaVuSans-114"/>
      <use x="104.558594" xlink:href="#DejaVuSans-111"/>
      <use x="165.740234" xlink:href="#DejaVuSans-117"/>
      <use x="229.119141" xlink:href="#DejaVuSans-110"/>
      <use x="292.498047" xlink:href="#DejaVuSans-100"/>
      <use x="355.974609" xlink:href="#DejaVuSans-32"/>
      <use x="387.761719" xlink:href="#DejaVuSans-116"/>
      <use x="426.970703" xlink:href="#DejaVuSans-114"/>
      <use x="468.083984" xlink:href="#DejaVuSans-117"/>
      <use x="531.462891" xlink:href="#DejaVuSans-116"/>
      <use x="570.671875" xlink:href="#DejaVuSans-104"/>
     </g>
    </g>
    <g id="line2d_31">
     <path d="M 55.55 38.576562 
L 75.55 38.576562 
" style="fill:none;stroke:#a80dfa;stroke-linecap:square;"/>
    </g>
    <g id="line2d_32"/>
    <g id="text_17">
     <!-- estimate -->
     <g transform="translate(83.55 42.076562)scale(0.1 -0.1)">
      <use xlink:href="#DejaVuSans-101"/>
      <use x="61.523438" xlink:href="#DejaVuSans-115"/>
      <use x="113.623047" xlink:href="#DejaVuSans-116"/>
      <use x="152.832031" xlink:href="#DejaVuSans-105"/>
      <use x="180.615234" xlink:href="#DejaVuSans-109"/>
      <use x="278.027344" xlink:href="#DejaVuSans-97"/>
      <use x="339.306641" xlink:href="#DejaVuSans-116"/>
      <use x="378.515625" xlink:href="#DejaVuSans-101"/>
     </g>
    </g>
   </g>
  </g>
  <g id="axes_2">
   <g id="patch_9">
    <path d="M 56.55 236.2 
L 281.34 236.2 
L 281.34 142.04 
L 56.55 142.04 
z
" style="fill:#ffffff;"/>
   </g>
   <g id="patch_10">
    <path d="M 281.34 142.04 
L 163.872698 80.787385 
" style="fill:none;stroke:#808080;stroke-linejoin:miter;"/>
   </g>
   <g id="patch_11">
    <path d="M 56.55 142.04 
L 151.795006 80.787385 
" style="fill:none;stroke:#808080;stroke-linejoin:miter;"/>
   </g>
   <g id="matplotlib.axis_3">
    <g id="xtick_7">
     <g id="line2d_33">
      <path clip-path="url(#p18a0d80fa6)" d="M 56.55 236.2 
L 56.55 142.04 
" style="fill:none;stroke:#b0b0b0;stroke-linecap:square;stroke-width:0.8;"/>
     </g>
     <g id="line2d_34">
      <g>
       <use style="stroke:#000000;stroke-width:0.8;" x="56.55" xlink:href="#me47793daab" y="236.2"/>
      </g>
     </g>
    </g>
    <g id="xtick_8">
     <g id="line2d_35">
      <path clip-path="url(#p18a0d80fa6)" d="M 112.7475 236.2 
L 112.7475 142.04 
" style="fill:none;stroke:#b0b0b0;stroke-linecap:square;stroke-width:0.8;"/>
     </g>
     <g id="line2d_36">
      <g>
       <use style="stroke:#000000;stroke-width:0.8;" x="112.7475" xlink:href="#me47793daab" y="236.2"/>
      </g>
     </g>
    </g>
    <g id="xtick_9">
     <g id="line2d_37">
      <path clip-path="url(#p18a0d80fa6)" d="M 168.945 236.2 
L 168.945 142.04 
" style="fill:none;stroke:#b0b0b0;stroke-linecap:square;stroke-width:0.8;"/>
     </g>
     <g id="line2d_38">
      <g>
       <use style="stroke:#000000;stroke-width:0.8;" x="168.945" xlink:href="#me47793daab" y="236.2"/>
      </g>
     </g>
    </g>
    <g id="xtick_10">
     <g id="line2d_39">
      <path clip-path="url(#p18a0d80fa6)" d="M 225.1425 236.2 
L 225.1425 142.04 
" style="fill:none;stroke:#b0b0b0;stroke-linecap:square;stroke-width:0.8;"/>
     </g>
     <g id="line2d_40">
      <g>
       <use style="stroke:#000000;stroke-width:0.8;" x="225.1425" xlink:href="#me47793daab" y="236.2"/>
      </g>
     </g>
    </g>
    <g id="xtick_11">
     <g id="line2d_41">
      <path clip-path="url(#p18a0d80fa6)" d="M 281.34 236.2 
L 281.34 142.04 
" style="fill:none;stroke:#b0b0b0;stroke-linecap:square;stroke-width:0.8;"/>
     </g>
     <g id="line2d_42">
      <g>
       <use style="stroke:#000000;stroke-width:0.8;" x="281.34" xlink:href="#me47793daab" y="236.2"/>
      </g>
     </g>
    </g>
   </g>
   <g id="matplotlib.axis_4">
    <g id="ytick_8">
     <g id="line2d_43">
      <path clip-path="url(#p18a0d80fa6)" d="M 56.55 229.922667 
L 281.34 229.922667 
" style="fill:none;stroke:#b0b0b0;stroke-linecap:square;stroke-width:0.8;"/>
     </g>
     <g id="line2d_44">
      <g>
       <use style="stroke:#000000;stroke-width:0.8;" x="56.55" xlink:href="#mb8d0d0d4e4" y="229.922667"/>
      </g>
     </g>
    </g>
    <g id="ytick_9">
     <g id="line2d_45">
      <path clip-path="url(#p18a0d80fa6)" d="M 56.55 198.536 
L 281.34 198.536 
" style="fill:none;stroke:#b0b0b0;stroke-linecap:square;stroke-width:0.8;"/>
     </g>
     <g id="line2d_46">
      <g>
       <use style="stroke:#000000;stroke-width:0.8;" x="56.55" xlink:href="#mb8d0d0d4e4" y="198.536"/>
      </g>
     </g>
    </g>
    <g id="ytick_10">
     <g id="line2d_47">
      <path clip-path="url(#p18a0d80fa6)" d="M 56.55 167.149333 
L 281.34 167.149333 
" style="fill:none;stroke:#b0b0b0;stroke-linecap:square;stroke-width:0.8;"/>
     </g>
     <g id="line2d_48">
      <g>
       <use style="stroke:#000000;stroke-width:0.8;" x="56.55" xlink:href="#mb8d0d0d4e4" y="167.149333"/>
      </g>
     </g>
    </g>
   </g>
   <g id="line2d_49">
    <path clip-path="url(#p18a0d80fa6)" d="M 55.763235 229.244524 
L 67.002735 227.509534 
L 67.002735 227.384573 
L 78.242235 224.558231 
L 78.242235 224.329312 
L 89.36934 217.15695 
L 89.36934 216.32081 
L 100.60884 206.892327 
L 100.60884 206.15312 
L 111.84834 198.152243 
L 111.84834 197.458295 
L 123.08784 189.414666 
L 123.08784 188.720837 
L 134.32734 182.439681 
L 134.32734 182.139271 
L 145.679235 180.458673 
L 168.158235 180.430252 
L 179.397735 179.670086 
L 179.397735 179.618561 
L 190.52484 176.577123 
L 190.52484 176.17734 
L 201.76434 169.373957 
L 201.76434 169.302625 
L 201.876735 169.160164 
L 201.876735 168.806199 
L 213.00384 162.605154 
L 213.00384 162.166598 
L 224.580525 156.969956 
L 224.580525 156.661447 
L 236.044815 153.469605 
L 236.044815 153.345429 
L 246.834735 151.544778 
L 257.96184 151.104022 
L 291.68034 151.103432 
L 291.68034 151.103432 
" style="fill:none;stroke:#0b64d4;stroke-linecap:square;"/>
   </g>
   <g id="line2d_50">
    <path clip-path="url(#p18a0d80fa6)" d="M 55.763235 229.688026 
L 67.002735 229.515311 
L 67.002735 229.286832 
L 67.002735 229.034976 
L 67.002735 228.723874 
L 67.002735 228.369406 
L 67.002735 227.962093 
L 78.242235 227.502493 
L 78.242235 226.947503 
L 78.242235 226.403345 
L 78.242235 225.804629 
L 89.36934 225.140072 
L 89.36934 224.462591 
L 89.36934 223.631115 
L 89.36934 222.584865 
L 100.60884 220.951901 
L 100.60884 218.944982 
L 100.60884 216.784627 
L 100.60884 214.570572 
L 100.60884 212.567981 
L 100.60884 210.496707 
L 100.60884 208.492506 
L 111.84834 206.593274 
L 111.84834 204.7996 
L 111.84834 203.074836 
L 111.84834 201.258603 
L 123.08784 199.604062 
L 123.08784 197.861586 
L 123.08784 196.131548 
L 123.08784 194.136712 
L 123.08784 192.649146 
L 123.08784 190.798963 
L 134.32734 189.134751 
L 134.32734 187.462918 
L 134.32734 185.928533 
L 145.679235 184.542642 
L 145.679235 183.335167 
L 145.679235 182.34969 
L 145.679235 181.572008 
L 145.679235 180.990164 
L 145.679235 180.62613 
L 145.679235 180.465135 
L 156.80634 180.442362 
L 156.80634 180.436231 
L 156.80634 180.435239 
L 156.80634 180.430903 
L 168.158235 180.429978 
L 168.158235 180.425476 
L 168.158235 180.423916 
L 168.158235 180.418807 
L 168.158235 180.414557 
L 168.158235 180.405166 
L 179.397735 180.397675 
L 179.397735 180.386018 
L 179.397735 180.334588 
L 179.397735 180.187107 
L 190.52484 179.961592 
L 190.52484 179.651057 
L 190.52484 179.292009 
L 190.52484 178.795493 
L 201.876735 178.171139 
L 201.876735 177.373778 
L 201.876735 176.33787 
L 201.876735 175.03253 
L 201.876735 173.54399 
L 201.876735 171.937272 
L 201.876735 170.50623 
L 213.00384 168.9839 
L 213.00384 167.513771 
L 213.00384 166.289239 
L 213.00384 164.95449 
L 224.580525 163.652007 
L 224.580525 162.320974 
L 224.580525 161.15521 
L 224.580525 159.988538 
L 224.580525 158.889246 
L 224.580525 157.849972 
L 236.044815 156.846985 
L 236.044815 156.015396 
L 236.044815 155.234674 
L 236.044815 154.574575 
L 246.834735 153.971185 
L 246.834735 153.421155 
L 246.834735 152.940846 
L 246.834735 152.503325 
L 257.96184 152.109012 
L 257.96184 151.774787 
L 257.96184 151.515397 
L 257.96184 151.338673 
L 257.96184 151.194459 
L 257.96184 151.09194 
L 269.20134 151.0393 
L 269.20134 151.028997 
L 269.20134 151.028968 
L 269.20134 151.02756 
L 269.20134 151.027516 
L 269.20134 151.026666 
L 280.44084 151.026441 
L 280.44084 151.026216 
L 280.44084 151.026183 
L 280.44084 151.025434 
L 280.44084 151.025403 
L 291.68034 151.025368 
" style="fill:none;stroke:#a80dfa;stroke-linecap:square;"/>
   </g>
   <g id="patch_12">
    <path d="M 56.55 236.2 
L 56.55 142.04 
" style="fill:none;stroke:#000000;stroke-linecap:square;stroke-linejoin:miter;stroke-width:0.8;"/>
   </g>
   <g id="patch_13">
    <path d="M 281.34 236.2 
L 281.34 142.04 
" style="fill:none;stroke:#000000;stroke-linecap:square;stroke-linejoin:miter;stroke-width:0.8;"/>
   </g>
   <g id="patch_14">
    <path d="M 56.55 236.2 
L 281.34 236.2 
" style="fill:none;stroke:#000000;stroke-linecap:square;stroke-linejoin:miter;stroke-width:0.8;"/>
   </g>
   <g id="patch_15">
    <path d="M 56.55 142.04 
L 281.34 142.04 
" style="fill:none;stroke:#000000;stroke-linecap:square;stroke-linejoin:miter;stroke-width:0.8;"/>
   </g>
  </g>
 </g>
 <defs>
  <clipPath id="p3f91ab0602">
   <rect height="235.4" width="374.65" x="46.55" y="10.8"/>
  </clipPath>
  <clipPath id="p18a0d80fa6">
   <rect height="94.16" width="224.79" x="56.55" y="142.04"/>
  </clipPath>
 </defs>
</svg>
