<?xml version="1.0" encoding="utf-8" standalone="no"?>
<!DOCTYPE svg PUBLIC "-//W3C//DTD SVG 1.1//EN"
  "http://www.w3.org/Graphics/SVG/1.1/DTD/svg11.dtd">
<!-- Created with matplotlib (https://matplotlib.org/) -->
<svg height="216pt" version="1.1" viewBox="0 0 720 216" width="720pt" xmlns="http://www.w3.org/2000/svg" xmlns:xlink="http://www.w3.org/1999/xlink">
 <defs>
  <style type="text/css">
*{stroke-linecap:butt;stroke-linejoin:round;}
  </style>
 </defs>
 <g id="figure_1">
  <g id="patch_1">
   <path d="M 0 216 
L 720 216 
L 720 0 
L 0 0 
z
" style="fill:#ffffff;"/>
  </g>
  <g id="axes_1">
   <g id="patch_2">
    <path d="M 90 189 
L 254.117647 189 
L 254.117647 25.92 
L 90 25.92 
z
" style="fill:#ffffff;"/>
   </g>
   <g id="matplotlib.axis_1">
    <g id="xtick_1">
     <g id="line2d_1">
      <path clip-path="url(#p89552510e3)" d="M 97.485416 189 
L 97.485416 25.92 
" style="fill:none;stroke:#b0b0b0;stroke-linecap:square;stroke-width:0.8;"/>
     </g>
     <g id="line2d_2">
      <defs>
       <path d="M 0 0 
L 0 3.5 
" id="m3de7fa07eb" style="stroke:#000000;stroke-width:0.8;"/>
      </defs>
      <g>
       <use style="stroke:#000000;stroke-width:0.8;" x="97.485416" xlink:href="#m3de7fa07eb" y="189"/>
      </g>
     </g>
     <g id="text_1">
      <!-- 0.0 -->
      <defs>
       <path d="M 31.78125 66.40625 
Q 24.171875 66.40625 20.328125 58.90625 
Q 16.5 51.421875 16.5 36.375 
Q 16.5 21.390625 20.328125 13.890625 
Q 24.171875 6.390625 31.78125 6.390625 
Q 39.453125 6.390625 43.28125 13.890625 
Q 47.125 21.390625 47.125 36.375 
Q 47.125 51.421875 43.28125 58.90625 
Q 39.453125 66.40625 31.78125 66.40625 
z
M 31.78125 74.21875 
Q 44.046875 74.21875 50.515625 64.515625 
Q 56.984375 54.828125 56.984375 36.375 
Q 56.984375 17.96875 50.515625 8.265625 
Q 44.046875 -1.421875 31.78125 -1.421875 
Q 19.53125 -1.421875 13.0625 8.265625 
Q 6.59375 17.96875 6.59375 36.375 
Q 6.59375 54.828125 13.0625 64.515625 
Q 19.53125 74.21875 31.78125 74.21875 
z
" id="DejaVuSans-48"/>
       <path d="M 10.6875 12.40625 
L 21 12.40625 
L 21 0 
L 10.6875 0 
z
" id="DejaVuSans-46"/>
      </defs>
      <g transform="translate(89.533854 203.598437)scale(0.1 -0.1)">
       <use xlink:href="#DejaVuSans-48"/>
       <use x="63.623047" xlink:href="#DejaVuSans-46"/>
       <use x="95.410156" xlink:href="#DejaVuSans-48"/>
      </g>
     </g>
    </g>
    <g id="xtick_2">
     <g id="line2d_3">
      <path clip-path="url(#p89552510e3)" d="M 135.127417 189 
L 135.127417 25.92 
" style="fill:none;stroke:#b0b0b0;stroke-linecap:square;stroke-width:0.8;"/>
     </g>
     <g id="line2d_4">
      <g>
       <use style="stroke:#000000;stroke-width:0.8;" x="135.127417" xlink:href="#m3de7fa07eb" y="189"/>
      </g>
     </g>
     <g id="text_2">
      <!-- 2.5 -->
      <defs>
       <path d="M 19.1875 8.296875 
L 53.609375 8.296875 
L 53.609375 0 
L 7.328125 0 
L 7.328125 8.296875 
Q 12.9375 14.109375 22.625 23.890625 
Q 32.328125 33.6875 34.8125 36.53125 
Q 39.546875 41.84375 41.421875 45.53125 
Q 43.3125 49.21875 43.3125 52.78125 
Q 43.3125 58.59375 39.234375 62.25 
Q 35.15625 65.921875 28.609375 65.921875 
Q 23.96875 65.921875 18.8125 64.3125 
Q 13.671875 62.703125 7.8125 59.421875 
L 7.8125 69.390625 
Q 13.765625 71.78125 18.9375 73 
Q 24.125 74.21875 28.421875 74.21875 
Q 39.75 74.21875 46.484375 68.546875 
Q 53.21875 62.890625 53.21875 53.421875 
Q 53.21875 48.921875 51.53125 44.890625 
Q 49.859375 40.875 45.40625 35.40625 
Q 44.1875 33.984375 37.640625 27.21875 
Q 31.109375 20.453125 19.1875 8.296875 
z
" id="DejaVuSans-50"/>
       <path d="M 10.796875 72.90625 
L 49.515625 72.90625 
L 49.515625 64.59375 
L 19.828125 64.59375 
L 19.828125 46.734375 
Q 21.96875 47.46875 24.109375 47.828125 
Q 26.265625 48.1875 28.421875 48.1875 
Q 40.625 48.1875 47.75 41.5 
Q 54.890625 34.8125 54.890625 23.390625 
Q 54.890625 11.625 47.5625 5.09375 
Q 40.234375 -1.421875 26.90625 -1.421875 
Q 22.3125 -1.421875 17.546875 -0.640625 
Q 12.796875 0.140625 7.71875 1.703125 
L 7.71875 11.625 
Q 12.109375 9.234375 16.796875 8.0625 
Q 21.484375 6.890625 26.703125 6.890625 
Q 35.15625 6.890625 40.078125 11.328125 
Q 45.015625 15.765625 45.015625 23.390625 
Q 45.015625 31 40.078125 35.4375 
Q 35.15625 39.890625 26.703125 39.890625 
Q 22.75 39.890625 18.8125 39.015625 
Q 14.890625 38.140625 10.796875 36.28125 
z
" id="DejaVuSans-53"/>
      </defs>
      <g transform="translate(127.175855 203.598437)scale(0.1 -0.1)">
       <use xlink:href="#DejaVuSans-50"/>
       <use x="63.623047" xlink:href="#DejaVuSans-46"/>
       <use x="95.410156" xlink:href="#DejaVuSans-53"/>
      </g>
     </g>
    </g>
    <g id="xtick_3">
     <g id="line2d_5">
      <path clip-path="url(#p89552510e3)" d="M 172.769418 189 
L 172.769418 25.92 
" style="fill:none;stroke:#b0b0b0;stroke-linecap:square;stroke-width:0.8;"/>
     </g>
     <g id="line2d_6">
      <g>
       <use style="stroke:#000000;stroke-width:0.8;" x="172.769418" xlink:href="#m3de7fa07eb" y="189"/>
      </g>
     </g>
     <g id="text_3">
      <!-- 5.0 -->
      <g transform="translate(164.817855 203.598437)scale(0.1 -0.1)">
       <use xlink:href="#DejaVuSans-53"/>
       <use x="63.623047" xlink:href="#DejaVuSans-46"/>
       <use x="95.410156" xlink:href="#DejaVuSans-48"/>
      </g>
     </g>
    </g>
    <g id="xtick_4">
     <g id="line2d_7">
      <path clip-path="url(#p89552510e3)" d="M 210.411419 189 
L 210.411419 25.92 
" style="fill:none;stroke:#b0b0b0;stroke-linecap:square;stroke-width:0.8;"/>
     </g>
     <g id="line2d_8">
      <g>
       <use style="stroke:#000000;stroke-width:0.8;" x="210.411419" xlink:href="#m3de7fa07eb" y="189"/>
      </g>
     </g>
     <g id="text_4">
      <!-- 7.5 -->
      <defs>
       <path d="M 8.203125 72.90625 
L 55.078125 72.90625 
L 55.078125 68.703125 
L 28.609375 0 
L 18.3125 0 
L 43.21875 64.59375 
L 8.203125 64.59375 
z
" id="DejaVuSans-55"/>
      </defs>
      <g transform="translate(202.459856 203.598437)scale(0.1 -0.1)">
       <use xlink:href="#DejaVuSans-55"/>
       <use x="63.623047" xlink:href="#DejaVuSans-46"/>
       <use x="95.410156" xlink:href="#DejaVuSans-53"/>
      </g>
     </g>
    </g>
    <g id="xtick_5">
     <g id="line2d_9">
      <path clip-path="url(#p89552510e3)" d="M 248.053419 189 
L 248.053419 25.92 
" style="fill:none;stroke:#b0b0b0;stroke-linecap:square;stroke-width:0.8;"/>
     </g>
     <g id="line2d_10">
      <g>
       <use style="stroke:#000000;stroke-width:0.8;" x="248.053419" xlink:href="#m3de7fa07eb" y="189"/>
      </g>
     </g>
     <g id="text_5">
      <!-- 10.0 -->
      <defs>
       <path d="M 12.40625 8.296875 
L 28.515625 8.296875 
L 28.515625 63.921875 
L 10.984375 60.40625 
L 10.984375 69.390625 
L 28.421875 72.90625 
L 38.28125 72.90625 
L 38.28125 8.296875 
L 54.390625 8.296875 
L 54.390625 0 
L 12.40625 0 
z
" id="DejaVuSans-49"/>
      </defs>
      <g transform="translate(236.920607 203.598437)scale(0.1 -0.1)">
       <use xlink:href="#DejaVuSans-49"/>
       <use x="63.623047" xlink:href="#DejaVuSans-48"/>
       <use x="127.246094" xlink:href="#DejaVuSans-46"/>
       <use x="159.033203" xlink:href="#DejaVuSans-48"/>
      </g>
     </g>
    </g>
   </g>
   <g id="matplotlib.axis_2">
    <g id="ytick_1">
     <g id="line2d_11">
      <path clip-path="url(#p89552510e3)" d="M 90 177.691548 
L 254.117647 177.691548 
" style="fill:none;stroke:#b0b0b0;stroke-linecap:square;stroke-width:0.8;"/>
     </g>
     <g id="line2d_12">
      <defs>
       <path d="M 0 0 
L -3.5 0 
" id="mcd91d9656c" style="stroke:#000000;stroke-width:0.8;"/>
      </defs>
      <g>
       <use style="stroke:#000000;stroke-width:0.8;" x="90" xlink:href="#mcd91d9656c" y="177.691548"/>
      </g>
     </g>
     <g id="text_6">
      <!-- −10 -->
      <defs>
       <path d="M 10.59375 35.5 
L 73.1875 35.5 
L 73.1875 27.203125 
L 10.59375 27.203125 
z
" id="DejaVuSans-8722"/>
      </defs>
      <g transform="translate(61.895313 181.490767)scale(0.1 -0.1)">
       <use xlink:href="#DejaVuSans-8722"/>
       <use x="83.789062" xlink:href="#DejaVuSans-49"/>
       <use x="147.412109" xlink:href="#DejaVuSans-48"/>
      </g>
     </g>
    </g>
    <g id="ytick_2">
     <g id="line2d_13">
      <path clip-path="url(#p89552510e3)" d="M 90 148.819785 
L 254.117647 148.819785 
" style="fill:none;stroke:#b0b0b0;stroke-linecap:square;stroke-width:0.8;"/>
     </g>
     <g id="line2d_14">
      <g>
       <use style="stroke:#000000;stroke-width:0.8;" x="90" xlink:href="#mcd91d9656c" y="148.819785"/>
      </g>
     </g>
     <g id="text_7">
      <!-- −8 -->
      <defs>
       <path d="M 31.78125 34.625 
Q 24.75 34.625 20.71875 30.859375 
Q 16.703125 27.09375 16.703125 20.515625 
Q 16.703125 13.921875 20.71875 10.15625 
Q 24.75 6.390625 31.78125 6.390625 
Q 38.8125 6.390625 42.859375 10.171875 
Q 46.921875 13.96875 46.921875 20.515625 
Q 46.921875 27.09375 42.890625 30.859375 
Q 38.875 34.625 31.78125 34.625 
z
M 21.921875 38.8125 
Q 15.578125 40.375 12.03125 44.71875 
Q 8.5 49.078125 8.5 55.328125 
Q 8.5 64.0625 14.71875 69.140625 
Q 20.953125 74.21875 31.78125 74.21875 
Q 42.671875 74.21875 48.875 69.140625 
Q 55.078125 64.0625 55.078125 55.328125 
Q 55.078125 49.078125 51.53125 44.71875 
Q 48 40.375 41.703125 38.8125 
Q 48.828125 37.15625 52.796875 32.3125 
Q 56.78125 27.484375 56.78125 20.515625 
Q 56.78125 9.90625 50.3125 4.234375 
Q 43.84375 -1.421875 31.78125 -1.421875 
Q 19.734375 -1.421875 13.25 4.234375 
Q 6.78125 9.90625 6.78125 20.515625 
Q 6.78125 27.484375 10.78125 32.3125 
Q 14.796875 37.15625 21.921875 38.8125 
z
M 18.3125 54.390625 
Q 18.3125 48.734375 21.84375 45.5625 
Q 25.390625 42.390625 31.78125 42.390625 
Q 38.140625 42.390625 41.71875 45.5625 
Q 45.3125 48.734375 45.3125 54.390625 
Q 45.3125 60.0625 41.71875 63.234375 
Q 38.140625 66.40625 31.78125 66.40625 
Q 25.390625 66.40625 21.84375 63.234375 
Q 18.3125 60.0625 18.3125 54.390625 
z
" id="DejaVuSans-56"/>
      </defs>
      <g transform="translate(68.257812 152.619004)scale(0.1 -0.1)">
       <use xlink:href="#DejaVuSans-8722"/>
       <use x="83.789062" xlink:href="#DejaVuSans-56"/>
      </g>
     </g>
    </g>
    <g id="ytick_3">
     <g id="line2d_15">
      <path clip-path="url(#p89552510e3)" d="M 90 119.948022 
L 254.117647 119.948022 
" style="fill:none;stroke:#b0b0b0;stroke-linecap:square;stroke-width:0.8;"/>
     </g>
     <g id="line2d_16">
      <g>
       <use style="stroke:#000000;stroke-width:0.8;" x="90" xlink:href="#mcd91d9656c" y="119.948022"/>
      </g>
     </g>
     <g id="text_8">
      <!-- −6 -->
      <defs>
       <path d="M 33.015625 40.375 
Q 26.375 40.375 22.484375 35.828125 
Q 18.609375 31.296875 18.609375 23.390625 
Q 18.609375 15.53125 22.484375 10.953125 
Q 26.375 6.390625 33.015625 6.390625 
Q 39.65625 6.390625 43.53125 10.953125 
Q 47.40625 15.53125 47.40625 23.390625 
Q 47.40625 31.296875 43.53125 35.828125 
Q 39.65625 40.375 33.015625 40.375 
z
M 52.59375 71.296875 
L 52.59375 62.3125 
Q 48.875 64.0625 45.09375 64.984375 
Q 41.3125 65.921875 37.59375 65.921875 
Q 27.828125 65.921875 22.671875 59.328125 
Q 17.53125 52.734375 16.796875 39.40625 
Q 19.671875 43.65625 24.015625 45.921875 
Q 28.375 48.1875 33.59375 48.1875 
Q 44.578125 48.1875 50.953125 41.515625 
Q 57.328125 34.859375 57.328125 23.390625 
Q 57.328125 12.15625 50.6875 5.359375 
Q 44.046875 -1.421875 33.015625 -1.421875 
Q 20.359375 -1.421875 13.671875 8.265625 
Q 6.984375 17.96875 6.984375 36.375 
Q 6.984375 53.65625 15.1875 63.9375 
Q 23.390625 74.21875 37.203125 74.21875 
Q 40.921875 74.21875 44.703125 73.484375 
Q 48.484375 72.75 52.59375 71.296875 
z
" id="DejaVuSans-54"/>
      </defs>
      <g transform="translate(68.257812 123.747241)scale(0.1 -0.1)">
       <use xlink:href="#DejaVuSans-8722"/>
       <use x="83.789062" xlink:href="#DejaVuSans-54"/>
      </g>
     </g>
    </g>
    <g id="ytick_4">
     <g id="line2d_17">
      <path clip-path="url(#p89552510e3)" d="M 90 91.07626 
L 254.117647 91.07626 
" style="fill:none;stroke:#b0b0b0;stroke-linecap:square;stroke-width:0.8;"/>
     </g>
     <g id="line2d_18">
      <g>
       <use style="stroke:#000000;stroke-width:0.8;" x="90" xlink:href="#mcd91d9656c" y="91.07626"/>
      </g>
     </g>
     <g id="text_9">
      <!-- −4 -->
      <defs>
       <path d="M 37.796875 64.3125 
L 12.890625 25.390625 
L 37.796875 25.390625 
z
M 35.203125 72.90625 
L 47.609375 72.90625 
L 47.609375 25.390625 
L 58.015625 25.390625 
L 58.015625 17.1875 
L 47.609375 17.1875 
L 47.609375 0 
L 37.796875 0 
L 37.796875 17.1875 
L 4.890625 17.1875 
L 4.890625 26.703125 
z
" id="DejaVuSans-52"/>
      </defs>
      <g transform="translate(68.257812 94.875478)scale(0.1 -0.1)">
       <use xlink:href="#DejaVuSans-8722"/>
       <use x="83.789062" xlink:href="#DejaVuSans-52"/>
      </g>
     </g>
    </g>
    <g id="ytick_5">
     <g id="line2d_19">
      <path clip-path="url(#p89552510e3)" d="M 90 62.204497 
L 254.117647 62.204497 
" style="fill:none;stroke:#b0b0b0;stroke-linecap:square;stroke-width:0.8;"/>
     </g>
     <g id="line2d_20">
      <g>
       <use style="stroke:#000000;stroke-width:0.8;" x="90" xlink:href="#mcd91d9656c" y="62.204497"/>
      </g>
     </g>
     <g id="text_10">
      <!-- −2 -->
      <g transform="translate(68.257812 66.003716)scale(0.1 -0.1)">
       <use xlink:href="#DejaVuSans-8722"/>
       <use x="83.789062" xlink:href="#DejaVuSans-50"/>
      </g>
     </g>
    </g>
    <g id="ytick_6">
     <g id="line2d_21">
      <path clip-path="url(#p89552510e3)" d="M 90 33.332734 
L 254.117647 33.332734 
" style="fill:none;stroke:#b0b0b0;stroke-linecap:square;stroke-width:0.8;"/>
     </g>
     <g id="line2d_22">
      <g>
       <use style="stroke:#000000;stroke-width:0.8;" x="90" xlink:href="#mcd91d9656c" y="33.332734"/>
      </g>
     </g>
     <g id="text_11">
      <!-- 0 -->
      <g transform="translate(76.6375 37.131953)scale(0.1 -0.1)">
       <use xlink:href="#DejaVuSans-48"/>
      </g>
     </g>
    </g>
   </g>
   <g id="line2d_23">
    <path clip-path="url(#p89552510e3)" d="M 97.486118 33.333066 
L 97.487263 33.332947 
L 97.568923 33.430351 
L 98.580932 34.216579 
L 99.269556 34.633988 
L 99.794297 34.892834 
L 101.561572 36.532209 
L 103.047542 38.052167 
L 107.187432 42.76017 
L 107.666631 43.802622 
L 108.710064 46.774168 
L 109.557409 49.513026 
L 110.094021 51.16495 
L 110.601874 53.25138 
L 111.211723 56.012985 
L 111.959716 58.71645 
L 112.317739 60.548432 
L 117.189944 89.240106 
L 118.580186 95.842328 
L 119.383265 99.504502 
L 119.985547 102.177467 
L 121.537134 108.112657 
L 124.831045 117.663257 
L 125.946266 119.974699 
L 128.335374 125.089457 
L 129.389472 126.944568 
L 131.916505 131.467885 
L 138.162058 141.091486 
L 142.366151 146.253784 
L 142.832619 146.816676 
L 146.781983 150.812682 
L 149.303702 153.30414 
L 156.714994 160.065261 
L 158.331587 161.119432 
L 159.467047 161.956035 
L 163.765931 164.982901 
L 165.600016 166.105211 
L 170.041727 168.792962 
L 171.433093 169.511238 
L 174.170449 170.740909 
L 179.15193 173.124904 
L 180.837959 173.833588 
L 191.372256 177.433527 
L 194.697338 178.376228 
L 197.421264 179.073711 
L 199.574204 179.40368 
L 202.467496 179.90432 
L 205.029887 180.347265 
L 208.524691 180.797352 
L 213.461632 181.14566 
L 215.532428 181.406341 
L 217.617202 181.56962 
L 219.164806 181.510526 
L 223.611269 181.425481 
L 225.503385 181.282664 
L 227.65065 180.933984 
L 230.867551 180.529764 
L 236.802115 179.586872 
L 239.944277 178.878473 
L 244.404005 177.950039 
L 244.402113 177.950447 
" style="fill:none;stroke:#808080;stroke-linecap:square;stroke-width:1.5;"/>
   </g>
   <g id="line2d_24">
    <path clip-path="url(#p89552510e3)" d="M 97.485416 33.332734 
L 97.485411 33.332734 
L 99.482428 33.408554 
L 101.193693 33.809681 
L 104.05387 34.710345 
L 105.361014 35.425185 
L 106.801039 36.478308 
L 108.049965 37.72557 
L 109.114152 39.127342 
L 109.993427 40.64678 
L 110.799281 42.515855 
L 112.848277 47.948681 
L 114.384877 52.946261 
L 115.520277 57.4362 
L 116.297736 61.410815 
L 117.947136 71.101566 
L 120.515693 86.213263 
L 122.499116 95.831238 
L 124.623785 104.843809 
L 126.221893 110.727633 
L 127.894801 115.650875 
L 129.305772 119.16864 
L 132.110316 125.238565 
L 135.158591 130.861431 
L 137.515679 134.894274 
L 141.134218 140.558254 
L 143.293479 143.352771 
L 146.661724 147.404401 
L 151.317584 152.320418 
L 154.687689 155.627303 
L 159.502249 159.995705 
L 162.107528 161.955433 
L 166.736487 165.176699 
L 173.324328 169.245322 
L 176.208475 170.804282 
L 180.536201 172.829432 
L 184.139646 174.288711 
L 190.939629 176.638616 
L 198.721755 178.965993 
L 201.631152 179.6485 
L 206.076114 180.406169 
L 210.546578 180.941169 
L 217.769001 181.435266 
L 221.668155 181.435079 
L 228.292602 181.176745 
L 232.46939 180.653075 
L 237.251168 179.837256 
L 243.780866 178.350373 
L 245.496988 177.893768 
L 245.469296 177.901769 
" style="fill:none;stroke:#0b64d4;stroke-linecap:square;stroke-width:1.5;"/>
   </g>
   <g id="line2d_25">
    <path clip-path="url(#p89552510e3)" d="M 97.485416 33.332734 
L 97.596599 33.448933 
L 99.2059 34.403646 
L 100.561454 34.808973 
L 104.738001 37.301204 
L 105.387308 37.551744 
L 106.139892 37.83162 
L 108.523002 39.569745 
L 109.451323 40.443359 
L 113.391843 44.743833 
L 114.331152 45.828676 
L 116.023589 48.214881 
L 120.051711 54.293933 
L 126.381585 65.294036 
L 128.108711 68.60454 
L 135.924808 83.928839 
L 147.167882 105.95014 
L 151.004452 113.076461 
L 156.0925 121.775484 
L 161.091981 129.150132 
L 164.488759 133.698771 
L 165.854929 135.398417 
L 172.304351 143.251982 
L 175.436443 146.82828 
L 180.258358 152.054854 
L 183.344722 154.889622 
L 188.582146 159.427787 
L 193.021321 162.890498 
L 194.864284 164.444062 
L 196.753953 165.730087 
L 202.489202 169.413998 
L 206.242701 171.365402 
L 210.365271 173.519992 
L 221.45576 177.945367 
L 226.648019 179.52858 
L 227.51942 179.773491 
L 230.914097 180.468184 
L 232.638196 180.881937 
L 234.70973 181.147885 
L 238.482851 181.518154 
L 239.632523 181.392327 
L 240.714198 181.404621 
L 241.049563 181.412926 
L 241.359802 181.396958 
L 241.80187 181.189446 
L 242.082767 180.900514 
L 241.873142 180.986609 
L 242.158162 180.647636 
L 242.178775 180.662915 
L 242.323616 180.654762 
L 242.644699 180.534888 
L 243.514744 181.066621 
L 243.745899 181.024945 
L 243.740743 181.029935 
" style="fill:none;stroke:#808080;stroke-linecap:square;stroke-width:1.5;"/>
   </g>
   <g id="line2d_26">
    <path clip-path="url(#p89552510e3)" d="M 97.485416 33.332734 
L 99.790878 33.409782 
L 102.109287 33.879417 
L 104.731208 34.532656 
L 106.404044 35.190289 
L 107.984628 36.033579 
L 109.466376 37.035743 
L 113.649405 40.355349 
L 115.574108 42.181965 
L 117.132266 43.945724 
L 118.702949 46.062975 
L 122.514501 51.611074 
L 126.95834 58.826642 
L 130.72123 65.414576 
L 134.937786 73.404692 
L 143.864421 91.091986 
L 152.890369 108.701654 
L 157.755076 117.669652 
L 160.280358 121.940946 
L 163.431604 126.851286 
L 166.299201 130.916169 
L 169.6504 135.359788 
L 175.366576 142.438209 
L 180.714647 148.691097 
L 185.317384 153.656424 
L 188.980256 157.082718 
L 192.315567 159.978455 
L 197.914449 164.356454 
L 202.537917 167.586724 
L 206.278062 170.019189 
L 209.92688 172.038296 
L 214.21487 174.1382 
L 220.283021 176.684064 
L 223.406796 177.783743 
L 229.142793 179.50544 
L 232.064482 180.210353 
L 235.892497 180.863198 
L 240.504191 181.37092 
L 242.045701 181.262967 
L 243.545888 180.924692 
L 245.993896 180.063757 
L 246.604885 179.714255 
L 246.604885 179.714255 
" style="fill:none;stroke:#a80dfa;stroke-linecap:square;stroke-width:1.5;"/>
   </g>
   <g id="line2d_27">
    <path clip-path="url(#p89552510e3)" d="M 97.485416 33.332734 
L 97.595294 33.370184 
L 98.520391 33.797989 
L 99.645146 34.199347 
L 103.089145 35.035095 
L 104.180945 35.244719 
L 104.956184 35.449666 
L 107.572293 36.349467 
L 109.767252 37.401807 
L 115.343741 39.691835 
L 117.779114 41.197871 
L 120.383259 42.8445 
L 122.337651 44.096573 
L 123.562994 45.041257 
L 125.782771 46.717009 
L 127.739249 48.03133 
L 129.428085 49.308669 
L 133.792759 53.014512 
L 135.024491 54.132604 
L 142.702912 61.34938 
L 154.085167 72.666765 
L 169.882546 89.122634 
L 181.891735 102.493192 
L 190.777018 112.837251 
L 204.5854 129.256942 
L 224.293526 153.20324 
L 237.881456 170.106009 
L 241.200198 174.291207 
L 241.224873 174.322829 
L 241.221032 174.316979 
" style="fill:none;stroke:#808080;stroke-linecap:square;stroke-width:1.5;"/>
   </g>
   <g id="line2d_28">
    <path clip-path="url(#p89552510e3)" d="M 97.485416 33.332734 
L 100.353203 33.430009 
L 103.885989 34.023425 
L 106.526438 34.638948 
L 111.714557 36.175098 
L 115.616754 37.71102 
L 117.767551 38.75388 
L 122.692376 41.580125 
L 127.189523 44.481434 
L 130.343552 46.700801 
L 133.414386 49.05208 
L 138.792324 53.661795 
L 144.853721 59.286573 
L 154.982838 69.179842 
L 165.54617 79.877876 
L 174.912209 89.676339 
L 181.862771 97.275638 
L 189.052762 105.446062 
L 199.361739 117.515221 
L 214.064543 135.08704 
L 229.900458 154.375884 
L 242.67567 170.265956 
L 246.657754 175.390715 
L 246.657754 175.390715 
" style="fill:none;stroke:#fa4a0d;stroke-linecap:square;stroke-width:1.5;"/>
   </g>
   <g id="line2d_29">
    <path clip-path="url(#p89552510e3)" d="M 98.892061 34.318163 
L 99.722742 34.529338 
L 100.557874 34.836501 
L 105.678838 37.684175 
L 106.195153 37.92857 
L 107.933225 39.147664 
L 109.414905 40.461487 
L 113.040505 44.450107 
L 114.229763 45.741295 
L 115.253948 47.170434 
L 118.755016 52.206045 
L 121.445183 56.596975 
L 124.597392 61.95183 
L 132.992506 77.680863 
L 147.350619 105.507685 
L 151.323538 112.812236 
L 156.459388 121.579869 
L 160.974637 128.251249 
L 163.520285 131.746218 
L 164.584778 133.13119 
L 166.414292 135.33203 
L 174.852346 145.357793 
L 182.14207 153.053815 
L 188.75954 158.792372 
L 190.637997 160.196131 
L 194.066821 162.866847 
L 195.641819 164.113538 
L 197.774225 165.5348 
L 202.268658 168.435217 
L 204.126167 169.396743 
L 207.272604 171.136258 
L 210.778426 172.983639 
L 214.782337 174.61276 
L 217.355658 175.686138 
L 219.566241 176.745208 
L 221.401755 177.359598 
L 223.926431 178.107991 
L 227.698728 179.16136 
L 230.842896 179.494355 
L 232.013425 179.644799 
L 234.156942 179.925561 
L 237.478069 180.271721 
L 239.473763 180.874623 
L 240.648428 181.044696 
L 241.116092 180.945531 
L 242.626944 180.353071 
L 242.866795 180.284823 
L 242.961369 180.307417 
L 242.716906 180.187143 
L 242.725512 180.148012 
L 242.832434 179.417246 
L 242.832434 179.417246 
" style="fill:none;stroke:#808080;stroke-linecap:square;stroke-width:1.5;"/>
   </g>
   <g id="line2d_30">
    <path clip-path="url(#p89552510e3)" d="M 97.485416 33.332734 
L 99.51948 33.410004 
L 101.576931 33.82653 
L 104.486434 34.563306 
L 106.151017 35.233527 
L 107.983431 36.24611 
L 109.440124 37.280284 
L 113.806907 40.830292 
L 115.687691 42.701159 
L 117.382155 44.73371 
L 120.456383 49.01281 
L 123.030346 52.921344 
L 126.708547 58.893115 
L 130.348187 65.215197 
L 134.457888 72.932491 
L 143.821075 91.365463 
L 152.623086 108.453926 
L 157.779152 117.925942 
L 160.304237 122.193539 
L 163.45377 127.111631 
L 166.323131 131.176213 
L 169.319639 135.150619 
L 175.232727 142.447262 
L 180.593044 148.691117 
L 185.21117 153.644614 
L 188.890109 157.055241 
L 192.012219 159.7508 
L 197.403462 163.915715 
L 201.545333 166.799612 
L 206.279609 169.885752 
L 210.442161 172.206521 
L 214.460002 174.175164 
L 220.517162 176.742014 
L 224.195669 178.028567 
L 230.236571 179.844805 
L 232.611198 180.298211 
L 236.115291 180.710921 
L 240.269568 180.978716 
L 241.97065 180.832553 
L 243.782823 180.437073 
L 246.060189 179.676471 
L 246.384721 179.500718 
L 246.374466 179.510719 
" style="fill:none;stroke:#faa30d;stroke-linecap:square;stroke-width:1.5;"/>
   </g>
   <g id="line2d_31">
    <path clip-path="url(#p89552510e3)" d="M 98.554135 34.194457 
L 99.255896 34.632136 
L 99.808596 34.896611 
L 101.752296 36.674051 
L 103.35411 38.288829 
L 107.051346 42.409122 
L 107.43126 43.193693 
L 108.725963 46.863407 
L 109.503321 49.312907 
L 110.006854 50.835226 
L 110.635251 53.256816 
L 111.346877 56.352508 
L 112.631555 61.758741 
L 114.365224 71.747491 
L 116.721789 85.303519 
L 117.272441 88.043291 
L 120.973473 104.365185 
L 122.306464 109.241394 
L 123.237789 111.777291 
L 126.332351 119.540388 
L 129.911144 127.462593 
L 131.66018 130.656698 
L 133.057076 133.041262 
L 134.292645 134.796794 
L 137.301543 139.201129 
L 138.914056 141.416247 
L 141.547048 144.476285 
L 146.002673 149.648877 
L 147.687118 151.438148 
L 149.974994 153.74283 
L 151.684325 155.147684 
L 154.013236 157.156931 
L 156.468885 159.289143 
L 161.152494 162.598921 
L 163.55422 164.345346 
L 165.162888 165.546478 
L 166.871601 166.556355 
L 169.541121 168.066518 
L 172.91133 169.8717 
L 175.654382 170.993562 
L 179.703379 172.83059 
L 180.8949 173.341342 
L 187.1811 175.433494 
L 188.981373 176.166449 
L 191.180427 176.913651 
L 193.289994 177.389532 
L 199.213143 178.728233 
L 203.452477 179.353714 
L 206.762689 179.891825 
L 218.812733 180.693624 
L 225.739175 180.47478 
L 228.276101 180.234054 
L 231.789168 180.025003 
L 235.92138 179.647406 
L 244.853384 177.993194 
L 245.825209 177.455591 
L 245.82369 177.455849 
" style="fill:none;stroke:#808080;stroke-linecap:square;stroke-width:1.5;"/>
   </g>
   <g id="line2d_32">
    <path clip-path="url(#p89552510e3)" d="M 97.485416 33.332734 
L 99.869567 33.430832 
L 101.872203 33.927537 
L 104.157881 34.652944 
L 105.481067 35.342004 
L 106.931159 36.373752 
L 107.994721 37.395348 
L 109.090352 38.770909 
L 110.001626 40.287112 
L 110.815034 42.134062 
L 113.093317 48.409553 
L 114.679505 53.704603 
L 115.832753 58.474277 
L 116.7327 63.306554 
L 118.102219 71.577959 
L 120.593285 86.397063 
L 122.697101 96.888658 
L 124.762753 105.914243 
L 126.03667 110.670835 
L 127.646142 115.327228 
L 129.238807 119.370154 
L 132.21634 125.994695 
L 135.036701 131.436417 
L 136.759974 134.471338 
L 139.164878 138.133842 
L 141.74983 141.681198 
L 145.642042 146.459118 
L 149.53416 150.863676 
L 153.399973 154.910691 
L 156.265853 157.463611 
L 159.705473 160.261237 
L 163.549171 163.04831 
L 167.743708 165.858323 
L 172.366279 168.569834 
L 175.778467 170.418505 
L 179.85269 172.283107 
L 184.305076 174.077493 
L 191.085296 176.427726 
L 195.142152 177.526377 
L 201.582511 179.031329 
L 206.328348 179.811454 
L 210.806876 180.322803 
L 217.712693 180.775359 
L 223.13405 180.833129 
L 229.157914 180.695304 
L 235.158779 180.244615 
L 238.667051 179.756094 
L 243.627773 178.821448 
L 245.643263 178.32106 
L 245.689933 178.304827 
L 245.658082 178.317195 
" style="fill:none;stroke:#0dfa2c;stroke-linecap:square;stroke-width:1.5;"/>
   </g>
   <g id="patch_3">
    <path d="M 90 189 
L 90 25.92 
" style="fill:none;stroke:#000000;stroke-linecap:square;stroke-linejoin:miter;stroke-width:0.8;"/>
   </g>
   <g id="patch_4">
    <path d="M 254.117647 189 
L 254.117647 25.92 
" style="fill:none;stroke:#000000;stroke-linecap:square;stroke-linejoin:miter;stroke-width:0.8;"/>
   </g>
   <g id="patch_5">
    <path d="M 90 189 
L 254.117647 189 
" style="fill:none;stroke:#000000;stroke-linecap:square;stroke-linejoin:miter;stroke-width:0.8;"/>
   </g>
   <g id="patch_6">
    <path d="M 90 25.92 
L 254.117647 25.92 
" style="fill:none;stroke:#000000;stroke-linecap:square;stroke-linejoin:miter;stroke-width:0.8;"/>
   </g>
  </g>
  <g id="axes_2">
   <g id="patch_7">
    <path d="M 286.941176 189 
L 451.058824 189 
L 451.058824 25.92 
L 286.941176 25.92 
z
" style="fill:#ffffff;"/>
   </g>
   <g id="matplotlib.axis_3">
    <g id="xtick_6">
     <g id="line2d_33">
      <path clip-path="url(#p7e44ba70e1)" d="M 294.401074 189 
L 294.401074 25.92 
" style="fill:none;stroke:#b0b0b0;stroke-linecap:square;stroke-width:0.8;"/>
     </g>
     <g id="line2d_34">
      <g>
       <use style="stroke:#000000;stroke-width:0.8;" x="294.401074" xlink:href="#m3de7fa07eb" y="189"/>
      </g>
     </g>
     <g id="text_12">
      <!-- 0 -->
      <g transform="translate(291.219824 203.598437)scale(0.1 -0.1)">
       <use xlink:href="#DejaVuSans-48"/>
      </g>
     </g>
    </g>
    <g id="xtick_7">
     <g id="line2d_35">
      <path clip-path="url(#p7e44ba70e1)" d="M 339.874607 189 
L 339.874607 25.92 
" style="fill:none;stroke:#b0b0b0;stroke-linecap:square;stroke-width:0.8;"/>
     </g>
     <g id="line2d_36">
      <g>
       <use style="stroke:#000000;stroke-width:0.8;" x="339.874607" xlink:href="#m3de7fa07eb" y="189"/>
      </g>
     </g>
     <g id="text_13">
      <!-- 5 -->
      <g transform="translate(336.693357 203.598437)scale(0.1 -0.1)">
       <use xlink:href="#DejaVuSans-53"/>
      </g>
     </g>
    </g>
    <g id="xtick_8">
     <g id="line2d_37">
      <path clip-path="url(#p7e44ba70e1)" d="M 385.34814 189 
L 385.34814 25.92 
" style="fill:none;stroke:#b0b0b0;stroke-linecap:square;stroke-width:0.8;"/>
     </g>
     <g id="line2d_38">
      <g>
       <use style="stroke:#000000;stroke-width:0.8;" x="385.34814" xlink:href="#m3de7fa07eb" y="189"/>
      </g>
     </g>
     <g id="text_14">
      <!-- 10 -->
      <g transform="translate(378.98564 203.598437)scale(0.1 -0.1)">
       <use xlink:href="#DejaVuSans-49"/>
       <use x="63.623047" xlink:href="#DejaVuSans-48"/>
      </g>
     </g>
    </g>
    <g id="xtick_9">
     <g id="line2d_39">
      <path clip-path="url(#p7e44ba70e1)" d="M 430.821673 189 
L 430.821673 25.92 
" style="fill:none;stroke:#b0b0b0;stroke-linecap:square;stroke-width:0.8;"/>
     </g>
     <g id="line2d_40">
      <g>
       <use style="stroke:#000000;stroke-width:0.8;" x="430.821673" xlink:href="#m3de7fa07eb" y="189"/>
      </g>
     </g>
     <g id="text_15">
      <!-- 15 -->
      <g transform="translate(424.459173 203.598437)scale(0.1 -0.1)">
       <use xlink:href="#DejaVuSans-49"/>
       <use x="63.623047" xlink:href="#DejaVuSans-53"/>
      </g>
     </g>
    </g>
   </g>
   <g id="matplotlib.axis_4">
    <g id="ytick_7">
     <g id="line2d_41">
      <path clip-path="url(#p7e44ba70e1)" d="M 286.941176 181.560797 
L 451.058824 181.560797 
" style="fill:none;stroke:#b0b0b0;stroke-linecap:square;stroke-width:0.8;"/>
     </g>
     <g id="line2d_42">
      <g>
       <use style="stroke:#000000;stroke-width:0.8;" x="286.941176" xlink:href="#mcd91d9656c" y="181.560797"/>
      </g>
     </g>
     <g id="text_16">
      <!-- 0.0 -->
      <g transform="translate(264.038051 185.360016)scale(0.1 -0.1)">
       <use xlink:href="#DejaVuSans-48"/>
       <use x="63.623047" xlink:href="#DejaVuSans-46"/>
       <use x="95.410156" xlink:href="#DejaVuSans-48"/>
      </g>
     </g>
    </g>
    <g id="ytick_8">
     <g id="line2d_43">
      <path clip-path="url(#p7e44ba70e1)" d="M 286.941176 156.856119 
L 451.058824 156.856119 
" style="fill:none;stroke:#b0b0b0;stroke-linecap:square;stroke-width:0.8;"/>
     </g>
     <g id="line2d_44">
      <g>
       <use style="stroke:#000000;stroke-width:0.8;" x="286.941176" xlink:href="#mcd91d9656c" y="156.856119"/>
      </g>
     </g>
     <g id="text_17">
      <!-- 2.5 -->
      <g transform="translate(264.038051 160.655338)scale(0.1 -0.1)">
       <use xlink:href="#DejaVuSans-50"/>
       <use x="63.623047" xlink:href="#DejaVuSans-46"/>
       <use x="95.410156" xlink:href="#DejaVuSans-53"/>
      </g>
     </g>
    </g>
    <g id="ytick_9">
     <g id="line2d_45">
      <path clip-path="url(#p7e44ba70e1)" d="M 286.941176 132.151441 
L 451.058824 132.151441 
" style="fill:none;stroke:#b0b0b0;stroke-linecap:square;stroke-width:0.8;"/>
     </g>
     <g id="line2d_46">
      <g>
       <use style="stroke:#000000;stroke-width:0.8;" x="286.941176" xlink:href="#mcd91d9656c" y="132.151441"/>
      </g>
     </g>
     <g id="text_18">
      <!-- 5.0 -->
      <g transform="translate(264.038051 135.950659)scale(0.1 -0.1)">
       <use xlink:href="#DejaVuSans-53"/>
       <use x="63.623047" xlink:href="#DejaVuSans-46"/>
       <use x="95.410156" xlink:href="#DejaVuSans-48"/>
      </g>
     </g>
    </g>
    <g id="ytick_10">
     <g id="line2d_47">
      <path clip-path="url(#p7e44ba70e1)" d="M 286.941176 107.446762 
L 451.058824 107.446762 
" style="fill:none;stroke:#b0b0b0;stroke-linecap:square;stroke-width:0.8;"/>
     </g>
     <g id="line2d_48">
      <g>
       <use style="stroke:#000000;stroke-width:0.8;" x="286.941176" xlink:href="#mcd91d9656c" y="107.446762"/>
      </g>
     </g>
     <g id="text_19">
      <!-- 7.5 -->
      <g transform="translate(264.038051 111.245981)scale(0.1 -0.1)">
       <use xlink:href="#DejaVuSans-55"/>
       <use x="63.623047" xlink:href="#DejaVuSans-46"/>
       <use x="95.410156" xlink:href="#DejaVuSans-53"/>
      </g>
     </g>
    </g>
    <g id="ytick_11">
     <g id="line2d_49">
      <path clip-path="url(#p7e44ba70e1)" d="M 286.941176 82.742084 
L 451.058824 82.742084 
" style="fill:none;stroke:#b0b0b0;stroke-linecap:square;stroke-width:0.8;"/>
     </g>
     <g id="line2d_50">
      <g>
       <use style="stroke:#000000;stroke-width:0.8;" x="286.941176" xlink:href="#mcd91d9656c" y="82.742084"/>
      </g>
     </g>
     <g id="text_20">
      <!-- 10.0 -->
      <g transform="translate(257.675551 86.541303)scale(0.1 -0.1)">
       <use xlink:href="#DejaVuSans-49"/>
       <use x="63.623047" xlink:href="#DejaVuSans-48"/>
       <use x="127.246094" xlink:href="#DejaVuSans-46"/>
       <use x="159.033203" xlink:href="#DejaVuSans-48"/>
      </g>
     </g>
    </g>
    <g id="ytick_12">
     <g id="line2d_51">
      <path clip-path="url(#p7e44ba70e1)" d="M 286.941176 58.037406 
L 451.058824 58.037406 
" style="fill:none;stroke:#b0b0b0;stroke-linecap:square;stroke-width:0.8;"/>
     </g>
     <g id="line2d_52">
      <g>
       <use style="stroke:#000000;stroke-width:0.8;" x="286.941176" xlink:href="#mcd91d9656c" y="58.037406"/>
      </g>
     </g>
     <g id="text_21">
      <!-- 12.5 -->
      <g transform="translate(257.675551 61.836624)scale(0.1 -0.1)">
       <use xlink:href="#DejaVuSans-49"/>
       <use x="63.623047" xlink:href="#DejaVuSans-50"/>
       <use x="127.246094" xlink:href="#DejaVuSans-46"/>
       <use x="159.033203" xlink:href="#DejaVuSans-53"/>
      </g>
     </g>
    </g>
    <g id="ytick_13">
     <g id="line2d_53">
      <path clip-path="url(#p7e44ba70e1)" d="M 286.941176 33.332727 
L 451.058824 33.332727 
" style="fill:none;stroke:#b0b0b0;stroke-linecap:square;stroke-width:0.8;"/>
     </g>
     <g id="line2d_54">
      <g>
       <use style="stroke:#000000;stroke-width:0.8;" x="286.941176" xlink:href="#mcd91d9656c" y="33.332727"/>
      </g>
     </g>
     <g id="text_22">
      <!-- 15.0 -->
      <g transform="translate(257.675551 37.131946)scale(0.1 -0.1)">
       <use xlink:href="#DejaVuSans-49"/>
       <use x="63.623047" xlink:href="#DejaVuSans-53"/>
       <use x="127.246094" xlink:href="#DejaVuSans-46"/>
       <use x="159.033203" xlink:href="#DejaVuSans-48"/>
      </g>
     </g>
    </g>
   </g>
   <g id="line2d_55">
    <path clip-path="url(#p7e44ba70e1)" d="M 295.945164 181.561028 
L 443.59893 181.562538 
L 443.59893 181.562538 
" style="fill:none;stroke:#808080;stroke-linecap:square;stroke-width:1.5;"/>
   </g>
   <g id="line2d_56">
    <path clip-path="url(#p7e44ba70e1)" d="M 294.401073 181.560797 
L 294.40107 181.560797 
L 433.117632 181.574471 
L 433.117632 181.574471 
" style="fill:none;stroke:#0b64d4;stroke-linecap:square;stroke-width:1.5;"/>
   </g>
   <g id="line2d_57">
    <path clip-path="url(#p7e44ba70e1)" d="M 294.4015 181.561014 
L 294.527637 181.493834 
L 295.32056 181.198757 
L 298.660467 180.343978 
L 299.874221 179.999688 
L 302.929178 179.040127 
L 305.050536 178.338489 
L 313.964432 175.250939 
L 343.180433 164.901795 
L 410.464546 141.048716 
L 410.464546 141.048716 
" style="fill:none;stroke:#808080;stroke-linecap:square;stroke-width:1.5;"/>
   </g>
   <g id="line2d_58">
    <path clip-path="url(#p7e44ba70e1)" d="M 294.401074 181.560797 
L 294.401071 181.560797 
L 295.683166 181.453491 
L 297.999626 181.001107 
L 300.997113 180.202464 
L 306.420994 178.485793 
L 318.535442 174.252998 
L 379.213295 152.677866 
L 408.601009 142.226485 
L 408.601009 142.226485 
" style="fill:none;stroke:#a80dfa;stroke-linecap:square;stroke-width:1.5;"/>
   </g>
   <g id="line2d_59">
    <path clip-path="url(#p7e44ba70e1)" d="M 294.401502 181.561008 
L 294.537031 181.489506 
L 297.659462 179.96799 
L 299.095978 179.443076 
L 300.018091 179.191843 
L 301.354142 178.60424 
L 304.209663 176.991125 
L 306.030182 175.852983 
L 313.724747 170.603153 
L 318.603901 167.022168 
L 378.604066 122.377587 
L 412.238061 97.338016 
L 412.238061 97.338016 
" style="fill:none;stroke:#808080;stroke-linecap:square;stroke-width:1.5;"/>
   </g>
   <g id="line2d_60">
    <path clip-path="url(#p7e44ba70e1)" d="M 294.401074 181.560797 
L 294.401072 181.560797 
L 295.485336 181.454926 
L 296.893939 181.092616 
L 299.122226 180.256044 
L 301.113701 179.283538 
L 305.305866 176.896391 
L 309.819434 173.938156 
L 314.836232 170.360004 
L 327.164623 161.222574 
L 407.645438 101.10311 
L 407.645438 101.10311 
" style="fill:none;stroke:#fa4a0d;stroke-linecap:square;stroke-width:1.5;"/>
   </g>
   <g id="line2d_61">
    <path clip-path="url(#p7e44ba70e1)" d="M 294.401074 181.560797 
L 294.401448 181.587273 
L 294.508884 181.503663 
L 296.64025 180.240282 
L 300.079243 178.044965 
L 301.238046 177.250739 
L 302.044998 176.69207 
L 302.79788 176.031438 
L 307.98774 171.344853 
L 311.683838 167.661136 
L 321.887852 156.722501 
L 346.666434 129.318293 
L 417.355015 51.081456 
L 417.355015 51.081456 
" style="fill:none;stroke:#808080;stroke-linecap:square;stroke-width:1.5;"/>
   </g>
   <g id="line2d_62">
    <path clip-path="url(#p7e44ba70e1)" d="M 294.401074 181.560797 
L 294.40107 181.560797 
L 295.392715 181.461326 
L 296.563602 181.114741 
L 297.895234 180.475656 
L 300.765153 178.752491 
L 302.523301 177.347256 
L 306.327588 173.966616 
L 310.267583 170.153655 
L 315.901512 164.263382 
L 323.326446 156.127567 
L 386.730577 85.840145 
L 413.465702 56.196975 
L 413.465702 56.196975 
" style="fill:none;stroke:#faa30d;stroke-linecap:square;stroke-width:1.5;"/>
   </g>
   <g id="line2d_63">
    <path clip-path="url(#p7e44ba70e1)" d="M 294.4015 181.561016 
L 294.52761 181.493678 
L 296.851288 180.12999 
L 297.775241 179.371888 
L 300.090974 177.166453 
L 303.128307 174.195038 
L 306.06071 169.328114 
L 307.258273 166.773198 
L 310.375057 160.263136 
L 313.121633 154.296092 
L 321.500432 135.482479 
L 361.275493 45.634313 
L 361.275493 45.634313 
" style="fill:none;stroke:#808080;stroke-linecap:square;stroke-width:1.5;"/>
   </g>
   <g id="line2d_64">
    <path clip-path="url(#p7e44ba70e1)" d="M 294.401074 181.560797 
L 294.401072 181.560797 
L 295.316619 181.480707 
L 296.2954 181.201805 
L 297.277878 180.689118 
L 298.617937 179.66878 
L 300.838858 177.616098 
L 302.252018 176.067701 
L 303.515398 174.386748 
L 305.045866 171.934038 
L 306.401497 169.359528 
L 309.878679 162.18672 
L 313.997932 153.155922 
L 324.082216 130.364866 
L 358.296982 52.847428 
L 358.296982 52.847428 
" style="fill:none;stroke:#0dfa2c;stroke-linecap:square;stroke-width:1.5;"/>
   </g>
   <g id="line2d_65">
    <path clip-path="url(#p7e44ba70e1)" d="M 294.401074 181.560797 
L 309.558918 165.091012 
L 324.716763 148.621226 
L 339.874607 132.151441 
L 355.032451 115.681655 
L 370.190296 99.211869 
L 385.34814 82.742084 
L 400.505984 66.272298 
L 415.663828 49.802513 
L 430.821673 33.332727 
" style="fill:none;stroke:#000000;stroke-linecap:square;stroke-width:1.5;"/>
   </g>
   <g id="patch_8">
    <path d="M 286.941176 189 
L 286.941176 25.92 
" style="fill:none;stroke:#000000;stroke-linecap:square;stroke-linejoin:miter;stroke-width:0.8;"/>
   </g>
   <g id="patch_9">
    <path d="M 451.058824 189 
L 451.058824 25.92 
" style="fill:none;stroke:#000000;stroke-linecap:square;stroke-linejoin:miter;stroke-width:0.8;"/>
   </g>
   <g id="patch_10">
    <path d="M 286.941176 189 
L 451.058824 189 
" style="fill:none;stroke:#000000;stroke-linecap:square;stroke-linejoin:miter;stroke-width:0.8;"/>
   </g>
   <g id="patch_11">
    <path d="M 286.941176 25.92 
L 451.058824 25.92 
" style="fill:none;stroke:#000000;stroke-linecap:square;stroke-linejoin:miter;stroke-width:0.8;"/>
   </g>
  </g>
  <g id="axes_3">
   <g id="patch_12">
    <path d="M 483.882353 189 
L 648 189 
L 648 25.92 
L 483.882353 25.92 
z
" style="fill:#ffffff;"/>
   </g>
   <g id="matplotlib.axis_5">
    <g id="xtick_10">
     <g id="line2d_66">
      <path clip-path="url(#p883855e750)" d="M 491.342254 189 
L 491.342254 25.92 
" style="fill:none;stroke:#b0b0b0;stroke-linecap:square;stroke-width:0.8;"/>
     </g>
     <g id="line2d_67">
      <g>
       <use style="stroke:#000000;stroke-width:0.8;" x="491.342254" xlink:href="#m3de7fa07eb" y="189"/>
      </g>
     </g>
     <g id="text_23">
      <!-- 0 -->
      <g transform="translate(488.161004 203.598437)scale(0.1 -0.1)">
       <use xlink:href="#DejaVuSans-48"/>
      </g>
     </g>
    </g>
    <g id="xtick_11">
     <g id="line2d_68">
      <path clip-path="url(#p883855e750)" d="M 550.604242 189 
L 550.604242 25.92 
" style="fill:none;stroke:#b0b0b0;stroke-linecap:square;stroke-width:0.8;"/>
     </g>
     <g id="line2d_69">
      <g>
       <use style="stroke:#000000;stroke-width:0.8;" x="550.604242" xlink:href="#m3de7fa07eb" y="189"/>
      </g>
     </g>
     <g id="text_24">
      <!-- 5 -->
      <g transform="translate(547.422992 203.598437)scale(0.1 -0.1)">
       <use xlink:href="#DejaVuSans-53"/>
      </g>
     </g>
    </g>
    <g id="xtick_12">
     <g id="line2d_70">
      <path clip-path="url(#p883855e750)" d="M 609.866231 189 
L 609.866231 25.92 
" style="fill:none;stroke:#b0b0b0;stroke-linecap:square;stroke-width:0.8;"/>
     </g>
     <g id="line2d_71">
      <g>
       <use style="stroke:#000000;stroke-width:0.8;" x="609.866231" xlink:href="#m3de7fa07eb" y="189"/>
      </g>
     </g>
     <g id="text_25">
      <!-- 10 -->
      <g transform="translate(603.503731 203.598437)scale(0.1 -0.1)">
       <use xlink:href="#DejaVuSans-49"/>
       <use x="63.623047" xlink:href="#DejaVuSans-48"/>
      </g>
     </g>
    </g>
   </g>
   <g id="matplotlib.axis_6">
    <g id="ytick_14">
     <g id="line2d_72">
      <path clip-path="url(#p883855e750)" d="M 483.882353 181.570329 
L 648 181.570329 
" style="fill:none;stroke:#b0b0b0;stroke-linecap:square;stroke-width:0.8;"/>
     </g>
     <g id="line2d_73">
      <g>
       <use style="stroke:#000000;stroke-width:0.8;" x="483.882353" xlink:href="#mcd91d9656c" y="181.570329"/>
      </g>
     </g>
     <g id="text_26">
      <!-- 0 -->
      <g transform="translate(470.519853 185.369548)scale(0.1 -0.1)">
       <use xlink:href="#DejaVuSans-48"/>
      </g>
     </g>
    </g>
    <g id="ytick_15">
     <g id="line2d_74">
      <path clip-path="url(#p883855e750)" d="M 483.882353 156.864062 
L 648 156.864062 
" style="fill:none;stroke:#b0b0b0;stroke-linecap:square;stroke-width:0.8;"/>
     </g>
     <g id="line2d_75">
      <g>
       <use style="stroke:#000000;stroke-width:0.8;" x="483.882353" xlink:href="#mcd91d9656c" y="156.864062"/>
      </g>
     </g>
     <g id="text_27">
      <!-- 2 -->
      <g transform="translate(470.519853 160.663281)scale(0.1 -0.1)">
       <use xlink:href="#DejaVuSans-50"/>
      </g>
     </g>
    </g>
    <g id="ytick_16">
     <g id="line2d_76">
      <path clip-path="url(#p883855e750)" d="M 483.882353 132.157795 
L 648 132.157795 
" style="fill:none;stroke:#b0b0b0;stroke-linecap:square;stroke-width:0.8;"/>
     </g>
     <g id="line2d_77">
      <g>
       <use style="stroke:#000000;stroke-width:0.8;" x="483.882353" xlink:href="#mcd91d9656c" y="132.157795"/>
      </g>
     </g>
     <g id="text_28">
      <!-- 4 -->
      <g transform="translate(470.519853 135.957014)scale(0.1 -0.1)">
       <use xlink:href="#DejaVuSans-52"/>
      </g>
     </g>
    </g>
    <g id="ytick_17">
     <g id="line2d_78">
      <path clip-path="url(#p883855e750)" d="M 483.882353 107.451528 
L 648 107.451528 
" style="fill:none;stroke:#b0b0b0;stroke-linecap:square;stroke-width:0.8;"/>
     </g>
     <g id="line2d_79">
      <g>
       <use style="stroke:#000000;stroke-width:0.8;" x="483.882353" xlink:href="#mcd91d9656c" y="107.451528"/>
      </g>
     </g>
     <g id="text_29">
      <!-- 6 -->
      <g transform="translate(470.519853 111.250747)scale(0.1 -0.1)">
       <use xlink:href="#DejaVuSans-54"/>
      </g>
     </g>
    </g>
    <g id="ytick_18">
     <g id="line2d_80">
      <path clip-path="url(#p883855e750)" d="M 483.882353 82.745261 
L 648 82.745261 
" style="fill:none;stroke:#b0b0b0;stroke-linecap:square;stroke-width:0.8;"/>
     </g>
     <g id="line2d_81">
      <g>
       <use style="stroke:#000000;stroke-width:0.8;" x="483.882353" xlink:href="#mcd91d9656c" y="82.745261"/>
      </g>
     </g>
     <g id="text_30">
      <!-- 8 -->
      <g transform="translate(470.519853 86.54448)scale(0.1 -0.1)">
       <use xlink:href="#DejaVuSans-56"/>
      </g>
     </g>
    </g>
    <g id="ytick_19">
     <g id="line2d_82">
      <path clip-path="url(#p883855e750)" d="M 483.882353 58.038994 
L 648 58.038994 
" style="fill:none;stroke:#b0b0b0;stroke-linecap:square;stroke-width:0.8;"/>
     </g>
     <g id="line2d_83">
      <g>
       <use style="stroke:#000000;stroke-width:0.8;" x="483.882353" xlink:href="#mcd91d9656c" y="58.038994"/>
      </g>
     </g>
     <g id="text_31">
      <!-- 10 -->
      <g transform="translate(464.157353 61.838213)scale(0.1 -0.1)">
       <use xlink:href="#DejaVuSans-49"/>
       <use x="63.623047" xlink:href="#DejaVuSans-48"/>
      </g>
     </g>
    </g>
    <g id="ytick_20">
     <g id="line2d_84">
      <path clip-path="url(#p883855e750)" d="M 483.882353 33.332727 
L 648 33.332727 
" style="fill:none;stroke:#b0b0b0;stroke-linecap:square;stroke-width:0.8;"/>
     </g>
     <g id="line2d_85">
      <g>
       <use style="stroke:#000000;stroke-width:0.8;" x="483.882353" xlink:href="#mcd91d9656c" y="33.332727"/>
      </g>
     </g>
     <g id="text_32">
      <!-- 12 -->
      <g transform="translate(464.157353 37.131946)scale(0.1 -0.1)">
       <use xlink:href="#DejaVuSans-49"/>
       <use x="63.623047" xlink:href="#DejaVuSans-50"/>
      </g>
     </g>
    </g>
   </g>
   <g id="line2d_86">
    <path clip-path="url(#p883855e750)" d="M 493.12257 181.570617 
L 616.656111 181.571261 
L 616.656111 181.571261 
" style="fill:none;stroke:#808080;stroke-linecap:square;stroke-width:1.5;"/>
   </g>
   <g id="line2d_87">
    <path clip-path="url(#p883855e750)" d="M 491.342253 181.570329 
L 491.342246 181.570329 
L 599.607306 181.587273 
L 599.607306 181.587273 
" style="fill:none;stroke:#0b64d4;stroke-linecap:square;stroke-width:1.5;"/>
   </g>
   <g id="line2d_88">
    <path clip-path="url(#p883855e750)" d="M 491.342809 181.570598 
L 491.454852 181.570594 
L 496.336978 181.460746 
L 499.195401 180.839846 
L 502.892879 179.634199 
L 504.686064 179.250854 
L 506.422413 178.723215 
L 511.609051 176.658302 
L 514.99588 175.12519 
L 521.311152 172.142824 
L 532.209963 166.51342 
L 640.540107 107.869081 
L 640.540107 107.869081 
" style="fill:none;stroke:#808080;stroke-linecap:square;stroke-width:1.5;"/>
   </g>
   <g id="line2d_89">
    <path clip-path="url(#p883855e750)" d="M 491.342254 181.570329 
L 491.34225 181.570329 
L 497.006567 181.471798 
L 499.120673 181.194623 
L 501.668062 180.606172 
L 505.53782 179.432725 
L 510.451465 177.60264 
L 514.186254 176.028682 
L 519.387998 173.631697 
L 527.066135 169.757119 
L 538.88967 163.477341 
L 576.347397 143.244375 
L 632.294161 112.937582 
L 632.294161 112.937582 
" style="fill:none;stroke:#a80dfa;stroke-linecap:square;stroke-width:1.5;"/>
   </g>
   <g id="line2d_90">
    <path clip-path="url(#p883855e750)" d="M 494.662605 181.412556 
L 498.158438 181.399053 
L 498.488889 181.31795 
L 499.100502 181.196546 
L 501.045324 181.003527 
L 506.576884 177.938706 
L 508.020818 177.141491 
L 509.090455 176.609229 
L 510.293097 175.790512 
L 511.816474 174.327162 
L 515.885589 170.262288 
L 516.940945 169.022633 
L 521.40329 163.642011 
L 523.753104 160.754529 
L 527.552772 155.921813 
L 538.772851 141.383895 
L 560.29165 113.148314 
L 607.945995 50.352272 
L 607.945995 50.352272 
" style="fill:none;stroke:#808080;stroke-linecap:square;stroke-width:1.5;"/>
   </g>
   <g id="line2d_91">
    <path clip-path="url(#p883855e750)" d="M 491.342253 181.570329 
L 495.770592 181.462773 
L 497.633979 181.301816 
L 499.253301 180.897777 
L 501.031858 180.211404 
L 503.16085 179.127976 
L 505.390902 177.719616 
L 507.349713 176.322148 
L 508.956236 174.861585 
L 512.523963 171.249537 
L 515.07061 168.318657 
L 519.685994 162.680521 
L 526.429603 154.061742 
L 537.778305 139.161141 
L 567.291807 99.872758 
L 596.601941 60.724776 
L 596.601941 60.724776 
" style="fill:none;stroke:#fa4a0d;stroke-linecap:square;stroke-width:1.5;"/>
   </g>
   <g id="line2d_92">
    <path clip-path="url(#p883855e750)" d="M 491.342808 181.570604 
L 491.454861 181.570599 
L 492.751658 181.460303 
L 502.281995 180.679685 
L 503.12574 180.78212 
L 503.933068 180.449097 
L 505.129453 180.407051 
L 506.039615 180.143635 
L 506.728198 179.562472 
L 507.69206 178.450903 
L 509.668337 175.730006 
L 512.579651 171.078874 
L 513.194603 169.217522 
L 514.587998 165.38385 
L 516.459763 160.232852 
L 521.785712 143.915453 
L 522.3143 142.802439 
L 523.143474 141.067689 
L 524.976356 137.094486 
L 526.684683 134.372978 
L 529.666607 129.776508 
L 535.493938 120.649392 
L 538.456383 115.446297 
L 539.661489 113.249187 
L 541.696867 109.413007 
L 556.791792 81.384692 
L 568.081971 60.460915 
L 580.746657 36.724325 
L 580.746657 36.724325 
" style="fill:none;stroke:#808080;stroke-linecap:square;stroke-width:1.5;"/>
   </g>
   <g id="line2d_93">
    <path clip-path="url(#p883855e750)" d="M 491.342254 181.570329 
L 491.342248 181.570329 
L 494.742249 181.460564 
L 499.009406 181.066014 
L 500.210058 180.785226 
L 501.529465 180.250496 
L 502.759001 179.507082 
L 504.058684 178.438649 
L 505.244295 177.229102 
L 506.256016 175.859063 
L 508.896247 171.742337 
L 509.85021 169.756749 
L 511.481683 165.647464 
L 512.743066 161.919119 
L 518.446165 144.355072 
L 519.557228 141.627102 
L 521.00508 138.507377 
L 523.335718 134.490596 
L 526.242967 129.970577 
L 532.284305 120.505089 
L 535.222644 115.430824 
L 538.687014 108.961603 
L 547.77702 91.889816 
L 569.242153 52.044817 
L 571.887794 47.075172 
L 571.887794 47.075172 
" style="fill:none;stroke:#faa30d;stroke-linecap:square;stroke-width:1.5;"/>
   </g>
   <g id="line2d_94">
    <path clip-path="url(#p883855e750)" d="M 491.342808 181.570606 
L 491.457722 181.570563 
L 492.772939 181.460152 
L 500.162226 180.701747 
L 513.824118 179.219003 
L 514.97386 179.118386 
L 515.376172 178.994717 
L 515.747045 178.875054 
L 516.536153 178.376356 
L 518.356979 176.867736 
L 524.320965 171.106164 
L 526.066068 169.37296 
L 527.664945 168.103942 
L 531.251595 166.943292 
L 534.911626 165.994503 
L 536.234054 165.878628 
L 537.442732 165.992951 
L 538.250951 166.301585 
L 539.497517 166.740134 
L 542.22265 166.95718 
L 543.986372 166.973835 
L 549.159437 166.796293 
L 550.552672 166.799143 
L 550.980474 166.833814 
L 552.600147 166.809281 
L 554.021107 166.535585 
L 557.290023 165.414082 
L 561.350964 164.134782 
L 565.421902 163.507272 
L 566.481453 163.425851 
L 566.890518 163.369072 
L 568.572943 163.389641 
L 570.705755 163.523065 
L 571.903609 163.394623 
L 576.533182 162.639231 
L 579.819897 162.080788 
L 581.637442 161.354307 
L 582.844707 160.860721 
L 591.495864 157.818879 
L 593.910329 157.237796 
L 596.353958 156.767018 
L 607.029564 154.68658 
L 610.462913 153.847932 
L 613.96928 152.734524 
L 621.788729 150.499343 
L 629.87293 148.785794 
L 629.87293 148.785794 
" style="fill:none;stroke:#808080;stroke-linecap:square;stroke-width:1.5;"/>
   </g>
   <g id="line2d_95">
    <path clip-path="url(#p883855e750)" d="M 491.342254 181.570329 
L 491.342251 181.570329 
L 494.824358 181.464776 
L 498.369861 181.144124 
L 505.940729 180.241041 
L 507.297675 179.800708 
L 509.028627 178.98521 
L 510.656881 177.975334 
L 512.360844 176.640821 
L 514.997046 174.161806 
L 518.488531 170.812608 
L 520.712312 168.969351 
L 521.971771 168.285646 
L 523.103535 167.921675 
L 524.276825 167.76497 
L 525.460559 167.806159 
L 526.854449 168.093725 
L 528.419173 168.668142 
L 531.305751 169.785479 
L 532.927642 170.1432 
L 534.345943 170.218666 
L 539.067648 170.00398 
L 540.950737 169.680493 
L 542.990162 169.073747 
L 550.896439 166.455125 
L 553.223741 165.992798 
L 555.365035 165.82712 
L 560.108208 165.78933 
L 562.712265 165.722086 
L 565.540792 165.41999 
L 569.294045 164.801684 
L 571.338441 164.170232 
L 581.464178 160.677799 
L 584.245156 159.987232 
L 591.246856 158.711815 
L 596.836588 157.610505 
L 600.066256 156.812141 
L 605.299969 155.219928 
L 609.871022 153.917206 
L 615.888655 152.505702 
L 619.603552 151.706513 
L 619.603552 151.706513 
" style="fill:none;stroke:#0dfa2c;stroke-linecap:square;stroke-width:1.5;"/>
   </g>
   <g id="line2d_96">
    <path clip-path="url(#p883855e750)" d="M 491.342254 181.570329 
L 493.97612 179.740235 
L 496.609986 174.249954 
L 499.243852 165.099485 
L 501.877718 152.288828 
L 504.511584 135.817983 
L 507.145451 115.686951 
L 509.779317 91.89573 
L 512.413183 64.444323 
L 515.047049 33.332727 
" style="fill:none;stroke:#000000;stroke-linecap:square;stroke-width:1.5;"/>
   </g>
   <g id="patch_13">
    <path d="M 483.882353 189 
L 483.882353 25.92 
" style="fill:none;stroke:#000000;stroke-linecap:square;stroke-linejoin:miter;stroke-width:0.8;"/>
   </g>
   <g id="patch_14">
    <path d="M 648 189 
L 648 25.92 
" style="fill:none;stroke:#000000;stroke-linecap:square;stroke-linejoin:miter;stroke-width:0.8;"/>
   </g>
   <g id="patch_15">
    <path d="M 483.882353 189 
L 648 189 
" style="fill:none;stroke:#000000;stroke-linecap:square;stroke-linejoin:miter;stroke-width:0.8;"/>
   </g>
   <g id="patch_16">
    <path d="M 483.882353 25.92 
L 648 25.92 
" style="fill:none;stroke:#000000;stroke-linecap:square;stroke-linejoin:miter;stroke-width:0.8;"/>
   </g>
  </g>
 </g>
 <defs>
  <clipPath id="p89552510e3">
   <rect height="163.08" width="164.117647" x="90" y="25.92"/>
  </clipPath>
  <clipPath id="p7e44ba70e1">
   <rect height="163.08" width="164.117647" x="286.941176" y="25.92"/>
  </clipPath>
  <clipPath id="p883855e750">
   <rect height="163.08" width="164.117647" x="483.882353" y="25.92"/>
  </clipPath>
 </defs>
</svg>
