<?xml version="1.0" encoding="utf-8" standalone="no"?>
<!DOCTYPE svg PUBLIC "-//W3C//DTD SVG 1.1//EN"
  "http://www.w3.org/Graphics/SVG/1.1/DTD/svg11.dtd">
<!-- Created with matplotlib (https://matplotlib.org/) -->
<svg height="216pt" version="1.1" viewBox="0 0 720 216" width="720pt" xmlns="http://www.w3.org/2000/svg" xmlns:xlink="http://www.w3.org/1999/xlink">
 <defs>
  <style type="text/css">
*{stroke-linecap:butt;stroke-linejoin:round;}
  </style>
 </defs>
 <g id="figure_1">
  <g id="patch_1">
   <path d="M 0 216 
L 720 216 
L 720 0 
L 0 0 
z
" style="fill:#ffffff;"/>
  </g>
  <g id="axes_1">
   <g id="patch_2">
    <path d="M 90 189 
L 254.117647 189 
L 254.117647 25.92 
L 90 25.92 
z
" style="fill:#ffffff;"/>
   </g>
   <g id="matplotlib.axis_1">
    <g id="xtick_1">
     <g id="line2d_1">
      <path clip-path="url(#p696416050f)" d="M 97.485416 189 
L 97.485416 25.92 
" style="fill:none;stroke:#b0b0b0;stroke-linecap:square;stroke-width:0.8;"/>
     </g>
     <g id="line2d_2">
      <defs>
       <path d="M 0 0 
L 0 3.5 
" id="m651e623e49" style="stroke:#000000;stroke-width:0.8;"/>
      </defs>
      <g>
       <use style="stroke:#000000;stroke-width:0.8;" x="97.485416" xlink:href="#m651e623e49" y="189"/>
      </g>
     </g>
     <g id="text_1">
      <!-- 0.0 -->
      <defs>
       <path d="M 31.78125 66.40625 
Q 24.171875 66.40625 20.328125 58.90625 
Q 16.5 51.421875 16.5 36.375 
Q 16.5 21.390625 20.328125 13.890625 
Q 24.171875 6.390625 31.78125 6.390625 
Q 39.453125 6.390625 43.28125 13.890625 
Q 47.125 21.390625 47.125 36.375 
Q 47.125 51.421875 43.28125 58.90625 
Q 39.453125 66.40625 31.78125 66.40625 
z
M 31.78125 74.21875 
Q 44.046875 74.21875 50.515625 64.515625 
Q 56.984375 54.828125 56.984375 36.375 
Q 56.984375 17.96875 50.515625 8.265625 
Q 44.046875 -1.421875 31.78125 -1.421875 
Q 19.53125 -1.421875 13.0625 8.265625 
Q 6.59375 17.96875 6.59375 36.375 
Q 6.59375 54.828125 13.0625 64.515625 
Q 19.53125 74.21875 31.78125 74.21875 
z
" id="DejaVuSans-48"/>
       <path d="M 10.6875 12.40625 
L 21 12.40625 
L 21 0 
L 10.6875 0 
z
" id="DejaVuSans-46"/>
      </defs>
      <g transform="translate(89.533854 203.598437)scale(0.1 -0.1)">
       <use xlink:href="#DejaVuSans-48"/>
       <use x="63.623047" xlink:href="#DejaVuSans-46"/>
       <use x="95.410156" xlink:href="#DejaVuSans-48"/>
      </g>
     </g>
    </g>
    <g id="xtick_2">
     <g id="line2d_3">
      <path clip-path="url(#p696416050f)" d="M 135.127417 189 
L 135.127417 25.92 
" style="fill:none;stroke:#b0b0b0;stroke-linecap:square;stroke-width:0.8;"/>
     </g>
     <g id="line2d_4">
      <g>
       <use style="stroke:#000000;stroke-width:0.8;" x="135.127417" xlink:href="#m651e623e49" y="189"/>
      </g>
     </g>
     <g id="text_2">
      <!-- 2.5 -->
      <defs>
       <path d="M 19.1875 8.296875 
L 53.609375 8.296875 
L 53.609375 0 
L 7.328125 0 
L 7.328125 8.296875 
Q 12.9375 14.109375 22.625 23.890625 
Q 32.328125 33.6875 34.8125 36.53125 
Q 39.546875 41.84375 41.421875 45.53125 
Q 43.3125 49.21875 43.3125 52.78125 
Q 43.3125 58.59375 39.234375 62.25 
Q 35.15625 65.921875 28.609375 65.921875 
Q 23.96875 65.921875 18.8125 64.3125 
Q 13.671875 62.703125 7.8125 59.421875 
L 7.8125 69.390625 
Q 13.765625 71.78125 18.9375 73 
Q 24.125 74.21875 28.421875 74.21875 
Q 39.75 74.21875 46.484375 68.546875 
Q 53.21875 62.890625 53.21875 53.421875 
Q 53.21875 48.921875 51.53125 44.890625 
Q 49.859375 40.875 45.40625 35.40625 
Q 44.1875 33.984375 37.640625 27.21875 
Q 31.109375 20.453125 19.1875 8.296875 
z
" id="DejaVuSans-50"/>
       <path d="M 10.796875 72.90625 
L 49.515625 72.90625 
L 49.515625 64.59375 
L 19.828125 64.59375 
L 19.828125 46.734375 
Q 21.96875 47.46875 24.109375 47.828125 
Q 26.265625 48.1875 28.421875 48.1875 
Q 40.625 48.1875 47.75 41.5 
Q 54.890625 34.8125 54.890625 23.390625 
Q 54.890625 11.625 47.5625 5.09375 
Q 40.234375 -1.421875 26.90625 -1.421875 
Q 22.3125 -1.421875 17.546875 -0.640625 
Q 12.796875 0.140625 7.71875 1.703125 
L 7.71875 11.625 
Q 12.109375 9.234375 16.796875 8.0625 
Q 21.484375 6.890625 26.703125 6.890625 
Q 35.15625 6.890625 40.078125 11.328125 
Q 45.015625 15.765625 45.015625 23.390625 
Q 45.015625 31 40.078125 35.4375 
Q 35.15625 39.890625 26.703125 39.890625 
Q 22.75 39.890625 18.8125 39.015625 
Q 14.890625 38.140625 10.796875 36.28125 
z
" id="DejaVuSans-53"/>
      </defs>
      <g transform="translate(127.175855 203.598437)scale(0.1 -0.1)">
       <use xlink:href="#DejaVuSans-50"/>
       <use x="63.623047" xlink:href="#DejaVuSans-46"/>
       <use x="95.410156" xlink:href="#DejaVuSans-53"/>
      </g>
     </g>
    </g>
    <g id="xtick_3">
     <g id="line2d_5">
      <path clip-path="url(#p696416050f)" d="M 172.769418 189 
L 172.769418 25.92 
" style="fill:none;stroke:#b0b0b0;stroke-linecap:square;stroke-width:0.8;"/>
     </g>
     <g id="line2d_6">
      <g>
       <use style="stroke:#000000;stroke-width:0.8;" x="172.769418" xlink:href="#m651e623e49" y="189"/>
      </g>
     </g>
     <g id="text_3">
      <!-- 5.0 -->
      <g transform="translate(164.817855 203.598437)scale(0.1 -0.1)">
       <use xlink:href="#DejaVuSans-53"/>
       <use x="63.623047" xlink:href="#DejaVuSans-46"/>
       <use x="95.410156" xlink:href="#DejaVuSans-48"/>
      </g>
     </g>
    </g>
    <g id="xtick_4">
     <g id="line2d_7">
      <path clip-path="url(#p696416050f)" d="M 210.411419 189 
L 210.411419 25.92 
" style="fill:none;stroke:#b0b0b0;stroke-linecap:square;stroke-width:0.8;"/>
     </g>
     <g id="line2d_8">
      <g>
       <use style="stroke:#000000;stroke-width:0.8;" x="210.411419" xlink:href="#m651e623e49" y="189"/>
      </g>
     </g>
     <g id="text_4">
      <!-- 7.5 -->
      <defs>
       <path d="M 8.203125 72.90625 
L 55.078125 72.90625 
L 55.078125 68.703125 
L 28.609375 0 
L 18.3125 0 
L 43.21875 64.59375 
L 8.203125 64.59375 
z
" id="DejaVuSans-55"/>
      </defs>
      <g transform="translate(202.459856 203.598437)scale(0.1 -0.1)">
       <use xlink:href="#DejaVuSans-55"/>
       <use x="63.623047" xlink:href="#DejaVuSans-46"/>
       <use x="95.410156" xlink:href="#DejaVuSans-53"/>
      </g>
     </g>
    </g>
    <g id="xtick_5">
     <g id="line2d_9">
      <path clip-path="url(#p696416050f)" d="M 248.053419 189 
L 248.053419 25.92 
" style="fill:none;stroke:#b0b0b0;stroke-linecap:square;stroke-width:0.8;"/>
     </g>
     <g id="line2d_10">
      <g>
       <use style="stroke:#000000;stroke-width:0.8;" x="248.053419" xlink:href="#m651e623e49" y="189"/>
      </g>
     </g>
     <g id="text_5">
      <!-- 10.0 -->
      <defs>
       <path d="M 12.40625 8.296875 
L 28.515625 8.296875 
L 28.515625 63.921875 
L 10.984375 60.40625 
L 10.984375 69.390625 
L 28.421875 72.90625 
L 38.28125 72.90625 
L 38.28125 8.296875 
L 54.390625 8.296875 
L 54.390625 0 
L 12.40625 0 
z
" id="DejaVuSans-49"/>
      </defs>
      <g transform="translate(236.920607 203.598437)scale(0.1 -0.1)">
       <use xlink:href="#DejaVuSans-49"/>
       <use x="63.623047" xlink:href="#DejaVuSans-48"/>
       <use x="127.246094" xlink:href="#DejaVuSans-46"/>
       <use x="159.033203" xlink:href="#DejaVuSans-48"/>
      </g>
     </g>
    </g>
   </g>
   <g id="matplotlib.axis_2">
    <g id="ytick_1">
     <g id="line2d_11">
      <path clip-path="url(#p696416050f)" d="M 90 177.691548 
L 254.117647 177.691548 
" style="fill:none;stroke:#b0b0b0;stroke-linecap:square;stroke-width:0.8;"/>
     </g>
     <g id="line2d_12">
      <defs>
       <path d="M 0 0 
L -3.5 0 
" id="m1fdfee4e1a" style="stroke:#000000;stroke-width:0.8;"/>
      </defs>
      <g>
       <use style="stroke:#000000;stroke-width:0.8;" x="90" xlink:href="#m1fdfee4e1a" y="177.691548"/>
      </g>
     </g>
     <g id="text_6">
      <!-- −10 -->
      <defs>
       <path d="M 10.59375 35.5 
L 73.1875 35.5 
L 73.1875 27.203125 
L 10.59375 27.203125 
z
" id="DejaVuSans-8722"/>
      </defs>
      <g transform="translate(61.895313 181.490767)scale(0.1 -0.1)">
       <use xlink:href="#DejaVuSans-8722"/>
       <use x="83.789062" xlink:href="#DejaVuSans-49"/>
       <use x="147.412109" xlink:href="#DejaVuSans-48"/>
      </g>
     </g>
    </g>
    <g id="ytick_2">
     <g id="line2d_13">
      <path clip-path="url(#p696416050f)" d="M 90 148.819785 
L 254.117647 148.819785 
" style="fill:none;stroke:#b0b0b0;stroke-linecap:square;stroke-width:0.8;"/>
     </g>
     <g id="line2d_14">
      <g>
       <use style="stroke:#000000;stroke-width:0.8;" x="90" xlink:href="#m1fdfee4e1a" y="148.819785"/>
      </g>
     </g>
     <g id="text_7">
      <!-- −8 -->
      <defs>
       <path d="M 31.78125 34.625 
Q 24.75 34.625 20.71875 30.859375 
Q 16.703125 27.09375 16.703125 20.515625 
Q 16.703125 13.921875 20.71875 10.15625 
Q 24.75 6.390625 31.78125 6.390625 
Q 38.8125 6.390625 42.859375 10.171875 
Q 46.921875 13.96875 46.921875 20.515625 
Q 46.921875 27.09375 42.890625 30.859375 
Q 38.875 34.625 31.78125 34.625 
z
M 21.921875 38.8125 
Q 15.578125 40.375 12.03125 44.71875 
Q 8.5 49.078125 8.5 55.328125 
Q 8.5 64.0625 14.71875 69.140625 
Q 20.953125 74.21875 31.78125 74.21875 
Q 42.671875 74.21875 48.875 69.140625 
Q 55.078125 64.0625 55.078125 55.328125 
Q 55.078125 49.078125 51.53125 44.71875 
Q 48 40.375 41.703125 38.8125 
Q 48.828125 37.15625 52.796875 32.3125 
Q 56.78125 27.484375 56.78125 20.515625 
Q 56.78125 9.90625 50.3125 4.234375 
Q 43.84375 -1.421875 31.78125 -1.421875 
Q 19.734375 -1.421875 13.25 4.234375 
Q 6.78125 9.90625 6.78125 20.515625 
Q 6.78125 27.484375 10.78125 32.3125 
Q 14.796875 37.15625 21.921875 38.8125 
z
M 18.3125 54.390625 
Q 18.3125 48.734375 21.84375 45.5625 
Q 25.390625 42.390625 31.78125 42.390625 
Q 38.140625 42.390625 41.71875 45.5625 
Q 45.3125 48.734375 45.3125 54.390625 
Q 45.3125 60.0625 41.71875 63.234375 
Q 38.140625 66.40625 31.78125 66.40625 
Q 25.390625 66.40625 21.84375 63.234375 
Q 18.3125 60.0625 18.3125 54.390625 
z
" id="DejaVuSans-56"/>
      </defs>
      <g transform="translate(68.257812 152.619004)scale(0.1 -0.1)">
       <use xlink:href="#DejaVuSans-8722"/>
       <use x="83.789062" xlink:href="#DejaVuSans-56"/>
      </g>
     </g>
    </g>
    <g id="ytick_3">
     <g id="line2d_15">
      <path clip-path="url(#p696416050f)" d="M 90 119.948022 
L 254.117647 119.948022 
" style="fill:none;stroke:#b0b0b0;stroke-linecap:square;stroke-width:0.8;"/>
     </g>
     <g id="line2d_16">
      <g>
       <use style="stroke:#000000;stroke-width:0.8;" x="90" xlink:href="#m1fdfee4e1a" y="119.948022"/>
      </g>
     </g>
     <g id="text_8">
      <!-- −6 -->
      <defs>
       <path d="M 33.015625 40.375 
Q 26.375 40.375 22.484375 35.828125 
Q 18.609375 31.296875 18.609375 23.390625 
Q 18.609375 15.53125 22.484375 10.953125 
Q 26.375 6.390625 33.015625 6.390625 
Q 39.65625 6.390625 43.53125 10.953125 
Q 47.40625 15.53125 47.40625 23.390625 
Q 47.40625 31.296875 43.53125 35.828125 
Q 39.65625 40.375 33.015625 40.375 
z
M 52.59375 71.296875 
L 52.59375 62.3125 
Q 48.875 64.0625 45.09375 64.984375 
Q 41.3125 65.921875 37.59375 65.921875 
Q 27.828125 65.921875 22.671875 59.328125 
Q 17.53125 52.734375 16.796875 39.40625 
Q 19.671875 43.65625 24.015625 45.921875 
Q 28.375 48.1875 33.59375 48.1875 
Q 44.578125 48.1875 50.953125 41.515625 
Q 57.328125 34.859375 57.328125 23.390625 
Q 57.328125 12.15625 50.6875 5.359375 
Q 44.046875 -1.421875 33.015625 -1.421875 
Q 20.359375 -1.421875 13.671875 8.265625 
Q 6.984375 17.96875 6.984375 36.375 
Q 6.984375 53.65625 15.1875 63.9375 
Q 23.390625 74.21875 37.203125 74.21875 
Q 40.921875 74.21875 44.703125 73.484375 
Q 48.484375 72.75 52.59375 71.296875 
z
" id="DejaVuSans-54"/>
      </defs>
      <g transform="translate(68.257812 123.747241)scale(0.1 -0.1)">
       <use xlink:href="#DejaVuSans-8722"/>
       <use x="83.789062" xlink:href="#DejaVuSans-54"/>
      </g>
     </g>
    </g>
    <g id="ytick_4">
     <g id="line2d_17">
      <path clip-path="url(#p696416050f)" d="M 90 91.07626 
L 254.117647 91.07626 
" style="fill:none;stroke:#b0b0b0;stroke-linecap:square;stroke-width:0.8;"/>
     </g>
     <g id="line2d_18">
      <g>
       <use style="stroke:#000000;stroke-width:0.8;" x="90" xlink:href="#m1fdfee4e1a" y="91.07626"/>
      </g>
     </g>
     <g id="text_9">
      <!-- −4 -->
      <defs>
       <path d="M 37.796875 64.3125 
L 12.890625 25.390625 
L 37.796875 25.390625 
z
M 35.203125 72.90625 
L 47.609375 72.90625 
L 47.609375 25.390625 
L 58.015625 25.390625 
L 58.015625 17.1875 
L 47.609375 17.1875 
L 47.609375 0 
L 37.796875 0 
L 37.796875 17.1875 
L 4.890625 17.1875 
L 4.890625 26.703125 
z
" id="DejaVuSans-52"/>
      </defs>
      <g transform="translate(68.257812 94.875478)scale(0.1 -0.1)">
       <use xlink:href="#DejaVuSans-8722"/>
       <use x="83.789062" xlink:href="#DejaVuSans-52"/>
      </g>
     </g>
    </g>
    <g id="ytick_5">
     <g id="line2d_19">
      <path clip-path="url(#p696416050f)" d="M 90 62.204497 
L 254.117647 62.204497 
" style="fill:none;stroke:#b0b0b0;stroke-linecap:square;stroke-width:0.8;"/>
     </g>
     <g id="line2d_20">
      <g>
       <use style="stroke:#000000;stroke-width:0.8;" x="90" xlink:href="#m1fdfee4e1a" y="62.204497"/>
      </g>
     </g>
     <g id="text_10">
      <!-- −2 -->
      <g transform="translate(68.257812 66.003716)scale(0.1 -0.1)">
       <use xlink:href="#DejaVuSans-8722"/>
       <use x="83.789062" xlink:href="#DejaVuSans-50"/>
      </g>
     </g>
    </g>
    <g id="ytick_6">
     <g id="line2d_21">
      <path clip-path="url(#p696416050f)" d="M 90 33.332734 
L 254.117647 33.332734 
" style="fill:none;stroke:#b0b0b0;stroke-linecap:square;stroke-width:0.8;"/>
     </g>
     <g id="line2d_22">
      <g>
       <use style="stroke:#000000;stroke-width:0.8;" x="90" xlink:href="#m1fdfee4e1a" y="33.332734"/>
      </g>
     </g>
     <g id="text_11">
      <!-- 0 -->
      <g transform="translate(76.6375 37.131953)scale(0.1 -0.1)">
       <use xlink:href="#DejaVuSans-48"/>
      </g>
     </g>
    </g>
   </g>
   <g id="line2d_23">
    <path clip-path="url(#p696416050f)" d="M 97.486118 33.333066 
L 97.487263 33.332947 
L 97.568923 33.430351 
L 98.580932 34.216579 
L 99.269556 34.633988 
L 99.794297 34.892834 
L 101.561572 36.532209 
L 103.047542 38.052167 
L 107.187432 42.76017 
L 107.666631 43.802622 
L 108.710064 46.774168 
L 109.557409 49.513026 
L 110.094021 51.16495 
L 110.601874 53.25138 
L 111.211723 56.012985 
L 111.959716 58.71645 
L 112.317739 60.548432 
L 117.189944 89.240106 
L 118.580186 95.842328 
L 119.383265 99.504502 
L 119.985547 102.177467 
L 121.537134 108.112657 
L 124.831045 117.663257 
L 125.946266 119.974699 
L 128.335374 125.089457 
L 129.389472 126.944568 
L 131.916505 131.467885 
L 138.162058 141.091486 
L 142.366151 146.253784 
L 142.832619 146.816676 
L 146.781983 150.812682 
L 149.303702 153.30414 
L 156.714994 160.065261 
L 158.331587 161.119432 
L 159.467047 161.956035 
L 163.765931 164.982901 
L 165.600016 166.105211 
L 170.041727 168.792962 
L 171.433093 169.511238 
L 174.170449 170.740909 
L 179.15193 173.124904 
L 180.837959 173.833588 
L 191.372256 177.433527 
L 194.697338 178.376228 
L 197.421264 179.073711 
L 199.574204 179.40368 
L 202.467496 179.90432 
L 205.029887 180.347265 
L 208.524691 180.797352 
L 213.461632 181.14566 
L 215.532428 181.406341 
L 217.617202 181.56962 
L 219.164806 181.510526 
L 223.611269 181.425481 
L 225.503385 181.282664 
L 227.65065 180.933984 
L 230.867551 180.529764 
L 236.802115 179.586872 
L 239.944277 178.878473 
L 244.404005 177.950039 
L 244.402113 177.950447 
" style="fill:none;stroke:#808080;stroke-linecap:square;stroke-width:1.5;"/>
   </g>
   <g id="line2d_24">
    <path clip-path="url(#p696416050f)" d="M 97.485416 33.332734 
L 97.485411 33.332734 
L 99.482428 33.408554 
L 101.193693 33.809681 
L 104.05387 34.710345 
L 105.361014 35.425185 
L 106.801039 36.478308 
L 108.049965 37.72557 
L 109.114152 39.127342 
L 109.993427 40.64678 
L 110.799281 42.515855 
L 112.848277 47.948681 
L 114.384877 52.946261 
L 115.520277 57.4362 
L 116.297736 61.410815 
L 117.947136 71.101566 
L 120.515693 86.213263 
L 122.499116 95.831238 
L 124.623785 104.843809 
L 126.221893 110.727633 
L 127.894801 115.650875 
L 129.305772 119.16864 
L 132.110316 125.238565 
L 135.158591 130.861431 
L 137.515679 134.894274 
L 141.134218 140.558254 
L 143.293479 143.352771 
L 146.661724 147.404401 
L 151.317584 152.320418 
L 154.687689 155.627303 
L 159.502249 159.995705 
L 162.107528 161.955433 
L 166.736487 165.176699 
L 173.324328 169.245322 
L 176.208475 170.804282 
L 180.536201 172.829432 
L 184.139646 174.288711 
L 190.939629 176.638616 
L 198.721755 178.965993 
L 201.631152 179.6485 
L 206.076114 180.406169 
L 210.546578 180.941169 
L 217.769001 181.435266 
L 221.668155 181.435079 
L 228.292602 181.176745 
L 232.46939 180.653075 
L 237.251168 179.837256 
L 243.780866 178.350373 
L 245.496988 177.893768 
L 245.469296 177.901769 
" style="fill:none;stroke:#0b64d4;stroke-linecap:square;stroke-width:1.5;"/>
   </g>
   <g id="line2d_25">
    <path clip-path="url(#p696416050f)" d="M 97.485416 33.332734 
L 97.596599 33.448933 
L 99.2059 34.403646 
L 100.561454 34.808973 
L 104.738001 37.301204 
L 105.387308 37.551744 
L 106.139892 37.83162 
L 108.523002 39.569745 
L 109.451323 40.443359 
L 113.391843 44.743833 
L 114.331152 45.828676 
L 116.023589 48.214881 
L 120.051711 54.293933 
L 126.381585 65.294036 
L 128.108711 68.60454 
L 135.924808 83.928839 
L 147.167882 105.95014 
L 151.004452 113.076461 
L 156.0925 121.775484 
L 161.091981 129.150132 
L 164.488759 133.698771 
L 165.854929 135.398417 
L 172.304351 143.251982 
L 175.436443 146.82828 
L 180.258358 152.054854 
L 183.344722 154.889622 
L 188.582146 159.427787 
L 193.021321 162.890498 
L 194.864284 164.444062 
L 196.753953 165.730087 
L 202.489202 169.413998 
L 206.242701 171.365402 
L 210.365271 173.519992 
L 221.45576 177.945367 
L 226.648019 179.52858 
L 227.51942 179.773491 
L 230.914097 180.468184 
L 232.638196 180.881937 
L 234.70973 181.147885 
L 238.482851 181.518154 
L 239.632523 181.392327 
L 240.714198 181.404621 
L 241.049563 181.412926 
L 241.359802 181.396958 
L 241.80187 181.189446 
L 242.082767 180.900514 
L 241.873142 180.986609 
L 242.158162 180.647636 
L 242.178775 180.662915 
L 242.323616 180.654762 
L 242.644699 180.534888 
L 243.514744 181.066621 
L 243.745899 181.024945 
L 243.740743 181.029935 
" style="fill:none;stroke:#808080;stroke-linecap:square;stroke-width:1.5;"/>
   </g>
   <g id="line2d_26">
    <path clip-path="url(#p696416050f)" d="M 97.485416 33.332734 
L 99.790878 33.409782 
L 102.109287 33.879417 
L 104.731208 34.532656 
L 106.404044 35.190289 
L 107.984628 36.033579 
L 109.466376 37.035743 
L 113.649405 40.355349 
L 115.574108 42.181965 
L 117.132266 43.945724 
L 118.702949 46.062975 
L 122.514501 51.611074 
L 126.95834 58.826642 
L 130.72123 65.414576 
L 134.937786 73.404692 
L 143.864421 91.091986 
L 152.890369 108.701654 
L 157.755076 117.669652 
L 160.280358 121.940946 
L 163.431604 126.851286 
L 166.299201 130.916169 
L 169.6504 135.359788 
L 175.366576 142.438209 
L 180.714647 148.691097 
L 185.317384 153.656424 
L 188.980256 157.082718 
L 192.315567 159.978455 
L 197.914449 164.356454 
L 202.537917 167.586724 
L 206.278062 170.019189 
L 209.92688 172.038296 
L 214.21487 174.1382 
L 220.283021 176.684064 
L 223.406796 177.783743 
L 229.142793 179.50544 
L 232.064482 180.210353 
L 235.892497 180.863198 
L 240.504191 181.37092 
L 242.045701 181.262967 
L 243.545888 180.924692 
L 245.993896 180.063757 
L 246.604885 179.714255 
L 246.604885 179.714255 
" style="fill:none;stroke:#a80dfa;stroke-linecap:square;stroke-width:1.5;"/>
   </g>
   <g id="line2d_27">
    <path clip-path="url(#p696416050f)" d="M 97.485416 33.332734 
L 97.595294 33.370184 
L 98.520391 33.797989 
L 99.645146 34.199347 
L 103.089145 35.035095 
L 104.180945 35.244719 
L 104.956184 35.449666 
L 107.572293 36.349467 
L 109.767252 37.401807 
L 115.343741 39.691835 
L 117.779114 41.197871 
L 120.383259 42.8445 
L 122.337651 44.096573 
L 123.562994 45.041257 
L 125.782771 46.717009 
L 127.739249 48.03133 
L 129.428085 49.308669 
L 133.792759 53.014512 
L 135.024491 54.132604 
L 142.702912 61.34938 
L 154.085167 72.666765 
L 169.882546 89.122634 
L 181.891735 102.493192 
L 190.777018 112.837251 
L 204.5854 129.256942 
L 224.293526 153.20324 
L 237.881456 170.106009 
L 241.200198 174.291207 
L 241.224873 174.322829 
L 241.221032 174.316979 
" style="fill:none;stroke:#808080;stroke-linecap:square;stroke-width:1.5;"/>
   </g>
   <g id="line2d_28">
    <path clip-path="url(#p696416050f)" d="M 97.485416 33.332734 
L 100.353203 33.430009 
L 103.885989 34.023425 
L 106.526438 34.638948 
L 111.714557 36.175098 
L 115.616754 37.71102 
L 117.767551 38.75388 
L 122.692376 41.580125 
L 127.189523 44.481434 
L 130.343552 46.700801 
L 133.414386 49.05208 
L 138.792324 53.661795 
L 144.853721 59.286573 
L 154.982838 69.179842 
L 165.54617 79.877876 
L 174.912209 89.676339 
L 181.862771 97.275638 
L 189.052762 105.446062 
L 199.361739 117.515221 
L 214.064543 135.08704 
L 229.900458 154.375884 
L 242.67567 170.265956 
L 246.657754 175.390715 
L 246.657754 175.390715 
" style="fill:none;stroke:#fa4a0d;stroke-linecap:square;stroke-width:1.5;"/>
   </g>
   <g id="line2d_29">
    <path clip-path="url(#p696416050f)" d="M 98.892061 34.318163 
L 99.722742 34.529338 
L 100.557874 34.836501 
L 105.678838 37.684175 
L 106.195153 37.92857 
L 107.933225 39.147664 
L 109.414905 40.461487 
L 113.040505 44.450107 
L 114.229763 45.741295 
L 115.253948 47.170434 
L 118.755016 52.206045 
L 121.445183 56.596975 
L 124.597392 61.95183 
L 132.992506 77.680863 
L 147.350619 105.507685 
L 151.323538 112.812236 
L 156.459388 121.579869 
L 160.974637 128.251249 
L 163.520285 131.746218 
L 164.584778 133.13119 
L 166.414292 135.33203 
L 174.852346 145.357793 
L 182.14207 153.053815 
L 188.75954 158.792372 
L 190.637997 160.196131 
L 194.066821 162.866847 
L 195.641819 164.113538 
L 197.774225 165.5348 
L 202.268658 168.435217 
L 204.126167 169.396743 
L 207.272604 171.136258 
L 210.778426 172.983639 
L 214.782337 174.61276 
L 217.355658 175.686138 
L 219.566241 176.745208 
L 221.401755 177.359598 
L 223.926431 178.107991 
L 227.698728 179.16136 
L 230.842896 179.494355 
L 232.013425 179.644799 
L 234.156942 179.925561 
L 237.478069 180.271721 
L 239.473763 180.874623 
L 240.648428 181.044696 
L 241.116092 180.945531 
L 242.626944 180.353071 
L 242.866795 180.284823 
L 242.961369 180.307417 
L 242.716906 180.187143 
L 242.725512 180.148012 
L 242.832434 179.417246 
L 242.832434 179.417246 
" style="fill:none;stroke:#808080;stroke-linecap:square;stroke-width:1.5;"/>
   </g>
   <g id="line2d_30">
    <path clip-path="url(#p696416050f)" d="M 97.485416 33.332734 
L 99.51948 33.410004 
L 101.576931 33.82653 
L 104.486434 34.563306 
L 106.151017 35.233527 
L 107.983431 36.24611 
L 109.440124 37.280284 
L 113.806907 40.830292 
L 115.687691 42.701159 
L 117.382155 44.73371 
L 120.456383 49.01281 
L 123.030346 52.921344 
L 126.708547 58.893115 
L 130.348187 65.215197 
L 134.457888 72.932491 
L 143.821075 91.365463 
L 152.623086 108.453926 
L 157.779152 117.925942 
L 160.304237 122.193539 
L 163.45377 127.111631 
L 166.323131 131.176213 
L 169.319639 135.150619 
L 175.232727 142.447262 
L 180.593044 148.691117 
L 185.21117 153.644614 
L 188.890109 157.055241 
L 192.012219 159.7508 
L 197.403462 163.915715 
L 201.545333 166.799612 
L 206.279609 169.885752 
L 210.442161 172.206521 
L 214.460002 174.175164 
L 220.517162 176.742014 
L 224.195669 178.028567 
L 230.236571 179.844805 
L 232.611198 180.298211 
L 236.115291 180.710921 
L 240.269568 180.978716 
L 241.97065 180.832553 
L 243.782823 180.437073 
L 246.060189 179.676471 
L 246.384721 179.500718 
L 246.374466 179.510719 
" style="fill:none;stroke:#faa30d;stroke-linecap:square;stroke-width:1.5;"/>
   </g>
   <g id="line2d_31">
    <path clip-path="url(#p696416050f)" d="M 98.554135 34.194457 
L 99.255896 34.632136 
L 99.808596 34.896611 
L 101.752296 36.674051 
L 103.35411 38.288829 
L 107.051346 42.409122 
L 107.43126 43.193693 
L 108.725963 46.863407 
L 109.503321 49.312907 
L 110.006854 50.835226 
L 110.635251 53.256816 
L 111.346877 56.352508 
L 112.631555 61.758741 
L 114.365224 71.747491 
L 116.721789 85.303519 
L 117.272441 88.043291 
L 120.973473 104.365185 
L 122.306464 109.241394 
L 123.237789 111.777291 
L 126.332351 119.540388 
L 129.911144 127.462593 
L 131.66018 130.656698 
L 133.057076 133.041262 
L 134.292645 134.796794 
L 137.301543 139.201129 
L 138.914056 141.416247 
L 141.547048 144.476285 
L 146.002673 149.648877 
L 147.687118 151.438148 
L 149.974994 153.74283 
L 151.684325 155.147684 
L 154.013236 157.156931 
L 156.468885 159.289143 
L 161.152494 162.598921 
L 163.55422 164.345346 
L 165.162888 165.546478 
L 166.871601 166.556355 
L 169.541121 168.066518 
L 172.91133 169.8717 
L 175.654382 170.993562 
L 179.703379 172.83059 
L 180.8949 173.341342 
L 187.1811 175.433494 
L 188.981373 176.166449 
L 191.180427 176.913651 
L 193.289994 177.389532 
L 199.213143 178.728233 
L 203.452477 179.353714 
L 206.762689 179.891825 
L 218.812733 180.693624 
L 225.739175 180.47478 
L 228.276101 180.234054 
L 231.789168 180.025003 
L 235.92138 179.647406 
L 244.853384 177.993194 
L 245.825209 177.455591 
L 245.82369 177.455849 
" style="fill:none;stroke:#808080;stroke-linecap:square;stroke-width:1.5;"/>
   </g>
   <g id="line2d_32">
    <path clip-path="url(#p696416050f)" d="M 97.485416 33.332734 
L 99.869567 33.430832 
L 101.872203 33.927537 
L 104.157881 34.652944 
L 105.481067 35.342004 
L 106.931159 36.373752 
L 107.994721 37.395348 
L 109.090352 38.770909 
L 110.001626 40.287112 
L 110.815034 42.134062 
L 113.093317 48.409553 
L 114.679505 53.704603 
L 115.832753 58.474277 
L 116.7327 63.306554 
L 118.102219 71.577959 
L 120.593285 86.397063 
L 122.697101 96.888658 
L 124.762753 105.914243 
L 126.03667 110.670835 
L 127.646142 115.327228 
L 129.238807 119.370154 
L 132.21634 125.994695 
L 135.036701 131.436417 
L 136.759974 134.471338 
L 139.164878 138.133842 
L 141.74983 141.681198 
L 145.642042 146.459118 
L 149.53416 150.863676 
L 153.399973 154.910691 
L 156.265853 157.463611 
L 159.705473 160.261237 
L 163.549171 163.04831 
L 167.743708 165.858323 
L 172.366279 168.569834 
L 175.778467 170.418505 
L 179.85269 172.283107 
L 184.305076 174.077493 
L 191.085296 176.427726 
L 195.142152 177.526377 
L 201.582511 179.031329 
L 206.328348 179.811454 
L 210.806876 180.322803 
L 217.712693 180.775359 
L 223.13405 180.833129 
L 229.157914 180.695304 
L 235.158779 180.244615 
L 238.667051 179.756094 
L 243.627773 178.821448 
L 245.643263 178.32106 
L 245.689933 178.304827 
L 245.658082 178.317195 
" style="fill:none;stroke:#0dfa2c;stroke-linecap:square;stroke-width:1.5;"/>
   </g>
   <g id="patch_3">
    <path d="M 90 189 
L 90 25.92 
" style="fill:none;stroke:#000000;stroke-linecap:square;stroke-linejoin:miter;stroke-width:0.8;"/>
   </g>
   <g id="patch_4">
    <path d="M 254.117647 189 
L 254.117647 25.92 
" style="fill:none;stroke:#000000;stroke-linecap:square;stroke-linejoin:miter;stroke-width:0.8;"/>
   </g>
   <g id="patch_5">
    <path d="M 90 189 
L 254.117647 189 
" style="fill:none;stroke:#000000;stroke-linecap:square;stroke-linejoin:miter;stroke-width:0.8;"/>
   </g>
   <g id="patch_6">
    <path d="M 90 25.92 
L 254.117647 25.92 
" style="fill:none;stroke:#000000;stroke-linecap:square;stroke-linejoin:miter;stroke-width:0.8;"/>
   </g>
  </g>
  <g id="axes_2">
   <g id="patch_7">
    <path d="M 286.941176 189 
L 451.058824 189 
L 451.058824 25.92 
L 286.941176 25.92 
z
" style="fill:#ffffff;"/>
   </g>
   <g id="matplotlib.axis_3">
    <g id="xtick_6">
     <g id="line2d_33">
      <path clip-path="url(#pb0151f487e)" d="M 294.41991 189 
L 294.41991 25.92 
" style="fill:none;stroke:#b0b0b0;stroke-linecap:square;stroke-width:0.8;"/>
     </g>
     <g id="line2d_34">
      <g>
       <use style="stroke:#000000;stroke-width:0.8;" x="294.41991" xlink:href="#m651e623e49" y="189"/>
      </g>
     </g>
     <g id="text_12">
      <!-- 0 -->
      <g transform="translate(291.23866 203.598437)scale(0.1 -0.1)">
       <use xlink:href="#DejaVuSans-48"/>
      </g>
     </g>
    </g>
    <g id="xtick_7">
     <g id="line2d_35">
      <path clip-path="url(#pb0151f487e)" d="M 352.534586 189 
L 352.534586 25.92 
" style="fill:none;stroke:#b0b0b0;stroke-linecap:square;stroke-width:0.8;"/>
     </g>
     <g id="line2d_36">
      <g>
       <use style="stroke:#000000;stroke-width:0.8;" x="352.534586" xlink:href="#m651e623e49" y="189"/>
      </g>
     </g>
     <g id="text_13">
      <!-- 5 -->
      <g transform="translate(349.353336 203.598437)scale(0.1 -0.1)">
       <use xlink:href="#DejaVuSans-53"/>
      </g>
     </g>
    </g>
    <g id="xtick_8">
     <g id="line2d_37">
      <path clip-path="url(#pb0151f487e)" d="M 410.649262 189 
L 410.649262 25.92 
" style="fill:none;stroke:#b0b0b0;stroke-linecap:square;stroke-width:0.8;"/>
     </g>
     <g id="line2d_38">
      <g>
       <use style="stroke:#000000;stroke-width:0.8;" x="410.649262" xlink:href="#m651e623e49" y="189"/>
      </g>
     </g>
     <g id="text_14">
      <!-- 10 -->
      <g transform="translate(404.286762 203.598437)scale(0.1 -0.1)">
       <use xlink:href="#DejaVuSans-49"/>
       <use x="63.623047" xlink:href="#DejaVuSans-48"/>
      </g>
     </g>
    </g>
   </g>
   <g id="matplotlib.axis_4">
    <g id="ytick_7">
     <g id="line2d_39">
      <path clip-path="url(#pb0151f487e)" d="M 286.941176 174.646103 
L 451.058824 174.646103 
" style="fill:none;stroke:#b0b0b0;stroke-linecap:square;stroke-width:0.8;"/>
     </g>
     <g id="line2d_40">
      <g>
       <use style="stroke:#000000;stroke-width:0.8;" x="286.941176" xlink:href="#m1fdfee4e1a" y="174.646103"/>
      </g>
     </g>
     <g id="text_15">
      <!-- −12 -->
      <g transform="translate(258.836489 178.445322)scale(0.1 -0.1)">
       <use xlink:href="#DejaVuSans-8722"/>
       <use x="83.789062" xlink:href="#DejaVuSans-49"/>
       <use x="147.412109" xlink:href="#DejaVuSans-50"/>
      </g>
     </g>
    </g>
    <g id="ytick_8">
     <g id="line2d_41">
      <path clip-path="url(#pb0151f487e)" d="M 286.941176 151.093875 
L 451.058824 151.093875 
" style="fill:none;stroke:#b0b0b0;stroke-linecap:square;stroke-width:0.8;"/>
     </g>
     <g id="line2d_42">
      <g>
       <use style="stroke:#000000;stroke-width:0.8;" x="286.941176" xlink:href="#m1fdfee4e1a" y="151.093875"/>
      </g>
     </g>
     <g id="text_16">
      <!-- −10 -->
      <g transform="translate(258.836489 154.893094)scale(0.1 -0.1)">
       <use xlink:href="#DejaVuSans-8722"/>
       <use x="83.789062" xlink:href="#DejaVuSans-49"/>
       <use x="147.412109" xlink:href="#DejaVuSans-48"/>
      </g>
     </g>
    </g>
    <g id="ytick_9">
     <g id="line2d_43">
      <path clip-path="url(#pb0151f487e)" d="M 286.941176 127.541647 
L 451.058824 127.541647 
" style="fill:none;stroke:#b0b0b0;stroke-linecap:square;stroke-width:0.8;"/>
     </g>
     <g id="line2d_44">
      <g>
       <use style="stroke:#000000;stroke-width:0.8;" x="286.941176" xlink:href="#m1fdfee4e1a" y="127.541647"/>
      </g>
     </g>
     <g id="text_17">
      <!-- −8 -->
      <g transform="translate(265.198989 131.340866)scale(0.1 -0.1)">
       <use xlink:href="#DejaVuSans-8722"/>
       <use x="83.789062" xlink:href="#DejaVuSans-56"/>
      </g>
     </g>
    </g>
    <g id="ytick_10">
     <g id="line2d_45">
      <path clip-path="url(#pb0151f487e)" d="M 286.941176 103.98942 
L 451.058824 103.98942 
" style="fill:none;stroke:#b0b0b0;stroke-linecap:square;stroke-width:0.8;"/>
     </g>
     <g id="line2d_46">
      <g>
       <use style="stroke:#000000;stroke-width:0.8;" x="286.941176" xlink:href="#m1fdfee4e1a" y="103.98942"/>
      </g>
     </g>
     <g id="text_18">
      <!-- −6 -->
      <g transform="translate(265.198989 107.788638)scale(0.1 -0.1)">
       <use xlink:href="#DejaVuSans-8722"/>
       <use x="83.789062" xlink:href="#DejaVuSans-54"/>
      </g>
     </g>
    </g>
    <g id="ytick_11">
     <g id="line2d_47">
      <path clip-path="url(#pb0151f487e)" d="M 286.941176 80.437192 
L 451.058824 80.437192 
" style="fill:none;stroke:#b0b0b0;stroke-linecap:square;stroke-width:0.8;"/>
     </g>
     <g id="line2d_48">
      <g>
       <use style="stroke:#000000;stroke-width:0.8;" x="286.941176" xlink:href="#m1fdfee4e1a" y="80.437192"/>
      </g>
     </g>
     <g id="text_19">
      <!-- −4 -->
      <g transform="translate(265.198989 84.236411)scale(0.1 -0.1)">
       <use xlink:href="#DejaVuSans-8722"/>
       <use x="83.789062" xlink:href="#DejaVuSans-52"/>
      </g>
     </g>
    </g>
    <g id="ytick_12">
     <g id="line2d_49">
      <path clip-path="url(#pb0151f487e)" d="M 286.941176 56.884964 
L 451.058824 56.884964 
" style="fill:none;stroke:#b0b0b0;stroke-linecap:square;stroke-width:0.8;"/>
     </g>
     <g id="line2d_50">
      <g>
       <use style="stroke:#000000;stroke-width:0.8;" x="286.941176" xlink:href="#m1fdfee4e1a" y="56.884964"/>
      </g>
     </g>
     <g id="text_20">
      <!-- −2 -->
      <g transform="translate(265.198989 60.684183)scale(0.1 -0.1)">
       <use xlink:href="#DejaVuSans-8722"/>
       <use x="83.789062" xlink:href="#DejaVuSans-50"/>
      </g>
     </g>
    </g>
    <g id="ytick_13">
     <g id="line2d_51">
      <path clip-path="url(#pb0151f487e)" d="M 286.941176 33.332736 
L 451.058824 33.332736 
" style="fill:none;stroke:#b0b0b0;stroke-linecap:square;stroke-width:0.8;"/>
     </g>
     <g id="line2d_52">
      <g>
       <use style="stroke:#000000;stroke-width:0.8;" x="286.941176" xlink:href="#m1fdfee4e1a" y="33.332736"/>
      </g>
     </g>
     <g id="text_21">
      <!-- 0 -->
      <g transform="translate(273.578676 37.131955)scale(0.1 -0.1)">
       <use xlink:href="#DejaVuSans-48"/>
      </g>
     </g>
    </g>
   </g>
   <g id="line2d_53">
    <path clip-path="url(#pb0151f487e)" d="M 294.420456 33.332988 
L 294.533112 33.332973 
L 443.59893 33.333968 
L 443.59893 33.333968 
" style="fill:none;stroke:#808080;stroke-linecap:square;stroke-width:1.5;"/>
   </g>
   <g id="line2d_54">
    <path clip-path="url(#pb0151f487e)" d="M 294.41991 33.332736 
L 294.419906 33.332736 
L 435.123721 33.356305 
L 435.123721 33.356305 
" style="fill:none;stroke:#0b64d4;stroke-linecap:square;stroke-width:1.5;"/>
   </g>
   <g id="line2d_55">
    <path clip-path="url(#pb0151f487e)" d="M 294.420449 33.33302 
L 294.417683 33.333059 
L 294.531767 33.334217 
L 295.3258 33.460468 
L 297.383435 33.773622 
L 302.199409 34.333922 
L 308.519283 35.379714 
L 319.350983 37.490134 
L 358.919155 45.524802 
L 440.783331 62.179242 
L 440.783331 62.179242 
" style="fill:none;stroke:#808080;stroke-linecap:square;stroke-width:1.5;"/>
   </g>
   <g id="line2d_56">
    <path clip-path="url(#pb0151f487e)" d="M 294.41991 33.332736 
L 297.208733 33.436475 
L 301.837648 33.956601 
L 308.9578 35.123452 
L 319.693405 37.21504 
L 360.276422 45.473778 
L 442.076169 62.15816 
L 442.076169 62.15816 
" style="fill:none;stroke:#a80dfa;stroke-linecap:square;stroke-width:1.5;"/>
   </g>
   <g id="line2d_57">
    <path clip-path="url(#pb0151f487e)" d="M 294.512994 33.36178 
L 295.601766 33.835334 
L 296.462821 34.026002 
L 298.2576 34.425342 
L 299.221543 34.583491 
L 300.076991 34.685822 
L 301.793571 35.168119 
L 303.434477 35.755672 
L 314.071403 39.988922 
L 324.568816 44.921989 
L 352.411337 58.602188 
L 440.597519 102.078553 
L 440.597519 102.078553 
" style="fill:none;stroke:#808080;stroke-linecap:square;stroke-width:1.5;"/>
   </g>
   <g id="line2d_58">
    <path clip-path="url(#pb0151f487e)" d="M 294.41991 33.332736 
L 294.419907 33.332736 
L 296.411738 33.418117 
L 300.079169 34.035378 
L 302.334912 34.625378 
L 307.004429 36.077304 
L 311.583218 37.8162 
L 316.51292 39.919841 
L 324.743454 43.779331 
L 339.195441 50.841424 
L 428.250153 94.72204 
L 432.221947 96.679317 
L 432.221947 96.679317 
" style="fill:none;stroke:#fa4a0d;stroke-linecap:square;stroke-width:1.5;"/>
   </g>
   <g id="line2d_59">
    <path clip-path="url(#pb0151f487e)" d="M 294.406296 33.335284 
L 294.401208 33.34098 
L 294.503238 33.424023 
L 295.697566 34.140395 
L 297.321019 34.665218 
L 300.083724 35.888846 
L 300.742765 36.142461 
L 302.560444 37.231213 
L 304.964204 38.751919 
L 307.210707 40.170792 
L 310.446478 42.440815 
L 317.7064 47.823308 
L 324.894201 53.650691 
L 339.210898 65.572895 
L 438.176594 148.496982 
L 438.176594 148.496982 
" style="fill:none;stroke:#808080;stroke-linecap:square;stroke-width:1.5;"/>
   </g>
   <g id="line2d_60">
    <path clip-path="url(#pb0151f487e)" d="M 294.41991 33.332736 
L 294.419901 33.332736 
L 296.158474 33.423538 
L 299.330759 34.111402 
L 301.098387 34.692038 
L 303.017617 35.564549 
L 305.655007 37.057812 
L 309.038477 39.136723 
L 314.831518 43.085527 
L 320.446622 47.278697 
L 326.834409 52.397738 
L 340.85248 64.054216 
L 418.94229 129.514919 
L 428.79241 137.773286 
L 428.79241 137.773286 
" style="fill:none;stroke:#faa30d;stroke-linecap:square;stroke-width:1.5;"/>
   </g>
   <g id="line2d_61">
    <path clip-path="url(#pb0151f487e)" d="M 294.42045 33.333014 
L 294.421356 33.332911 
L 294.517632 33.435495 
L 296.232337 34.523693 
L 296.940296 35.10516 
L 299.399565 37.349701 
L 300.377051 38.149907 
L 300.974656 38.655483 
L 302.199137 39.986572 
L 303.371941 41.460883 
L 306.486383 45.118753 
L 309.467399 49.393003 
L 313.847148 55.928814 
L 332.556592 85.761665 
L 391.983753 181.587273 
L 391.983753 181.587273 
" style="fill:none;stroke:#808080;stroke-linecap:square;stroke-width:1.5;"/>
   </g>
   <g id="line2d_62">
    <path clip-path="url(#pb0151f487e)" d="M 294.41991 33.332736 
L 294.419904 33.332736 
L 296.129469 33.429081 
L 297.931878 33.896995 
L 299.694548 34.493363 
L 301.125316 35.272989 
L 302.446359 36.235606 
L 304.176334 37.819921 
L 306.79531 40.498536 
L 309.360142 43.544144 
L 313.173394 48.895133 
L 318.53154 56.889565 
L 324.951075 66.997089 
L 338.781654 89.35332 
L 390.371739 173.056489 
L 390.371739 173.056489 
" style="fill:none;stroke:#0dfa2c;stroke-linecap:square;stroke-width:1.5;"/>
   </g>
   <g id="line2d_63">
    <path clip-path="url(#pb0151f487e)" d="M 294.41991 33.332736 
L 309.917157 49.034221 
L 325.414404 64.735707 
L 340.911651 80.437192 
L 356.408897 96.138677 
L 371.906144 111.840162 
L 387.403391 127.541647 
L 402.900638 143.243132 
L 418.397885 158.944618 
L 433.895132 174.646103 
" style="fill:none;stroke:#000000;stroke-linecap:square;stroke-width:1.5;"/>
   </g>
   <g id="patch_8">
    <path d="M 286.941176 189 
L 286.941176 25.92 
" style="fill:none;stroke:#000000;stroke-linecap:square;stroke-linejoin:miter;stroke-width:0.8;"/>
   </g>
   <g id="patch_9">
    <path d="M 451.058824 189 
L 451.058824 25.92 
" style="fill:none;stroke:#000000;stroke-linecap:square;stroke-linejoin:miter;stroke-width:0.8;"/>
   </g>
   <g id="patch_10">
    <path d="M 286.941176 189 
L 451.058824 189 
" style="fill:none;stroke:#000000;stroke-linecap:square;stroke-linejoin:miter;stroke-width:0.8;"/>
   </g>
   <g id="patch_11">
    <path d="M 286.941176 25.92 
L 451.058824 25.92 
" style="fill:none;stroke:#000000;stroke-linecap:square;stroke-linejoin:miter;stroke-width:0.8;"/>
   </g>
  </g>
  <g id="axes_3">
   <g id="patch_12">
    <path d="M 483.882353 189 
L 648 189 
L 648 25.92 
L 483.882353 25.92 
z
" style="fill:#ffffff;"/>
   </g>
   <g id="matplotlib.axis_5">
    <g id="xtick_9">
     <g id="line2d_64">
      <path clip-path="url(#p8926e360a9)" d="M 491.342246 189 
L 491.342246 25.92 
" style="fill:none;stroke:#b0b0b0;stroke-linecap:square;stroke-width:0.8;"/>
     </g>
     <g id="line2d_65">
      <g>
       <use style="stroke:#000000;stroke-width:0.8;" x="491.342246" xlink:href="#m651e623e49" y="189"/>
      </g>
     </g>
     <g id="text_22">
      <!-- 0 -->
      <g transform="translate(488.160996 203.598437)scale(0.1 -0.1)">
       <use xlink:href="#DejaVuSans-48"/>
      </g>
     </g>
    </g>
    <g id="xtick_10">
     <g id="line2d_66">
      <path clip-path="url(#p8926e360a9)" d="M 552.370903 189 
L 552.370903 25.92 
" style="fill:none;stroke:#b0b0b0;stroke-linecap:square;stroke-width:0.8;"/>
     </g>
     <g id="line2d_67">
      <g>
       <use style="stroke:#000000;stroke-width:0.8;" x="552.370903" xlink:href="#m651e623e49" y="189"/>
      </g>
     </g>
     <g id="text_23">
      <!-- 5 -->
      <g transform="translate(549.189653 203.598437)scale(0.1 -0.1)">
       <use xlink:href="#DejaVuSans-53"/>
      </g>
     </g>
    </g>
    <g id="xtick_11">
     <g id="line2d_68">
      <path clip-path="url(#p8926e360a9)" d="M 613.39956 189 
L 613.39956 25.92 
" style="fill:none;stroke:#b0b0b0;stroke-linecap:square;stroke-width:0.8;"/>
     </g>
     <g id="line2d_69">
      <g>
       <use style="stroke:#000000;stroke-width:0.8;" x="613.39956" xlink:href="#m651e623e49" y="189"/>
      </g>
     </g>
     <g id="text_24">
      <!-- 10 -->
      <g transform="translate(607.03706 203.598437)scale(0.1 -0.1)">
       <use xlink:href="#DejaVuSans-49"/>
       <use x="63.623047" xlink:href="#DejaVuSans-48"/>
      </g>
     </g>
    </g>
   </g>
   <g id="matplotlib.axis_6">
    <g id="ytick_14">
     <g id="line2d_70">
      <path clip-path="url(#p8926e360a9)" d="M 483.882353 176.474675 
L 648 176.474675 
" style="fill:none;stroke:#b0b0b0;stroke-linecap:square;stroke-width:0.8;"/>
     </g>
     <g id="line2d_71">
      <g>
       <use style="stroke:#000000;stroke-width:0.8;" x="483.882353" xlink:href="#m1fdfee4e1a" y="176.474675"/>
      </g>
     </g>
     <g id="text_25">
      <!-- −12 -->
      <g transform="translate(455.777665 180.273894)scale(0.1 -0.1)">
       <use xlink:href="#DejaVuSans-8722"/>
       <use x="83.789062" xlink:href="#DejaVuSans-49"/>
       <use x="147.412109" xlink:href="#DejaVuSans-50"/>
      </g>
     </g>
    </g>
    <g id="ytick_15">
     <g id="line2d_72">
      <path clip-path="url(#p8926e360a9)" d="M 483.882353 152.617698 
L 648 152.617698 
" style="fill:none;stroke:#b0b0b0;stroke-linecap:square;stroke-width:0.8;"/>
     </g>
     <g id="line2d_73">
      <g>
       <use style="stroke:#000000;stroke-width:0.8;" x="483.882353" xlink:href="#m1fdfee4e1a" y="152.617698"/>
      </g>
     </g>
     <g id="text_26">
      <!-- −10 -->
      <g transform="translate(455.777665 156.416916)scale(0.1 -0.1)">
       <use xlink:href="#DejaVuSans-8722"/>
       <use x="83.789062" xlink:href="#DejaVuSans-49"/>
       <use x="147.412109" xlink:href="#DejaVuSans-48"/>
      </g>
     </g>
    </g>
    <g id="ytick_16">
     <g id="line2d_74">
      <path clip-path="url(#p8926e360a9)" d="M 483.882353 128.760721 
L 648 128.760721 
" style="fill:none;stroke:#b0b0b0;stroke-linecap:square;stroke-width:0.8;"/>
     </g>
     <g id="line2d_75">
      <g>
       <use style="stroke:#000000;stroke-width:0.8;" x="483.882353" xlink:href="#m1fdfee4e1a" y="128.760721"/>
      </g>
     </g>
     <g id="text_27">
      <!-- −8 -->
      <g transform="translate(462.140165 132.559939)scale(0.1 -0.1)">
       <use xlink:href="#DejaVuSans-8722"/>
       <use x="83.789062" xlink:href="#DejaVuSans-56"/>
      </g>
     </g>
    </g>
    <g id="ytick_17">
     <g id="line2d_76">
      <path clip-path="url(#p8926e360a9)" d="M 483.882353 104.903744 
L 648 104.903744 
" style="fill:none;stroke:#b0b0b0;stroke-linecap:square;stroke-width:0.8;"/>
     </g>
     <g id="line2d_77">
      <g>
       <use style="stroke:#000000;stroke-width:0.8;" x="483.882353" xlink:href="#m1fdfee4e1a" y="104.903744"/>
      </g>
     </g>
     <g id="text_28">
      <!-- −6 -->
      <g transform="translate(462.140165 108.702962)scale(0.1 -0.1)">
       <use xlink:href="#DejaVuSans-8722"/>
       <use x="83.789062" xlink:href="#DejaVuSans-54"/>
      </g>
     </g>
    </g>
    <g id="ytick_18">
     <g id="line2d_78">
      <path clip-path="url(#p8926e360a9)" d="M 483.882353 81.046767 
L 648 81.046767 
" style="fill:none;stroke:#b0b0b0;stroke-linecap:square;stroke-width:0.8;"/>
     </g>
     <g id="line2d_79">
      <g>
       <use style="stroke:#000000;stroke-width:0.8;" x="483.882353" xlink:href="#m1fdfee4e1a" y="81.046767"/>
      </g>
     </g>
     <g id="text_29">
      <!-- −4 -->
      <g transform="translate(462.140165 84.845985)scale(0.1 -0.1)">
       <use xlink:href="#DejaVuSans-8722"/>
       <use x="83.789062" xlink:href="#DejaVuSans-52"/>
      </g>
     </g>
    </g>
    <g id="ytick_19">
     <g id="line2d_80">
      <path clip-path="url(#p8926e360a9)" d="M 483.882353 57.18979 
L 648 57.18979 
" style="fill:none;stroke:#b0b0b0;stroke-linecap:square;stroke-width:0.8;"/>
     </g>
     <g id="line2d_81">
      <g>
       <use style="stroke:#000000;stroke-width:0.8;" x="483.882353" xlink:href="#m1fdfee4e1a" y="57.18979"/>
      </g>
     </g>
     <g id="text_30">
      <!-- −2 -->
      <g transform="translate(462.140165 60.989008)scale(0.1 -0.1)">
       <use xlink:href="#DejaVuSans-8722"/>
       <use x="83.789062" xlink:href="#DejaVuSans-50"/>
      </g>
     </g>
    </g>
    <g id="ytick_20">
     <g id="line2d_82">
      <path clip-path="url(#p8926e360a9)" d="M 483.882353 33.332813 
L 648 33.332813 
" style="fill:none;stroke:#b0b0b0;stroke-linecap:square;stroke-width:0.8;"/>
     </g>
     <g id="line2d_83">
      <g>
       <use style="stroke:#000000;stroke-width:0.8;" x="483.882353" xlink:href="#m1fdfee4e1a" y="33.332813"/>
      </g>
     </g>
     <g id="text_31">
      <!-- 0 -->
      <g transform="translate(470.519853 37.132031)scale(0.1 -0.1)">
       <use xlink:href="#DejaVuSans-48"/>
      </g>
     </g>
    </g>
   </g>
   <g id="line2d_84">
    <path clip-path="url(#p8926e360a9)" d="M 491.342246 33.332813 
L 491.342748 33.364771 
L 491.452427 33.3331 
L 626.918367 33.334553 
L 626.918367 33.334553 
" style="fill:none;stroke:#808080;stroke-linecap:square;stroke-width:1.5;"/>
   </g>
   <g id="line2d_85">
    <path clip-path="url(#p8926e360a9)" d="M 491.342246 33.332813 
L 622.933053 33.360684 
L 622.933053 33.360684 
" style="fill:none;stroke:#0b64d4;stroke-linecap:square;stroke-width:1.5;"/>
   </g>
   <g id="line2d_86">
    <path clip-path="url(#p8926e360a9)" d="M 491.342816 33.333081 
L 491.527318 33.333071 
L 506.157316 33.44366 
L 513.985553 33.739605 
L 520.902955 34.21563 
L 526.968515 34.889956 
L 536.142238 36.336693 
L 544.413936 37.99587 
L 556.678404 41.070417 
L 560.082083 42.107469 
L 563.902108 43.286444 
L 571.181248 45.872828 
L 585.093153 51.520085 
L 590.243444 53.770557 
L 600.169153 58.26468 
L 617.564033 67.042916 
L 627.354358 72.517582 
L 640.540107 80.361921 
L 640.540107 80.361921 
" style="fill:none;stroke:#808080;stroke-linecap:square;stroke-width:1.5;"/>
   </g>
   <g id="line2d_87">
    <path clip-path="url(#p8926e360a9)" d="M 491.342246 33.332813 
L 508.675674 33.437837 
L 516.244208 33.72025 
L 522.086536 34.190547 
L 526.450156 34.713458 
L 532.016859 35.533902 
L 539.452376 36.850134 
L 546.865876 38.353127 
L 554.705186 40.188015 
L 560.578825 41.817334 
L 565.45828 43.363539 
L 572.108623 45.735428 
L 579.362535 48.576297 
L 588.114274 52.243018 
L 599.913873 57.443333 
L 608.727957 61.56349 
L 616.539767 65.502745 
L 623.817625 69.415589 
L 632.251121 74.233161 
L 639.349718 78.438619 
L 639.349718 78.438619 
" style="fill:none;stroke:#a80dfa;stroke-linecap:square;stroke-width:1.5;"/>
   </g>
   <g id="line2d_88">
    <path clip-path="url(#p8926e360a9)" d="M 491.352806 33.33309 
L 503.439974 33.442559 
L 505.986944 33.611202 
L 509.617359 33.768384 
L 511.524719 33.962991 
L 518.699874 34.893604 
L 523.211695 35.841505 
L 526.882542 36.778377 
L 533.055637 38.766473 
L 538.363257 40.771944 
L 543.110067 43.065907 
L 545.855941 44.607239 
L 548.992527 46.430345 
L 550.649933 47.561869 
L 552.659622 48.913325 
L 554.141271 49.811499 
L 555.564307 50.812861 
L 562.580801 56.520213 
L 564.63697 58.283933 
L 570.436619 63.726554 
L 572.301971 65.666676 
L 577.266996 70.944716 
L 581.289529 75.623194 
L 587.165746 83.081992 
L 590.300543 87.349707 
L 594.067247 92.662896 
L 598.171814 98.683871 
L 603.990681 107.592771 
L 609.694033 116.66447 
L 619.330253 133.373207 
L 624.209704 142.719579 
L 633.956904 162.880116 
L 639.11167 174.0914 
L 639.11167 174.0914 
" style="fill:none;stroke:#808080;stroke-linecap:square;stroke-width:1.5;"/>
   </g>
   <g id="line2d_89">
    <path clip-path="url(#p8926e360a9)" d="M 491.342246 33.332813 
L 504.370574 33.443504 
L 509.00552 33.653339 
L 512.898336 34.010256 
L 517.7352 34.657068 
L 524.916483 36.100116 
L 530.362881 37.43851 
L 534.084122 38.622085 
L 538.635406 40.342553 
L 544.591277 43.144621 
L 550.147255 46.117482 
L 554.08037 48.53212 
L 558.075076 51.293772 
L 563.181685 55.354084 
L 568.993086 60.457538 
L 574.27499 65.425642 
L 577.509928 68.674731 
L 581.762867 73.280042 
L 585.329465 77.524307 
L 588.605276 81.686019 
L 592.63846 87.082586 
L 597.241545 93.546118 
L 602.245892 100.898219 
L 608.685903 110.754743 
L 614.574533 120.117909 
L 619.596159 128.573877 
L 623.322727 135.288219 
L 627.98378 144.214776 
L 632.971982 154.318826 
L 638.306905 165.578875 
L 640.215523 169.711566 
L 640.215523 169.711566 
" style="fill:none;stroke:#fa4a0d;stroke-linecap:square;stroke-width:1.5;"/>
   </g>
   <g id="line2d_90">
    <path clip-path="url(#p8926e360a9)" d="M 492.175813 33.333487 
L 501.682701 33.48872 
L 504.92918 33.674051 
L 507.333205 33.926865 
L 510.224785 34.087439 
L 511.311587 34.272074 
L 514.709061 35.019877 
L 520.176744 36.527635 
L 522.919561 37.5192 
L 524.501568 38.009438 
L 525.468968 38.480698 
L 528.434685 40.15251 
L 529.617393 40.736144 
L 530.653278 41.324597 
L 532.937416 42.906227 
L 535.418328 44.783085 
L 536.505725 45.624688 
L 537.262837 46.386342 
L 538.438097 47.466864 
L 542.438039 51.147095 
L 544.554724 53.583356 
L 547.593474 57.195047 
L 549.443734 59.700275 
L 550.502525 61.138597 
L 552.020613 63.610551 
L 554.890639 68.319925 
L 557.810285 73.894153 
L 560.471605 79.642247 
L 562.554548 84.61812 
L 563.604236 87.469718 
L 565.451694 92.631162 
L 567.268388 98.318728 
L 569.345756 105.877299 
L 572.846777 120.895795 
L 577.132969 143.478202 
L 579.306083 156.691632 
L 581.242995 169.841564 
L 582.496719 179.4392 
L 582.739998 181.377923 
L 582.739998 181.377923 
" style="fill:none;stroke:#808080;stroke-linecap:square;stroke-width:1.5;"/>
   </g>
   <g id="line2d_91">
    <path clip-path="url(#p8926e360a9)" d="M 491.342246 33.332813 
L 502.073332 33.439415 
L 506.95477 33.717836 
L 510.837502 34.140763 
L 515.867352 35.11148 
L 520.847691 36.345364 
L 523.402262 37.148882 
L 525.660632 38.063696 
L 528.684223 39.618225 
L 531.862451 41.39963 
L 536.328292 44.31542 
L 538.826774 46.239273 
L 541.577395 48.603418 
L 544.045596 50.929852 
L 548.102843 55.376203 
L 551.643616 59.639988 
L 553.895002 62.764209 
L 556.233025 66.397632 
L 557.78453 69.105632 
L 560.67097 74.631084 
L 563.898892 81.586317 
L 566.143376 86.881549 
L 568.122042 92.01822 
L 570.191795 98.133138 
L 572.063015 104.562171 
L 573.944701 111.977869 
L 576.249334 122.246177 
L 578.173712 131.837945 
L 580.242775 143.112161 
L 582.519855 156.7731 
L 584.495004 169.75687 
L 586.099041 181.587273 
L 586.099041 181.587273 
" style="fill:none;stroke:#faa30d;stroke-linecap:square;stroke-width:1.5;"/>
   </g>
   <g id="line2d_92">
    <path clip-path="url(#p8926e360a9)" d="M 492.670032 33.338946 
L 500.842377 33.527851 
L 504.817191 33.863141 
L 506.443109 34.106819 
L 511.97934 34.900473 
L 513.864297 35.516985 
L 516.952168 36.619217 
L 517.867758 36.969795 
L 518.858656 37.500287 
L 519.596282 37.847302 
L 521.953743 39.108662 
L 523.238539 39.803022 
L 524.160986 40.226253 
L 525.812142 41.315009 
L 529.880858 44.668225 
L 530.821862 45.498015 
L 532.718122 47.755693 
L 534.27048 49.747085 
L 534.947058 50.569021 
L 535.898802 52.067328 
L 536.827199 53.649761 
L 539.592782 58.184869 
L 540.622709 60.59671 
L 542.753659 65.956332 
L 543.657254 68.581731 
L 544.13883 70.217908 
L 544.820329 73.086451 
L 546.243003 79.471997 
L 546.66489 81.592611 
L 547.0852 84.425962 
L 547.965152 91.123496 
L 548.473059 95.71564 
L 549.112843 102.86052 
L 549.594358 111.477004 
L 549.882187 120.129709 
L 549.930928 130.274669 
L 549.731388 158.151871 
L 549.478213 181.401309 
L 549.478213 181.401309 
" style="fill:none;stroke:#808080;stroke-linecap:square;stroke-width:1.5;"/>
   </g>
   <g id="line2d_93">
    <path clip-path="url(#p8926e360a9)" d="M 491.342246 33.332813 
L 500.989172 33.441254 
L 505.380358 33.752441 
L 510.215498 34.400936 
L 512.599212 34.976802 
L 516.561304 36.140624 
L 519.28909 37.209234 
L 522.372414 38.649026 
L 525.390889 40.221404 
L 528.461007 42.178052 
L 530.220706 43.460886 
L 532.620773 45.489991 
L 534.421311 47.436751 
L 537.090866 50.556893 
L 539.084316 53.271399 
L 540.658948 55.68386 
L 542.129331 58.172537 
L 544.085205 62.271485 
L 545.85431 66.467667 
L 547.116188 69.825889 
L 548.167248 73.258084 
L 549.388322 78.122154 
L 550.404715 83.521292 
L 551.116096 88.244602 
L 551.926455 94.638902 
L 552.753939 102.71153 
L 553.333641 110.330547 
L 553.710191 118.676373 
L 553.859716 127.027826 
L 553.844987 139.915976 
L 553.57946 164.252225 
L 553.45309 173.793663 
L 553.45309 173.793663 
" style="fill:none;stroke:#0dfa2c;stroke-linecap:square;stroke-width:1.5;"/>
   </g>
   <g id="line2d_94">
    <path clip-path="url(#p8926e360a9)" d="M 491.342246 33.332813 
L 506.260362 35.114723 
L 521.178478 40.460453 
L 536.096594 49.370003 
L 551.014711 61.843373 
L 565.932827 77.880563 
L 580.850943 97.481573 
L 595.769059 120.646403 
L 610.687175 147.375053 
L 625.605291 177.667524 
" style="fill:none;stroke:#000000;stroke-linecap:square;stroke-width:1.5;"/>
   </g>
   <g id="patch_13">
    <path d="M 483.882353 189 
L 483.882353 25.92 
" style="fill:none;stroke:#000000;stroke-linecap:square;stroke-linejoin:miter;stroke-width:0.8;"/>
   </g>
   <g id="patch_14">
    <path d="M 648 189 
L 648 25.92 
" style="fill:none;stroke:#000000;stroke-linecap:square;stroke-linejoin:miter;stroke-width:0.8;"/>
   </g>
   <g id="patch_15">
    <path d="M 483.882353 189 
L 648 189 
" style="fill:none;stroke:#000000;stroke-linecap:square;stroke-linejoin:miter;stroke-width:0.8;"/>
   </g>
   <g id="patch_16">
    <path d="M 483.882353 25.92 
L 648 25.92 
" style="fill:none;stroke:#000000;stroke-linecap:square;stroke-linejoin:miter;stroke-width:0.8;"/>
   </g>
  </g>
 </g>
 <defs>
  <clipPath id="p696416050f">
   <rect height="163.08" width="164.117647" x="90" y="25.92"/>
  </clipPath>
  <clipPath id="pb0151f487e">
   <rect height="163.08" width="164.117647" x="286.941176" y="25.92"/>
  </clipPath>
  <clipPath id="p8926e360a9">
   <rect height="163.08" width="164.117647" x="483.882353" y="25.92"/>
  </clipPath>
 </defs>
</svg>
