<?xml version="1.0" encoding="utf-8" standalone="no"?>
<!DOCTYPE svg PUBLIC "-//W3C//DTD SVG 1.1//EN"
  "http://www.w3.org/Graphics/SVG/1.1/DTD/svg11.dtd">
<!-- Created with matplotlib (https://matplotlib.org/) -->
<svg height="288pt" version="1.1" viewBox="0 0 432 288" width="432pt" xmlns="http://www.w3.org/2000/svg" xmlns:xlink="http://www.w3.org/1999/xlink">
 <defs>
  <style type="text/css">
*{stroke-linecap:butt;stroke-linejoin:round;}
  </style>
 </defs>
 <g id="figure_1">
  <g id="patch_1">
   <path d="M 0 288 
L 432 288 
L 432 0 
L 0 0 
z
" style="fill:#ffffff;"/>
  </g>
  <g id="axes_1">
   <g id="patch_2">
    <path d="M 54 252 
L 388.8 252 
L 388.8 34.56 
L 54 34.56 
z
" style="fill:#ffffff;"/>
   </g>
   <g id="matplotlib.axis_1">
    <g id="xtick_1">
     <g id="line2d_1">
      <path clip-path="url(#p9a168259e3)" d="M 69.218182 252 
L 69.218182 34.56 
" style="fill:none;stroke:#b0b0b0;stroke-linecap:square;stroke-width:0.8;"/>
     </g>
     <g id="line2d_2">
      <defs>
       <path d="M 0 0 
L 0 3.5 
" id="m86a728c163" style="stroke:#000000;stroke-width:0.8;"/>
      </defs>
      <g>
       <use style="stroke:#000000;stroke-width:0.8;" x="69.218182" xlink:href="#m86a728c163" y="252"/>
      </g>
     </g>
     <g id="text_1">
      <!-- 0.00 -->
      <defs>
       <path d="M 31.78125 66.40625 
Q 24.171875 66.40625 20.328125 58.90625 
Q 16.5 51.421875 16.5 36.375 
Q 16.5 21.390625 20.328125 13.890625 
Q 24.171875 6.390625 31.78125 6.390625 
Q 39.453125 6.390625 43.28125 13.890625 
Q 47.125 21.390625 47.125 36.375 
Q 47.125 51.421875 43.28125 58.90625 
Q 39.453125 66.40625 31.78125 66.40625 
z
M 31.78125 74.21875 
Q 44.046875 74.21875 50.515625 64.515625 
Q 56.984375 54.828125 56.984375 36.375 
Q 56.984375 17.96875 50.515625 8.265625 
Q 44.046875 -1.421875 31.78125 -1.421875 
Q 19.53125 -1.421875 13.0625 8.265625 
Q 6.59375 17.96875 6.59375 36.375 
Q 6.59375 54.828125 13.0625 64.515625 
Q 19.53125 74.21875 31.78125 74.21875 
z
" id="DejaVuSans-48"/>
       <path d="M 10.6875 12.40625 
L 21 12.40625 
L 21 0 
L 10.6875 0 
z
" id="DejaVuSans-46"/>
      </defs>
      <g transform="translate(58.085369 266.598437)scale(0.1 -0.1)">
       <use xlink:href="#DejaVuSans-48"/>
       <use x="63.623047" xlink:href="#DejaVuSans-46"/>
       <use x="95.410156" xlink:href="#DejaVuSans-48"/>
       <use x="159.033203" xlink:href="#DejaVuSans-48"/>
      </g>
     </g>
    </g>
    <g id="xtick_2">
     <g id="line2d_3">
      <path clip-path="url(#p9a168259e3)" d="M 107.951146 252 
L 107.951146 34.56 
" style="fill:none;stroke:#b0b0b0;stroke-linecap:square;stroke-width:0.8;"/>
     </g>
     <g id="line2d_4">
      <g>
       <use style="stroke:#000000;stroke-width:0.8;" x="107.951146" xlink:href="#m86a728c163" y="252"/>
      </g>
     </g>
     <g id="text_2">
      <!-- 0.25 -->
      <defs>
       <path d="M 19.1875 8.296875 
L 53.609375 8.296875 
L 53.609375 0 
L 7.328125 0 
L 7.328125 8.296875 
Q 12.9375 14.109375 22.625 23.890625 
Q 32.328125 33.6875 34.8125 36.53125 
Q 39.546875 41.84375 41.421875 45.53125 
Q 43.3125 49.21875 43.3125 52.78125 
Q 43.3125 58.59375 39.234375 62.25 
Q 35.15625 65.921875 28.609375 65.921875 
Q 23.96875 65.921875 18.8125 64.3125 
Q 13.671875 62.703125 7.8125 59.421875 
L 7.8125 69.390625 
Q 13.765625 71.78125 18.9375 73 
Q 24.125 74.21875 28.421875 74.21875 
Q 39.75 74.21875 46.484375 68.546875 
Q 53.21875 62.890625 53.21875 53.421875 
Q 53.21875 48.921875 51.53125 44.890625 
Q 49.859375 40.875 45.40625 35.40625 
Q 44.1875 33.984375 37.640625 27.21875 
Q 31.109375 20.453125 19.1875 8.296875 
z
" id="DejaVuSans-50"/>
       <path d="M 10.796875 72.90625 
L 49.515625 72.90625 
L 49.515625 64.59375 
L 19.828125 64.59375 
L 19.828125 46.734375 
Q 21.96875 47.46875 24.109375 47.828125 
Q 26.265625 48.1875 28.421875 48.1875 
Q 40.625 48.1875 47.75 41.5 
Q 54.890625 34.8125 54.890625 23.390625 
Q 54.890625 11.625 47.5625 5.09375 
Q 40.234375 -1.421875 26.90625 -1.421875 
Q 22.3125 -1.421875 17.546875 -0.640625 
Q 12.796875 0.140625 7.71875 1.703125 
L 7.71875 11.625 
Q 12.109375 9.234375 16.796875 8.0625 
Q 21.484375 6.890625 26.703125 6.890625 
Q 35.15625 6.890625 40.078125 11.328125 
Q 45.015625 15.765625 45.015625 23.390625 
Q 45.015625 31 40.078125 35.4375 
Q 35.15625 39.890625 26.703125 39.890625 
Q 22.75 39.890625 18.8125 39.015625 
Q 14.890625 38.140625 10.796875 36.28125 
z
" id="DejaVuSans-53"/>
      </defs>
      <g transform="translate(96.818334 266.598437)scale(0.1 -0.1)">
       <use xlink:href="#DejaVuSans-48"/>
       <use x="63.623047" xlink:href="#DejaVuSans-46"/>
       <use x="95.410156" xlink:href="#DejaVuSans-50"/>
       <use x="159.033203" xlink:href="#DejaVuSans-53"/>
      </g>
     </g>
    </g>
    <g id="xtick_3">
     <g id="line2d_5">
      <path clip-path="url(#p9a168259e3)" d="M 146.684111 252 
L 146.684111 34.56 
" style="fill:none;stroke:#b0b0b0;stroke-linecap:square;stroke-width:0.8;"/>
     </g>
     <g id="line2d_6">
      <g>
       <use style="stroke:#000000;stroke-width:0.8;" x="146.684111" xlink:href="#m86a728c163" y="252"/>
      </g>
     </g>
     <g id="text_3">
      <!-- 0.50 -->
      <g transform="translate(135.551299 266.598437)scale(0.1 -0.1)">
       <use xlink:href="#DejaVuSans-48"/>
       <use x="63.623047" xlink:href="#DejaVuSans-46"/>
       <use x="95.410156" xlink:href="#DejaVuSans-53"/>
       <use x="159.033203" xlink:href="#DejaVuSans-48"/>
      </g>
     </g>
    </g>
    <g id="xtick_4">
     <g id="line2d_7">
      <path clip-path="url(#p9a168259e3)" d="M 185.417076 252 
L 185.417076 34.56 
" style="fill:none;stroke:#b0b0b0;stroke-linecap:square;stroke-width:0.8;"/>
     </g>
     <g id="line2d_8">
      <g>
       <use style="stroke:#000000;stroke-width:0.8;" x="185.417076" xlink:href="#m86a728c163" y="252"/>
      </g>
     </g>
     <g id="text_4">
      <!-- 0.75 -->
      <defs>
       <path d="M 8.203125 72.90625 
L 55.078125 72.90625 
L 55.078125 68.703125 
L 28.609375 0 
L 18.3125 0 
L 43.21875 64.59375 
L 8.203125 64.59375 
z
" id="DejaVuSans-55"/>
      </defs>
      <g transform="translate(174.284263 266.598437)scale(0.1 -0.1)">
       <use xlink:href="#DejaVuSans-48"/>
       <use x="63.623047" xlink:href="#DejaVuSans-46"/>
       <use x="95.410156" xlink:href="#DejaVuSans-55"/>
       <use x="159.033203" xlink:href="#DejaVuSans-53"/>
      </g>
     </g>
    </g>
    <g id="xtick_5">
     <g id="line2d_9">
      <path clip-path="url(#p9a168259e3)" d="M 224.15004 252 
L 224.15004 34.56 
" style="fill:none;stroke:#b0b0b0;stroke-linecap:square;stroke-width:0.8;"/>
     </g>
     <g id="line2d_10">
      <g>
       <use style="stroke:#000000;stroke-width:0.8;" x="224.15004" xlink:href="#m86a728c163" y="252"/>
      </g>
     </g>
     <g id="text_5">
      <!-- 1.00 -->
      <defs>
       <path d="M 12.40625 8.296875 
L 28.515625 8.296875 
L 28.515625 63.921875 
L 10.984375 60.40625 
L 10.984375 69.390625 
L 28.421875 72.90625 
L 38.28125 72.90625 
L 38.28125 8.296875 
L 54.390625 8.296875 
L 54.390625 0 
L 12.40625 0 
z
" id="DejaVuSans-49"/>
      </defs>
      <g transform="translate(213.017228 266.598437)scale(0.1 -0.1)">
       <use xlink:href="#DejaVuSans-49"/>
       <use x="63.623047" xlink:href="#DejaVuSans-46"/>
       <use x="95.410156" xlink:href="#DejaVuSans-48"/>
       <use x="159.033203" xlink:href="#DejaVuSans-48"/>
      </g>
     </g>
    </g>
    <g id="xtick_6">
     <g id="line2d_11">
      <path clip-path="url(#p9a168259e3)" d="M 262.883005 252 
L 262.883005 34.56 
" style="fill:none;stroke:#b0b0b0;stroke-linecap:square;stroke-width:0.8;"/>
     </g>
     <g id="line2d_12">
      <g>
       <use style="stroke:#000000;stroke-width:0.8;" x="262.883005" xlink:href="#m86a728c163" y="252"/>
      </g>
     </g>
     <g id="text_6">
      <!-- 1.25 -->
      <g transform="translate(251.750193 266.598437)scale(0.1 -0.1)">
       <use xlink:href="#DejaVuSans-49"/>
       <use x="63.623047" xlink:href="#DejaVuSans-46"/>
       <use x="95.410156" xlink:href="#DejaVuSans-50"/>
       <use x="159.033203" xlink:href="#DejaVuSans-53"/>
      </g>
     </g>
    </g>
    <g id="xtick_7">
     <g id="line2d_13">
      <path clip-path="url(#p9a168259e3)" d="M 301.61597 252 
L 301.61597 34.56 
" style="fill:none;stroke:#b0b0b0;stroke-linecap:square;stroke-width:0.8;"/>
     </g>
     <g id="line2d_14">
      <g>
       <use style="stroke:#000000;stroke-width:0.8;" x="301.61597" xlink:href="#m86a728c163" y="252"/>
      </g>
     </g>
     <g id="text_7">
      <!-- 1.50 -->
      <g transform="translate(290.483157 266.598437)scale(0.1 -0.1)">
       <use xlink:href="#DejaVuSans-49"/>
       <use x="63.623047" xlink:href="#DejaVuSans-46"/>
       <use x="95.410156" xlink:href="#DejaVuSans-53"/>
       <use x="159.033203" xlink:href="#DejaVuSans-48"/>
      </g>
     </g>
    </g>
    <g id="xtick_8">
     <g id="line2d_15">
      <path clip-path="url(#p9a168259e3)" d="M 340.348934 252 
L 340.348934 34.56 
" style="fill:none;stroke:#b0b0b0;stroke-linecap:square;stroke-width:0.8;"/>
     </g>
     <g id="line2d_16">
      <g>
       <use style="stroke:#000000;stroke-width:0.8;" x="340.348934" xlink:href="#m86a728c163" y="252"/>
      </g>
     </g>
     <g id="text_8">
      <!-- 1.75 -->
      <g transform="translate(329.216122 266.598437)scale(0.1 -0.1)">
       <use xlink:href="#DejaVuSans-49"/>
       <use x="63.623047" xlink:href="#DejaVuSans-46"/>
       <use x="95.410156" xlink:href="#DejaVuSans-55"/>
       <use x="159.033203" xlink:href="#DejaVuSans-53"/>
      </g>
     </g>
    </g>
    <g id="xtick_9">
     <g id="line2d_17">
      <path clip-path="url(#p9a168259e3)" d="M 379.081899 252 
L 379.081899 34.56 
" style="fill:none;stroke:#b0b0b0;stroke-linecap:square;stroke-width:0.8;"/>
     </g>
     <g id="line2d_18">
      <g>
       <use style="stroke:#000000;stroke-width:0.8;" x="379.081899" xlink:href="#m86a728c163" y="252"/>
      </g>
     </g>
     <g id="text_9">
      <!-- 2.00 -->
      <g transform="translate(367.949087 266.598437)scale(0.1 -0.1)">
       <use xlink:href="#DejaVuSans-50"/>
       <use x="63.623047" xlink:href="#DejaVuSans-46"/>
       <use x="95.410156" xlink:href="#DejaVuSans-48"/>
       <use x="159.033203" xlink:href="#DejaVuSans-48"/>
      </g>
     </g>
    </g>
    <g id="text_10">
     <!-- time -->
     <defs>
      <path d="M 18.3125 70.21875 
L 18.3125 54.6875 
L 36.8125 54.6875 
L 36.8125 47.703125 
L 18.3125 47.703125 
L 18.3125 18.015625 
Q 18.3125 11.328125 20.140625 9.421875 
Q 21.96875 7.515625 27.59375 7.515625 
L 36.8125 7.515625 
L 36.8125 0 
L 27.59375 0 
Q 17.1875 0 13.234375 3.875 
Q 9.28125 7.765625 9.28125 18.015625 
L 9.28125 47.703125 
L 2.6875 47.703125 
L 2.6875 54.6875 
L 9.28125 54.6875 
L 9.28125 70.21875 
z
" id="DejaVuSans-116"/>
      <path d="M 9.421875 54.6875 
L 18.40625 54.6875 
L 18.40625 0 
L 9.421875 0 
z
M 9.421875 75.984375 
L 18.40625 75.984375 
L 18.40625 64.59375 
L 9.421875 64.59375 
z
" id="DejaVuSans-105"/>
      <path d="M 52 44.1875 
Q 55.375 50.25 60.0625 53.125 
Q 64.75 56 71.09375 56 
Q 79.640625 56 84.28125 50.015625 
Q 88.921875 44.046875 88.921875 33.015625 
L 88.921875 0 
L 79.890625 0 
L 79.890625 32.71875 
Q 79.890625 40.578125 77.09375 44.375 
Q 74.3125 48.1875 68.609375 48.1875 
Q 61.625 48.1875 57.5625 43.546875 
Q 53.515625 38.921875 53.515625 30.90625 
L 53.515625 0 
L 44.484375 0 
L 44.484375 32.71875 
Q 44.484375 40.625 41.703125 44.40625 
Q 38.921875 48.1875 33.109375 48.1875 
Q 26.21875 48.1875 22.15625 43.53125 
Q 18.109375 38.875 18.109375 30.90625 
L 18.109375 0 
L 9.078125 0 
L 9.078125 54.6875 
L 18.109375 54.6875 
L 18.109375 46.1875 
Q 21.1875 51.21875 25.484375 53.609375 
Q 29.78125 56 35.6875 56 
Q 41.65625 56 45.828125 52.96875 
Q 50 49.953125 52 44.1875 
z
" id="DejaVuSans-109"/>
      <path d="M 56.203125 29.59375 
L 56.203125 25.203125 
L 14.890625 25.203125 
Q 15.484375 15.921875 20.484375 11.0625 
Q 25.484375 6.203125 34.421875 6.203125 
Q 39.59375 6.203125 44.453125 7.46875 
Q 49.3125 8.734375 54.109375 11.28125 
L 54.109375 2.78125 
Q 49.265625 0.734375 44.1875 -0.34375 
Q 39.109375 -1.421875 33.890625 -1.421875 
Q 20.796875 -1.421875 13.15625 6.1875 
Q 5.515625 13.8125 5.515625 26.8125 
Q 5.515625 40.234375 12.765625 48.109375 
Q 20.015625 56 32.328125 56 
Q 43.359375 56 49.78125 48.890625 
Q 56.203125 41.796875 56.203125 29.59375 
z
M 47.21875 32.234375 
Q 47.125 39.59375 43.09375 43.984375 
Q 39.0625 48.390625 32.421875 48.390625 
Q 24.90625 48.390625 20.390625 44.140625 
Q 15.875 39.890625 15.1875 32.171875 
z
" id="DejaVuSans-101"/>
     </defs>
     <g transform="translate(210.103906 280.276563)scale(0.1 -0.1)">
      <use xlink:href="#DejaVuSans-116"/>
      <use x="39.208984" xlink:href="#DejaVuSans-105"/>
      <use x="66.992188" xlink:href="#DejaVuSans-109"/>
      <use x="164.404297" xlink:href="#DejaVuSans-101"/>
     </g>
    </g>
    <g id="text_11">
     <!-- 1e10 -->
     <g transform="translate(363.559375 279.276563)scale(0.1 -0.1)">
      <use xlink:href="#DejaVuSans-49"/>
      <use x="63.623047" xlink:href="#DejaVuSans-101"/>
      <use x="125.146484" xlink:href="#DejaVuSans-49"/>
      <use x="188.769531" xlink:href="#DejaVuSans-48"/>
     </g>
    </g>
   </g>
   <g id="matplotlib.axis_2">
    <g id="ytick_1">
     <g id="line2d_19">
      <path clip-path="url(#p9a168259e3)" d="M 54 244.482787 
L 388.8 244.482787 
" style="fill:none;stroke:#b0b0b0;stroke-linecap:square;stroke-width:0.8;"/>
     </g>
     <g id="line2d_20">
      <defs>
       <path d="M 0 0 
L -3.5 0 
" id="m8409a2a5ce" style="stroke:#000000;stroke-width:0.8;"/>
      </defs>
      <g>
       <use style="stroke:#000000;stroke-width:0.8;" x="54" xlink:href="#m8409a2a5ce" y="244.482787"/>
      </g>
     </g>
     <g id="text_12">
      <!-- 0 -->
      <g transform="translate(40.6375 248.282006)scale(0.1 -0.1)">
       <use xlink:href="#DejaVuSans-48"/>
      </g>
     </g>
    </g>
    <g id="ytick_2">
     <g id="line2d_21">
      <path clip-path="url(#p9a168259e3)" d="M 54 216.19298 
L 388.8 216.19298 
" style="fill:none;stroke:#b0b0b0;stroke-linecap:square;stroke-width:0.8;"/>
     </g>
     <g id="line2d_22">
      <g>
       <use style="stroke:#000000;stroke-width:0.8;" x="54" xlink:href="#m8409a2a5ce" y="216.19298"/>
      </g>
     </g>
     <g id="text_13">
      <!-- 2 -->
      <g transform="translate(40.6375 219.992198)scale(0.1 -0.1)">
       <use xlink:href="#DejaVuSans-50"/>
      </g>
     </g>
    </g>
    <g id="ytick_3">
     <g id="line2d_23">
      <path clip-path="url(#p9a168259e3)" d="M 54 187.903172 
L 388.8 187.903172 
" style="fill:none;stroke:#b0b0b0;stroke-linecap:square;stroke-width:0.8;"/>
     </g>
     <g id="line2d_24">
      <g>
       <use style="stroke:#000000;stroke-width:0.8;" x="54" xlink:href="#m8409a2a5ce" y="187.903172"/>
      </g>
     </g>
     <g id="text_14">
      <!-- 4 -->
      <defs>
       <path d="M 37.796875 64.3125 
L 12.890625 25.390625 
L 37.796875 25.390625 
z
M 35.203125 72.90625 
L 47.609375 72.90625 
L 47.609375 25.390625 
L 58.015625 25.390625 
L 58.015625 17.1875 
L 47.609375 17.1875 
L 47.609375 0 
L 37.796875 0 
L 37.796875 17.1875 
L 4.890625 17.1875 
L 4.890625 26.703125 
z
" id="DejaVuSans-52"/>
      </defs>
      <g transform="translate(40.6375 191.702391)scale(0.1 -0.1)">
       <use xlink:href="#DejaVuSans-52"/>
      </g>
     </g>
    </g>
    <g id="ytick_4">
     <g id="line2d_25">
      <path clip-path="url(#p9a168259e3)" d="M 54 159.613365 
L 388.8 159.613365 
" style="fill:none;stroke:#b0b0b0;stroke-linecap:square;stroke-width:0.8;"/>
     </g>
     <g id="line2d_26">
      <g>
       <use style="stroke:#000000;stroke-width:0.8;" x="54" xlink:href="#m8409a2a5ce" y="159.613365"/>
      </g>
     </g>
     <g id="text_15">
      <!-- 6 -->
      <defs>
       <path d="M 33.015625 40.375 
Q 26.375 40.375 22.484375 35.828125 
Q 18.609375 31.296875 18.609375 23.390625 
Q 18.609375 15.53125 22.484375 10.953125 
Q 26.375 6.390625 33.015625 6.390625 
Q 39.65625 6.390625 43.53125 10.953125 
Q 47.40625 15.53125 47.40625 23.390625 
Q 47.40625 31.296875 43.53125 35.828125 
Q 39.65625 40.375 33.015625 40.375 
z
M 52.59375 71.296875 
L 52.59375 62.3125 
Q 48.875 64.0625 45.09375 64.984375 
Q 41.3125 65.921875 37.59375 65.921875 
Q 27.828125 65.921875 22.671875 59.328125 
Q 17.53125 52.734375 16.796875 39.40625 
Q 19.671875 43.65625 24.015625 45.921875 
Q 28.375 48.1875 33.59375 48.1875 
Q 44.578125 48.1875 50.953125 41.515625 
Q 57.328125 34.859375 57.328125 23.390625 
Q 57.328125 12.15625 50.6875 5.359375 
Q 44.046875 -1.421875 33.015625 -1.421875 
Q 20.359375 -1.421875 13.671875 8.265625 
Q 6.984375 17.96875 6.984375 36.375 
Q 6.984375 53.65625 15.1875 63.9375 
Q 23.390625 74.21875 37.203125 74.21875 
Q 40.921875 74.21875 44.703125 73.484375 
Q 48.484375 72.75 52.59375 71.296875 
z
" id="DejaVuSans-54"/>
      </defs>
      <g transform="translate(40.6375 163.412583)scale(0.1 -0.1)">
       <use xlink:href="#DejaVuSans-54"/>
      </g>
     </g>
    </g>
    <g id="ytick_5">
     <g id="line2d_27">
      <path clip-path="url(#p9a168259e3)" d="M 54 131.323557 
L 388.8 131.323557 
" style="fill:none;stroke:#b0b0b0;stroke-linecap:square;stroke-width:0.8;"/>
     </g>
     <g id="line2d_28">
      <g>
       <use style="stroke:#000000;stroke-width:0.8;" x="54" xlink:href="#m8409a2a5ce" y="131.323557"/>
      </g>
     </g>
     <g id="text_16">
      <!-- 8 -->
      <defs>
       <path d="M 31.78125 34.625 
Q 24.75 34.625 20.71875 30.859375 
Q 16.703125 27.09375 16.703125 20.515625 
Q 16.703125 13.921875 20.71875 10.15625 
Q 24.75 6.390625 31.78125 6.390625 
Q 38.8125 6.390625 42.859375 10.171875 
Q 46.921875 13.96875 46.921875 20.515625 
Q 46.921875 27.09375 42.890625 30.859375 
Q 38.875 34.625 31.78125 34.625 
z
M 21.921875 38.8125 
Q 15.578125 40.375 12.03125 44.71875 
Q 8.5 49.078125 8.5 55.328125 
Q 8.5 64.0625 14.71875 69.140625 
Q 20.953125 74.21875 31.78125 74.21875 
Q 42.671875 74.21875 48.875 69.140625 
Q 55.078125 64.0625 55.078125 55.328125 
Q 55.078125 49.078125 51.53125 44.71875 
Q 48 40.375 41.703125 38.8125 
Q 48.828125 37.15625 52.796875 32.3125 
Q 56.78125 27.484375 56.78125 20.515625 
Q 56.78125 9.90625 50.3125 4.234375 
Q 43.84375 -1.421875 31.78125 -1.421875 
Q 19.734375 -1.421875 13.25 4.234375 
Q 6.78125 9.90625 6.78125 20.515625 
Q 6.78125 27.484375 10.78125 32.3125 
Q 14.796875 37.15625 21.921875 38.8125 
z
M 18.3125 54.390625 
Q 18.3125 48.734375 21.84375 45.5625 
Q 25.390625 42.390625 31.78125 42.390625 
Q 38.140625 42.390625 41.71875 45.5625 
Q 45.3125 48.734375 45.3125 54.390625 
Q 45.3125 60.0625 41.71875 63.234375 
Q 38.140625 66.40625 31.78125 66.40625 
Q 25.390625 66.40625 21.84375 63.234375 
Q 18.3125 60.0625 18.3125 54.390625 
z
" id="DejaVuSans-56"/>
      </defs>
      <g transform="translate(40.6375 135.122776)scale(0.1 -0.1)">
       <use xlink:href="#DejaVuSans-56"/>
      </g>
     </g>
    </g>
    <g id="ytick_6">
     <g id="line2d_29">
      <path clip-path="url(#p9a168259e3)" d="M 54 103.03375 
L 388.8 103.03375 
" style="fill:none;stroke:#b0b0b0;stroke-linecap:square;stroke-width:0.8;"/>
     </g>
     <g id="line2d_30">
      <g>
       <use style="stroke:#000000;stroke-width:0.8;" x="54" xlink:href="#m8409a2a5ce" y="103.03375"/>
      </g>
     </g>
     <g id="text_17">
      <!-- 10 -->
      <g transform="translate(34.275 106.832969)scale(0.1 -0.1)">
       <use xlink:href="#DejaVuSans-49"/>
       <use x="63.623047" xlink:href="#DejaVuSans-48"/>
      </g>
     </g>
    </g>
    <g id="ytick_7">
     <g id="line2d_31">
      <path clip-path="url(#p9a168259e3)" d="M 54 74.743942 
L 388.8 74.743942 
" style="fill:none;stroke:#b0b0b0;stroke-linecap:square;stroke-width:0.8;"/>
     </g>
     <g id="line2d_32">
      <g>
       <use style="stroke:#000000;stroke-width:0.8;" x="54" xlink:href="#m8409a2a5ce" y="74.743942"/>
      </g>
     </g>
     <g id="text_18">
      <!-- 12 -->
      <g transform="translate(34.275 78.543161)scale(0.1 -0.1)">
       <use xlink:href="#DejaVuSans-49"/>
       <use x="63.623047" xlink:href="#DejaVuSans-50"/>
      </g>
     </g>
    </g>
    <g id="ytick_8">
     <g id="line2d_33">
      <path clip-path="url(#p9a168259e3)" d="M 54 46.454135 
L 388.8 46.454135 
" style="fill:none;stroke:#b0b0b0;stroke-linecap:square;stroke-width:0.8;"/>
     </g>
     <g id="line2d_34">
      <g>
       <use style="stroke:#000000;stroke-width:0.8;" x="54" xlink:href="#m8409a2a5ce" y="46.454135"/>
      </g>
     </g>
     <g id="text_19">
      <!-- 14 -->
      <g transform="translate(34.275 50.253354)scale(0.1 -0.1)">
       <use xlink:href="#DejaVuSans-49"/>
       <use x="63.623047" xlink:href="#DejaVuSans-52"/>
      </g>
     </g>
    </g>
    <g id="text_20">
     <!-- error (rho) -->
     <defs>
      <path d="M 41.109375 46.296875 
Q 39.59375 47.171875 37.8125 47.578125 
Q 36.03125 48 33.890625 48 
Q 26.265625 48 22.1875 43.046875 
Q 18.109375 38.09375 18.109375 28.8125 
L 18.109375 0 
L 9.078125 0 
L 9.078125 54.6875 
L 18.109375 54.6875 
L 18.109375 46.1875 
Q 20.953125 51.171875 25.484375 53.578125 
Q 30.03125 56 36.53125 56 
Q 37.453125 56 38.578125 55.875 
Q 39.703125 55.765625 41.0625 55.515625 
z
" id="DejaVuSans-114"/>
      <path d="M 30.609375 48.390625 
Q 23.390625 48.390625 19.1875 42.75 
Q 14.984375 37.109375 14.984375 27.296875 
Q 14.984375 17.484375 19.15625 11.84375 
Q 23.34375 6.203125 30.609375 6.203125 
Q 37.796875 6.203125 41.984375 11.859375 
Q 46.1875 17.53125 46.1875 27.296875 
Q 46.1875 37.015625 41.984375 42.703125 
Q 37.796875 48.390625 30.609375 48.390625 
z
M 30.609375 56 
Q 42.328125 56 49.015625 48.375 
Q 55.71875 40.765625 55.71875 27.296875 
Q 55.71875 13.875 49.015625 6.21875 
Q 42.328125 -1.421875 30.609375 -1.421875 
Q 18.84375 -1.421875 12.171875 6.21875 
Q 5.515625 13.875 5.515625 27.296875 
Q 5.515625 40.765625 12.171875 48.375 
Q 18.84375 56 30.609375 56 
z
" id="DejaVuSans-111"/>
      <path id="DejaVuSans-32"/>
      <path d="M 31 75.875 
Q 24.46875 64.65625 21.28125 53.65625 
Q 18.109375 42.671875 18.109375 31.390625 
Q 18.109375 20.125 21.3125 9.0625 
Q 24.515625 -2 31 -13.1875 
L 23.1875 -13.1875 
Q 15.875 -1.703125 12.234375 9.375 
Q 8.59375 20.453125 8.59375 31.390625 
Q 8.59375 42.28125 12.203125 53.3125 
Q 15.828125 64.359375 23.1875 75.875 
z
" id="DejaVuSans-40"/>
      <path d="M 54.890625 33.015625 
L 54.890625 0 
L 45.90625 0 
L 45.90625 32.71875 
Q 45.90625 40.484375 42.875 44.328125 
Q 39.84375 48.1875 33.796875 48.1875 
Q 26.515625 48.1875 22.3125 43.546875 
Q 18.109375 38.921875 18.109375 30.90625 
L 18.109375 0 
L 9.078125 0 
L 9.078125 75.984375 
L 18.109375 75.984375 
L 18.109375 46.1875 
Q 21.34375 51.125 25.703125 53.5625 
Q 30.078125 56 35.796875 56 
Q 45.21875 56 50.046875 50.171875 
Q 54.890625 44.34375 54.890625 33.015625 
z
" id="DejaVuSans-104"/>
      <path d="M 8.015625 75.875 
L 15.828125 75.875 
Q 23.140625 64.359375 26.78125 53.3125 
Q 30.421875 42.28125 30.421875 31.390625 
Q 30.421875 20.453125 26.78125 9.375 
Q 23.140625 -1.703125 15.828125 -13.1875 
L 8.015625 -13.1875 
Q 14.5 -2 17.703125 9.0625 
Q 20.90625 20.125 20.90625 31.390625 
Q 20.90625 42.671875 17.703125 53.65625 
Q 14.5 64.65625 8.015625 75.875 
z
" id="DejaVuSans-41"/>
     </defs>
     <g transform="translate(28.195312 169.353437)rotate(-90)scale(0.1 -0.1)">
      <use xlink:href="#DejaVuSans-101"/>
      <use x="61.523438" xlink:href="#DejaVuSans-114"/>
      <use x="102.621094" xlink:href="#DejaVuSans-114"/>
      <use x="143.703125" xlink:href="#DejaVuSans-111"/>
      <use x="204.884766" xlink:href="#DejaVuSans-114"/>
      <use x="245.998047" xlink:href="#DejaVuSans-32"/>
      <use x="277.785156" xlink:href="#DejaVuSans-40"/>
      <use x="316.798828" xlink:href="#DejaVuSans-114"/>
      <use x="357.896484" xlink:href="#DejaVuSans-104"/>
      <use x="421.275391" xlink:href="#DejaVuSans-111"/>
      <use x="482.457031" xlink:href="#DejaVuSans-41"/>
     </g>
    </g>
   </g>
   <g id="line2d_35">
    <path clip-path="url(#p9a168259e3)" d="M 69.218182 44.44364 
L 83.874736 44.490409 
L 83.874736 44.527027 
L 83.890229 44.574723 
L 85.393068 44.703794 
L 85.393068 44.959099 
L 86.926893 45.048263 
L 86.926893 45.474233 
L 88.476212 45.609481 
L 88.522691 46.736725 
L 90.02553 46.992806 
L 90.041024 47.472435 
L 91.590342 47.71861 
L 91.605835 48.953931 
L 93.124168 49.209701 
L 93.139661 50.538942 
L 94.688979 50.814239 
L 94.719966 51.923606 
L 96.238298 52.216366 
L 96.269284 53.062747 
L 97.787617 53.333279 
L 97.818603 54.179548 
L 99.321442 54.463505 
L 99.367922 55.588366 
L 100.886254 55.86659 
L 100.91724 57.250443 
L 102.435572 57.523387 
L 102.435572 58.323834 
L 103.969398 58.588964 
L 103.969398 59.6337 
L 105.534209 59.892185 
L 105.565196 61.190823 
L 107.068035 61.451595 
L 107.083528 62.227526 
L 108.617353 62.487167 
L 108.632847 64.018782 
L 110.166672 64.27285 
L 110.166672 65.025812 
L 111.731484 65.277799 
L 111.76247 66.032354 
L 113.265309 66.279318 
L 113.296296 67.766965 
L 114.830121 68.015667 
L 114.830121 68.509598 
L 116.363946 68.754252 
L 116.37944 70.208703 
L 117.913265 70.446503 
L 117.913265 71.163017 
L 119.462584 71.402209 
L 119.478077 72.128586 
L 121.011902 72.352888 
L 121.011902 73.755926 
L 122.561221 73.987102 
L 122.576714 74.671392 
L 124.110539 74.898693 
L 124.141526 75.576514 
L 125.659858 75.801269 
L 125.690844 77.14734 
L 127.22467 77.371589 
L 127.22467 78.040226 
L 128.773988 78.262982 
L 128.820468 79.149414 
L 130.307814 79.370447 
L 130.307814 80.465396 
L 131.872625 80.684212 
L 131.872625 81.553559 
L 133.406451 81.769935 
L 133.421944 82.419569 
L 134.955769 82.635274 
L 134.971263 83.282128 
L 136.505088 83.497607 
L 136.505088 84.354901 
L 138.054407 84.568863 
L 138.0699 85.667641 
L 139.603725 85.848773 
L 139.681191 86.707346 
L 141.153044 86.90815 
L 141.18403 87.963211 
L 142.702362 88.172618 
L 142.702362 89.013191 
L 144.251681 89.223491 
L 144.267174 89.864362 
L 145.801 90.062917 
L 145.847479 90.690242 
L 147.350318 90.89887 
L 147.350318 92.147221 
L 148.899637 92.364454 
L 148.899637 92.974562 
L 150.448955 93.180642 
L 150.495435 93.801225 
L 151.998274 94.00893 
L 152.060247 95.25689 
L 153.547592 95.464212 
L 153.594072 96.085863 
L 155.112404 96.292183 
L 155.112404 96.911725 
L 156.661723 97.118098 
L 156.739189 98.351455 
L 158.211041 98.55582 
L 158.226535 99.171246 
L 159.744867 99.377034 
L 159.744867 99.996841 
L 161.294185 100.202592 
L 161.309679 101.434975 
L 162.858997 101.639043 
L 162.889984 102.252315 
L 164.408316 102.466998 
L 164.408316 103.068738 
L 165.942141 103.272117 
L 165.957634 104.498079 
L 167.49146 104.691043 
L 167.522446 105.298961 
L 169.056272 105.501348 
L 169.071765 106.107062 
L 170.590097 106.308417 
L 170.60559 107.514039 
L 172.154909 107.715821 
L 172.154909 108.319618 
L 173.704227 108.520279 
L 173.735214 109.120846 
L 175.238053 109.320505 
L 175.315519 110.517319 
L 176.787371 110.718369 
L 176.802864 111.322855 
L 178.33669 111.525454 
L 178.367676 112.135374 
L 179.886008 112.340132 
L 179.901502 113.575399 
L 181.435327 113.780952 
L 181.45082 114.398572 
L 183.000139 114.605235 
L 183.000139 115.228546 
L 184.533964 115.437467 
L 184.595937 116.693429 
L 186.083283 116.914811 
L 186.114269 117.540641 
L 187.648095 117.753667 
L 187.648095 118.608347 
L 189.18192 118.824318 
L 189.197413 119.909747 
L 190.731239 120.126682 
L 190.762225 120.786981 
L 192.280557 120.992648 
L 192.311544 122.074766 
L 193.845369 122.290496 
L 193.860862 122.720862 
L 195.379194 122.937145 
L 195.410181 124.255964 
L 196.928513 124.479112 
L 196.944006 125.14836 
L 198.477832 125.371351 
L 198.508818 126.038204 
L 200.02715 126.260168 
L 200.042643 127.372932 
L 201.576469 127.606344 
L 201.576469 128.703514 
L 203.125787 128.924432 
L 203.125787 129.367728 
L 204.675106 129.589417 
L 204.690599 130.929223 
L 206.224424 131.163981 
L 206.224424 131.821486 
L 207.773743 132.044464 
L 207.789236 132.716489 
L 209.323062 132.940749 
L 209.369541 133.835803 
L 210.887873 134.059038 
L 210.91886 135.173365 
L 212.421699 135.396062 
L 212.437192 136.062629 
L 213.971017 136.285428 
L 214.03299 137.652052 
L 215.520336 137.882949 
L 215.551322 138.579534 
L 217.069655 138.813096 
L 217.085148 139.755517 
L 218.64996 139.991552 
L 218.64996 141.169025 
L 220.168292 141.404299 
L 220.199278 142.110406 
L 221.733103 142.345463 
L 221.76409 143.04814 
L 223.282422 143.282835 
L 223.282422 144.715741 
L 224.816247 144.957491 
L 224.816247 145.68341 
L 226.365566 145.925189 
L 226.412046 146.649375 
L 227.930378 146.890395 
L 227.961364 147.856233 
L 229.479696 148.110214 
L 229.479696 149.304743 
L 231.013522 149.557433 
L 231.013522 150.266745 
L 232.578334 150.508704 
L 232.60932 151.962842 
L 234.112159 152.205462 
L 234.127652 152.93338 
L 235.676971 153.175749 
L 235.676971 153.915322 
L 237.210796 154.146477 
L 237.210796 155.603391 
L 238.775608 155.845475 
L 238.806594 156.572493 
L 240.324927 156.81479 
L 240.34042 157.540832 
L 241.858752 157.782886 
L 241.858752 159.257915 
L 243.408071 159.506795 
L 243.423564 160.255861 
L 244.957389 160.507067 
L 244.988375 161.267165 
L 246.506708 161.521165 
L 246.506708 163.043954 
L 248.056026 163.297573 
L 248.071519 164.058844 
L 249.620838 164.325181 
L 249.636331 165.578815 
L 251.154663 165.833333 
L 251.154663 166.341555 
L 252.703982 166.596812 
L 252.703982 167.628133 
L 254.253301 167.885571 
L 254.268794 169.171222 
L 255.802619 169.427463 
L 255.818112 170.197505 
L 257.351938 170.454733 
L 257.367431 171.995769 
L 258.901256 172.251988 
L 258.901256 173.019982 
L 260.450575 173.275933 
L 260.481561 174.050256 
L 261.999894 174.308946 
L 262.03088 175.346114 
L 263.549212 175.619281 
L 263.564705 176.652507 
L 265.098531 176.91535 
L 265.098531 178.494355 
L 266.647849 178.757791 
L 266.678836 179.55018 
L 268.197168 179.81484 
L 268.290127 180.876 
L 269.746486 181.139512 
L 269.76198 182.471856 
L 271.295805 182.739234 
L 271.326791 183.541695 
L 272.845124 183.809774 
L 272.907096 184.887816 
L 274.394442 185.157654 
L 274.409935 186.505479 
L 275.943761 186.7746 
L 275.959254 187.58271 
L 277.493079 187.852176 
L 277.539559 189.197939 
L 279.042398 189.466978 
L 279.042398 190.006211 
L 280.591717 190.276279 
L 280.669183 191.899951 
L 282.141035 192.170126 
L 282.141035 192.980407 
L 283.705847 193.25034 
L 283.72134 194.072784 
L 285.239672 194.329318 
L 285.286152 195.409848 
L 286.804484 195.693171 
L 286.835471 197.026844 
L 288.33831 197.296051 
L 288.369296 198.122014 
L 289.903121 198.379832 
L 289.903121 200.009394 
L 291.436947 200.282504 
L 291.45244 201.10412 
L 292.986265 201.378656 
L 293.048238 202.751596 
L 294.535584 203.027445 
L 294.56657 203.854147 
L 296.084902 204.143738 
L 296.131382 204.958182 
L 297.634221 205.23446 
L 297.649714 206.8833 
L 299.18354 207.175128 
L 299.18354 207.991636 
L 300.732858 208.268728 
L 300.763845 209.382625 
L 302.282177 209.661122 
L 302.313163 211.053646 
L 303.846989 211.331493 
L 303.846989 212.165505 
L 305.396307 212.443734 
L 305.442787 213.278434 
L 306.930133 213.556647 
L 306.945626 215.223593 
L 308.479451 215.503717 
L 308.525931 216.342287 
L 310.02877 216.622229 
L 310.044263 218.023304 
L 311.578088 218.303781 
L 311.593582 218.864355 
L 313.1429 219.159009 
L 313.1429 220.547798 
L 314.676726 220.828224 
L 314.723205 222.229954 
L 316.241537 222.51021 
L 316.272524 223.073755 
L 317.790856 223.355771 
L 317.821842 225.044479 
L 319.324681 225.325438 
L 319.340174 226.17056 
L 320.874 226.452526 
L 320.889493 227.298474 
L 322.423318 227.579959 
L 322.423318 229.275171 
L 323.972637 229.55777 
L 323.98813 230.123007 
L 325.537449 230.405655 
L 325.552942 232.097143 
L 327.086767 232.378405 
L 327.086767 233.166642 
L 328.636086 233.428494 
L 328.667072 234.345584 
L 330.169911 234.57213 
L 330.185405 235.628004 
L 331.71923 235.832486 
L 331.734723 236.388128 
L 333.268549 236.569174 
L 333.284042 237.39055 
L 334.817867 237.550793 
L 334.848854 237.849671 
L 336.367186 237.999899 
L 336.367186 238.806188 
L 337.916504 238.937416 
L 337.916504 239.282896 
L 339.465823 239.506768 
L 339.512302 239.72217 
L 341.030635 239.929931 
L 341.046128 240.417415 
L 342.579953 240.593924 
L 342.595446 240.755838 
L 344.113779 240.915604 
L 344.113779 241.067011 
L 345.663097 241.215569 
L 345.694084 241.498439 
L 347.227909 241.629665 
L 347.274389 241.863603 
L 348.761734 242.024838 
L 348.777228 242.073023 
L 348.777228 242.040349 
L 362.752081 242.048907 
L 373.581818 242.04753 
L 373.581818 242.04753 
" style="fill:none;stroke:#0b64d4;stroke-linecap:square;stroke-width:1.5;"/>
   </g>
   <g id="line2d_36">
    <path clip-path="url(#p9a168259e3)" d="M 78.514093 44.44364 
L 80.078905 44.44364 
L 80.078905 44.44364 
L 81.628224 44.802303 
L 81.628224 45.001659 
L 83.162049 45.104917 
L 83.239515 45.80949 
L 84.726861 46.022995 
L 84.757847 46.683071 
L 86.260686 46.927511 
L 86.276179 48.112776 
L 87.810005 48.3509 
L 87.840991 49.318831 
L 89.359323 49.550048 
L 89.359323 50.300992 
L 90.908642 50.555491 
L 90.939628 51.599379 
L 92.473454 51.86421 
L 92.50444 53.221274 
L 94.007279 53.49927 
L 94.038266 54.335511 
L 95.556598 54.610627 
L 95.556598 55.46974 
L 97.12141 55.736567 
L 97.152396 57.423851 
L 98.670728 57.703274 
L 98.670728 58.547107 
L 100.204554 58.827387 
L 100.220047 59.670562 
L 101.753872 59.953284 
L 101.784859 61.646591 
L 103.318684 61.930126 
L 103.334177 62.779366 
L 104.852509 63.061372 
L 104.868002 63.911784 
L 106.401828 64.191641 
L 106.448307 65.601264 
L 106.448307 65.880636 
L 107.951146 66.161033 
L 107.951146 67.00098 
L 109.531451 67.279749 
L 109.546945 68.118492 
L 111.065277 68.397649 
L 111.08077 70.075757 
L 112.614595 70.353628 
L 112.614595 71.189503 
L 114.148421 71.480822 
L 114.163914 72.580886 
L 115.697739 72.87336 
L 115.728726 74.24101 
L 117.247058 74.517746 
L 117.278044 75.347046 
L 118.796377 75.622935 
L 118.827363 76.728239 
L 120.361188 77.004791 
L 120.392175 78.379852 
L 121.895014 78.654683 
L 121.926 79.47768 
L 123.459826 79.752381 
L 123.521798 81.127145 
L 125.009144 81.400363 
L 125.009144 81.961864 
L 126.54297 82.22233 
L 126.620435 83.865064 
L 128.092288 84.138906 
L 128.123274 84.682934 
L 129.688086 84.954693 
L 129.688086 86.583049 
L 131.206418 86.853982 
L 131.206418 87.666764 
L 132.755737 87.93796 
L 132.802217 89.019196 
L 134.305056 89.289285 
L 134.351535 90.638689 
L 135.838881 90.907939 
L 135.885361 91.713431 
L 137.3882 91.994628 
L 137.450172 93.052214 
L 138.983998 93.319703 
L 138.999491 94.657288 
L 140.486837 94.92469 
L 140.517823 95.724745 
L 142.051649 96.005206 
L 142.067142 97.058346 
L 143.585474 97.324694 
L 143.631954 98.653192 
L 145.134793 98.918236 
L 145.165779 99.712792 
L 146.684111 99.977263 
L 146.730591 100.771057 
L 148.23343 101.03523 
L 148.295402 102.619592 
L 149.782748 102.883344 
L 149.813735 103.674144 
L 151.34756 103.937409 
L 151.34756 104.727455 
L 152.881386 104.990768 
L 152.943358 106.58132 
L 154.446197 106.830614 
L 154.492677 107.368648 
L 155.980023 107.617735 
L 156.026502 109.190444 
L 157.529341 109.452358 
L 157.560328 110.237707 
L 159.07866 110.499405 
L 159.094153 111.543757 
L 160.627978 111.80469 
L 160.658965 113.108564 
L 162.19279 113.369157 
L 162.19279 114.150044 
L 163.726616 114.410312 
L 163.757602 115.450683 
L 165.275934 115.710488 
L 165.275934 117.008788 
L 166.825253 117.268294 
L 166.825253 118.303792 
L 168.390065 118.562559 
L 168.405558 119.338469 
L 169.92389 119.596907 
L 169.954876 120.371761 
L 171.473209 120.629749 
L 171.550674 122.177308 
L 173.022527 122.434404 
L 173.053514 123.206182 
L 174.587339 123.463418 
L 174.602832 124.233805 
L 176.121164 124.490015 
L 176.229617 125.272318 
L 176.291589 126.028053 
L 177.685976 126.28403 
L 177.701469 127.051352 
L 179.219801 127.306908 
L 179.297267 127.818434 
L 179.312761 128.584682 
L 180.76912 128.839748 
L 180.8156 129.6046 
L 182.333932 129.859332 
L 182.364918 130.623054 
L 183.88325 130.890233 
L 183.914237 132.402654 
L 185.417076 132.656719 
L 185.432569 133.418009 
L 186.966394 133.684173 
L 186.981888 134.431582 
L 188.531206 134.684759 
L 188.546699 136.20672 
L 190.080525 136.460311 
L 190.080525 137.220066 
L 191.61435 137.473289 
L 191.629843 138.231727 
L 193.163669 138.484782 
L 193.179162 139.999577 
L 194.728481 140.251562 
L 194.77496 141.008043 
L 196.277799 141.26017 
L 196.293292 142.017885 
L 197.811625 142.270806 
L 197.88909 143.792711 
L 199.360943 144.047268 
L 199.360943 144.810046 
L 200.910262 145.064227 
L 200.925755 145.826353 
L 202.45958 146.080614 
L 202.521553 147.624627 
L 204.008899 147.879811 
L 204.055378 148.632173 
L 205.558217 148.886976 
L 205.604697 149.644398 
L 207.123029 149.910711 
L 207.138522 151.435008 
L 208.672348 151.691361 
L 208.703334 152.464397 
L 210.206173 152.735466 
L 210.252653 153.510273 
L 211.770985 153.755443 
L 211.786478 155.301494 
L 213.320304 155.558903 
L 213.382276 156.329944 
L 214.854129 156.586944 
L 214.900609 157.357578 
L 216.403448 157.615226 
L 216.46542 159.172828 
L 217.952766 159.432565 
L 217.968259 160.21153 
L 219.502085 160.470931 
L 219.502085 161.247999 
L 221.051403 161.507136 
L 221.097883 163.05944 
L 222.616215 163.31747 
L 222.616215 164.0912 
L 224.165534 164.349454 
L 224.165534 165.38459 
L 225.699359 165.642329 
L 225.745839 166.93065 
L 227.264171 167.187605 
L 227.264171 167.958309 
L 228.813489 168.228358 
L 228.859969 169.498397 
L 230.378301 169.754629 
L 230.378301 170.790517 
L 231.912127 171.033992 
L 231.912127 171.802638 
L 233.461445 172.05942 
L 233.476938 173.34174 
L 234.995271 173.597817 
L 235.026257 174.109116 
L 236.544589 174.36461 
L 236.591069 175.900909 
L 238.093908 176.156308 
L 238.140387 176.92169 
L 239.643226 177.189206 
L 239.65872 177.940012 
L 241.192545 178.19423 
L 241.208038 179.496904 
L 242.741864 179.727793 
L 242.803836 181.015118 
L 244.291182 181.273801 
L 244.306675 181.791534 
L 245.840501 182.05051 
L 245.871487 183.609992 
L 247.389819 183.869942 
L 247.436299 184.649122 
L 248.939138 184.908658 
L 248.985617 185.686749 
L 250.488456 185.945749 
L 250.519443 187.487687 
L 252.053268 187.748446 
L 252.068761 188.266765 
L 253.587094 188.531289 
L 253.602587 190.10759 
L 255.136412 190.383173 
L 255.182892 191.156097 
L 256.701224 191.431245 
L 256.716717 192.465568 
L 258.235049 192.72722 
L 258.235049 194.03148 
L 259.799861 194.292253 
L 259.799861 195.07664 
L 261.364673 195.338991 
L 261.411153 196.653752 
L 262.898498 196.916745 
L 262.913992 197.968277 
L 264.46331 198.231518 
L 264.46331 199.020393 
L 265.981642 199.282977 
L 266.012629 200.331059 
L 266.012629 200.592501 
L 267.546454 200.853642 
L 267.561947 201.897882 
L 269.08028 202.159231 
L 269.095773 202.94449 
L 270.629598 203.207126 
L 270.660584 203.995961 
L 272.178917 204.259716 
L 272.240889 205.848281 
L 273.728235 206.113332 
L 273.743728 206.909627 
L 275.277554 207.175317 
L 275.339527 207.973312 
L 276.826872 208.239529 
L 276.857859 209.570668 
L 278.391684 209.834499 
L 278.438164 211.167544 
L 279.941003 211.44759 
L 279.956496 211.968192 
L 281.474828 212.248813 
L 281.521308 213.846941 
L 283.024147 214.115109 
L 283.024147 214.917552 
L 284.588959 215.184688 
L 284.635438 216.518484 
L 286.138277 216.784865 
L 286.169264 217.594906 
L 287.703089 217.846708 
L 287.718582 219.17452 
L 289.236914 219.441591 
L 289.236914 220.51191 
L 290.77074 220.793206 
L 290.77074 221.850891 
L 292.320058 222.118817 
L 292.366538 222.922252 
L 293.869377 223.202831 
L 293.915856 223.988807 
L 295.418695 224.267585 
L 295.434189 225.838555 
L 296.983507 226.101431 
L 297.014494 226.89425 
L 298.532826 227.158713 
L 298.532826 227.944533 
L 300.066651 228.207776 
L 300.082144 229.786056 
L 301.61597 230.048343 
L 301.61597 230.571452 
L 303.165288 230.847885 
L 303.227261 231.35842 
L 303.227261 232.387038 
L 304.714607 232.643231 
L 304.745593 233.337865 
L 306.263926 233.565089 
L 306.279419 234.218384 
L 307.813244 234.40271 
L 307.828737 235.539145 
L 309.362563 235.710832 
L 309.440029 236.23017 
L 310.911881 236.365918 
L 310.927375 236.84292 
L 312.4612 236.978643 
L 312.523173 237.842059 
L 314.010519 237.988637 
L 314.056998 238.363672 
L 315.57533 238.488324 
L 315.57533 238.8594 
L 317.109156 238.963722 
L 317.109156 239.4201 
L 318.658474 239.627729 
L 318.658474 240.027138 
L 320.223286 240.212778 
L 320.254272 240.40059 
L 321.772605 240.557373 
L 321.788098 240.941453 
L 323.321923 241.080852 
L 323.337416 241.212837 
L 324.871242 241.335592 
L 324.902228 241.51632 
L 326.42056 241.637108 
L 326.451547 241.853169 
L 327.954386 241.99673 
L 327.969879 242.041524 
L 337.296777 242.045291 
L 372.884625 242.076926 
L 372.884625 242.076926 
" style="fill:none;stroke:#0dfa2c;stroke-linecap:square;stroke-width:1.5;"/>
   </g>
   <g id="line2d_37">
    <path clip-path="url(#p9a168259e3)" d="M 73.881631 44.44364 
L 80.063412 44.44364 
L 80.094398 45.288164 
L 81.628224 45.40272 
L 81.674703 45.817391 
L 83.162049 46.010793 
L 83.162049 46.610974 
L 84.742354 46.817046 
L 84.77334 48.217556 
L 86.260686 48.44597 
L 86.260686 49.137527 
L 87.810005 49.370088 
L 87.825498 50.317239 
L 89.374817 50.570309 
L 89.39031 51.779356 
L 90.908642 52.036016 
L 90.924135 52.761188 
L 92.457961 53.005361 
L 92.50444 53.98745 
L 94.007279 54.231632 
L 94.038266 55.215002 
L 95.556598 55.465703 
L 95.634064 56.736843 
L 97.105916 56.993649 
L 97.12141 57.518203 
L 98.655235 57.762508 
L 98.655235 59.302108 
L 100.204554 59.560972 
L 100.23554 60.362469 
L 101.753872 60.613433 
L 101.815845 61.41469 
L 103.318684 61.683477 
L 103.365163 62.764075 
L 104.868002 63.032418 
L 104.914482 64.395236 
L 106.401828 64.652522 
L 106.417321 65.461233 
L 107.951146 65.731144 
L 107.997626 66.818083 
L 109.500465 67.091082 
L 109.531451 68.456443 
L 111.049784 68.732719 
L 111.08077 69.558289 
L 112.614595 69.832975 
L 112.676568 71.482749 
L 114.163914 71.756234 
L 114.163914 72.580703 
L 115.697739 72.855162 
L 115.697739 73.683243 
L 117.247058 73.95989 
L 117.293538 75.619378 
L 118.81187 75.896563 
L 118.827363 76.450488 
L 120.345695 76.728559 
L 120.345695 78.400188 
L 121.895014 78.693247 
L 121.910507 79.532672 
L 123.444332 79.799917 
L 123.506305 81.20087 
L 124.993651 81.481511 
L 124.993651 82.04185 
L 126.54297 82.335736 
L 126.573956 84.002839 
L 128.092288 84.297574 
L 128.107781 85.125266 
L 129.6571 85.406598 
L 129.703579 86.25193 
L 131.206418 86.534463 
L 131.252898 87.94186 
L 132.755737 88.222562 
L 132.802217 89.630061 
L 134.305056 89.910951 
L 134.336042 90.473582 
L 135.838881 90.754961 
L 135.854374 92.4579 
L 137.403693 92.725339 
L 137.403693 93.571757 
L 138.953011 93.868315 
L 138.983998 94.699672 
L 140.486837 94.981543 
L 140.564303 96.391062 
L 142.067142 96.673177 
L 142.098128 98.081847 
L 143.647447 98.363818 
L 143.647447 99.505245 
L 145.134793 99.773213 
L 145.150286 100.620239 
L 146.699604 100.902225 
L 146.761577 102.0305 
L 148.23343 102.326522 
L 148.264416 103.440988 
L 148.264416 103.722961 
L 149.782748 104.005239 
L 149.798242 104.85127 
L 151.332067 105.133397 
L 151.378546 105.979084 
L 152.881386 106.261184 
L 152.912372 107.955153 
L 154.46169 108.23786 
L 154.492677 109.083711 
L 155.995516 109.366004 
L 156.011009 110.212621 
L 157.544834 110.494702 
L 157.591314 112.1887 
L 159.094153 112.471115 
L 159.125139 113.316661 
L 160.627978 113.612914 
L 160.658965 114.44525 
L 162.177297 114.727497 
L 162.254763 116.422041 
L 163.726616 116.704415 
L 163.757602 117.551212 
L 165.275934 117.83359 
L 165.306921 118.681315 
L 166.825253 118.964009 
L 166.825253 120.67049 
L 168.390065 120.938521 
L 168.421051 121.799155 
L 169.92389 122.067281 
L 169.985863 123.197538 
L 171.473209 123.479851 
L 171.504195 124.609828 
L 173.022527 124.906543 
L 173.0845 126.306067 
L 174.571846 126.587869 
L 174.587339 127.716553 
L 176.121164 128.012949 
L 176.121164 128.845474 
L 177.685976 129.127769 
L 177.701469 130.257411 
L 179.219801 130.539905 
L 179.235295 131.953465 
L 180.76912 132.236065 
L 180.8156 133.08484 
L 182.364918 133.367841 
L 182.364918 134.794029 
L 183.867757 135.061899 
L 183.898744 135.626523 
L 185.432569 135.908768 
L 185.479049 137.321064 
L 186.966394 137.603585 
L 186.997381 139.01877 
L 188.515713 139.30153 
L 188.546699 139.867343 
L 190.080525 140.150302 
L 190.111511 141.861581 
L 191.629843 142.129424 
L 191.629843 142.976791 
L 193.163669 143.273396 
L 193.241135 144.672571 
L 194.728481 144.955251 
L 194.743974 145.804324 
L 196.262306 146.087389 
L 196.277799 147.503158 
L 197.827118 147.786923 
L 197.842611 148.918386 
L 199.360943 149.20118 
L 199.360943 150.049527 
L 200.925755 150.33237 
L 200.925755 151.760153 
L 202.45958 152.028732 
L 202.475073 152.594206 
L 204.008899 152.876999 
L 204.024392 154.292308 
L 205.558217 154.575546 
L 205.62019 155.991708 
L 207.107536 156.274463 
L 207.107536 156.840422 
L 208.656855 157.123429 
L 208.718827 158.820127 
L 210.206173 159.102974 
L 210.252653 159.951308 
L 211.755492 160.234107 
L 211.755492 161.09713 
L 213.320304 161.365982 
L 213.320304 163.064881 
L 214.854129 163.362872 
L 214.885115 164.19794 
L 216.403448 164.481025 
L 216.418941 165.329135 
L 217.968259 165.612014 
L 217.983753 167.308938 
L 219.517578 167.591748 
L 219.548564 168.440234 
L 221.066897 168.723065 
L 221.08239 169.57328 
L 222.616215 169.856536 
L 222.647201 171.554631 
L 224.165534 171.837633 
L 224.165534 172.685961 
L 225.699359 172.982997 
L 225.699359 173.817396 
L 227.264171 174.100226 
L 227.264171 175.514384 
L 228.797996 175.797258 
L 228.813489 177.212362 
L 230.347315 177.509807 
L 230.347315 178.061943 
L 231.912127 178.345614 
L 231.943113 179.759961 
L 233.461445 180.042822 
L 233.461445 181.457126 
L 234.995271 181.739973 
L 235.010764 182.871285 
L 236.560082 183.16829 
L 236.575576 184.002708 
L 238.140387 184.286345 
L 238.155881 185.418766 
L 239.643226 185.701972 
L 239.65872 187.116358 
L 241.192545 187.399184 
L 241.192545 188.247916 
L 242.741864 188.530805 
L 242.741864 189.944818 
L 244.322168 190.227688 
L 244.322168 190.793516 
L 245.840501 191.0764 
L 245.871487 192.492118 
L 247.389819 192.775345 
L 247.405312 194.190003 
L 248.954631 194.47268 
L 249.001111 195.604154 
L 250.50395 195.887006 
L 250.519443 196.735476 
L 252.053268 197.018299 
L 252.084255 198.432835 
L 253.587094 198.715652 
L 253.587094 199.281517 
L 255.136412 199.56447 
L 255.213878 201.262657 
L 256.685731 201.545595 
L 256.716717 202.408064 
L 258.235049 202.676764 
L 258.250543 203.525376 
L 259.784368 203.808202 
L 259.799861 205.505562 
L 261.333687 205.788491 
L 261.380166 206.637321 
L 262.883005 206.920277 
L 262.913992 207.784515 
L 264.447817 208.05293 
L 264.46331 209.750078 
L 265.981642 210.032954 
L 265.981642 210.88155 
L 267.530961 211.164377 
L 267.561947 212.012845 
L 269.08028 212.295655 
L 269.095773 213.993166 
L 270.629598 214.276073 
L 270.629598 215.125317 
L 272.178917 215.408237 
L 272.19441 216.256923 
L 273.728235 216.539557 
L 273.774715 217.968036 
L 273.790208 218.236709 
L 275.277554 218.519522 
L 275.277554 219.367959 
L 276.826872 219.650784 
L 276.826872 220.499562 
L 278.376191 220.782445 
L 278.391684 222.480783 
L 279.92551 222.763836 
L 279.956496 223.612008 
L 281.474828 223.894788 
L 281.474828 224.74357 
L 283.024147 225.026471 
L 283.070626 226.157428 
L 284.635438 226.440244 
L 284.635438 227.868556 
L 286.138277 228.13725 
L 286.184757 228.986281 
L 287.718582 229.269313 
L 287.749568 230.966151 
L 289.221421 231.248963 
L 289.252408 232.065048 
L 290.786233 232.346589 
L 290.817219 233.120077 
L 292.320058 233.394808 
L 292.335551 234.793514 
L 293.869377 235.016986 
L 293.869377 235.624898 
L 295.418695 235.81155 
L 295.465175 236.728712 
L 296.968014 236.906249 
L 296.999 237.255669 
L 298.517333 237.39086 
L 298.548319 238.282839 
L 300.066651 238.425499 
L 300.066651 238.816794 
L 301.61597 238.931604 
L 301.646956 239.303809 
L 303.165288 239.404166 
L 303.227261 240.046243 
L 304.745593 240.237787 
L 304.745593 240.422231 
L 306.263926 240.593484 
L 306.263926 240.767614 
L 307.828737 240.923883 
L 307.859724 241.309579 
L 309.378056 241.443064 
L 309.378056 241.572545 
L 310.927375 241.69483 
L 310.942868 241.817803 
L 312.476693 241.930266 
L 312.492186 242.099466 
L 323.35291 242.085338 
L 328.016359 242.087741 
L 328.016359 242.087741 
" style="fill:none;stroke:#a80dfa;stroke-linecap:square;stroke-width:1.5;"/>
   </g>
   <g id="line2d_38">
    <path clip-path="url(#p9a168259e3)" d="M 69.218182 44.44364 
L 69.218182 45.341283 
L 81.612731 45.521742 
L 81.628224 46.764128 
L 83.162049 47.012363 
L 83.162049 47.727849 
L 84.711368 47.966585 
L 84.726861 48.68273 
L 86.260686 48.924021 
L 86.260686 50.42004 
L 87.810005 50.677934 
L 87.810005 51.465951 
L 89.359323 51.733406 
L 89.359323 52.543839 
L 90.908642 52.817333 
L 90.924135 54.488151 
L 92.457961 54.766869 
L 92.473454 55.611819 
L 94.007279 55.894348 
L 94.022772 57.016398 
L 95.556598 57.298021 
L 95.556598 58.704835 
L 97.105916 58.984464 
L 97.105916 59.843138 
L 98.655235 60.111037 
L 98.670728 61.242577 
L 100.204554 61.524524 
L 100.220047 62.939622 
L 101.753872 63.222026 
L 101.753872 64.071509 
L 103.303191 64.354013 
L 103.318684 65.480882 
L 104.852509 65.759314 
L 104.852509 67.15763 
L 106.417321 67.438144 
L 106.417321 68.276315 
L 107.951146 68.555612 
L 107.96664 69.953437 
L 109.500465 70.23303 
L 109.500465 71.34664 
L 111.065277 71.625366 
L 111.065277 72.460623 
L 112.599102 72.73813 
L 112.614595 74.121354 
L 114.148421 74.398137 
L 114.148421 74.950679 
L 115.713233 75.227487 
L 115.713233 76.884986 
L 117.247058 77.16104 
L 117.247058 77.986528 
L 118.796377 78.260862 
L 118.796377 79.084816 
L 120.345695 79.358981 
L 120.345695 80.459981 
L 121.895014 80.735247 
L 121.895014 82.105248 
L 123.444332 82.37878 
L 123.459826 83.200865 
L 124.993651 83.474328 
L 124.993651 85.109909 
L 126.54297 85.38172 
L 126.558463 86.195891 
L 128.092288 86.466919 
L 128.107781 87.280377 
L 129.641607 87.551183 
L 129.6571 89.173896 
L 131.190925 89.444026 
L 131.190925 90.253987 
L 132.755737 90.537768 
L 132.755737 91.331998 
L 134.289562 91.599332 
L 134.305056 93.219812 
L 135.838881 93.474288 
L 135.854374 94.277288 
L 137.3882 94.544513 
L 137.3882 95.612505 
L 138.937518 95.879345 
L 138.953011 97.212535 
L 140.486837 97.478996 
L 140.50233 98.276261 
L 142.036155 98.541359 
L 142.036155 99.601709 
L 143.585474 99.86613 
L 143.600967 101.188892 
L 145.134793 101.453249 
L 145.134793 102.509656 
L 146.684111 102.786852 
L 146.684111 103.564814 
L 148.23343 103.828221 
L 148.248923 104.618601 
L 149.782748 104.881926 
L 149.798242 106.197391 
L 151.332067 106.460245 
L 151.332067 107.773125 
L 152.881386 108.035541 
L 152.896879 108.560187 
L 154.430704 108.822303 
L 154.446197 110.132555 
L 155.980023 110.393726 
L 155.980023 111.699986 
L 157.529341 111.960985 
L 157.544834 113.004451 
L 159.07866 113.265117 
L 159.094153 114.306702 
L 160.627978 114.56694 
L 160.627978 115.347883 
L 162.177297 115.607932 
L 162.19279 116.387419 
L 163.726616 116.66015 
L 163.742109 118.202983 
L 165.275934 118.461726 
L 165.291427 119.238039 
L 166.825253 119.496639 
L 166.825253 120.271827 
L 168.374571 120.530065 
L 168.374571 121.562571 
L 169.939383 121.820892 
L 169.939383 123.108417 
L 171.473209 123.365695 
L 171.488702 124.136861 
L 173.03802 124.393268 
L 173.053514 125.932052 
L 174.587339 126.188145 
L 174.587339 126.955914 
L 176.121164 127.211617 
L 176.136657 127.979157 
L 177.685976 128.234949 
L 177.685976 129.765739 
L 179.235295 130.02056 
L 179.235295 130.78395 
L 180.76912 131.038515 
L 180.76912 131.801608 
L 182.318439 132.05596 
L 182.333932 133.579653 
L 183.898744 133.845883 
L 183.914237 134.593556 
L 185.432569 134.846935 
L 185.432569 135.608671 
L 186.966394 135.862193 
L 186.981888 137.382139 
L 188.515713 137.635398 
L 188.515713 138.394034 
L 190.080525 138.646948 
L 190.080525 139.404588 
L 191.61435 139.65685 
L 191.629843 140.917463 
L 193.163669 141.16958 
L 193.163669 142.431831 
L 194.712987 142.697455 
L 194.712987 143.191659 
L 196.262306 143.444893 
L 196.277799 144.713993 
L 197.811625 144.967247 
L 197.811625 146.235143 
L 199.360943 146.502922 
L 199.376436 146.999341 
L 200.910262 147.254021 
L 200.910262 148.527189 
L 202.45958 148.781424 
L 202.475073 150.066777 
L 204.008899 150.309507 
L 204.024392 151.331926 
L 205.558217 151.588059 
L 205.558217 152.359258 
L 207.107536 152.617687 
L 207.107536 153.649314 
L 208.656855 153.906981 
L 208.672348 155.193594 
L 210.206173 155.463516 
L 210.206173 156.233282 
L 211.755492 156.477052 
L 211.770985 157.503447 
L 213.30481 157.760858 
L 213.320304 159.060687 
L 214.854129 159.320618 
L 214.854129 160.112784 
L 216.403448 160.35925 
L 216.418941 161.137073 
L 217.952766 161.396212 
L 217.968259 162.949338 
L 219.502085 163.207409 
L 219.502085 163.981892 
L 221.066897 164.240302 
L 221.066897 165.017676 
L 222.600722 165.275954 
L 222.616215 166.822577 
L 224.15004 167.079596 
L 224.165534 167.850082 
L 225.699359 168.107139 
L 225.699359 168.877679 
L 227.248678 169.134372 
L 227.264171 170.671378 
L 228.813489 170.927326 
L 228.813489 171.69693 
L 230.347315 171.953285 
L 230.362808 172.723343 
L 231.896633 172.980092 
L 231.912127 174.516374 
L 233.445952 174.772801 
L 233.445952 175.541276 
L 234.995271 175.797061 
L 235.010764 176.563052 
L 236.544589 176.818242 
L 236.544589 178.347416 
L 238.109401 178.603752 
L 238.109401 179.370794 
L 239.643226 179.627675 
L 239.65872 180.400827 
L 241.192545 180.659056 
L 241.192545 182.214976 
L 242.741864 182.474983 
L 242.741864 183.270485 
L 244.291182 183.518021 
L 244.306675 184.298922 
L 245.840501 184.55896 
L 245.855994 185.598354 
L 247.389819 185.857784 
L 247.405312 187.146438 
L 248.939138 187.404944 
L 248.939138 188.18935 
L 250.488456 188.451454 
L 250.50395 190.033082 
L 252.037775 190.29656 
L 252.037775 191.08573 
L 253.587094 191.348847 
L 253.602587 192.137539 
L 255.136412 192.40043 
L 255.136412 193.972946 
L 256.701224 194.233531 
L 256.701224 195.022847 
L 258.235049 195.286445 
L 258.235049 196.077884 
L 259.784368 196.341927 
L 259.799861 197.924836 
L 261.333687 198.188839 
L 261.333687 198.980259 
L 262.898498 199.243645 
L 262.898498 200.032434 
L 264.432324 200.294984 
L 264.447817 201.868106 
L 265.981642 202.130857 
L 265.997136 202.932145 
L 267.530961 203.182298 
L 267.530961 203.972955 
L 269.08028 204.23622 
L 269.095773 205.825471 
L 270.629598 206.103618 
L 270.645091 206.885039 
L 272.178917 207.149949 
L 272.19441 208.211299 
L 273.728235 208.477103 
L 273.743728 209.815858 
L 275.277554 210.069272 
L 275.293047 210.868216 
L 276.826872 211.134919 
L 276.826872 211.934384 
L 278.391684 212.201037 
L 278.391684 213.808884 
L 279.92551 214.076405 
L 279.941003 214.877542 
L 281.474828 215.144252 
L 281.474828 216.210374 
L 283.03964 216.476463 
L 283.03964 217.801331 
L 284.588959 218.065919 
L 284.588959 218.864386 
L 286.122784 219.131099 
L 286.122784 219.931903 
L 287.672103 220.199033 
L 287.687596 221.813904 
L 289.221421 222.06752 
L 289.221421 222.867653 
L 290.77074 223.133925 
L 290.77074 223.930121 
L 292.320058 224.194575 
L 292.335551 225.771214 
L 293.869377 226.034655 
L 293.88487 226.822789 
L 295.434189 227.086605 
L 295.434189 227.876404 
L 296.968014 228.141664 
L 296.983507 229.752679 
L 298.517333 230.00649 
L 298.517333 230.810145 
L 300.082144 231.077745 
L 300.082144 231.867946 
L 301.61597 232.130395 
L 301.631463 233.600185 
L 303.165288 233.833068 
L 303.165288 234.475993 
L 304.7301 234.68683 
L 304.7301 235.251466 
L 306.263926 235.442466 
L 306.279419 236.492423 
L 307.813244 236.661559 
L 307.813244 237.130372 
L 309.378056 237.284354 
L 309.378056 237.711616 
L 310.911881 237.852434 
L 310.927375 238.644947 
L 312.4612 238.773214 
L 312.4612 239.117682 
L 314.010519 239.338769 
L 314.010519 239.548815 
L 315.559837 239.752316 
L 315.559837 240.230251 
L 317.109156 240.41541 
L 317.109156 240.575751 
L 318.658474 240.737097 
L 318.658474 240.889233 
L 320.207793 241.036102 
L 320.223286 241.379566 
L 321.772605 241.506446 
L 321.772605 241.615908 
L 323.321923 241.782973 
L 323.321923 241.839088 
L 324.855749 242.001042 
L 324.855749 242.105803 
L 324.871242 242.0957 
L 331.068516 242.104188 
L 331.068516 242.103787 
" style="fill:none;stroke:#fa4a0d;stroke-linecap:square;stroke-width:1.5;"/>
   </g>
   <g id="line2d_39">
    <path clip-path="url(#p9a168259e3)" d="M 69.218182 44.44364 
L 69.218182 45.705796 
L 83.162049 45.866156 
L 83.177542 47.003756 
L 84.711368 47.261338 
L 84.726861 48.00091 
L 86.260686 48.248063 
L 86.276179 49.498943 
L 87.825498 49.758972 
L 87.825498 50.290634 
L 89.359323 50.561426 
L 89.374817 52.217835 
L 90.908642 52.498442 
L 90.908642 53.344664 
L 92.457961 53.628373 
L 92.473454 54.475774 
L 94.007279 54.758727 
L 94.022772 55.879267 
L 95.556598 56.15799 
L 95.556598 57.543606 
L 97.105916 57.79994 
L 97.105916 58.856609 
L 98.670728 59.117953 
L 98.670728 59.89318 
L 100.204554 60.165407 
L 100.220047 61.44207 
L 101.753872 61.700666 
L 101.753872 62.730816 
L 103.303191 63.000979 
L 103.318684 64.254184 
L 104.852509 64.50416 
L 104.852509 65.2577 
L 106.401828 65.508931 
L 106.417321 66.257282 
L 107.96664 66.506083 
L 107.96664 67.495343 
L 109.500465 67.743113 
L 109.515958 68.975378 
L 111.049784 69.220652 
L 111.049784 69.95931 
L 112.614595 70.188083 
L 112.614595 71.61914 
L 114.148421 71.856882 
L 114.148421 72.568131 
L 115.697739 72.804539 
L 115.713233 73.5065 
L 117.247058 73.738867 
L 117.247058 74.660658 
L 118.796377 74.886968 
L 118.81187 76.014881 
L 120.345695 76.239017 
L 120.345695 76.91164 
L 121.895014 77.13576 
L 121.910507 78.472552 
L 123.444332 78.694315 
L 123.444332 79.357393 
L 124.993651 79.576897 
L 125.009144 80.233625 
L 126.558463 80.452082 
L 126.558463 81.756947 
L 128.092288 81.973074 
L 128.107781 82.621337 
L 129.641607 82.836735 
L 129.6571 83.482268 
L 131.190925 83.697216 
L 131.206418 84.980182 
L 132.740244 85.193212 
L 132.740244 85.831506 
L 134.289562 86.054261 
L 134.305056 86.890938 
L 135.838881 87.102058 
L 135.838881 87.734591 
L 137.3882 87.94473 
L 137.403693 88.994353 
L 138.937518 89.204416 
L 138.953011 90.25172 
L 140.486837 90.460604 
L 140.50233 90.877459 
L 142.036155 91.0854 
L 142.036155 92.123575 
L 143.585474 92.330463 
L 143.585474 93.362088 
L 145.134793 93.568428 
L 145.134793 93.980899 
L 146.699604 94.187962 
L 146.699604 95.224619 
L 148.23343 95.431445 
L 148.248923 96.462703 
L 149.782748 96.668561 
L 149.782748 97.079642 
L 151.34756 97.285119 
L 151.34756 98.30918 
L 152.881386 98.513076 
L 152.896879 99.532417 
L 154.430704 99.736542 
L 154.430704 100.145982 
L 155.980023 100.349428 
L 155.995516 101.36503 
L 157.529341 101.567039 
L 157.544834 102.577982 
L 159.07866 102.780119 
L 159.07866 103.183392 
L 160.627978 103.384665 
L 160.643472 103.986929 
L 162.177297 104.187173 
L 162.19279 105.390218 
L 163.726616 105.590454 
L 163.742109 106.190026 
L 165.275934 106.389477 
L 165.291427 107.384024 
L 166.825253 107.583713 
L 166.825253 108.581113 
L 168.390065 108.779803 
L 168.390065 109.176273 
L 169.92389 109.374177 
L 169.939383 110.360212 
L 171.473209 110.558313 
L 171.488702 111.559304 
L 173.03802 111.762566 
L 173.03802 112.171505 
L 174.571846 112.37729 
L 174.571846 113.412114 
L 176.136657 113.619673 
L 176.136657 114.662859 
L 177.670483 114.871848 
L 177.685976 115.289804 
L 179.219801 115.498878 
L 179.219801 116.126376 
L 180.76912 116.334497 
L 180.800106 117.590181 
L 182.318439 117.801355 
L 182.333932 118.439307 
L 183.867757 118.654818 
L 183.88325 119.731263 
L 185.417076 119.945906 
L 185.432569 121.016673 
L 186.966394 121.231206 
L 186.966394 121.670675 
L 188.515713 121.873943 
L 188.531206 122.939512 
L 190.065032 123.153217 
L 190.080525 124.231649 
L 191.61435 124.449289 
L 191.61435 124.896108 
L 193.163669 125.114174 
L 193.163669 126.193107 
L 194.712987 126.411859 
L 194.712987 127.517983 
L 196.262306 127.725526 
L 196.277799 128.596777 
L 197.811625 128.813965 
L 197.811625 129.465083 
L 199.376436 129.684963 
L 199.376436 130.785994 
L 200.910262 131.008267 
L 200.925755 131.903919 
L 202.45958 132.130078 
L 202.45958 132.810663 
L 204.008899 133.037339 
L 204.024392 133.946198 
L 205.558217 134.175149 
L 205.573711 135.321867 
L 207.107536 135.552153 
L 207.107536 136.241366 
L 208.656855 136.472463 
L 208.672348 137.400109 
L 210.206173 137.632693 
L 210.206173 138.814801 
L 211.755492 139.039874 
L 211.755492 139.750467 
L 213.30481 139.987224 
L 213.320304 140.931403 
L 214.854129 141.167192 
L 214.854129 142.347633 
L 216.403448 142.583257 
L 216.403448 143.29991 
L 217.952766 143.523882 
L 217.968259 144.473726 
L 219.502085 144.711652 
L 219.502085 145.89813 
L 221.051403 146.135093 
L 221.051403 146.844006 
L 222.600722 147.080642 
L 222.600722 148.031552 
L 224.165534 148.269539 
L 224.165534 149.456511 
L 225.699359 149.693171 
L 225.699359 150.40204 
L 227.248678 150.640379 
L 227.248678 151.355169 
L 228.797996 151.594595 
L 228.813489 153.046858 
L 230.347315 153.291582 
L 230.347315 154.029439 
L 231.896633 154.276035 
L 231.912127 155.015017 
L 233.445952 155.262653 
L 233.461445 156.751109 
L 234.995271 157.000153 
L 234.995271 157.747486 
L 236.544589 157.995622 
L 236.560082 159.243803 
L 238.109401 159.494653 
L 238.109401 159.998377 
L 239.643226 160.250788 
L 239.65872 161.523957 
L 241.192545 161.778294 
L 241.192545 162.794337 
L 242.741864 163.048118 
L 242.757357 163.810237 
L 244.291182 164.077237 
L 244.306675 165.333284 
L 245.840501 165.58665 
L 245.840501 166.861292 
L 247.389819 167.118424 
L 247.389819 167.634158 
L 248.939138 167.892482 
L 248.939138 169.187018 
L 250.50395 169.446252 
L 250.50395 170.485853 
L 252.037775 170.745809 
L 252.037775 172.043332 
L 253.587094 172.315259 
L 253.587094 173.078914 
L 255.136412 173.337531 
L 255.151905 174.378847 
L 256.685731 174.640397 
L 256.685731 175.424135 
L 258.250543 175.686144 
L 258.266036 177.005199 
L 259.784368 177.270106 
L 259.799861 178.330287 
L 261.333687 178.595676 
L 261.34918 179.927053 
L 262.883005 180.193759 
L 262.883005 180.99426 
L 264.432324 181.260839 
L 264.432324 182.329581 
L 265.981642 182.598039 
L 265.981642 183.937461 
L 267.546454 184.206618 
L 267.546454 185.017256 
L 269.08028 185.28725 
L 269.095773 186.096989 
L 270.629598 186.366617 
L 270.645091 187.98383 
L 272.178917 188.253369 
L 272.19441 189.06118 
L 273.728235 189.330186 
L 273.743728 190.1376 
L 275.277554 190.407756 
L 275.293047 192.040603 
L 276.842366 192.327293 
L 276.842366 193.133234 
L 278.376191 193.406699 
L 278.407177 194.775762 
L 279.92551 195.04953 
L 279.941003 195.870546 
L 281.474828 196.144103 
L 281.474828 197.237181 
L 283.03964 197.510206 
L 283.03964 198.884171 
L 284.573465 199.157545 
L 284.588959 199.981705 
L 286.122784 200.256156 
L 286.122784 201.358462 
L 287.672103 201.63466 
L 287.687596 203.014972 
L 289.221421 203.291014 
L 289.221421 204.121088 
L 290.77074 204.397997 
L 290.786233 205.507017 
L 292.320058 205.783684 
L 292.335551 207.168915 
L 293.869377 207.44692 
L 293.88487 208.283189 
L 295.418695 208.560865 
L 295.418695 209.397178 
L 296.968014 209.677656 
L 296.983507 211.354207 
L 298.517333 211.633447 
L 298.532826 212.471036 
L 300.082144 212.750372 
L 300.082144 213.867155 
L 301.61597 214.146156 
L 301.631463 215.540431 
L 303.165288 215.819892 
L 303.165288 216.662366 
L 304.714607 216.942745 
L 304.7301 217.784545 
L 306.263926 218.065167 
L 306.279419 219.74831 
L 307.828737 220.029067 
L 307.828737 220.871112 
L 309.362563 221.151702 
L 309.378056 221.993257 
L 310.911881 222.273701 
L 310.927375 223.960153 
L 312.4612 224.241358 
L 312.4612 225.084946 
L 314.026012 225.366185 
L 314.026012 226.208673 
L 315.559837 226.489321 
L 315.57533 228.175996 
L 317.109156 228.456872 
L 317.109156 229.300634 
L 318.658474 229.59594 
L 318.673967 230.42596 
L 320.207793 230.707177 
L 320.207793 232.392908 
L 321.757111 232.68527 
L 321.772605 233.421789 
L 323.30643 233.670604 
L 323.30643 234.386251 
L 324.855749 234.580771 
L 324.871242 235.841219 
L 326.405067 236.0416 
L 326.405067 236.572057 
L 327.954386 236.747428 
L 327.954386 237.243619 
L 329.503704 237.395016 
L 329.503704 238.158412 
L 331.053023 238.297856 
L 331.053023 238.708887 
L 332.602342 238.828747 
L 332.617835 239.311792 
L 334.15166 239.426734 
L 334.15166 239.426734 
" style="fill:none;stroke:#fa4a0d;stroke-linecap:square;stroke-width:1.5;"/>
   </g>
   <g id="patch_3">
    <path d="M 54 252 
L 54 34.56 
" style="fill:none;stroke:#000000;stroke-linecap:square;stroke-linejoin:miter;stroke-width:0.8;"/>
   </g>
   <g id="patch_4">
    <path d="M 388.8 252 
L 388.8 34.56 
" style="fill:none;stroke:#000000;stroke-linecap:square;stroke-linejoin:miter;stroke-width:0.8;"/>
   </g>
   <g id="patch_5">
    <path d="M 54 252 
L 388.8 252 
" style="fill:none;stroke:#000000;stroke-linecap:square;stroke-linejoin:miter;stroke-width:0.8;"/>
   </g>
   <g id="patch_6">
    <path d="M 54 34.56 
L 388.8 34.56 
" style="fill:none;stroke:#000000;stroke-linecap:square;stroke-linejoin:miter;stroke-width:0.8;"/>
   </g>
  </g>
 </g>
 <defs>
  <clipPath id="p9a168259e3">
   <rect height="217.44" width="334.8" x="54" y="34.56"/>
  </clipPath>
 </defs>
</svg>
