<?xml version="1.0" encoding="utf-8" standalone="no"?>
<!DOCTYPE svg PUBLIC "-//W3C//DTD SVG 1.1//EN"
  "http://www.w3.org/Graphics/SVG/1.1/DTD/svg11.dtd">
<!-- Created with matplotlib (https://matplotlib.org/) -->
<svg height="432pt" version="1.1" viewBox="0 0 576 432" width="576pt" xmlns="http://www.w3.org/2000/svg" xmlns:xlink="http://www.w3.org/1999/xlink">
 <defs>
  <style type="text/css">
*{stroke-linecap:butt;stroke-linejoin:round;}
  </style>
 </defs>
 <g id="figure_1">
  <g id="patch_1">
   <path d="M 0 432 
L 576 432 
L 576 0 
L 0 0 
z
" style="fill:#ffffff;"/>
  </g>
  <g id="axes_1">
   <g id="patch_2">
    <path d="M 72 378 
L 518.4 378 
L 518.4 51.84 
L 72 51.84 
z
" style="fill:#ffffff;"/>
   </g>
   <g id="matplotlib.axis_1">
    <g id="xtick_1">
     <g id="line2d_1">
      <path clip-path="url(#p5346f2b222)" d="M 96.665687 378 
L 96.665687 51.84 
" style="fill:none;stroke:#b0b0b0;stroke-linecap:square;stroke-width:0.8;"/>
     </g>
     <g id="line2d_2">
      <defs>
       <path d="M 0 0 
L 0 3.5 
" id="mcb8f39368e" style="stroke:#000000;stroke-width:0.8;"/>
      </defs>
      <g>
       <use style="stroke:#000000;stroke-width:0.8;" x="96.665687" xlink:href="#mcb8f39368e" y="378"/>
      </g>
     </g>
     <g id="text_1">
      <!-- 20 -->
      <defs>
       <path d="M 19.1875 8.296875 
L 53.609375 8.296875 
L 53.609375 0 
L 7.328125 0 
L 7.328125 8.296875 
Q 12.9375 14.109375 22.625 23.890625 
Q 32.328125 33.6875 34.8125 36.53125 
Q 39.546875 41.84375 41.421875 45.53125 
Q 43.3125 49.21875 43.3125 52.78125 
Q 43.3125 58.59375 39.234375 62.25 
Q 35.15625 65.921875 28.609375 65.921875 
Q 23.96875 65.921875 18.8125 64.3125 
Q 13.671875 62.703125 7.8125 59.421875 
L 7.8125 69.390625 
Q 13.765625 71.78125 18.9375 73 
Q 24.125 74.21875 28.421875 74.21875 
Q 39.75 74.21875 46.484375 68.546875 
Q 53.21875 62.890625 53.21875 53.421875 
Q 53.21875 48.921875 51.53125 44.890625 
Q 49.859375 40.875 45.40625 35.40625 
Q 44.1875 33.984375 37.640625 27.21875 
Q 31.109375 20.453125 19.1875 8.296875 
z
" id="DejaVuSans-50"/>
       <path d="M 31.78125 66.40625 
Q 24.171875 66.40625 20.328125 58.90625 
Q 16.5 51.421875 16.5 36.375 
Q 16.5 21.390625 20.328125 13.890625 
Q 24.171875 6.390625 31.78125 6.390625 
Q 39.453125 6.390625 43.28125 13.890625 
Q 47.125 21.390625 47.125 36.375 
Q 47.125 51.421875 43.28125 58.90625 
Q 39.453125 66.40625 31.78125 66.40625 
z
M 31.78125 74.21875 
Q 44.046875 74.21875 50.515625 64.515625 
Q 56.984375 54.828125 56.984375 36.375 
Q 56.984375 17.96875 50.515625 8.265625 
Q 44.046875 -1.421875 31.78125 -1.421875 
Q 19.53125 -1.421875 13.0625 8.265625 
Q 6.59375 17.96875 6.59375 36.375 
Q 6.59375 54.828125 13.0625 64.515625 
Q 19.53125 74.21875 31.78125 74.21875 
z
" id="DejaVuSans-48"/>
      </defs>
      <g transform="translate(90.303187 392.598437)scale(0.1 -0.1)">
       <use xlink:href="#DejaVuSans-50"/>
       <use x="63.623047" xlink:href="#DejaVuSans-48"/>
      </g>
     </g>
    </g>
    <g id="xtick_2">
     <g id="line2d_3">
      <path clip-path="url(#p5346f2b222)" d="M 168.619265 378 
L 168.619265 51.84 
" style="fill:none;stroke:#b0b0b0;stroke-linecap:square;stroke-width:0.8;"/>
     </g>
     <g id="line2d_4">
      <g>
       <use style="stroke:#000000;stroke-width:0.8;" x="168.619265" xlink:href="#mcb8f39368e" y="378"/>
      </g>
     </g>
     <g id="text_2">
      <!-- 30 -->
      <defs>
       <path d="M 40.578125 39.3125 
Q 47.65625 37.796875 51.625 33 
Q 55.609375 28.21875 55.609375 21.1875 
Q 55.609375 10.40625 48.1875 4.484375 
Q 40.765625 -1.421875 27.09375 -1.421875 
Q 22.515625 -1.421875 17.65625 -0.515625 
Q 12.796875 0.390625 7.625 2.203125 
L 7.625 11.71875 
Q 11.71875 9.328125 16.59375 8.109375 
Q 21.484375 6.890625 26.8125 6.890625 
Q 36.078125 6.890625 40.9375 10.546875 
Q 45.796875 14.203125 45.796875 21.1875 
Q 45.796875 27.640625 41.28125 31.265625 
Q 36.765625 34.90625 28.71875 34.90625 
L 20.21875 34.90625 
L 20.21875 43.015625 
L 29.109375 43.015625 
Q 36.375 43.015625 40.234375 45.921875 
Q 44.09375 48.828125 44.09375 54.296875 
Q 44.09375 59.90625 40.109375 62.90625 
Q 36.140625 65.921875 28.71875 65.921875 
Q 24.65625 65.921875 20.015625 65.03125 
Q 15.375 64.15625 9.8125 62.3125 
L 9.8125 71.09375 
Q 15.4375 72.65625 20.34375 73.4375 
Q 25.25 74.21875 29.59375 74.21875 
Q 40.828125 74.21875 47.359375 69.109375 
Q 53.90625 64.015625 53.90625 55.328125 
Q 53.90625 49.265625 50.4375 45.09375 
Q 46.96875 40.921875 40.578125 39.3125 
z
" id="DejaVuSans-51"/>
      </defs>
      <g transform="translate(162.256765 392.598437)scale(0.1 -0.1)">
       <use xlink:href="#DejaVuSans-51"/>
       <use x="63.623047" xlink:href="#DejaVuSans-48"/>
      </g>
     </g>
    </g>
    <g id="xtick_3">
     <g id="line2d_5">
      <path clip-path="url(#p5346f2b222)" d="M 240.572843 378 
L 240.572843 51.84 
" style="fill:none;stroke:#b0b0b0;stroke-linecap:square;stroke-width:0.8;"/>
     </g>
     <g id="line2d_6">
      <g>
       <use style="stroke:#000000;stroke-width:0.8;" x="240.572843" xlink:href="#mcb8f39368e" y="378"/>
      </g>
     </g>
     <g id="text_3">
      <!-- 40 -->
      <defs>
       <path d="M 37.796875 64.3125 
L 12.890625 25.390625 
L 37.796875 25.390625 
z
M 35.203125 72.90625 
L 47.609375 72.90625 
L 47.609375 25.390625 
L 58.015625 25.390625 
L 58.015625 17.1875 
L 47.609375 17.1875 
L 47.609375 0 
L 37.796875 0 
L 37.796875 17.1875 
L 4.890625 17.1875 
L 4.890625 26.703125 
z
" id="DejaVuSans-52"/>
      </defs>
      <g transform="translate(234.210343 392.598437)scale(0.1 -0.1)">
       <use xlink:href="#DejaVuSans-52"/>
       <use x="63.623047" xlink:href="#DejaVuSans-48"/>
      </g>
     </g>
    </g>
    <g id="xtick_4">
     <g id="line2d_7">
      <path clip-path="url(#p5346f2b222)" d="M 312.526422 378 
L 312.526422 51.84 
" style="fill:none;stroke:#b0b0b0;stroke-linecap:square;stroke-width:0.8;"/>
     </g>
     <g id="line2d_8">
      <g>
       <use style="stroke:#000000;stroke-width:0.8;" x="312.526422" xlink:href="#mcb8f39368e" y="378"/>
      </g>
     </g>
     <g id="text_4">
      <!-- 50 -->
      <defs>
       <path d="M 10.796875 72.90625 
L 49.515625 72.90625 
L 49.515625 64.59375 
L 19.828125 64.59375 
L 19.828125 46.734375 
Q 21.96875 47.46875 24.109375 47.828125 
Q 26.265625 48.1875 28.421875 48.1875 
Q 40.625 48.1875 47.75 41.5 
Q 54.890625 34.8125 54.890625 23.390625 
Q 54.890625 11.625 47.5625 5.09375 
Q 40.234375 -1.421875 26.90625 -1.421875 
Q 22.3125 -1.421875 17.546875 -0.640625 
Q 12.796875 0.140625 7.71875 1.703125 
L 7.71875 11.625 
Q 12.109375 9.234375 16.796875 8.0625 
Q 21.484375 6.890625 26.703125 6.890625 
Q 35.15625 6.890625 40.078125 11.328125 
Q 45.015625 15.765625 45.015625 23.390625 
Q 45.015625 31 40.078125 35.4375 
Q 35.15625 39.890625 26.703125 39.890625 
Q 22.75 39.890625 18.8125 39.015625 
Q 14.890625 38.140625 10.796875 36.28125 
z
" id="DejaVuSans-53"/>
      </defs>
      <g transform="translate(306.163922 392.598437)scale(0.1 -0.1)">
       <use xlink:href="#DejaVuSans-53"/>
       <use x="63.623047" xlink:href="#DejaVuSans-48"/>
      </g>
     </g>
    </g>
    <g id="xtick_5">
     <g id="line2d_9">
      <path clip-path="url(#p5346f2b222)" d="M 384.48 378 
L 384.48 51.84 
" style="fill:none;stroke:#b0b0b0;stroke-linecap:square;stroke-width:0.8;"/>
     </g>
     <g id="line2d_10">
      <g>
       <use style="stroke:#000000;stroke-width:0.8;" x="384.48" xlink:href="#mcb8f39368e" y="378"/>
      </g>
     </g>
     <g id="text_5">
      <!-- 60 -->
      <defs>
       <path d="M 33.015625 40.375 
Q 26.375 40.375 22.484375 35.828125 
Q 18.609375 31.296875 18.609375 23.390625 
Q 18.609375 15.53125 22.484375 10.953125 
Q 26.375 6.390625 33.015625 6.390625 
Q 39.65625 6.390625 43.53125 10.953125 
Q 47.40625 15.53125 47.40625 23.390625 
Q 47.40625 31.296875 43.53125 35.828125 
Q 39.65625 40.375 33.015625 40.375 
z
M 52.59375 71.296875 
L 52.59375 62.3125 
Q 48.875 64.0625 45.09375 64.984375 
Q 41.3125 65.921875 37.59375 65.921875 
Q 27.828125 65.921875 22.671875 59.328125 
Q 17.53125 52.734375 16.796875 39.40625 
Q 19.671875 43.65625 24.015625 45.921875 
Q 28.375 48.1875 33.59375 48.1875 
Q 44.578125 48.1875 50.953125 41.515625 
Q 57.328125 34.859375 57.328125 23.390625 
Q 57.328125 12.15625 50.6875 5.359375 
Q 44.046875 -1.421875 33.015625 -1.421875 
Q 20.359375 -1.421875 13.671875 8.265625 
Q 6.984375 17.96875 6.984375 36.375 
Q 6.984375 53.65625 15.1875 63.9375 
Q 23.390625 74.21875 37.203125 74.21875 
Q 40.921875 74.21875 44.703125 73.484375 
Q 48.484375 72.75 52.59375 71.296875 
z
" id="DejaVuSans-54"/>
      </defs>
      <g transform="translate(378.1175 392.598437)scale(0.1 -0.1)">
       <use xlink:href="#DejaVuSans-54"/>
       <use x="63.623047" xlink:href="#DejaVuSans-48"/>
      </g>
     </g>
    </g>
    <g id="xtick_6">
     <g id="line2d_11">
      <path clip-path="url(#p5346f2b222)" d="M 456.433578 378 
L 456.433578 51.84 
" style="fill:none;stroke:#b0b0b0;stroke-linecap:square;stroke-width:0.8;"/>
     </g>
     <g id="line2d_12">
      <g>
       <use style="stroke:#000000;stroke-width:0.8;" x="456.433578" xlink:href="#mcb8f39368e" y="378"/>
      </g>
     </g>
     <g id="text_6">
      <!-- 70 -->
      <defs>
       <path d="M 8.203125 72.90625 
L 55.078125 72.90625 
L 55.078125 68.703125 
L 28.609375 0 
L 18.3125 0 
L 43.21875 64.59375 
L 8.203125 64.59375 
z
" id="DejaVuSans-55"/>
      </defs>
      <g transform="translate(450.071078 392.598437)scale(0.1 -0.1)">
       <use xlink:href="#DejaVuSans-55"/>
       <use x="63.623047" xlink:href="#DejaVuSans-48"/>
      </g>
     </g>
    </g>
    <g id="text_7">
     <!-- time -->
     <defs>
      <path d="M 18.3125 70.21875 
L 18.3125 54.6875 
L 36.8125 54.6875 
L 36.8125 47.703125 
L 18.3125 47.703125 
L 18.3125 18.015625 
Q 18.3125 11.328125 20.140625 9.421875 
Q 21.96875 7.515625 27.59375 7.515625 
L 36.8125 7.515625 
L 36.8125 0 
L 27.59375 0 
Q 17.1875 0 13.234375 3.875 
Q 9.28125 7.765625 9.28125 18.015625 
L 9.28125 47.703125 
L 2.6875 47.703125 
L 2.6875 54.6875 
L 9.28125 54.6875 
L 9.28125 70.21875 
z
" id="DejaVuSans-116"/>
      <path d="M 9.421875 54.6875 
L 18.40625 54.6875 
L 18.40625 0 
L 9.421875 0 
z
M 9.421875 75.984375 
L 18.40625 75.984375 
L 18.40625 64.59375 
L 9.421875 64.59375 
z
" id="DejaVuSans-105"/>
      <path d="M 52 44.1875 
Q 55.375 50.25 60.0625 53.125 
Q 64.75 56 71.09375 56 
Q 79.640625 56 84.28125 50.015625 
Q 88.921875 44.046875 88.921875 33.015625 
L 88.921875 0 
L 79.890625 0 
L 79.890625 32.71875 
Q 79.890625 40.578125 77.09375 44.375 
Q 74.3125 48.1875 68.609375 48.1875 
Q 61.625 48.1875 57.5625 43.546875 
Q 53.515625 38.921875 53.515625 30.90625 
L 53.515625 0 
L 44.484375 0 
L 44.484375 32.71875 
Q 44.484375 40.625 41.703125 44.40625 
Q 38.921875 48.1875 33.109375 48.1875 
Q 26.21875 48.1875 22.15625 43.53125 
Q 18.109375 38.875 18.109375 30.90625 
L 18.109375 0 
L 9.078125 0 
L 9.078125 54.6875 
L 18.109375 54.6875 
L 18.109375 46.1875 
Q 21.1875 51.21875 25.484375 53.609375 
Q 29.78125 56 35.6875 56 
Q 41.65625 56 45.828125 52.96875 
Q 50 49.953125 52 44.1875 
z
" id="DejaVuSans-109"/>
      <path d="M 56.203125 29.59375 
L 56.203125 25.203125 
L 14.890625 25.203125 
Q 15.484375 15.921875 20.484375 11.0625 
Q 25.484375 6.203125 34.421875 6.203125 
Q 39.59375 6.203125 44.453125 7.46875 
Q 49.3125 8.734375 54.109375 11.28125 
L 54.109375 2.78125 
Q 49.265625 0.734375 44.1875 -0.34375 
Q 39.109375 -1.421875 33.890625 -1.421875 
Q 20.796875 -1.421875 13.15625 6.1875 
Q 5.515625 13.8125 5.515625 26.8125 
Q 5.515625 40.234375 12.765625 48.109375 
Q 20.015625 56 32.328125 56 
Q 43.359375 56 49.78125 48.890625 
Q 56.203125 41.796875 56.203125 29.59375 
z
M 47.21875 32.234375 
Q 47.125 39.59375 43.09375 43.984375 
Q 39.0625 48.390625 32.421875 48.390625 
Q 24.90625 48.390625 20.390625 44.140625 
Q 15.875 39.890625 15.1875 32.171875 
z
" id="DejaVuSans-101"/>
     </defs>
     <g transform="translate(283.903906 406.276563)scale(0.1 -0.1)">
      <use xlink:href="#DejaVuSans-116"/>
      <use x="39.208984" xlink:href="#DejaVuSans-105"/>
      <use x="66.992188" xlink:href="#DejaVuSans-109"/>
      <use x="164.404297" xlink:href="#DejaVuSans-101"/>
     </g>
    </g>
   </g>
   <g id="matplotlib.axis_2">
    <g id="ytick_1">
     <g id="line2d_13">
      <path clip-path="url(#p5346f2b222)" d="M 72 356.491751 
L 518.4 356.491751 
" style="fill:none;stroke:#b0b0b0;stroke-linecap:square;stroke-width:0.8;"/>
     </g>
     <g id="line2d_14">
      <defs>
       <path d="M 0 0 
L -3.5 0 
" id="m052a5924a9" style="stroke:#000000;stroke-width:0.8;"/>
      </defs>
      <g>
       <use style="stroke:#000000;stroke-width:0.8;" x="72" xlink:href="#m052a5924a9" y="356.491751"/>
      </g>
     </g>
     <g id="text_8">
      <!-- −3 -->
      <defs>
       <path d="M 10.59375 35.5 
L 73.1875 35.5 
L 73.1875 27.203125 
L 10.59375 27.203125 
z
" id="DejaVuSans-8722"/>
      </defs>
      <g transform="translate(50.257812 360.290969)scale(0.1 -0.1)">
       <use xlink:href="#DejaVuSans-8722"/>
       <use x="83.789062" xlink:href="#DejaVuSans-51"/>
      </g>
     </g>
    </g>
    <g id="ytick_2">
     <g id="line2d_15">
      <path clip-path="url(#p5346f2b222)" d="M 72 309.291688 
L 518.4 309.291688 
" style="fill:none;stroke:#b0b0b0;stroke-linecap:square;stroke-width:0.8;"/>
     </g>
     <g id="line2d_16">
      <g>
       <use style="stroke:#000000;stroke-width:0.8;" x="72" xlink:href="#m052a5924a9" y="309.291688"/>
      </g>
     </g>
     <g id="text_9">
      <!-- −2 -->
      <g transform="translate(50.257812 313.090907)scale(0.1 -0.1)">
       <use xlink:href="#DejaVuSans-8722"/>
       <use x="83.789062" xlink:href="#DejaVuSans-50"/>
      </g>
     </g>
    </g>
    <g id="ytick_3">
     <g id="line2d_17">
      <path clip-path="url(#p5346f2b222)" d="M 72 262.091626 
L 518.4 262.091626 
" style="fill:none;stroke:#b0b0b0;stroke-linecap:square;stroke-width:0.8;"/>
     </g>
     <g id="line2d_18">
      <g>
       <use style="stroke:#000000;stroke-width:0.8;" x="72" xlink:href="#m052a5924a9" y="262.091626"/>
      </g>
     </g>
     <g id="text_10">
      <!-- −1 -->
      <defs>
       <path d="M 12.40625 8.296875 
L 28.515625 8.296875 
L 28.515625 63.921875 
L 10.984375 60.40625 
L 10.984375 69.390625 
L 28.421875 72.90625 
L 38.28125 72.90625 
L 38.28125 8.296875 
L 54.390625 8.296875 
L 54.390625 0 
L 12.40625 0 
z
" id="DejaVuSans-49"/>
      </defs>
      <g transform="translate(50.257812 265.890844)scale(0.1 -0.1)">
       <use xlink:href="#DejaVuSans-8722"/>
       <use x="83.789062" xlink:href="#DejaVuSans-49"/>
      </g>
     </g>
    </g>
    <g id="ytick_4">
     <g id="line2d_19">
      <path clip-path="url(#p5346f2b222)" d="M 72 214.891563 
L 518.4 214.891563 
" style="fill:none;stroke:#b0b0b0;stroke-linecap:square;stroke-width:0.8;"/>
     </g>
     <g id="line2d_20">
      <g>
       <use style="stroke:#000000;stroke-width:0.8;" x="72" xlink:href="#m052a5924a9" y="214.891563"/>
      </g>
     </g>
     <g id="text_11">
      <!-- 0 -->
      <g transform="translate(58.6375 218.690782)scale(0.1 -0.1)">
       <use xlink:href="#DejaVuSans-48"/>
      </g>
     </g>
    </g>
    <g id="ytick_5">
     <g id="line2d_21">
      <path clip-path="url(#p5346f2b222)" d="M 72 167.691501 
L 518.4 167.691501 
" style="fill:none;stroke:#b0b0b0;stroke-linecap:square;stroke-width:0.8;"/>
     </g>
     <g id="line2d_22">
      <g>
       <use style="stroke:#000000;stroke-width:0.8;" x="72" xlink:href="#m052a5924a9" y="167.691501"/>
      </g>
     </g>
     <g id="text_12">
      <!-- 1 -->
      <g transform="translate(58.6375 171.490719)scale(0.1 -0.1)">
       <use xlink:href="#DejaVuSans-49"/>
      </g>
     </g>
    </g>
    <g id="ytick_6">
     <g id="line2d_23">
      <path clip-path="url(#p5346f2b222)" d="M 72 120.491438 
L 518.4 120.491438 
" style="fill:none;stroke:#b0b0b0;stroke-linecap:square;stroke-width:0.8;"/>
     </g>
     <g id="line2d_24">
      <g>
       <use style="stroke:#000000;stroke-width:0.8;" x="72" xlink:href="#m052a5924a9" y="120.491438"/>
      </g>
     </g>
     <g id="text_13">
      <!-- 2 -->
      <g transform="translate(58.6375 124.290657)scale(0.1 -0.1)">
       <use xlink:href="#DejaVuSans-50"/>
      </g>
     </g>
    </g>
    <g id="ytick_7">
     <g id="line2d_25">
      <path clip-path="url(#p5346f2b222)" d="M 72 73.291376 
L 518.4 73.291376 
" style="fill:none;stroke:#b0b0b0;stroke-linecap:square;stroke-width:0.8;"/>
     </g>
     <g id="line2d_26">
      <g>
       <use style="stroke:#000000;stroke-width:0.8;" x="72" xlink:href="#m052a5924a9" y="73.291376"/>
      </g>
     </g>
     <g id="text_14">
      <!-- 3 -->
      <g transform="translate(58.6375 77.090594)scale(0.1 -0.1)">
       <use xlink:href="#DejaVuSans-51"/>
      </g>
     </g>
    </g>
    <g id="text_15">
     <!-- yaw (radians) -->
     <defs>
      <path d="M 32.171875 -5.078125 
Q 28.375 -14.84375 24.75 -17.8125 
Q 21.140625 -20.796875 15.09375 -20.796875 
L 7.90625 -20.796875 
L 7.90625 -13.28125 
L 13.1875 -13.28125 
Q 16.890625 -13.28125 18.9375 -11.515625 
Q 21 -9.765625 23.484375 -3.21875 
L 25.09375 0.875 
L 2.984375 54.6875 
L 12.5 54.6875 
L 29.59375 11.921875 
L 46.6875 54.6875 
L 56.203125 54.6875 
z
" id="DejaVuSans-121"/>
      <path d="M 34.28125 27.484375 
Q 23.390625 27.484375 19.1875 25 
Q 14.984375 22.515625 14.984375 16.5 
Q 14.984375 11.71875 18.140625 8.90625 
Q 21.296875 6.109375 26.703125 6.109375 
Q 34.1875 6.109375 38.703125 11.40625 
Q 43.21875 16.703125 43.21875 25.484375 
L 43.21875 27.484375 
z
M 52.203125 31.203125 
L 52.203125 0 
L 43.21875 0 
L 43.21875 8.296875 
Q 40.140625 3.328125 35.546875 0.953125 
Q 30.953125 -1.421875 24.3125 -1.421875 
Q 15.921875 -1.421875 10.953125 3.296875 
Q 6 8.015625 6 15.921875 
Q 6 25.140625 12.171875 29.828125 
Q 18.359375 34.515625 30.609375 34.515625 
L 43.21875 34.515625 
L 43.21875 35.40625 
Q 43.21875 41.609375 39.140625 45 
Q 35.0625 48.390625 27.6875 48.390625 
Q 23 48.390625 18.546875 47.265625 
Q 14.109375 46.140625 10.015625 43.890625 
L 10.015625 52.203125 
Q 14.9375 54.109375 19.578125 55.046875 
Q 24.21875 56 28.609375 56 
Q 40.484375 56 46.34375 49.84375 
Q 52.203125 43.703125 52.203125 31.203125 
z
" id="DejaVuSans-97"/>
      <path d="M 4.203125 54.6875 
L 13.1875 54.6875 
L 24.421875 12.015625 
L 35.59375 54.6875 
L 46.1875 54.6875 
L 57.421875 12.015625 
L 68.609375 54.6875 
L 77.59375 54.6875 
L 63.28125 0 
L 52.6875 0 
L 40.921875 44.828125 
L 29.109375 0 
L 18.5 0 
z
" id="DejaVuSans-119"/>
      <path id="DejaVuSans-32"/>
      <path d="M 31 75.875 
Q 24.46875 64.65625 21.28125 53.65625 
Q 18.109375 42.671875 18.109375 31.390625 
Q 18.109375 20.125 21.3125 9.0625 
Q 24.515625 -2 31 -13.1875 
L 23.1875 -13.1875 
Q 15.875 -1.703125 12.234375 9.375 
Q 8.59375 20.453125 8.59375 31.390625 
Q 8.59375 42.28125 12.203125 53.3125 
Q 15.828125 64.359375 23.1875 75.875 
z
" id="DejaVuSans-40"/>
      <path d="M 41.109375 46.296875 
Q 39.59375 47.171875 37.8125 47.578125 
Q 36.03125 48 33.890625 48 
Q 26.265625 48 22.1875 43.046875 
Q 18.109375 38.09375 18.109375 28.8125 
L 18.109375 0 
L 9.078125 0 
L 9.078125 54.6875 
L 18.109375 54.6875 
L 18.109375 46.1875 
Q 20.953125 51.171875 25.484375 53.578125 
Q 30.03125 56 36.53125 56 
Q 37.453125 56 38.578125 55.875 
Q 39.703125 55.765625 41.0625 55.515625 
z
" id="DejaVuSans-114"/>
      <path d="M 45.40625 46.390625 
L 45.40625 75.984375 
L 54.390625 75.984375 
L 54.390625 0 
L 45.40625 0 
L 45.40625 8.203125 
Q 42.578125 3.328125 38.25 0.953125 
Q 33.9375 -1.421875 27.875 -1.421875 
Q 17.96875 -1.421875 11.734375 6.484375 
Q 5.515625 14.40625 5.515625 27.296875 
Q 5.515625 40.1875 11.734375 48.09375 
Q 17.96875 56 27.875 56 
Q 33.9375 56 38.25 53.625 
Q 42.578125 51.265625 45.40625 46.390625 
z
M 14.796875 27.296875 
Q 14.796875 17.390625 18.875 11.75 
Q 22.953125 6.109375 30.078125 6.109375 
Q 37.203125 6.109375 41.296875 11.75 
Q 45.40625 17.390625 45.40625 27.296875 
Q 45.40625 37.203125 41.296875 42.84375 
Q 37.203125 48.484375 30.078125 48.484375 
Q 22.953125 48.484375 18.875 42.84375 
Q 14.796875 37.203125 14.796875 27.296875 
z
" id="DejaVuSans-100"/>
      <path d="M 54.890625 33.015625 
L 54.890625 0 
L 45.90625 0 
L 45.90625 32.71875 
Q 45.90625 40.484375 42.875 44.328125 
Q 39.84375 48.1875 33.796875 48.1875 
Q 26.515625 48.1875 22.3125 43.546875 
Q 18.109375 38.921875 18.109375 30.90625 
L 18.109375 0 
L 9.078125 0 
L 9.078125 54.6875 
L 18.109375 54.6875 
L 18.109375 46.1875 
Q 21.34375 51.125 25.703125 53.5625 
Q 30.078125 56 35.796875 56 
Q 45.21875 56 50.046875 50.171875 
Q 54.890625 44.34375 54.890625 33.015625 
z
" id="DejaVuSans-110"/>
      <path d="M 44.28125 53.078125 
L 44.28125 44.578125 
Q 40.484375 46.53125 36.375 47.5 
Q 32.28125 48.484375 27.875 48.484375 
Q 21.1875 48.484375 17.84375 46.4375 
Q 14.5 44.390625 14.5 40.28125 
Q 14.5 37.15625 16.890625 35.375 
Q 19.28125 33.59375 26.515625 31.984375 
L 29.59375 31.296875 
Q 39.15625 29.25 43.1875 25.515625 
Q 47.21875 21.78125 47.21875 15.09375 
Q 47.21875 7.46875 41.1875 3.015625 
Q 35.15625 -1.421875 24.609375 -1.421875 
Q 20.21875 -1.421875 15.453125 -0.5625 
Q 10.6875 0.296875 5.421875 2 
L 5.421875 11.28125 
Q 10.40625 8.6875 15.234375 7.390625 
Q 20.0625 6.109375 24.8125 6.109375 
Q 31.15625 6.109375 34.5625 8.28125 
Q 37.984375 10.453125 37.984375 14.40625 
Q 37.984375 18.0625 35.515625 20.015625 
Q 33.0625 21.96875 24.703125 23.78125 
L 21.578125 24.515625 
Q 13.234375 26.265625 9.515625 29.90625 
Q 5.8125 33.546875 5.8125 39.890625 
Q 5.8125 47.609375 11.28125 51.796875 
Q 16.75 56 26.8125 56 
Q 31.78125 56 36.171875 55.265625 
Q 40.578125 54.546875 44.28125 53.078125 
z
" id="DejaVuSans-115"/>
      <path d="M 8.015625 75.875 
L 15.828125 75.875 
Q 23.140625 64.359375 26.78125 53.3125 
Q 30.421875 42.28125 30.421875 31.390625 
Q 30.421875 20.453125 26.78125 9.375 
Q 23.140625 -1.703125 15.828125 -13.1875 
L 8.015625 -13.1875 
Q 14.5 -2 17.703125 9.0625 
Q 20.90625 20.125 20.90625 31.390625 
Q 20.90625 42.671875 17.703125 53.65625 
Q 14.5 64.65625 8.015625 75.875 
z
" id="DejaVuSans-41"/>
     </defs>
     <g transform="translate(44.178125 249.043437)rotate(-90)scale(0.1 -0.1)">
      <use xlink:href="#DejaVuSans-121"/>
      <use x="59.179688" xlink:href="#DejaVuSans-97"/>
      <use x="120.458984" xlink:href="#DejaVuSans-119"/>
      <use x="202.246094" xlink:href="#DejaVuSans-32"/>
      <use x="234.033203" xlink:href="#DejaVuSans-40"/>
      <use x="273.046875" xlink:href="#DejaVuSans-114"/>
      <use x="314.160156" xlink:href="#DejaVuSans-97"/>
      <use x="375.439453" xlink:href="#DejaVuSans-100"/>
      <use x="438.916016" xlink:href="#DejaVuSans-105"/>
      <use x="466.699219" xlink:href="#DejaVuSans-97"/>
      <use x="527.978516" xlink:href="#DejaVuSans-110"/>
      <use x="591.357422" xlink:href="#DejaVuSans-115"/>
      <use x="643.457031" xlink:href="#DejaVuSans-41"/>
     </g>
    </g>
   </g>
   <g id="line2d_27">
    <path clip-path="url(#p5346f2b222)" d="M 92.290909 214.891506 
L 92.290909 214.891506 
L 196.630793 214.860623 
L 196.630793 214.860528 
L 197.350329 214.381659 
L 198.069865 212.983138 
L 198.7894 210.685849 
L 199.501741 204.664155 
L 201.660348 183.911387 
L 202.379884 178.962624 
L 203.106615 177.698962 
L 204.545687 177.677591 
L 205.265222 177.06727 
L 205.977563 174.524435 
L 205.977563 174.479773 
L 207.416634 163.944919 
L 208.157756 159.805527 
L 208.891683 157.312171 
L 209.582437 155.958238 
L 210.294778 155.626828 
L 223.973153 155.517568 
L 223.973153 155.507755 
L 224.685493 154.491159 
L 226.844101 149.448386 
L 228.283172 147.036636 
L 229.722244 145.511001 
L 231.168511 144.623957 
L 232.600387 144.000632 
L 234.053849 143.67132 
L 241.234816 143.102945 
L 246.271567 142.966682 
L 246.271567 142.967866 
L 248.437369 142.954596 
L 248.437369 142.948667 
L 250.588781 142.410681 
L 250.588781 142.410683 
L 251.308317 142.73723 
L 252.027853 143.078938 
L 252.027853 143.078936 
L 256.345068 143.009543 
L 256.345068 143.008923 
L 258.503675 142.95886 
L 258.503675 142.959315 
L 266.418569 142.684826 
L 266.418569 142.685751 
L 267.85764 142.535675 
L 269.296712 142.478072 
L 269.296712 142.478163 
L 270.742979 142.360323 
L 270.742979 142.350443 
L 272.915977 142.162191 
L 272.915977 142.162291 
L 274.333462 142.054948 
L 274.333462 142.05516 
L 276.49207 141.350736 
L 277.931141 141.318381 
L 277.931141 141.31057 
L 278.650677 140.920488 
L 279.370213 140.45855 
L 281.52882 140.304177 
L 282.248356 139.924037 
L 282.967892 139.214026 
L 284.406963 137.478355 
L 284.406963 137.433745 
L 285.85323 135.932943 
L 288.004642 134.152209 
L 288.004642 134.135287 
L 288.724178 133.435642 
L 288.724178 133.436201 
L 289.443714 133.320177 
L 290.16325 130.204377 
L 290.16325 130.148711 
L 290.889981 122.905895 
L 292.329052 107.967917 
L 293.041393 103.144572 
L 293.760928 101.010343 
L 294.48766 100.766899 
L 296.639072 100.760325 
L 297.365803 100.565398 
L 298.085338 99.100073 
L 298.085338 99.071622 
L 298.797679 94.649896 
L 300.23675 85.441148 
L 301.675822 79.511658 
L 302.402553 77.751368 
L 303.114894 77.069814 
L 303.114894 77.069885 
L 321.830019 77.046538 
L 321.830019 77.041234 
L 322.54236 76.746219 
L 323.261896 76.206641 
L 323.981431 75.295185 
L 325.427698 72.988795 
L 327.57911 70.438215 
L 328.298646 69.899499 
L 330.464449 69.059964 
L 333.335397 68.449637 
L 336.933075 68.057042 
L 338.372147 68.044065 
L 338.372147 68.051321 
L 339.811219 69.977874 
L 341.25029 69.8991 
L 341.25029 69.899354 
L 343.408897 69.792479 
L 344.135629 69.675881 
L 344.135629 69.675962 
L 345.5747 69.673989 
L 345.5747 69.673203 
L 346.287041 69.518087 
L 346.287041 69.524649 
L 349.165184 69.413714 
L 350.611451 69.31592 
L 360.684952 68.721714 
L 362.116828 68.352913 
L 363.555899 68.245786 
L 363.555899 68.245879 
L 364.275435 68.245215 
L 365.009362 68.04194 
L 365.721702 67.746273 
L 366.441238 67.57494 
L 368.59265 67.512468 
L 368.59265 67.48208 
L 369.319381 67.12938 
L 370.031721 66.961445 
L 372.190329 66.881776 
L 372.91706 66.670799 
L 373.643791 363.030019 
L 373.650986 363.001678 
L 376.514739 362.774698 
L 377.946615 362.425384 
L 377.946615 362.425894 
L 380.112418 362.301917 
L 381.544294 361.888384 
L 381.544294 361.889246 
L 384.422437 361.658036 
L 385.141973 361.285016 
L 387.307776 360.031026 
L 387.307776 360.031063 
L 388.020116 359.942697 
L 388.768433 359.573811 
L 389.466383 359.443753 
L 397.374081 359.351849 
L 397.374081 359.337299 
L 398.093617 358.836889 
L 398.813153 357.129732 
L 399.532689 355.090882 
L 400.252224 352.619078 
L 401.698491 347.162014 
L 402.410832 345.867009 
L 403.857099 345.787778 
L 406.742437 345.703659 
L 408.174313 345.610764 
L 408.886654 345.134819 
L 408.886654 344.995495 
L 410.332921 341.820655 
L 410.332921 341.778116 
L 411.764797 338.661493 
L 412.484333 337.620283 
L 414.64294 335.396672 
L 414.64294 335.309039 
L 415.362476 334.109316 
L 416.082012 333.288686 
L 417.521083 332.692718 
L 417.521083 332.669098 
L 419.679691 329.782302 
L 421.125957 328.41761 
L 422.557834 327.613544 
L 424.716441 327.173735 
L 424.716441 327.182365 
L 426.162708 327.90008 
L 426.162708 327.899904 
L 427.61617 327.7943 
L 429.753191 327.670913 
L 431.192263 327.362671 
L 433.35087 327.297829 
L 433.35087 327.297864 
L 435.509478 327.044339 
L 435.509478 327.044584 
L 437.668085 326.948309 
L 437.668085 326.937498 
L 439.107157 326.826822 
L 439.107157 326.827491 
L 441.265764 326.77648 
L 441.265764 326.766411 
L 442.704836 326.655628 
L 442.704836 326.657046 
L 444.863443 326.636229 
L 444.863443 326.629699 
L 446.30971 326.522841 
L 449.180658 326.437854 
L 449.180658 326.431932 
L 454.936944 326.282944 
L 459.973694 326.094204 
L 461.419961 325.950046 
L 464.290909 325.843197 
L 465.010445 325.781743 
L 466.449516 325.57161 
L 467.169052 325.50875 
L 468.615319 325.191319 
L 472.212998 325.16895 
L 472.925338 324.921699 
L 475.083946 323.932297 
L 475.810677 323.798311 
L 476.523017 323.537725 
L 479.401161 323.50408 
L 495.950484 323.377112 
L 495.950484 323.376031 
L 498.109091 323.271642 
L 498.109091 323.271642 
" style="fill:none;stroke:#1f77b4;stroke-linecap:square;stroke-width:1.5;"/>
   </g>
   <g id="line2d_28">
    <path clip-path="url(#p5346f2b222)" d="M 92.290909 214.896174 
L 92.290909 214.896174 
L 197.350329 214.864251 
L 197.350329 214.798236 
L 197.350329 214.715134 
L 198.069865 214.585267 
L 198.069865 213.417383 
L 198.7894 213.071804 
L 198.7894 211.795158 
L 199.501741 211.29547 
L 199.501741 209.374178 
L 200.221277 208.146331 
L 200.221277 198.777954 
L 200.940812 197.349898 
L 200.940812 193.338691 
L 201.660348 192.094621 
L 201.660348 185.473956 
L 202.379884 184.222614 
L 202.379884 181.811818 
L 203.106615 180.769749 
L 203.106615 177.70382 
L 205.265222 177.60566 
L 205.265222 177.494767 
L 205.977563 177.3252 
L 205.977563 176.448395 
L 206.704294 175.978936 
L 206.704294 170.215594 
L 207.416634 169.070935 
L 207.416634 166.04117 
L 208.157756 165.061817 
L 208.157756 160.699193 
L 208.891683 159.945035 
L 208.891683 158.236381 
L 209.582437 157.782684 
L 209.582437 156.678982 
L 210.294778 156.382493 
L 210.294778 155.617744 
L 213.172921 155.562339 
L 224.685493 155.473295 
L 224.685493 154.952326 
L 225.405029 154.721424 
L 225.405029 152.97889 
L 226.13176 152.600843 
L 226.13176 151.553553 
L 226.844101 151.196432 
L 226.844101 150.320376 
L 227.563636 149.991756 
L 227.563636 148.541731 
L 228.283172 148.288248 
L 228.283172 147.60105 
L 229.009903 147.383593 
L 229.009903 146.26715 
L 229.722244 146.123495 
L 229.722244 145.728752 
L 230.441779 145.579768 
L 230.441779 145.140262 
L 231.168511 144.939931 
L 231.168511 144.698568 
L 231.888046 144.552868 
L 231.888046 144.267779 
L 232.600387 144.140701 
L 232.600387 144.082566 
L 233.319923 143.921445 
L 233.319923 143.742298 
L 234.78058 143.561943 
L 234.78058 143.528884 
L 236.924797 143.366896 
L 236.924797 143.26142 
L 239.80294 143.093836 
L 239.80294 143.080788 
L 243.400619 142.926896 
L 243.400619 142.91619 
L 249.869246 142.708209 
L 249.869246 142.622376 
L 250.588781 142.499226 
L 250.588781 142.345674 
L 251.308317 142.329853 
L 251.308317 142.408534 
L 252.027853 142.494977 
L 252.027853 142.851199 
L 253.466925 142.992076 
L 253.466925 142.979928 
L 267.138104 142.577921 
L 267.138104 142.496925 
L 271.462515 142.195284 
L 271.462515 142.184087 
L 274.333462 142.055523 
L 274.333462 141.982163 
L 275.052998 141.883919 
L 275.052998 141.832268 
L 275.772534 141.701661 
L 275.772534 141.507939 
L 276.49207 141.324075 
L 276.49207 141.255377 
L 278.650677 141.217992 
L 278.650677 141.187078 
L 278.650677 141.031849 
L 279.370213 140.839512 
L 279.370213 140.521213 
L 282.967892 140.04725 
L 282.967892 139.441124 
L 283.687427 139.295184 
L 283.687427 138.807075 
L 284.406963 138.631899 
L 284.406963 137.73424 
L 285.126499 137.553134 
L 285.126499 137.023064 
L 285.85323 136.845383 
L 285.85323 135.999854 
L 286.565571 135.866723 
L 286.565571 135.497608 
L 287.285106 135.279279 
L 287.285106 135.055054 
L 288.004642 134.929779 
L 288.004642 134.538945 
L 288.724178 134.39192 
L 288.724178 133.555773 
L 290.16325 133.239463 
L 290.16325 131.955044 
L 290.889981 131.197373 
L 290.889981 126.279205 
L 291.602321 124.705956 
L 291.602321 116.987839 
L 292.329052 115.313043 
L 292.329052 110.893217 
L 293.041393 109.445973 
L 293.041393 105.827628 
L 293.760928 104.880214 
L 293.760928 101.602852 
L 294.48766 101.244077 
L 294.48766 100.728164 
L 298.085338 100.49728 
L 298.085338 99.544706 
L 298.797679 99.091498 
L 298.797679 96.753975 
L 299.517215 95.759652 
L 299.517215 92.767568 
L 300.23675 91.74282 
L 300.23675 87.076281 
L 300.970677 86.218957 
L 300.977872 84.156907 
L 301.675822 83.489127 
L 301.675822 80.017935 
L 302.402553 79.525311 
L 302.402553 78.711197 
L 303.114894 78.326204 
L 303.114894 77.122157 
L 304.553965 76.968505 
L 322.54236 76.856604 
L 322.54236 76.795465 
L 323.261896 76.63138 
L 323.261896 76.216205 
L 323.981431 76.092376 
L 323.981431 75.618952 
L 324.700967 75.419349 
L 324.700967 74.697963 
L 325.427698 74.437889 
L 325.427698 73.08775 
L 326.140039 72.892627 
L 326.140039 72.504818 
L 326.86677 72.300732 
L 326.86677 71.199612 
L 327.57911 71.055181 
L 327.57911 70.60894 
L 328.298646 70.462976 
L 328.298646 70.104945 
L 329.018182 69.875274 
L 329.018182 69.57054 
L 329.744913 69.443878 
L 329.744913 69.329261 
L 330.464449 69.165426 
L 330.464449 69.028033 
L 331.176789 68.89959 
L 331.176789 68.858968 
L 331.896325 68.710593 
L 331.896325 68.611111 
L 333.335397 68.441705 
L 333.335397 68.346504 
L 334.774468 68.202711 
L 334.774468 68.184214 
L 336.21354 68.040049 
L 336.21354 68.025817 
L 339.120464 67.928943 
L 339.120464 67.990822 
L 339.120464 68.391794 
L 339.811219 68.648324 
L 339.811219 69.393799 
L 340.545145 69.611 
L 340.545145 69.845914 
L 340.545145 69.781836 
L 344.135629 69.657165 
L 344.135629 69.626119 
L 353.489594 69.076876 
L 355.648201 68.959307 
L 355.648201 68.86745 
L 355.648201 68.868026 
L 357.806809 68.853613 
L 357.806809 68.770674 
L 357.806809 68.733913 
L 361.397292 68.540911 
L 361.397292 68.407155 
L 362.116828 68.229436 
L 362.116828 68.215225 
L 365.009362 68.096192 
L 365.009362 68.070897 
L 365.721702 67.925393 
L 365.721702 67.632459 
L 366.441238 67.521212 
L 369.319381 67.209653 
L 369.319381 67.065351 
L 370.751257 66.848598 
L 370.751257 66.809429 
L 372.91706 66.701795 
L 373.650986 66.665455 
L 373.650986 363.174545 
L 373.650986 362.991976 
L 374.348936 362.879151 
L 374.348936 362.79927 
L 377.227079 362.684602 
L 377.227079 362.539228 
L 377.946615 362.405659 
L 377.946615 362.281724 
L 380.112418 362.228507 
L 380.112418 362.17708 
L 380.112418 362.172072 
L 380.831954 362.092301 
L 380.831954 361.98929 
L 381.544294 361.876381 
L 381.544294 361.752213 
L 383.702901 361.621006 
L 383.702901 361.560864 
L 385.141973 361.539008 
L 385.141973 361.464231 
L 385.141973 361.414373 
L 385.868704 361.274208 
L 385.868704 360.812584 
L 386.581044 360.658925 
L 386.581044 360.483811 
L 387.307776 360.279107 
L 387.307776 359.999297 
L 388.768433 359.739575 
L 388.768433 359.5394 
L 389.466383 359.377533 
L 389.466383 359.294414 
L 398.093617 359.178009 
L 398.093617 358.869191 
L 398.813153 358.708559 
L 398.813153 357.821457 
L 399.532689 357.425689 
L 399.532689 356.353491 
L 400.252224 355.902251 
L 400.252224 353.590758 
L 400.97176 353.086564 
L 400.97176 351.42559 
L 401.698491 350.912574 
L 401.698491 347.522155 
L 402.410832 347.066343 
L 402.410832 346.122239 
L 403.137563 345.885243 
L 403.137563 345.620469 
L 407.447582 345.503857 
L 407.447582 345.495048 
L 408.886654 345.393958 
L 409.60619 345.281453 
L 409.60619 343.919005 
L 410.332921 343.485621 
L 410.332921 342.228593 
L 411.045261 341.846976 
L 411.045261 340.357963 
L 411.764797 339.979137 
L 411.764797 339.148656 
L 412.484333 338.819437 
L 412.484333 338.067424 
L 413.203868 337.852089 
L 413.203868 336.980131 
L 413.923404 336.837103 
L 413.923404 336.469891 
L 414.64294 336.244292 
L 414.64294 335.40577 
L 415.362476 335.171855 
L 415.362476 334.432236 
L 416.082012 334.181872 
L 416.082012 333.254914 
L 416.808743 333.03833 
L 416.808743 332.923916 
L 417.521083 332.788815 
L 417.521083 332.628098 
L 418.240619 332.504623 
L 418.240619 331.91355 
L 418.96735 331.691717 
L 418.96735 331.096445 
L 419.679691 330.894707 
L 419.694081 329.776227 
L 420.406422 329.622376 
L 420.406422 329.174605 
L 421.125957 329.020054 
L 421.125957 328.35039 
L 421.859884 328.145026 
L 421.859884 327.95581 
L 422.557834 327.773901 
L 422.557834 327.629558 
L 423.284565 327.493769 
L 423.284565 327.304524 
L 423.996905 327.178976 
L 423.996905 327.145626 
L 424.716441 327.005715 
L 424.716441 326.987258 
L 425.435977 327.080976 
L 425.435977 327.176399 
L 426.162708 327.29 
L 426.162708 327.643314 
L 427.61617 327.716941 
L 427.61617 327.686372 
L 430.472727 327.485232 
L 430.472727 327.419036 
L 431.192263 327.273001 
L 431.192263 327.208609 
L 434.789942 326.994709 
L 434.789942 326.905715 
L 438.402012 326.713503 
L 438.402012 326.679897 
L 442.704836 326.489601 
L 442.704836 326.475169 
L 446.30971 326.354504 
L 446.30971 326.347495 
L 452.778337 326.194076 
L 452.778337 326.178497 
L 460.700426 325.864552 
L 460.700426 325.84245 
L 465.737176 325.612269 
L 465.737176 325.458319 
L 467.888588 325.297019 
L 467.888588 325.221997 
L 469.349246 325.048495 
L 469.349246 325.007383 
L 472.925338 324.914341 
L 473.659265 324.799711 
L 473.659265 324.451825 
L 474.371605 324.292898 
L 474.371605 324.161474 
L 475.083946 324.028269 
L 475.083946 323.80001 
L 476.523017 323.629401 
L 476.530213 323.396015 
L 480.120696 323.31894 
L 495.950484 323.20501 
L 495.950484 323.199924 
L 498.109091 323.087133 
L 498.109091 323.087133 
" style="fill:none;stroke:#ff7f0e;stroke-linecap:square;stroke-width:1.5;"/>
   </g>
   <g id="patch_3">
    <path d="M 72 378 
L 72 51.84 
" style="fill:none;stroke:#000000;stroke-linecap:square;stroke-linejoin:miter;stroke-width:0.8;"/>
   </g>
   <g id="patch_4">
    <path d="M 518.4 378 
L 518.4 51.84 
" style="fill:none;stroke:#000000;stroke-linecap:square;stroke-linejoin:miter;stroke-width:0.8;"/>
   </g>
   <g id="patch_5">
    <path d="M 72 378 
L 518.4 378 
" style="fill:none;stroke:#000000;stroke-linecap:square;stroke-linejoin:miter;stroke-width:0.8;"/>
   </g>
   <g id="patch_6">
    <path d="M 72 51.84 
L 518.4 51.84 
" style="fill:none;stroke:#000000;stroke-linecap:square;stroke-linejoin:miter;stroke-width:0.8;"/>
   </g>
   <g id="legend_1">
    <g id="patch_7">
     <path d="M 79 89.474375 
L 328.814062 89.474375 
Q 330.814062 89.474375 330.814062 87.474375 
L 330.814062 58.84 
Q 330.814062 56.84 328.814062 56.84 
L 79 56.84 
Q 77 56.84 77 58.84 
L 77 87.474375 
Q 77 89.474375 79 89.474375 
z
" style="fill:#ffffff;opacity:0.8;stroke:#cccccc;stroke-linejoin:miter;"/>
    </g>
    <g id="line2d_29">
     <path d="M 81 64.938438 
L 101 64.938438 
" style="fill:none;stroke:#1f77b4;stroke-linecap:square;stroke-width:1.5;"/>
    </g>
    <g id="line2d_30"/>
    <g id="text_16">
     <!-- /gazebo/model_states/pose[2]/orientation/z -->
     <defs>
      <path d="M 25.390625 72.90625 
L 33.6875 72.90625 
L 8.296875 -9.28125 
L 0 -9.28125 
z
" id="DejaVuSans-47"/>
      <path d="M 45.40625 27.984375 
Q 45.40625 37.75 41.375 43.109375 
Q 37.359375 48.484375 30.078125 48.484375 
Q 22.859375 48.484375 18.828125 43.109375 
Q 14.796875 37.75 14.796875 27.984375 
Q 14.796875 18.265625 18.828125 12.890625 
Q 22.859375 7.515625 30.078125 7.515625 
Q 37.359375 7.515625 41.375 12.890625 
Q 45.40625 18.265625 45.40625 27.984375 
z
M 54.390625 6.78125 
Q 54.390625 -7.171875 48.1875 -13.984375 
Q 42 -20.796875 29.203125 -20.796875 
Q 24.46875 -20.796875 20.265625 -20.09375 
Q 16.0625 -19.390625 12.109375 -17.921875 
L 12.109375 -9.1875 
Q 16.0625 -11.328125 19.921875 -12.34375 
Q 23.78125 -13.375 27.78125 -13.375 
Q 36.625 -13.375 41.015625 -8.765625 
Q 45.40625 -4.15625 45.40625 5.171875 
L 45.40625 9.625 
Q 42.625 4.78125 38.28125 2.390625 
Q 33.9375 0 27.875 0 
Q 17.828125 0 11.671875 7.65625 
Q 5.515625 15.328125 5.515625 27.984375 
Q 5.515625 40.671875 11.671875 48.328125 
Q 17.828125 56 27.875 56 
Q 33.9375 56 38.28125 53.609375 
Q 42.625 51.21875 45.40625 46.390625 
L 45.40625 54.6875 
L 54.390625 54.6875 
z
" id="DejaVuSans-103"/>
      <path d="M 5.515625 54.6875 
L 48.1875 54.6875 
L 48.1875 46.484375 
L 14.40625 7.171875 
L 48.1875 7.171875 
L 48.1875 0 
L 4.296875 0 
L 4.296875 8.203125 
L 38.09375 47.515625 
L 5.515625 47.515625 
z
" id="DejaVuSans-122"/>
      <path d="M 48.6875 27.296875 
Q 48.6875 37.203125 44.609375 42.84375 
Q 40.53125 48.484375 33.40625 48.484375 
Q 26.265625 48.484375 22.1875 42.84375 
Q 18.109375 37.203125 18.109375 27.296875 
Q 18.109375 17.390625 22.1875 11.75 
Q 26.265625 6.109375 33.40625 6.109375 
Q 40.53125 6.109375 44.609375 11.75 
Q 48.6875 17.390625 48.6875 27.296875 
z
M 18.109375 46.390625 
Q 20.953125 51.265625 25.265625 53.625 
Q 29.59375 56 35.59375 56 
Q 45.5625 56 51.78125 48.09375 
Q 58.015625 40.1875 58.015625 27.296875 
Q 58.015625 14.40625 51.78125 6.484375 
Q 45.5625 -1.421875 35.59375 -1.421875 
Q 29.59375 -1.421875 25.265625 0.953125 
Q 20.953125 3.328125 18.109375 8.203125 
L 18.109375 0 
L 9.078125 0 
L 9.078125 75.984375 
L 18.109375 75.984375 
z
" id="DejaVuSans-98"/>
      <path d="M 30.609375 48.390625 
Q 23.390625 48.390625 19.1875 42.75 
Q 14.984375 37.109375 14.984375 27.296875 
Q 14.984375 17.484375 19.15625 11.84375 
Q 23.34375 6.203125 30.609375 6.203125 
Q 37.796875 6.203125 41.984375 11.859375 
Q 46.1875 17.53125 46.1875 27.296875 
Q 46.1875 37.015625 41.984375 42.703125 
Q 37.796875 48.390625 30.609375 48.390625 
z
M 30.609375 56 
Q 42.328125 56 49.015625 48.375 
Q 55.71875 40.765625 55.71875 27.296875 
Q 55.71875 13.875 49.015625 6.21875 
Q 42.328125 -1.421875 30.609375 -1.421875 
Q 18.84375 -1.421875 12.171875 6.21875 
Q 5.515625 13.875 5.515625 27.296875 
Q 5.515625 40.765625 12.171875 48.375 
Q 18.84375 56 30.609375 56 
z
" id="DejaVuSans-111"/>
      <path d="M 9.421875 75.984375 
L 18.40625 75.984375 
L 18.40625 0 
L 9.421875 0 
z
" id="DejaVuSans-108"/>
      <path d="M 50.984375 -16.609375 
L 50.984375 -23.578125 
L -0.984375 -23.578125 
L -0.984375 -16.609375 
z
" id="DejaVuSans-95"/>
      <path d="M 18.109375 8.203125 
L 18.109375 -20.796875 
L 9.078125 -20.796875 
L 9.078125 54.6875 
L 18.109375 54.6875 
L 18.109375 46.390625 
Q 20.953125 51.265625 25.265625 53.625 
Q 29.59375 56 35.59375 56 
Q 45.5625 56 51.78125 48.09375 
Q 58.015625 40.1875 58.015625 27.296875 
Q 58.015625 14.40625 51.78125 6.484375 
Q 45.5625 -1.421875 35.59375 -1.421875 
Q 29.59375 -1.421875 25.265625 0.953125 
Q 20.953125 3.328125 18.109375 8.203125 
z
M 48.6875 27.296875 
Q 48.6875 37.203125 44.609375 42.84375 
Q 40.53125 48.484375 33.40625 48.484375 
Q 26.265625 48.484375 22.1875 42.84375 
Q 18.109375 37.203125 18.109375 27.296875 
Q 18.109375 17.390625 22.1875 11.75 
Q 26.265625 6.109375 33.40625 6.109375 
Q 40.53125 6.109375 44.609375 11.75 
Q 48.6875 17.390625 48.6875 27.296875 
z
" id="DejaVuSans-112"/>
      <path d="M 8.59375 75.984375 
L 29.296875 75.984375 
L 29.296875 69 
L 17.578125 69 
L 17.578125 -6.203125 
L 29.296875 -6.203125 
L 29.296875 -13.1875 
L 8.59375 -13.1875 
z
" id="DejaVuSans-91"/>
      <path d="M 30.421875 75.984375 
L 30.421875 -13.1875 
L 9.71875 -13.1875 
L 9.71875 -6.203125 
L 21.390625 -6.203125 
L 21.390625 69 
L 9.71875 69 
L 9.71875 75.984375 
z
" id="DejaVuSans-93"/>
     </defs>
     <g transform="translate(109 68.438438)scale(0.1 -0.1)">
      <use xlink:href="#DejaVuSans-47"/>
      <use x="33.691406" xlink:href="#DejaVuSans-103"/>
      <use x="97.167969" xlink:href="#DejaVuSans-97"/>
      <use x="158.447266" xlink:href="#DejaVuSans-122"/>
      <use x="210.9375" xlink:href="#DejaVuSans-101"/>
      <use x="272.460938" xlink:href="#DejaVuSans-98"/>
      <use x="335.9375" xlink:href="#DejaVuSans-111"/>
      <use x="397.119141" xlink:href="#DejaVuSans-47"/>
      <use x="430.810547" xlink:href="#DejaVuSans-109"/>
      <use x="528.222656" xlink:href="#DejaVuSans-111"/>
      <use x="589.404297" xlink:href="#DejaVuSans-100"/>
      <use x="652.880859" xlink:href="#DejaVuSans-101"/>
      <use x="714.404297" xlink:href="#DejaVuSans-108"/>
      <use x="742.1875" xlink:href="#DejaVuSans-95"/>
      <use x="792.1875" xlink:href="#DejaVuSans-115"/>
      <use x="844.287109" xlink:href="#DejaVuSans-116"/>
      <use x="883.496094" xlink:href="#DejaVuSans-97"/>
      <use x="944.775391" xlink:href="#DejaVuSans-116"/>
      <use x="983.984375" xlink:href="#DejaVuSans-101"/>
      <use x="1045.507812" xlink:href="#DejaVuSans-115"/>
      <use x="1097.607422" xlink:href="#DejaVuSans-47"/>
      <use x="1131.298828" xlink:href="#DejaVuSans-112"/>
      <use x="1194.775391" xlink:href="#DejaVuSans-111"/>
      <use x="1255.957031" xlink:href="#DejaVuSans-115"/>
      <use x="1308.056641" xlink:href="#DejaVuSans-101"/>
      <use x="1369.580078" xlink:href="#DejaVuSans-91"/>
      <use x="1408.59375" xlink:href="#DejaVuSans-50"/>
      <use x="1472.216797" xlink:href="#DejaVuSans-93"/>
      <use x="1511.230469" xlink:href="#DejaVuSans-47"/>
      <use x="1544.921875" xlink:href="#DejaVuSans-111"/>
      <use x="1606.103516" xlink:href="#DejaVuSans-114"/>
      <use x="1647.216797" xlink:href="#DejaVuSans-105"/>
      <use x="1675" xlink:href="#DejaVuSans-101"/>
      <use x="1736.523438" xlink:href="#DejaVuSans-110"/>
      <use x="1799.902344" xlink:href="#DejaVuSans-116"/>
      <use x="1839.111328" xlink:href="#DejaVuSans-97"/>
      <use x="1900.390625" xlink:href="#DejaVuSans-116"/>
      <use x="1939.599609" xlink:href="#DejaVuSans-105"/>
      <use x="1967.382812" xlink:href="#DejaVuSans-111"/>
      <use x="2028.564453" xlink:href="#DejaVuSans-110"/>
      <use x="2091.943359" xlink:href="#DejaVuSans-47"/>
      <use x="2125.634766" xlink:href="#DejaVuSans-122"/>
     </g>
    </g>
    <g id="line2d_31">
     <path d="M 81 79.894688 
L 101 79.894688 
" style="fill:none;stroke:#ff7f0e;stroke-linecap:square;stroke-width:1.5;"/>
    </g>
    <g id="line2d_32"/>
    <g id="text_17">
     <!-- /odometry/filtered/post/pose/orientation/z -->
     <defs>
      <path d="M 37.109375 75.984375 
L 37.109375 68.5 
L 28.515625 68.5 
Q 23.6875 68.5 21.796875 66.546875 
Q 19.921875 64.59375 19.921875 59.515625 
L 19.921875 54.6875 
L 34.71875 54.6875 
L 34.71875 47.703125 
L 19.921875 47.703125 
L 19.921875 0 
L 10.890625 0 
L 10.890625 47.703125 
L 2.296875 47.703125 
L 2.296875 54.6875 
L 10.890625 54.6875 
L 10.890625 58.5 
Q 10.890625 67.625 15.140625 71.796875 
Q 19.390625 75.984375 28.609375 75.984375 
z
" id="DejaVuSans-102"/>
     </defs>
     <g transform="translate(109 83.394688)scale(0.1 -0.1)">
      <use xlink:href="#DejaVuSans-47"/>
      <use x="33.691406" xlink:href="#DejaVuSans-111"/>
      <use x="94.873047" xlink:href="#DejaVuSans-100"/>
      <use x="158.349609" xlink:href="#DejaVuSans-111"/>
      <use x="219.53125" xlink:href="#DejaVuSans-109"/>
      <use x="316.943359" xlink:href="#DejaVuSans-101"/>
      <use x="378.466797" xlink:href="#DejaVuSans-116"/>
      <use x="417.675781" xlink:href="#DejaVuSans-114"/>
      <use x="458.789062" xlink:href="#DejaVuSans-121"/>
      <use x="517.96875" xlink:href="#DejaVuSans-47"/>
      <use x="551.660156" xlink:href="#DejaVuSans-102"/>
      <use x="586.865234" xlink:href="#DejaVuSans-105"/>
      <use x="614.648438" xlink:href="#DejaVuSans-108"/>
      <use x="642.431641" xlink:href="#DejaVuSans-116"/>
      <use x="681.640625" xlink:href="#DejaVuSans-101"/>
      <use x="743.164062" xlink:href="#DejaVuSans-114"/>
      <use x="784.246094" xlink:href="#DejaVuSans-101"/>
      <use x="845.769531" xlink:href="#DejaVuSans-100"/>
      <use x="909.246094" xlink:href="#DejaVuSans-47"/>
      <use x="942.9375" xlink:href="#DejaVuSans-112"/>
      <use x="1006.414062" xlink:href="#DejaVuSans-111"/>
      <use x="1067.595703" xlink:href="#DejaVuSans-115"/>
      <use x="1119.695312" xlink:href="#DejaVuSans-116"/>
      <use x="1158.904297" xlink:href="#DejaVuSans-47"/>
      <use x="1192.595703" xlink:href="#DejaVuSans-112"/>
      <use x="1256.072266" xlink:href="#DejaVuSans-111"/>
      <use x="1317.253906" xlink:href="#DejaVuSans-115"/>
      <use x="1369.353516" xlink:href="#DejaVuSans-101"/>
      <use x="1430.876953" xlink:href="#DejaVuSans-47"/>
      <use x="1464.568359" xlink:href="#DejaVuSans-111"/>
      <use x="1525.75" xlink:href="#DejaVuSans-114"/>
      <use x="1566.863281" xlink:href="#DejaVuSans-105"/>
      <use x="1594.646484" xlink:href="#DejaVuSans-101"/>
      <use x="1656.169922" xlink:href="#DejaVuSans-110"/>
      <use x="1719.548828" xlink:href="#DejaVuSans-116"/>
      <use x="1758.757812" xlink:href="#DejaVuSans-97"/>
      <use x="1820.037109" xlink:href="#DejaVuSans-116"/>
      <use x="1859.246094" xlink:href="#DejaVuSans-105"/>
      <use x="1887.029297" xlink:href="#DejaVuSans-111"/>
      <use x="1948.210938" xlink:href="#DejaVuSans-110"/>
      <use x="2011.589844" xlink:href="#DejaVuSans-47"/>
      <use x="2045.28125" xlink:href="#DejaVuSans-122"/>
     </g>
    </g>
   </g>
  </g>
 </g>
 <defs>
  <clipPath id="p5346f2b222">
   <rect height="326.16" width="446.4" x="72" y="51.84"/>
  </clipPath>
 </defs>
</svg>
