<?xml version="1.0" encoding="utf-8" standalone="no"?>
<!DOCTYPE svg PUBLIC "-//W3C//DTD SVG 1.1//EN"
  "http://www.w3.org/Graphics/SVG/1.1/DTD/svg11.dtd">
<!-- Created with matplotlib (https://matplotlib.org/) -->
<svg height="432pt" version="1.1" viewBox="0 0 576 432" width="576pt" xmlns="http://www.w3.org/2000/svg" xmlns:xlink="http://www.w3.org/1999/xlink">
 <defs>
  <style type="text/css">
*{stroke-linecap:butt;stroke-linejoin:round;}
  </style>
 </defs>
 <g id="figure_1">
  <g id="patch_1">
   <path d="M 0 432 
L 576 432 
L 576 0 
L 0 0 
z
" style="fill:#ffffff;"/>
  </g>
  <g id="axes_1">
   <g id="patch_2">
    <path d="M 72 378 
L 518.4 378 
L 518.4 51.84 
L 72 51.84 
z
" style="fill:#ffffff;"/>
   </g>
   <g id="matplotlib.axis_1">
    <g id="xtick_1">
     <g id="line2d_1">
      <path clip-path="url(#p16c19f8139)" d="M 76.311875 378 
L 76.311875 51.84 
" style="fill:none;stroke:#b0b0b0;stroke-linecap:square;stroke-width:0.8;"/>
     </g>
     <g id="line2d_2">
      <defs>
       <path d="M 0 0 
L 0 3.5 
" id="meaa34fb2ef" style="stroke:#000000;stroke-width:0.8;"/>
      </defs>
      <g>
       <use style="stroke:#000000;stroke-width:0.8;" x="76.311875" xlink:href="#meaa34fb2ef" y="378"/>
      </g>
     </g>
     <g id="text_1">
      <!-- 1.5 -->
      <defs>
       <path d="M 12.40625 8.296875 
L 28.515625 8.296875 
L 28.515625 63.921875 
L 10.984375 60.40625 
L 10.984375 69.390625 
L 28.421875 72.90625 
L 38.28125 72.90625 
L 38.28125 8.296875 
L 54.390625 8.296875 
L 54.390625 0 
L 12.40625 0 
z
" id="DejaVuSans-49"/>
       <path d="M 10.6875 12.40625 
L 21 12.40625 
L 21 0 
L 10.6875 0 
z
" id="DejaVuSans-46"/>
       <path d="M 10.796875 72.90625 
L 49.515625 72.90625 
L 49.515625 64.59375 
L 19.828125 64.59375 
L 19.828125 46.734375 
Q 21.96875 47.46875 24.109375 47.828125 
Q 26.265625 48.1875 28.421875 48.1875 
Q 40.625 48.1875 47.75 41.5 
Q 54.890625 34.8125 54.890625 23.390625 
Q 54.890625 11.625 47.5625 5.09375 
Q 40.234375 -1.421875 26.90625 -1.421875 
Q 22.3125 -1.421875 17.546875 -0.640625 
Q 12.796875 0.140625 7.71875 1.703125 
L 7.71875 11.625 
Q 12.109375 9.234375 16.796875 8.0625 
Q 21.484375 6.890625 26.703125 6.890625 
Q 35.15625 6.890625 40.078125 11.328125 
Q 45.015625 15.765625 45.015625 23.390625 
Q 45.015625 31 40.078125 35.4375 
Q 35.15625 39.890625 26.703125 39.890625 
Q 22.75 39.890625 18.8125 39.015625 
Q 14.890625 38.140625 10.796875 36.28125 
z
" id="DejaVuSans-53"/>
      </defs>
      <g transform="translate(68.360313 392.598437)scale(0.1 -0.1)">
       <use xlink:href="#DejaVuSans-49"/>
       <use x="63.623047" xlink:href="#DejaVuSans-46"/>
       <use x="95.410156" xlink:href="#DejaVuSans-53"/>
      </g>
     </g>
    </g>
    <g id="xtick_2">
     <g id="line2d_3">
      <path clip-path="url(#p16c19f8139)" d="M 167.568494 378 
L 167.568494 51.84 
" style="fill:none;stroke:#b0b0b0;stroke-linecap:square;stroke-width:0.8;"/>
     </g>
     <g id="line2d_4">
      <g>
       <use style="stroke:#000000;stroke-width:0.8;" x="167.568494" xlink:href="#meaa34fb2ef" y="378"/>
      </g>
     </g>
     <g id="text_2">
      <!-- 2.0 -->
      <defs>
       <path d="M 19.1875 8.296875 
L 53.609375 8.296875 
L 53.609375 0 
L 7.328125 0 
L 7.328125 8.296875 
Q 12.9375 14.109375 22.625 23.890625 
Q 32.328125 33.6875 34.8125 36.53125 
Q 39.546875 41.84375 41.421875 45.53125 
Q 43.3125 49.21875 43.3125 52.78125 
Q 43.3125 58.59375 39.234375 62.25 
Q 35.15625 65.921875 28.609375 65.921875 
Q 23.96875 65.921875 18.8125 64.3125 
Q 13.671875 62.703125 7.8125 59.421875 
L 7.8125 69.390625 
Q 13.765625 71.78125 18.9375 73 
Q 24.125 74.21875 28.421875 74.21875 
Q 39.75 74.21875 46.484375 68.546875 
Q 53.21875 62.890625 53.21875 53.421875 
Q 53.21875 48.921875 51.53125 44.890625 
Q 49.859375 40.875 45.40625 35.40625 
Q 44.1875 33.984375 37.640625 27.21875 
Q 31.109375 20.453125 19.1875 8.296875 
z
" id="DejaVuSans-50"/>
       <path d="M 31.78125 66.40625 
Q 24.171875 66.40625 20.328125 58.90625 
Q 16.5 51.421875 16.5 36.375 
Q 16.5 21.390625 20.328125 13.890625 
Q 24.171875 6.390625 31.78125 6.390625 
Q 39.453125 6.390625 43.28125 13.890625 
Q 47.125 21.390625 47.125 36.375 
Q 47.125 51.421875 43.28125 58.90625 
Q 39.453125 66.40625 31.78125 66.40625 
z
M 31.78125 74.21875 
Q 44.046875 74.21875 50.515625 64.515625 
Q 56.984375 54.828125 56.984375 36.375 
Q 56.984375 17.96875 50.515625 8.265625 
Q 44.046875 -1.421875 31.78125 -1.421875 
Q 19.53125 -1.421875 13.0625 8.265625 
Q 6.59375 17.96875 6.59375 36.375 
Q 6.59375 54.828125 13.0625 64.515625 
Q 19.53125 74.21875 31.78125 74.21875 
z
" id="DejaVuSans-48"/>
      </defs>
      <g transform="translate(159.616931 392.598437)scale(0.1 -0.1)">
       <use xlink:href="#DejaVuSans-50"/>
       <use x="63.623047" xlink:href="#DejaVuSans-46"/>
       <use x="95.410156" xlink:href="#DejaVuSans-48"/>
      </g>
     </g>
    </g>
    <g id="xtick_3">
     <g id="line2d_5">
      <path clip-path="url(#p16c19f8139)" d="M 258.825112 378 
L 258.825112 51.84 
" style="fill:none;stroke:#b0b0b0;stroke-linecap:square;stroke-width:0.8;"/>
     </g>
     <g id="line2d_6">
      <g>
       <use style="stroke:#000000;stroke-width:0.8;" x="258.825112" xlink:href="#meaa34fb2ef" y="378"/>
      </g>
     </g>
     <g id="text_3">
      <!-- 2.5 -->
      <g transform="translate(250.873549 392.598437)scale(0.1 -0.1)">
       <use xlink:href="#DejaVuSans-50"/>
       <use x="63.623047" xlink:href="#DejaVuSans-46"/>
       <use x="95.410156" xlink:href="#DejaVuSans-53"/>
      </g>
     </g>
    </g>
    <g id="xtick_4">
     <g id="line2d_7">
      <path clip-path="url(#p16c19f8139)" d="M 350.08173 378 
L 350.08173 51.84 
" style="fill:none;stroke:#b0b0b0;stroke-linecap:square;stroke-width:0.8;"/>
     </g>
     <g id="line2d_8">
      <g>
       <use style="stroke:#000000;stroke-width:0.8;" x="350.08173" xlink:href="#meaa34fb2ef" y="378"/>
      </g>
     </g>
     <g id="text_4">
      <!-- 3.0 -->
      <defs>
       <path d="M 40.578125 39.3125 
Q 47.65625 37.796875 51.625 33 
Q 55.609375 28.21875 55.609375 21.1875 
Q 55.609375 10.40625 48.1875 4.484375 
Q 40.765625 -1.421875 27.09375 -1.421875 
Q 22.515625 -1.421875 17.65625 -0.515625 
Q 12.796875 0.390625 7.625 2.203125 
L 7.625 11.71875 
Q 11.71875 9.328125 16.59375 8.109375 
Q 21.484375 6.890625 26.8125 6.890625 
Q 36.078125 6.890625 40.9375 10.546875 
Q 45.796875 14.203125 45.796875 21.1875 
Q 45.796875 27.640625 41.28125 31.265625 
Q 36.765625 34.90625 28.71875 34.90625 
L 20.21875 34.90625 
L 20.21875 43.015625 
L 29.109375 43.015625 
Q 36.375 43.015625 40.234375 45.921875 
Q 44.09375 48.828125 44.09375 54.296875 
Q 44.09375 59.90625 40.109375 62.90625 
Q 36.140625 65.921875 28.71875 65.921875 
Q 24.65625 65.921875 20.015625 65.03125 
Q 15.375 64.15625 9.8125 62.3125 
L 9.8125 71.09375 
Q 15.4375 72.65625 20.34375 73.4375 
Q 25.25 74.21875 29.59375 74.21875 
Q 40.828125 74.21875 47.359375 69.109375 
Q 53.90625 64.015625 53.90625 55.328125 
Q 53.90625 49.265625 50.4375 45.09375 
Q 46.96875 40.921875 40.578125 39.3125 
z
" id="DejaVuSans-51"/>
      </defs>
      <g transform="translate(342.130168 392.598437)scale(0.1 -0.1)">
       <use xlink:href="#DejaVuSans-51"/>
       <use x="63.623047" xlink:href="#DejaVuSans-46"/>
       <use x="95.410156" xlink:href="#DejaVuSans-48"/>
      </g>
     </g>
    </g>
    <g id="xtick_5">
     <g id="line2d_9">
      <path clip-path="url(#p16c19f8139)" d="M 441.338349 378 
L 441.338349 51.84 
" style="fill:none;stroke:#b0b0b0;stroke-linecap:square;stroke-width:0.8;"/>
     </g>
     <g id="line2d_10">
      <g>
       <use style="stroke:#000000;stroke-width:0.8;" x="441.338349" xlink:href="#meaa34fb2ef" y="378"/>
      </g>
     </g>
     <g id="text_5">
      <!-- 3.5 -->
      <g transform="translate(433.386786 392.598437)scale(0.1 -0.1)">
       <use xlink:href="#DejaVuSans-51"/>
       <use x="63.623047" xlink:href="#DejaVuSans-46"/>
       <use x="95.410156" xlink:href="#DejaVuSans-53"/>
      </g>
     </g>
    </g>
    <g id="text_6">
     <!-- time -->
     <defs>
      <path d="M 18.3125 70.21875 
L 18.3125 54.6875 
L 36.8125 54.6875 
L 36.8125 47.703125 
L 18.3125 47.703125 
L 18.3125 18.015625 
Q 18.3125 11.328125 20.140625 9.421875 
Q 21.96875 7.515625 27.59375 7.515625 
L 36.8125 7.515625 
L 36.8125 0 
L 27.59375 0 
Q 17.1875 0 13.234375 3.875 
Q 9.28125 7.765625 9.28125 18.015625 
L 9.28125 47.703125 
L 2.6875 47.703125 
L 2.6875 54.6875 
L 9.28125 54.6875 
L 9.28125 70.21875 
z
" id="DejaVuSans-116"/>
      <path d="M 9.421875 54.6875 
L 18.40625 54.6875 
L 18.40625 0 
L 9.421875 0 
z
M 9.421875 75.984375 
L 18.40625 75.984375 
L 18.40625 64.59375 
L 9.421875 64.59375 
z
" id="DejaVuSans-105"/>
      <path d="M 52 44.1875 
Q 55.375 50.25 60.0625 53.125 
Q 64.75 56 71.09375 56 
Q 79.640625 56 84.28125 50.015625 
Q 88.921875 44.046875 88.921875 33.015625 
L 88.921875 0 
L 79.890625 0 
L 79.890625 32.71875 
Q 79.890625 40.578125 77.09375 44.375 
Q 74.3125 48.1875 68.609375 48.1875 
Q 61.625 48.1875 57.5625 43.546875 
Q 53.515625 38.921875 53.515625 30.90625 
L 53.515625 0 
L 44.484375 0 
L 44.484375 32.71875 
Q 44.484375 40.625 41.703125 44.40625 
Q 38.921875 48.1875 33.109375 48.1875 
Q 26.21875 48.1875 22.15625 43.53125 
Q 18.109375 38.875 18.109375 30.90625 
L 18.109375 0 
L 9.078125 0 
L 9.078125 54.6875 
L 18.109375 54.6875 
L 18.109375 46.1875 
Q 21.1875 51.21875 25.484375 53.609375 
Q 29.78125 56 35.6875 56 
Q 41.65625 56 45.828125 52.96875 
Q 50 49.953125 52 44.1875 
z
" id="DejaVuSans-109"/>
      <path d="M 56.203125 29.59375 
L 56.203125 25.203125 
L 14.890625 25.203125 
Q 15.484375 15.921875 20.484375 11.0625 
Q 25.484375 6.203125 34.421875 6.203125 
Q 39.59375 6.203125 44.453125 7.46875 
Q 49.3125 8.734375 54.109375 11.28125 
L 54.109375 2.78125 
Q 49.265625 0.734375 44.1875 -0.34375 
Q 39.109375 -1.421875 33.890625 -1.421875 
Q 20.796875 -1.421875 13.15625 6.1875 
Q 5.515625 13.8125 5.515625 26.8125 
Q 5.515625 40.234375 12.765625 48.109375 
Q 20.015625 56 32.328125 56 
Q 43.359375 56 49.78125 48.890625 
Q 56.203125 41.796875 56.203125 29.59375 
z
M 47.21875 32.234375 
Q 47.125 39.59375 43.09375 43.984375 
Q 39.0625 48.390625 32.421875 48.390625 
Q 24.90625 48.390625 20.390625 44.140625 
Q 15.875 39.890625 15.1875 32.171875 
z
" id="DejaVuSans-101"/>
     </defs>
     <g transform="translate(283.903906 406.276563)scale(0.1 -0.1)">
      <use xlink:href="#DejaVuSans-116"/>
      <use x="39.208984" xlink:href="#DejaVuSans-105"/>
      <use x="66.992188" xlink:href="#DejaVuSans-109"/>
      <use x="164.404297" xlink:href="#DejaVuSans-101"/>
     </g>
    </g>
    <g id="text_7">
     <!-- 1e10 -->
     <g transform="translate(493.159375 405.276563)scale(0.1 -0.1)">
      <use xlink:href="#DejaVuSans-49"/>
      <use x="63.623047" xlink:href="#DejaVuSans-101"/>
      <use x="125.146484" xlink:href="#DejaVuSans-49"/>
      <use x="188.769531" xlink:href="#DejaVuSans-48"/>
     </g>
    </g>
   </g>
   <g id="matplotlib.axis_2">
    <g id="ytick_1">
     <g id="line2d_11">
      <path clip-path="url(#p16c19f8139)" d="M 72 363.210378 
L 518.4 363.210378 
" style="fill:none;stroke:#b0b0b0;stroke-linecap:square;stroke-width:0.8;"/>
     </g>
     <g id="line2d_12">
      <defs>
       <path d="M 0 0 
L -3.5 0 
" id="m210b6a272b" style="stroke:#000000;stroke-width:0.8;"/>
      </defs>
      <g>
       <use style="stroke:#000000;stroke-width:0.8;" x="72" xlink:href="#m210b6a272b" y="363.210378"/>
      </g>
     </g>
     <g id="text_8">
      <!-- 0.0 -->
      <g transform="translate(49.096875 367.009597)scale(0.1 -0.1)">
       <use xlink:href="#DejaVuSans-48"/>
       <use x="63.623047" xlink:href="#DejaVuSans-46"/>
       <use x="95.410156" xlink:href="#DejaVuSans-48"/>
      </g>
     </g>
    </g>
    <g id="ytick_2">
     <g id="line2d_13">
      <path clip-path="url(#p16c19f8139)" d="M 72 295.591681 
L 518.4 295.591681 
" style="fill:none;stroke:#b0b0b0;stroke-linecap:square;stroke-width:0.8;"/>
     </g>
     <g id="line2d_14">
      <g>
       <use style="stroke:#000000;stroke-width:0.8;" x="72" xlink:href="#m210b6a272b" y="295.591681"/>
      </g>
     </g>
     <g id="text_9">
      <!-- 0.1 -->
      <g transform="translate(49.096875 299.3909)scale(0.1 -0.1)">
       <use xlink:href="#DejaVuSans-48"/>
       <use x="63.623047" xlink:href="#DejaVuSans-46"/>
       <use x="95.410156" xlink:href="#DejaVuSans-49"/>
      </g>
     </g>
    </g>
    <g id="ytick_3">
     <g id="line2d_15">
      <path clip-path="url(#p16c19f8139)" d="M 72 227.972984 
L 518.4 227.972984 
" style="fill:none;stroke:#b0b0b0;stroke-linecap:square;stroke-width:0.8;"/>
     </g>
     <g id="line2d_16">
      <g>
       <use style="stroke:#000000;stroke-width:0.8;" x="72" xlink:href="#m210b6a272b" y="227.972984"/>
      </g>
     </g>
     <g id="text_10">
      <!-- 0.2 -->
      <g transform="translate(49.096875 231.772203)scale(0.1 -0.1)">
       <use xlink:href="#DejaVuSans-48"/>
       <use x="63.623047" xlink:href="#DejaVuSans-46"/>
       <use x="95.410156" xlink:href="#DejaVuSans-50"/>
      </g>
     </g>
    </g>
    <g id="ytick_4">
     <g id="line2d_17">
      <path clip-path="url(#p16c19f8139)" d="M 72 160.354287 
L 518.4 160.354287 
" style="fill:none;stroke:#b0b0b0;stroke-linecap:square;stroke-width:0.8;"/>
     </g>
     <g id="line2d_18">
      <g>
       <use style="stroke:#000000;stroke-width:0.8;" x="72" xlink:href="#m210b6a272b" y="160.354287"/>
      </g>
     </g>
     <g id="text_11">
      <!-- 0.3 -->
      <g transform="translate(49.096875 164.153506)scale(0.1 -0.1)">
       <use xlink:href="#DejaVuSans-48"/>
       <use x="63.623047" xlink:href="#DejaVuSans-46"/>
       <use x="95.410156" xlink:href="#DejaVuSans-51"/>
      </g>
     </g>
    </g>
    <g id="ytick_5">
     <g id="line2d_19">
      <path clip-path="url(#p16c19f8139)" d="M 72 92.73559 
L 518.4 92.73559 
" style="fill:none;stroke:#b0b0b0;stroke-linecap:square;stroke-width:0.8;"/>
     </g>
     <g id="line2d_20">
      <g>
       <use style="stroke:#000000;stroke-width:0.8;" x="72" xlink:href="#m210b6a272b" y="92.73559"/>
      </g>
     </g>
     <g id="text_12">
      <!-- 0.4 -->
      <defs>
       <path d="M 37.796875 64.3125 
L 12.890625 25.390625 
L 37.796875 25.390625 
z
M 35.203125 72.90625 
L 47.609375 72.90625 
L 47.609375 25.390625 
L 58.015625 25.390625 
L 58.015625 17.1875 
L 47.609375 17.1875 
L 47.609375 0 
L 37.796875 0 
L 37.796875 17.1875 
L 4.890625 17.1875 
L 4.890625 26.703125 
z
" id="DejaVuSans-52"/>
      </defs>
      <g transform="translate(49.096875 96.534809)scale(0.1 -0.1)">
       <use xlink:href="#DejaVuSans-48"/>
       <use x="63.623047" xlink:href="#DejaVuSans-46"/>
       <use x="95.410156" xlink:href="#DejaVuSans-52"/>
      </g>
     </g>
    </g>
    <g id="text_13">
     <!-- position error (/gazebo/model_states vs /odometry/filtered) -->
     <defs>
      <path d="M 18.109375 8.203125 
L 18.109375 -20.796875 
L 9.078125 -20.796875 
L 9.078125 54.6875 
L 18.109375 54.6875 
L 18.109375 46.390625 
Q 20.953125 51.265625 25.265625 53.625 
Q 29.59375 56 35.59375 56 
Q 45.5625 56 51.78125 48.09375 
Q 58.015625 40.1875 58.015625 27.296875 
Q 58.015625 14.40625 51.78125 6.484375 
Q 45.5625 -1.421875 35.59375 -1.421875 
Q 29.59375 -1.421875 25.265625 0.953125 
Q 20.953125 3.328125 18.109375 8.203125 
z
M 48.6875 27.296875 
Q 48.6875 37.203125 44.609375 42.84375 
Q 40.53125 48.484375 33.40625 48.484375 
Q 26.265625 48.484375 22.1875 42.84375 
Q 18.109375 37.203125 18.109375 27.296875 
Q 18.109375 17.390625 22.1875 11.75 
Q 26.265625 6.109375 33.40625 6.109375 
Q 40.53125 6.109375 44.609375 11.75 
Q 48.6875 17.390625 48.6875 27.296875 
z
" id="DejaVuSans-112"/>
      <path d="M 30.609375 48.390625 
Q 23.390625 48.390625 19.1875 42.75 
Q 14.984375 37.109375 14.984375 27.296875 
Q 14.984375 17.484375 19.15625 11.84375 
Q 23.34375 6.203125 30.609375 6.203125 
Q 37.796875 6.203125 41.984375 11.859375 
Q 46.1875 17.53125 46.1875 27.296875 
Q 46.1875 37.015625 41.984375 42.703125 
Q 37.796875 48.390625 30.609375 48.390625 
z
M 30.609375 56 
Q 42.328125 56 49.015625 48.375 
Q 55.71875 40.765625 55.71875 27.296875 
Q 55.71875 13.875 49.015625 6.21875 
Q 42.328125 -1.421875 30.609375 -1.421875 
Q 18.84375 -1.421875 12.171875 6.21875 
Q 5.515625 13.875 5.515625 27.296875 
Q 5.515625 40.765625 12.171875 48.375 
Q 18.84375 56 30.609375 56 
z
" id="DejaVuSans-111"/>
      <path d="M 44.28125 53.078125 
L 44.28125 44.578125 
Q 40.484375 46.53125 36.375 47.5 
Q 32.28125 48.484375 27.875 48.484375 
Q 21.1875 48.484375 17.84375 46.4375 
Q 14.5 44.390625 14.5 40.28125 
Q 14.5 37.15625 16.890625 35.375 
Q 19.28125 33.59375 26.515625 31.984375 
L 29.59375 31.296875 
Q 39.15625 29.25 43.1875 25.515625 
Q 47.21875 21.78125 47.21875 15.09375 
Q 47.21875 7.46875 41.1875 3.015625 
Q 35.15625 -1.421875 24.609375 -1.421875 
Q 20.21875 -1.421875 15.453125 -0.5625 
Q 10.6875 0.296875 5.421875 2 
L 5.421875 11.28125 
Q 10.40625 8.6875 15.234375 7.390625 
Q 20.0625 6.109375 24.8125 6.109375 
Q 31.15625 6.109375 34.5625 8.28125 
Q 37.984375 10.453125 37.984375 14.40625 
Q 37.984375 18.0625 35.515625 20.015625 
Q 33.0625 21.96875 24.703125 23.78125 
L 21.578125 24.515625 
Q 13.234375 26.265625 9.515625 29.90625 
Q 5.8125 33.546875 5.8125 39.890625 
Q 5.8125 47.609375 11.28125 51.796875 
Q 16.75 56 26.8125 56 
Q 31.78125 56 36.171875 55.265625 
Q 40.578125 54.546875 44.28125 53.078125 
z
" id="DejaVuSans-115"/>
      <path d="M 54.890625 33.015625 
L 54.890625 0 
L 45.90625 0 
L 45.90625 32.71875 
Q 45.90625 40.484375 42.875 44.328125 
Q 39.84375 48.1875 33.796875 48.1875 
Q 26.515625 48.1875 22.3125 43.546875 
Q 18.109375 38.921875 18.109375 30.90625 
L 18.109375 0 
L 9.078125 0 
L 9.078125 54.6875 
L 18.109375 54.6875 
L 18.109375 46.1875 
Q 21.34375 51.125 25.703125 53.5625 
Q 30.078125 56 35.796875 56 
Q 45.21875 56 50.046875 50.171875 
Q 54.890625 44.34375 54.890625 33.015625 
z
" id="DejaVuSans-110"/>
      <path id="DejaVuSans-32"/>
      <path d="M 41.109375 46.296875 
Q 39.59375 47.171875 37.8125 47.578125 
Q 36.03125 48 33.890625 48 
Q 26.265625 48 22.1875 43.046875 
Q 18.109375 38.09375 18.109375 28.8125 
L 18.109375 0 
L 9.078125 0 
L 9.078125 54.6875 
L 18.109375 54.6875 
L 18.109375 46.1875 
Q 20.953125 51.171875 25.484375 53.578125 
Q 30.03125 56 36.53125 56 
Q 37.453125 56 38.578125 55.875 
Q 39.703125 55.765625 41.0625 55.515625 
z
" id="DejaVuSans-114"/>
      <path d="M 31 75.875 
Q 24.46875 64.65625 21.28125 53.65625 
Q 18.109375 42.671875 18.109375 31.390625 
Q 18.109375 20.125 21.3125 9.0625 
Q 24.515625 -2 31 -13.1875 
L 23.1875 -13.1875 
Q 15.875 -1.703125 12.234375 9.375 
Q 8.59375 20.453125 8.59375 31.390625 
Q 8.59375 42.28125 12.203125 53.3125 
Q 15.828125 64.359375 23.1875 75.875 
z
" id="DejaVuSans-40"/>
      <path d="M 25.390625 72.90625 
L 33.6875 72.90625 
L 8.296875 -9.28125 
L 0 -9.28125 
z
" id="DejaVuSans-47"/>
      <path d="M 45.40625 27.984375 
Q 45.40625 37.75 41.375 43.109375 
Q 37.359375 48.484375 30.078125 48.484375 
Q 22.859375 48.484375 18.828125 43.109375 
Q 14.796875 37.75 14.796875 27.984375 
Q 14.796875 18.265625 18.828125 12.890625 
Q 22.859375 7.515625 30.078125 7.515625 
Q 37.359375 7.515625 41.375 12.890625 
Q 45.40625 18.265625 45.40625 27.984375 
z
M 54.390625 6.78125 
Q 54.390625 -7.171875 48.1875 -13.984375 
Q 42 -20.796875 29.203125 -20.796875 
Q 24.46875 -20.796875 20.265625 -20.09375 
Q 16.0625 -19.390625 12.109375 -17.921875 
L 12.109375 -9.1875 
Q 16.0625 -11.328125 19.921875 -12.34375 
Q 23.78125 -13.375 27.78125 -13.375 
Q 36.625 -13.375 41.015625 -8.765625 
Q 45.40625 -4.15625 45.40625 5.171875 
L 45.40625 9.625 
Q 42.625 4.78125 38.28125 2.390625 
Q 33.9375 0 27.875 0 
Q 17.828125 0 11.671875 7.65625 
Q 5.515625 15.328125 5.515625 27.984375 
Q 5.515625 40.671875 11.671875 48.328125 
Q 17.828125 56 27.875 56 
Q 33.9375 56 38.28125 53.609375 
Q 42.625 51.21875 45.40625 46.390625 
L 45.40625 54.6875 
L 54.390625 54.6875 
z
" id="DejaVuSans-103"/>
      <path d="M 34.28125 27.484375 
Q 23.390625 27.484375 19.1875 25 
Q 14.984375 22.515625 14.984375 16.5 
Q 14.984375 11.71875 18.140625 8.90625 
Q 21.296875 6.109375 26.703125 6.109375 
Q 34.1875 6.109375 38.703125 11.40625 
Q 43.21875 16.703125 43.21875 25.484375 
L 43.21875 27.484375 
z
M 52.203125 31.203125 
L 52.203125 0 
L 43.21875 0 
L 43.21875 8.296875 
Q 40.140625 3.328125 35.546875 0.953125 
Q 30.953125 -1.421875 24.3125 -1.421875 
Q 15.921875 -1.421875 10.953125 3.296875 
Q 6 8.015625 6 15.921875 
Q 6 25.140625 12.171875 29.828125 
Q 18.359375 34.515625 30.609375 34.515625 
L 43.21875 34.515625 
L 43.21875 35.40625 
Q 43.21875 41.609375 39.140625 45 
Q 35.0625 48.390625 27.6875 48.390625 
Q 23 48.390625 18.546875 47.265625 
Q 14.109375 46.140625 10.015625 43.890625 
L 10.015625 52.203125 
Q 14.9375 54.109375 19.578125 55.046875 
Q 24.21875 56 28.609375 56 
Q 40.484375 56 46.34375 49.84375 
Q 52.203125 43.703125 52.203125 31.203125 
z
" id="DejaVuSans-97"/>
      <path d="M 5.515625 54.6875 
L 48.1875 54.6875 
L 48.1875 46.484375 
L 14.40625 7.171875 
L 48.1875 7.171875 
L 48.1875 0 
L 4.296875 0 
L 4.296875 8.203125 
L 38.09375 47.515625 
L 5.515625 47.515625 
z
" id="DejaVuSans-122"/>
      <path d="M 48.6875 27.296875 
Q 48.6875 37.203125 44.609375 42.84375 
Q 40.53125 48.484375 33.40625 48.484375 
Q 26.265625 48.484375 22.1875 42.84375 
Q 18.109375 37.203125 18.109375 27.296875 
Q 18.109375 17.390625 22.1875 11.75 
Q 26.265625 6.109375 33.40625 6.109375 
Q 40.53125 6.109375 44.609375 11.75 
Q 48.6875 17.390625 48.6875 27.296875 
z
M 18.109375 46.390625 
Q 20.953125 51.265625 25.265625 53.625 
Q 29.59375 56 35.59375 56 
Q 45.5625 56 51.78125 48.09375 
Q 58.015625 40.1875 58.015625 27.296875 
Q 58.015625 14.40625 51.78125 6.484375 
Q 45.5625 -1.421875 35.59375 -1.421875 
Q 29.59375 -1.421875 25.265625 0.953125 
Q 20.953125 3.328125 18.109375 8.203125 
L 18.109375 0 
L 9.078125 0 
L 9.078125 75.984375 
L 18.109375 75.984375 
z
" id="DejaVuSans-98"/>
      <path d="M 45.40625 46.390625 
L 45.40625 75.984375 
L 54.390625 75.984375 
L 54.390625 0 
L 45.40625 0 
L 45.40625 8.203125 
Q 42.578125 3.328125 38.25 0.953125 
Q 33.9375 -1.421875 27.875 -1.421875 
Q 17.96875 -1.421875 11.734375 6.484375 
Q 5.515625 14.40625 5.515625 27.296875 
Q 5.515625 40.1875 11.734375 48.09375 
Q 17.96875 56 27.875 56 
Q 33.9375 56 38.25 53.625 
Q 42.578125 51.265625 45.40625 46.390625 
z
M 14.796875 27.296875 
Q 14.796875 17.390625 18.875 11.75 
Q 22.953125 6.109375 30.078125 6.109375 
Q 37.203125 6.109375 41.296875 11.75 
Q 45.40625 17.390625 45.40625 27.296875 
Q 45.40625 37.203125 41.296875 42.84375 
Q 37.203125 48.484375 30.078125 48.484375 
Q 22.953125 48.484375 18.875 42.84375 
Q 14.796875 37.203125 14.796875 27.296875 
z
" id="DejaVuSans-100"/>
      <path d="M 9.421875 75.984375 
L 18.40625 75.984375 
L 18.40625 0 
L 9.421875 0 
z
" id="DejaVuSans-108"/>
      <path d="M 50.984375 -16.609375 
L 50.984375 -23.578125 
L -0.984375 -23.578125 
L -0.984375 -16.609375 
z
" id="DejaVuSans-95"/>
      <path d="M 2.984375 54.6875 
L 12.5 54.6875 
L 29.59375 8.796875 
L 46.6875 54.6875 
L 56.203125 54.6875 
L 35.6875 0 
L 23.484375 0 
z
" id="DejaVuSans-118"/>
      <path d="M 32.171875 -5.078125 
Q 28.375 -14.84375 24.75 -17.8125 
Q 21.140625 -20.796875 15.09375 -20.796875 
L 7.90625 -20.796875 
L 7.90625 -13.28125 
L 13.1875 -13.28125 
Q 16.890625 -13.28125 18.9375 -11.515625 
Q 21 -9.765625 23.484375 -3.21875 
L 25.09375 0.875 
L 2.984375 54.6875 
L 12.5 54.6875 
L 29.59375 11.921875 
L 46.6875 54.6875 
L 56.203125 54.6875 
z
" id="DejaVuSans-121"/>
      <path d="M 37.109375 75.984375 
L 37.109375 68.5 
L 28.515625 68.5 
Q 23.6875 68.5 21.796875 66.546875 
Q 19.921875 64.59375 19.921875 59.515625 
L 19.921875 54.6875 
L 34.71875 54.6875 
L 34.71875 47.703125 
L 19.921875 47.703125 
L 19.921875 0 
L 10.890625 0 
L 10.890625 47.703125 
L 2.296875 47.703125 
L 2.296875 54.6875 
L 10.890625 54.6875 
L 10.890625 58.5 
Q 10.890625 67.625 15.140625 71.796875 
Q 19.390625 75.984375 28.609375 75.984375 
z
" id="DejaVuSans-102"/>
      <path d="M 8.015625 75.875 
L 15.828125 75.875 
Q 23.140625 64.359375 26.78125 53.3125 
Q 30.421875 42.28125 30.421875 31.390625 
Q 30.421875 20.453125 26.78125 9.375 
Q 23.140625 -1.703125 15.828125 -13.1875 
L 8.015625 -13.1875 
Q 14.5 -2 17.703125 9.0625 
Q 20.90625 20.125 20.90625 31.390625 
Q 20.90625 42.671875 17.703125 53.65625 
Q 14.5 64.65625 8.015625 75.875 
z
" id="DejaVuSans-41"/>
     </defs>
     <g transform="translate(42.739062 363.191094)rotate(-90)scale(0.1 -0.1)">
      <use xlink:href="#DejaVuSans-112"/>
      <use x="63.476562" xlink:href="#DejaVuSans-111"/>
      <use x="124.658203" xlink:href="#DejaVuSans-115"/>
      <use x="176.757812" xlink:href="#DejaVuSans-105"/>
      <use x="204.541016" xlink:href="#DejaVuSans-116"/>
      <use x="243.75" xlink:href="#DejaVuSans-105"/>
      <use x="271.533203" xlink:href="#DejaVuSans-111"/>
      <use x="332.714844" xlink:href="#DejaVuSans-110"/>
      <use x="396.09375" xlink:href="#DejaVuSans-32"/>
      <use x="427.880859" xlink:href="#DejaVuSans-101"/>
      <use x="489.404297" xlink:href="#DejaVuSans-114"/>
      <use x="530.501953" xlink:href="#DejaVuSans-114"/>
      <use x="571.583984" xlink:href="#DejaVuSans-111"/>
      <use x="632.765625" xlink:href="#DejaVuSans-114"/>
      <use x="673.878906" xlink:href="#DejaVuSans-32"/>
      <use x="705.666016" xlink:href="#DejaVuSans-40"/>
      <use x="744.679688" xlink:href="#DejaVuSans-47"/>
      <use x="778.371094" xlink:href="#DejaVuSans-103"/>
      <use x="841.847656" xlink:href="#DejaVuSans-97"/>
      <use x="903.126953" xlink:href="#DejaVuSans-122"/>
      <use x="955.617188" xlink:href="#DejaVuSans-101"/>
      <use x="1017.140625" xlink:href="#DejaVuSans-98"/>
      <use x="1080.617188" xlink:href="#DejaVuSans-111"/>
      <use x="1141.798828" xlink:href="#DejaVuSans-47"/>
      <use x="1175.490234" xlink:href="#DejaVuSans-109"/>
      <use x="1272.902344" xlink:href="#DejaVuSans-111"/>
      <use x="1334.083984" xlink:href="#DejaVuSans-100"/>
      <use x="1397.560547" xlink:href="#DejaVuSans-101"/>
      <use x="1459.083984" xlink:href="#DejaVuSans-108"/>
      <use x="1486.867188" xlink:href="#DejaVuSans-95"/>
      <use x="1536.867188" xlink:href="#DejaVuSans-115"/>
      <use x="1588.966797" xlink:href="#DejaVuSans-116"/>
      <use x="1628.175781" xlink:href="#DejaVuSans-97"/>
      <use x="1689.455078" xlink:href="#DejaVuSans-116"/>
      <use x="1728.664062" xlink:href="#DejaVuSans-101"/>
      <use x="1790.1875" xlink:href="#DejaVuSans-115"/>
      <use x="1842.287109" xlink:href="#DejaVuSans-32"/>
      <use x="1874.074219" xlink:href="#DejaVuSans-118"/>
      <use x="1933.253906" xlink:href="#DejaVuSans-115"/>
      <use x="1985.353516" xlink:href="#DejaVuSans-32"/>
      <use x="2017.140625" xlink:href="#DejaVuSans-47"/>
      <use x="2050.832031" xlink:href="#DejaVuSans-111"/>
      <use x="2112.013672" xlink:href="#DejaVuSans-100"/>
      <use x="2175.490234" xlink:href="#DejaVuSans-111"/>
      <use x="2236.671875" xlink:href="#DejaVuSans-109"/>
      <use x="2334.083984" xlink:href="#DejaVuSans-101"/>
      <use x="2395.607422" xlink:href="#DejaVuSans-116"/>
      <use x="2434.816406" xlink:href="#DejaVuSans-114"/>
      <use x="2475.929688" xlink:href="#DejaVuSans-121"/>
      <use x="2535.109375" xlink:href="#DejaVuSans-47"/>
      <use x="2568.800781" xlink:href="#DejaVuSans-102"/>
      <use x="2604.005859" xlink:href="#DejaVuSans-105"/>
      <use x="2631.789062" xlink:href="#DejaVuSans-108"/>
      <use x="2659.572266" xlink:href="#DejaVuSans-116"/>
      <use x="2698.78125" xlink:href="#DejaVuSans-101"/>
      <use x="2760.304688" xlink:href="#DejaVuSans-114"/>
      <use x="2801.386719" xlink:href="#DejaVuSans-101"/>
      <use x="2862.910156" xlink:href="#DejaVuSans-100"/>
      <use x="2926.386719" xlink:href="#DejaVuSans-41"/>
     </g>
    </g>
   </g>
   <g id="line2d_21">
    <path clip-path="url(#p16c19f8139)" d="M 92.290909 363.174545 
L 123.38683 363.066044 
L 123.616255 362.600374 
L 124.28722 360.399109 
L 124.705495 356.750939 
L 125.098624 353.849887 
L 125.469347 347.798876 
L 125.911732 342.717169 
L 126.24916 336.078787 
L 126.770894 329.116093 
L 127.585857 310.870448 
L 127.807985 305.925932 
L 128.416534 290.947903 
L 130.198666 262.684809 
L 131.338148 254.553314 
L 131.686391 252.73439 
L 131.978412 248.828716 
L 132.123964 248.100848 
L 132.608083 246.609102 
L 132.953766 243.180314 
L 133.190642 242.507226 
L 133.349474 242.626717 
L 133.490659 242.829707 
L 133.544717 242.735223 
L 134.195948 241.076853 
L 134.391373 239.965504 
L 134.657589 239.652396 
L 134.999006 238.600445 
L 135.331593 237.19101 
L 135.738185 236.444103 
L 136.11138 233.760497 
L 136.586872 232.194222 
L 136.980505 228.419706 
L 137.754956 225.92501 
L 137.985204 225.399085 
L 138.140627 225.41426 
L 139.023423 225.812112 
L 139.307782 226.552186 
L 139.826482 226.982526 
L 140.104878 227.577633 
L 140.574786 227.868491 
L 141.432598 225.393332 
L 141.726943 223.106973 
L 142.190028 220.886219 
L 142.496164 217.817793 
L 142.993086 215.323408 
L 143.396695 210.985767 
L 143.810807 210.314715 
L 144.133794 210.137661 
L 144.196429 210.025236 
L 144.364919 208.798164 
L 144.617474 207.476836 
L 145.263711 205.260863 
L 145.756585 204.23559 
L 146.243943 203.51293 
L 146.49871 202.282095 
L 147.295734 201.753685 
L 147.875315 202.351617 
L 148.625956 203.22089 
L 148.86756 203.680755 
L 149.363167 203.502878 
L 149.791704 203.098514 
L 150.154369 201.612135 
L 150.480136 199.655135 
L 151.164912 193.836141 
L 151.551879 192.062289 
L 151.874376 190.309004 
L 152.159763 187.616121 
L 152.695331 185.212129 
L 153.013364 182.363731 
L 153.496723 179.939427 
L 153.725726 177.981931 
L 154.085793 177.497416 
L 154.299781 177.487372 
L 154.308907 177.505445 
L 154.464043 178.130437 
L 154.664808 178.581067 
L 155.276227 179.011333 
L 155.646488 180.71107 
L 155.952761 181.066142 
L 156.265104 181.324711 
L 156.972255 182.626712 
L 158.20846 184.47307 
L 158.400474 184.454135 
L 159.127256 182.986168 
L 159.505141 181.021924 
L 159.975943 179.443161 
L 160.483752 175.084341 
L 161.098399 172.635883 
L 161.393546 170.314232 
L 161.700817 168.671713 
L 162.134993 167.177293 
L 162.42162 166.333557 
L 162.70978 164.07982 
L 163.252056 162.593322 
L 163.543028 160.988794 
L 164.045988 159.60001 
L 164.340473 157.37071 
L 164.786473 156.671057 
L 164.858172 156.446203 
L 165.053943 156.02396 
L 165.360568 156.133703 
L 165.633853 156.534949 
L 165.798115 156.786383 
L 165.816366 156.805116 
L 165.880246 156.716778 
L 166.066078 156.68419 
L 166.655927 157.15154 
L 167.053123 158.108615 
L 167.401148 158.396563 
L 167.590769 158.134463 
L 168.106908 157.29488 
L 168.407877 155.609165 
L 168.937343 154.361823 
L 169.26176 152.445629 
L 169.749527 150.853991 
L 170.030981 149.004525 
L 170.543459 147.233822 
L 170.806949 145.579199 
L 171.65679 143.704738 
L 171.711544 143.772505 
L 172.238084 144.544281 
L 172.395969 145.014768 
L 173.034274 148.229643 
L 174.11867 150.419041 
L 174.50892 150.597173 
L 174.604379 150.498798 
L 175.425688 148.330429 
L 175.721488 146.487523 
L 176.20137 144.837548 
L 176.490709 142.781439 
L 177.159564 140.770771 
L 177.269072 141.007478 
L 177.36015 141.269991 
L 177.4159 141.229804 
L 177.666774 141.208723 
L 177.917649 141.183006 
L 177.980874 140.907264 
L 178.07213 140.578773 
L 178.117759 140.647581 
L 178.224445 140.778838 
L 178.269719 140.73282 
L 178.450816 140.690658 
L 178.713569 140.682619 
L 179.033237 140.187914 
L 179.469379 139.434825 
L 179.870153 138.217504 
L 180.311142 137.695795 
L 180.557381 137.267939 
L 181.114698 137.046112 
L 181.354405 137.115557 
L 181.832289 136.825455 
L 181.851392 136.857339 
L 182.34357 137.559641 
L 182.634961 137.880262 
L 183.348156 140.79002 
L 183.64791 141.67 
L 184.022918 143.595329 
L 185.108016 147.177179 
L 185.685684 147.672849 
L 185.947577 147.736242 
L 186.622155 146.640651 
L 186.778012 146.121929 
L 187.335625 144.121787 
L 187.544567 143.017901 
L 187.798221 141.775114 
L 188.301997 140.092253 
L 188.623191 138.412605 
L 189.132432 136.480457 
L 189.576257 133.868792 
L 190.145381 132.119242 
L 190.974882 128.380417 
L 191.267445 128.173309 
L 191.505105 128.274091 
L 191.800716 129.180802 
L 192.267347 129.332003 
L 192.33554 129.511418 
L 192.701754 130.518793 
L 193.103133 131.467569 
L 193.396476 133.004119 
L 193.959908 133.875341 
L 194.277196 134.759684 
L 194.708212 135.704667 
L 195.057251 137.301193 
L 195.547773 138.768726 
L 196.044695 141.988477 
L 196.624601 143.80296 
L 197.226407 146.661668 
L 197.743948 148.073548 
L 198.05733 149.062604 
L 198.253385 149.409412 
L 198.643635 149.594016 
L 198.778257 149.49753 
L 199.16198 148.865129 
L 199.57219 148.263523 
L 199.959076 147.175782 
L 200.347871 146.114883 
L 200.672546 144.55148 
L 201.150929 143.10695 
L 201.413891 141.870667 
L 201.944862 140.475808 
L 202.549622 137.128078 
L 202.966936 135.876028 
L 203.404015 133.510674 
L 204.034274 131.405371 
L 204.417916 130.222419 
L 204.684366 129.189553 
L 205.321357 127.958439 
L 205.518251 127.660076 
L 206.087912 127.072112 
L 206.381716 126.528408 
L 206.872719 125.891802 
L 207.210369 123.971857 
L 207.369159 123.484671 
L 207.903919 121.959771 
L 208.300655 119.402078 
L 208.556476 118.811688 
L 208.830444 118.551251 
L 209.202797 118.463591 
L 209.856873 118.770356 
L 210.13058 119.414785 
L 210.431496 119.561948 
L 211.024895 119.935107 
L 211.380169 120.332942 
L 212.627184 121.681278 
L 214.036364 121.991181 
L 214.739356 121.001195 
L 215.021935 119.65612 
L 215.246283 118.636372 
L 215.806742 117.495514 
L 216.15251 116.243162 
L 216.667589 115.243995 
L 217.138658 114.901797 
L 217.663702 114.821419 
L 218.051655 114.885725 
L 218.347533 115.432813 
L 218.709908 115.591095 
L 218.845587 115.854487 
L 219.604176 119.791873 
L 219.996685 120.764888 
L 220.269191 121.703272 
L 220.556306 123.118298 
L 221.063123 124.502614 
L 221.362369 125.888726 
L 221.893558 127.331479 
L 222.186999 128.700191 
L 222.521499 129.460759 
L 222.696617 130.102982 
L 222.964058 131.067482 
L 223.545303 132.166564 
L 223.663937 132.592685 
L 223.736942 132.532987 
L 224.530875 131.285427 
L 225.092729 129.231844 
L 225.625596 127.770861 
L 225.990981 126.740208 
L 226.263721 125.639446 
L 226.803165 124.287633 
L 227.089039 123.042461 
L 227.597097 121.776438 
L 227.86541 120.670612 
L 228.418407 119.448066 
L 228.912012 116.952936 
L 229.449606 115.618347 
L 229.945952 113.185773 
L 230.444011 111.881919 
L 231.194652 110.847131 
L 231.638344 110.92496 
L 231.749273 111.088261 
L 231.91022 111.234755 
L 232.413071 111.299675 
L 232.515829 111.468971 
L 232.698342 112.184004 
L 232.74397 112.172784 
L 232.844353 112.024115 
L 233.015981 111.768542 
L 233.601783 111.526365 
L 233.965264 111.788715 
L 234.508162 112.445839 
L 234.892695 113.201684 
L 235.071014 113.907685 
L 235.391181 115.79151 
L 235.901449 117.638929 
L 236.158249 118.946374 
L 236.66128 120.459972 
L 236.964169 122.114721 
L 237.482236 123.855886 
L 237.893836 126.830038 
L 238.494653 128.477575 
L 239.034715 131.924807 
L 239.622054 133.922362 
L 239.955755 135.094561 
L 240.263721 136.681886 
L 240.77671 138.261724 
L 241.068382 139.844856 
L 241.607217 141.367023 
L 241.902195 142.835899 
L 242.475931 144.408687 
L 242.884087 146.179893 
L 243.29582 146.278509 
L 243.791733 146.125993 
L 244.187955 145.842211 
L 244.359573 145.828787 
L 244.826347 145.772163 
L 245.177508 144.721968 
L 245.629405 144.000995 
L 245.985245 142.657139 
L 246.487217 141.435685 
L 246.780326 140.167763 
L 247.308527 138.7034 
L 247.577421 137.702365 
L 248.075082 136.44778 
L 248.558362 133.991621 
L 249.069779 132.735169 
L 249.517676 130.626857 
L 250.186998 128.754901 
L 250.529885 127.831116 
L 250.812265 126.610882 
L 251.332944 125.286038 
L 251.609361 124.227834 
L 252.099499 123.355202 
L 252.378581 122.095393 
L 253.118927 121.197044 
L 253.448313 121.356222 
L 253.679913 121.673833 
L 254.251522 123.335162 
L 254.499548 124.139943 
L 254.931407 126.158867 
L 255.521622 127.324534 
L 255.959226 129.056534 
L 256.445559 129.891778 
L 257.100362 130.340963 
L 257.569001 130.19717 
L 257.784786 129.942996 
L 258.254989 128.7421 
L 258.606096 127.867761 
L 258.902687 126.561502 
L 259.409154 125.21967 
L 259.862339 122.7873 
L 260.431228 121.468364 
L 260.935985 118.888367 
L 261.500698 117.340408 
L 261.90046 116.330353 
L 262.201908 115.030418 
L 262.685267 113.974943 
L 262.943254 112.716226 
L 263.991224 111.372967 
L 264.346137 110.983644 
L 264.565319 110.756524 
L 265.231327 110.641132 
L 265.359086 110.735525 
L 265.544288 110.848607 
L 265.846225 111.005407 
L 266.848092 111.992172 
L 266.901037 111.924179 
L 267.116904 111.833325 
L 267.485365 112.015351 
L 267.521868 111.915793 
L 267.55837 111.877688 
L 267.603999 111.955967 
L 267.667878 112.11312 
L 267.735288 112.060727 
L 268.069787 111.831411 
L 268.397931 111.907576 
L 268.625048 111.740468 
L 269.009581 111.749003 
L 269.210115 111.921962 
L 269.399775 112.081357 
L 269.66599 111.915515 
L 270.122681 111.321629 
L 270.505536 110.511629 
L 270.998745 109.996163 
L 271.28943 109.433617 
L 271.551005 109.447611 
L 272.540982 109.671988 
L 272.913417 109.785149 
L 273.435297 109.997612 
L 273.658564 110.110253 
L 274.165349 110.464673 
L 275.123544 112.442666 
L 275.672134 114.961056 
L 276.201866 116.254439 
L 276.620153 117.1182 
L 276.935571 118.408325 
L 277.477965 119.675149 
L 277.769457 120.786108 
L 278.281023 122.066457 
L 278.805694 125.063932 
L 279.284846 126.493393 
L 279.665215 128.509666 
L 280.469128 131.313692 
L 280.79058 132.478935 
L 281.059597 133.571584 
L 281.557136 135.022088 
L 281.856692 136.385818 
L 282.341942 137.745647 
L 282.653788 139.261072 
L 283.145001 140.714413 
L 283.431689 142.029093 
L 283.96631 143.477613 
L 284.496202 146.497629 
L 284.970133 148.202949 
L 285.346267 150.210676 
L 285.8579 151.850714 
L 286.642614 153.380747 
L 287.297177 153.566979 
L 287.806702 153.634965 
L 288.164115 153.549746 
L 288.599257 153.312163 
L 288.894168 153.008539 
L 289.705018 151.268715 
L 289.89799 150.812188 
L 290.332252 149.141669 
L 290.768651 148.193573 
L 291.348971 146.881854 
L 291.62427 145.811673 
L 292.133778 144.785918 
L 292.430087 143.768496 
L 292.964213 142.689285 
L 293.254963 141.69086 
L 293.767271 140.579023 
L 294.052058 139.60473 
L 294.552078 138.48898 
L 295.03078 136.402244 
L 295.559647 135.208125 
L 296.152432 133.037464 
L 296.952182 131.298571 
L 297.312342 129.914259 
L 297.803497 128.804974 
L 298.109366 127.710068 
L 298.597502 126.586827 
L 298.88755 125.557415 
L 299.418457 124.410711 
L 299.739915 123.274603 
L 300.231565 122.112125 
L 300.704108 120.232116 
L 301.44135 118.919922 
L 301.703055 118.613449 
L 301.914832 118.773528 
L 302.701294 120.020999 
L 303.004787 120.865824 
L 303.52604 121.797756 
L 303.818228 122.538526 
L 304.334787 123.404971 
L 304.607605 124.152336 
L 305.156097 125.034621 
L 305.560671 126.037817 
L 306.123417 126.757183 
L 306.504489 127.595501 
L 307.12093 128.417402 
L 308.037574 129.142452 
L 308.468712 129.071224 
L 308.794676 128.894455 
L 309.18964 128.575835 
L 309.539823 127.902987 
L 310.020075 127.229206 
L 310.586425 125.147018 
L 311.0604 124.288295 
L 311.515389 122.586286 
L 312.202672 121.11533 
L 312.547883 120.354762 
L 312.81683 119.545126 
L 313.350941 118.665366 
L 313.650715 117.50678 
L 314.199628 116.37339 
L 314.667738 114.458804 
L 315.221702 113.350421 
L 315.680337 111.490478 
L 316.339218 109.953166 
L 316.703262 109.098664 
L 317.030913 108.083406 
L 317.497266 106.88073 
L 317.782019 105.92003 
L 318.318222 104.758348 
L 318.634014 103.715754 
L 319.102674 102.636731 
L 319.61506 100.445008 
L 320.107244 99.298345 
L 320.568977 97.572368 
L 321.197143 96.036063 
L 321.55709 95.200771 
L 321.84973 93.99637 
L 322.397149 92.785186 
L 322.7027 91.67838 
L 323.191153 90.505832 
L 323.499723 89.386575 
L 323.982337 88.221419 
L 324.271256 87.147115 
L 324.803647 85.942588 
L 325.288279 83.618004 
L 325.834847 82.348463 
L 326.339778 80.043464 
L 326.964858 78.432886 
L 327.240199 77.589192 
L 327.525108 76.463695 
L 328.034131 75.196557 
L 328.30222 74.219004 
L 328.855441 73.134491 
L 329.155801 72.092634 
L 329.67675 70.897945 
L 329.952897 70.165198 
L 330.452432 69.225233 
L 330.878088 67.943275 
L 331.483631 67.221405 
L 331.772273 66.872798 
L 332.075405 66.665981 
L 332.455023 66.763886 
L 332.934612 67.008818 
L 333.279993 67.41819 
L 333.755921 67.902142 
L 334.030535 68.29877 
L 334.604608 68.815956 
L 334.882812 69.161892 
L 335.371163 69.656001 
L 335.652032 70.077183 
L 336.165096 70.589918 
L 336.577223 71.319143 
L 338.507905 72.177681 
L 338.729407 72.346971 
L 338.970501 72.419061 
L 339.514214 72.667514 
L 339.751926 72.739347 
L 340.244267 72.959371 
L 340.656944 73.414686 
L 341.001697 73.872417 
L 341.383194 74.910125 
L 341.832132 75.817342 
L 342.400217 78.583031 
L 342.863332 79.805818 
L 343.317234 82.446463 
L 343.919663 84.169254 
L 344.277809 85.213289 
L 344.577384 86.5031 
L 345.071742 87.848118 
L 345.374479 89.081249 
L 345.865675 90.363132 
L 346.150211 91.561226 
L 346.677858 92.893121 
L 346.968172 94.167684 
L 347.471791 95.475146 
L 347.976987 98.074945 
L 348.457362 99.334487 
L 348.861027 101.3115 
L 349.44064 103.151124 
L 349.947802 104.514813 
L 350.247075 105.688649 
L 350.766155 106.947103 
L 351.044609 108.048112 
L 351.589712 109.284239 
L 351.904715 110.492674 
L 352.393268 111.695558 
L 352.940659 114.183921 
L 353.378735 115.299696 
L 353.835491 117.337385 
L 354.480096 119.040723 
L 354.854451 120.000381 
L 355.13293 121.050138 
L 355.648384 122.25455 
L 355.939037 123.285523 
L 356.469694 124.395395 
L 356.772923 125.484338 
L 357.291003 126.569706 
L 357.753192 128.723949 
L 358.276575 129.762801 
L 358.712441 131.614853 
L 359.190166 132.883762 
L 359.773183 134.143272 
L 360.062845 135.120655 
L 360.567116 136.184475 
L 360.832066 137.002849 
L 361.3793 138.000858 
L 361.629161 138.579722 
L 362.593506 139.594458 
L 362.967165 139.996508 
L 363.223352 140.325562 
L 363.824977 140.837629 
L 364.260043 141.304923 
L 367.322661 142.479432 
L 368.507014 142.533902 
L 368.615949 142.408184 
L 368.865191 142.082258 
L 369.409882 141.841516 
L 369.793475 141.367486 
L 370.477584 140.844002 
L 370.848242 140.288535 
L 371.542359 139.801264 
L 371.928565 139.495991 
L 372.224013 139.191039 
L 372.786377 138.753145 
L 373.074554 138.501881 
L 373.552933 138.089318 
L 373.825702 137.79185 
L 374.383368 137.328105 
L 374.693753 136.933398 
L 375.132935 137.068833 
L 375.332437 137.326719 
L 375.772593 138.230688 
L 376.531676 138.997597 
L 376.783417 139.335094 
L 377.050157 139.743078 
L 377.622978 140.299666 
L 377.875216 140.663349 
L 378.41691 141.19858 
L 378.681426 141.529887 
L 379.229094 141.987062 
L 379.641809 142.694242 
L 380.232917 143.102111 
L 380.66095 143.695979 
L 381.647395 145.006303 
L 381.999407 145.902043 
L 382.569086 146.88576 
L 382.778472 147.143041 
L 383.937732 148.055614 
L 384.211706 148.241463 
L 384.385093 148.279267 
L 384.718118 148.178401 
L 385.341509 148.172407 
L 385.542312 148.361944 
L 386.198529 149.407904 
L 386.648257 149.99324 
L 386.873572 150.265969 
L 388.006891 150.8303 
L 388.921026 151.242254 
L 389.887867 151.973754 
L 390.061954 152.094949 
L 390.563166 152.530215 
L 391.098645 153.476831 
L 391.576115 154.008785 
L 392.694551 156.324775 
L 393.054472 156.998847 
L 393.342056 157.780716 
L 393.875781 158.668111 
L 394.166898 159.526423 
L 394.67884 160.436772 
L 394.963994 161.232497 
L 395.463647 162.178727 
L 395.944935 164.015889 
L 396.458344 165.028414 
L 396.869236 166.439929 
L 397.443126 167.791648 
L 397.927575 168.763325 
L 398.206906 169.660766 
L 398.758011 170.655352 
L 399.060311 171.581817 
L 399.551943 172.552998 
L 399.857406 173.477804 
L 400.345876 174.448445 
L 400.635557 175.31798 
L 401.167185 176.281718 
L 401.64407 178.083323 
L 402.161882 179.069574 
L 402.614791 180.75284 
L 403.322141 182.137725 
L 403.612863 182.78766 
L 403.889345 183.531792 
L 404.379418 184.42704 
L 404.666521 185.372305 
L 405.218979 186.392593 
L 405.500406 187.263127 
L 406.05854 188.265492 
L 406.565357 189.965219 
L 407.02586 190.812934 
L 407.426978 192.272117 
L 407.986339 193.546906 
L 408.553046 194.588509 
L 408.855763 195.397375 
L 409.343778 196.284425 
L 409.650189 197.141302 
L 410.131503 198.037902 
L 410.422078 198.85171 
L 410.931643 199.800009 
L 411.219174 200.633791 
L 411.725576 201.612447 
L 412.22799 203.316677 
L 412.711147 204.217406 
L 413.122796 205.589684 
L 413.669176 206.769654 
L 414.183479 207.734407 
L 414.479396 208.533548 
L 414.967932 209.424243 
L 415.276419 210.272927 
L 415.771488 211.186882 
L 416.073443 211.976118 
L 416.555941 212.846902 
L 416.852164 213.653423 
L 417.383486 214.544705 
L 417.832768 215.973008 
L 418.408417 216.791109 
L 418.851026 218.010969 
L 419.518286 218.974903 
L 419.856541 219.499526 
L 420.144988 220.0512 
L 420.67785 220.715231 
L 420.978874 221.299725 
L 421.508285 221.981064 
L 421.802596 222.559698 
L 422.302218 223.209215 
L 422.783537 224.36863 
L 423.173786 224.762177 
L 423.296915 225.043508 
L 423.678607 225.872158 
L 424.341051 226.821565 
L 424.766147 227.411381 
L 425.03744 227.946172 
L 425.569205 228.580083 
L 425.843723 229.0586 
L 426.390515 229.701691 
L 426.677609 230.198766 
L 427.211824 230.79829 
L 427.685577 231.851162 
L 428.206521 232.470864 
L 428.592657 233.251422 
L 429.290387 234.144644 
L 429.712255 234.6235 
L 430.003857 235.127912 
L 430.515314 235.725322 
L 430.800953 236.185999 
L 431.309246 236.760755 
L 431.576764 237.194451 
L 432.130556 237.801603 
L 432.588949 238.709535 
L 433.161756 239.285944 
L 433.604823 240.104206 
L 434.385533 240.957755 
L 434.630987 241.319973 
L 434.878624 241.630104 
L 435.42492 242.157213 
L 435.712509 242.57658 
L 436.264481 243.114623 
L 436.546395 243.504449 
L 437.08579 244.010909 
L 437.581909 244.885639 
L 438.11699 245.403445 
L 438.381848 245.636246 
L 438.775712 245.722357 
L 440.288898 245.930564 
L 440.986655 246.043893 
L 442.688947 246.368921 
L 443.180164 246.525752 
L 444.127292 246.76113 
L 445.920863 247.353726 
L 446.393748 247.587595 
L 446.78173 247.842422 
L 447.080976 248.118281 
L 447.652149 248.59002 
L 447.890413 248.724168 
L 448.428988 249.095093 
L 448.945171 249.637445 
L 449.405434 249.987198 
L 449.759997 250.329214 
L 450.364014 250.6716 
L 450.975048 251.006172 
L 451.188454 251.119235 
L 451.759854 251.393042 
L 452.09705 251.78417 
L 452.489907 252.312573 
L 452.782645 252.874265 
L 453.292966 253.533126 
L 453.773185 254.622738 
L 454.305914 255.244147 
L 454.747226 256.202156 
L 455.442843 257.039627 
L 455.820774 257.504113 
L 456.118369 258.013959 
L 456.614707 258.60085 
L 456.896635 259.086495 
L 457.445142 259.68639 
L 457.932908 260.700378 
L 458.439839 261.285297 
L 458.815127 261.98152 
L 459.481969 262.78269 
L 459.954699 263.321652 
L 460.223314 263.73709 
L 460.739506 264.297906 
L 461.020409 264.742505 
L 461.533438 265.266705 
L 461.797987 265.672198 
L 462.363874 266.225203 
L 462.631872 266.616658 
L 463.203434 267.158662 
L 463.668546 267.949383 
L 464.189006 268.451844 
L 464.637753 269.183287 
L 465.311851 269.784402 
L 465.63086 270.135998 
L 465.913821 270.487283 
L 466.424793 270.966355 
L 466.683042 271.291624 
L 467.218726 271.777659 
L 467.480137 272.091849 
L 468.012658 272.568579 
L 468.274745 272.878497 
L 468.811458 273.363905 
L 469.082005 273.648399 
L 469.632413 274.107179 
L 470.119646 274.784094 
L 470.631723 275.218612 
L 471.106999 275.840061 
L 471.751818 276.29273 
L 472.086828 276.596669 
L 472.37088 276.905683 
L 472.880833 277.326833 
L 473.149716 277.615556 
L 473.720892 278.041 
L 474.001429 278.312775 
L 474.510129 278.725536 
L 474.964154 279.302547 
L 475.536865 279.724423 
L 476.013166 280.31409 
L 476.686606 280.774549 
L 476.988415 281.064766 
L 477.264038 281.312138 
L 477.758865 281.468457 
L 477.999181 281.423422 
L 479.071353 281.529919 
L 479.757341 281.484054 
L 498.109091 281.476064 
L 498.109091 281.476064 
" style="fill:none;stroke:#1f77b4;stroke-linecap:square;stroke-width:1.5;"/>
   </g>
   <g id="patch_3">
    <path d="M 72 378 
L 72 51.84 
" style="fill:none;stroke:#000000;stroke-linecap:square;stroke-linejoin:miter;stroke-width:0.8;"/>
   </g>
   <g id="patch_4">
    <path d="M 518.4 378 
L 518.4 51.84 
" style="fill:none;stroke:#000000;stroke-linecap:square;stroke-linejoin:miter;stroke-width:0.8;"/>
   </g>
   <g id="patch_5">
    <path d="M 72 378 
L 518.4 378 
" style="fill:none;stroke:#000000;stroke-linecap:square;stroke-linejoin:miter;stroke-width:0.8;"/>
   </g>
   <g id="patch_6">
    <path d="M 72 51.84 
L 518.4 51.84 
" style="fill:none;stroke:#000000;stroke-linecap:square;stroke-linejoin:miter;stroke-width:0.8;"/>
   </g>
   <g id="legend_1">
    <g id="patch_7">
     <path d="M 375.859375 74.518125 
L 511.4 74.518125 
Q 513.4 74.518125 513.4 72.518125 
L 513.4 58.84 
Q 513.4 56.84 511.4 56.84 
L 375.859375 56.84 
Q 373.859375 56.84 373.859375 58.84 
L 373.859375 72.518125 
Q 373.859375 74.518125 375.859375 74.518125 
z
" style="fill:#ffffff;opacity:0.8;stroke:#cccccc;stroke-linejoin:miter;"/>
    </g>
    <g id="line2d_22">
     <path d="M 377.859375 64.938438 
L 397.859375 64.938438 
" style="fill:none;stroke:#1f77b4;stroke-linecap:square;stroke-width:1.5;"/>
    </g>
    <g id="line2d_23"/>
    <g id="text_14">
     <!-- position drift vs time -->
     <g transform="translate(405.859375 68.438438)scale(0.1 -0.1)">
      <use xlink:href="#DejaVuSans-112"/>
      <use x="63.476562" xlink:href="#DejaVuSans-111"/>
      <use x="124.658203" xlink:href="#DejaVuSans-115"/>
      <use x="176.757812" xlink:href="#DejaVuSans-105"/>
      <use x="204.541016" xlink:href="#DejaVuSans-116"/>
      <use x="243.75" xlink:href="#DejaVuSans-105"/>
      <use x="271.533203" xlink:href="#DejaVuSans-111"/>
      <use x="332.714844" xlink:href="#DejaVuSans-110"/>
      <use x="396.09375" xlink:href="#DejaVuSans-32"/>
      <use x="427.880859" xlink:href="#DejaVuSans-100"/>
      <use x="491.357422" xlink:href="#DejaVuSans-114"/>
      <use x="532.470703" xlink:href="#DejaVuSans-105"/>
      <use x="560.253906" xlink:href="#DejaVuSans-102"/>
      <use x="595.443359" xlink:href="#DejaVuSans-116"/>
      <use x="634.652344" xlink:href="#DejaVuSans-32"/>
      <use x="666.439453" xlink:href="#DejaVuSans-118"/>
      <use x="725.619141" xlink:href="#DejaVuSans-115"/>
      <use x="777.71875" xlink:href="#DejaVuSans-32"/>
      <use x="809.505859" xlink:href="#DejaVuSans-116"/>
      <use x="848.714844" xlink:href="#DejaVuSans-105"/>
      <use x="876.498047" xlink:href="#DejaVuSans-109"/>
      <use x="973.910156" xlink:href="#DejaVuSans-101"/>
     </g>
    </g>
   </g>
  </g>
 </g>
 <defs>
  <clipPath id="p16c19f8139">
   <rect height="326.16" width="446.4" x="72" y="51.84"/>
  </clipPath>
 </defs>
</svg>
